<svg version="1.1" xmlns="http://www.w3.org/2000/svg" xmlns:xlink="http://www.w3.org/1999/xlink" width="988.85369" height="591.74999" viewBox="0,0,988.85369,591.74999"><g transform="translate(120.56105,33.81249)"><g data-paper-data="{&quot;isPaintingLayer&quot;:true}" fill-rule="nonzero" stroke="none" stroke-linecap="butt" stroke-linejoin="miter" stroke-miterlimit="10" stroke-dasharray="" stroke-dashoffset="0" style="mix-blend-mode: normal"><path d="M-120.56104,259.18752v-293h729v293z" fill="#73bbc7" stroke-width="0"/><path d="M-97.70735,557.93751v-303h966v303z" fill="#92b066" stroke-width="0"/><path d="M467.29265,71.93752v-1h1v1z" fill="#66af7c" stroke-width="0"/><path d="M132.80466,270.6054c0.70711,0.70711 0,1.41421 0,1.41421l-0.4453,0.33095c-0.09904,0.24558 -0.20569,0.47697 -0.31919,0.6957c1.31101,4.66578 -0.48514,10.30457 -2.76236,14.04896c-0.63716,1.04767 -2.534,4.63277 -4.07668,4.52386c-0.77849,-0.05496 -0.80476,-1.34742 -1.07727,-2.07872c-0.54354,-1.45859 -0.78039,-3.19303 -1.05603,-4.7989c-1.34283,1.45281 -2.98142,2.452 -5.10445,2.52938c-0.34719,0 -0.69438,0 -1.04157,0c-1.64791,2.93172 -3.76182,5.72995 -5.49316,8.5267c-0.35176,0.56822 -2.23797,3.59791 -2.66319,3.79066c-1.92793,0.87389 -3.29991,-2.5398 -3.90731,-3.51923c-0.59902,-1.80923 -1.177,-3.60106 -1.65887,-5.44591c-0.15978,-0.61172 -0.35303,-1.21584 -0.47647,-1.83592c-0.07551,-0.37933 0.26264,-1.09009 -0.11878,-1.15422c-0.37958,-0.06382 -0.23657,0.74813 -0.46822,1.05552c-0.36095,0.47898 -0.85186,0.8445 -1.28008,1.26442c-0.95875,0.94019 -1.93524,1.86236 -2.92063,2.77458c-4.57197,4.23245 -7.64309,10.63144 -12.50585,14.47942l0.18852,0.2361l-1.55661,1.24295c-0.172,0.13979 -0.39134,0.22357 -0.63026,0.22357c-0.55228,0 -1,-0.44772 -1,-1c0,-0.00014 0,-0.00029 0,-0.00043l0.00074,-1.99994h0.00105l-0.00103,-0.0053c0.02253,-2.05585 0.04483,-4.04701 0.27012,-6.09204c0.46442,-4.19246 0.84769,-8.38063 1.52612,-12.54094c-1.04565,0 -2.09131,0 -3.13696,0c-2.86103,2.70668 -6.51444,4.76577 -9.72673,7.17499c-7.34154,5.50615 -15.26548,10.17535 -22.57358,15.68997c-1.83755,1.3866 -5.65353,4.63357 -8.31564,3.29261c-0.9552,-0.48116 0.0139,-4.5169 0.09547,-5.0698c1.73098,-6.0805 2.85978,-12.60685 5.98784,-18.20125c0.42072,-0.75244 0.92735,-1.48228 1.47285,-2.19854c-0.06117,0.00615 -0.12265,0.0118 -0.18446,0.01694c-2.16324,0.17978 -4.28036,0.17094 -6.37407,0.03009c-0.04159,0.86037 0.05483,1.85319 -0.63185,2.21442c-0.84875,0.44649 -1.82574,-0.59788 -2.70347,-0.98428c-1.23664,-0.5444 -2.45145,-1.27237 -3.64613,-1.98785c-0.18782,-0.00032 -0.37565,-0.00066 -0.56348,-0.00099c-0.07474,-0.00521 -0.14947,-0.01041 -0.22419,-0.01559c-5.68415,2.43518 -11.3769,4.92939 -16.7707,7.94585c-2.57071,1.43766 -5.09384,3.29976 -7.4055,5.11679c-0.18786,0.14766 -3.24213,2.55769 -3.3447,2.59323c-3.63256,1.25854 -3.08511,-0.82838 -3.08497,-3.27774c0.0007,-5.078 0.90929,-9.55359 2.51237,-13.96983c-0.91278,-0.29735 -1.68492,-0.74877 -2.14692,-1.43505c-0.20894,-0.31037 -0.2615,-0.6756 -0.25723,-1.05983c-0.74455,-0.46275 -0.33609,-1.27969 -0.33609,-1.27969l0.25762,-0.46199c0.01809,-0.07055 0.03533,-0.1412 0.05179,-0.21194c-2.5415,-0.15659 -5.09468,-0.24052 -7.68261,-0.16539c-5.03403,0.71673 -10.31824,0.28653 -15.39904,0.28653c-0.90391,0 -5.28229,0.58079 -5.60455,-0.98639c-0.07544,-0.36689 1.5683,-3.48533 1.88883,-4.11122c1.15402,-2.25342 2.32066,-5.36928 4.00012,-7.26757c1.05832,-1.19622 3.49257,-2.09235 4.85444,-2.88988c1.24802,-0.48195 2.28316,-1.40129 3.47848,-2.00216c1.77147,-0.89049 4.7876,-0.40945 6.71602,-0.40945c0.02999,0 0.05997,0 0.08996,0c-1.73528,-5.57412 -2.79735,-11.44227 -3.95789,-17.09068c-1.64016,-7.98273 -1.26998,-15.9452 -1.2702,-24.07832c-0.00008,-3.13738 -0.6733,-7.1737 0.02512,-10.22328c0.62005,-2.70732 2.51239,-4.65304 2.91899,-7.49621c0.55249,-0.77168 0.77115,-1.97568 1.65747,-2.31507c0.82354,-0.31534 1.71321,0.42621 2.55019,0.70392c3.03137,1.00584 3.94646,3.61174 5.56031,6.18679c0.13402,0.21383 2.16887,3.4483 2.21574,3.57614c0.68361,1.86433 0.31696,4.10074 0.87599,6.00069c0.72482,2.4634 2.32168,4.79703 3.29568,7.17788c1.5184,3.71158 2.68471,7.43758 4.46581,11.04451c0.23194,0.4762 0.46386,0.9524 0.6958,1.42859c0.68105,-4.12425 3.12271,-8.59653 4.37167,-12.39786c2.49133,-7.58262 4.72487,-15.25876 7.02486,-22.90094c0.64785,-2.52273 1.01734,-5.47626 2.03343,-7.87051c0.77956,-1.83692 2.29573,-3.36114 3.16299,-5.15673c0.47402,-0.98143 1.08691,-4.11746 2.64555,-4.14338c1.68534,-0.02803 3.21364,4.96703 3.50811,6.12633c0.64828,2.55221 1.64647,5.26826 1.97178,7.87888c0.40637,3.2611 0.01875,6.83452 0.01999,10.12342c0.00026,3.30975 0.00035,6.61952 0.00038,9.92927c0.55118,-1.31189 1.20353,-2.58505 1.60879,-3.63941c1.38258,-3.59706 2.39117,-8.06973 4.3833,-11.36021c3.02071,-4.98943 8.0074,-9.12373 11.36476,-13.99765c2.28288,-3.31409 4.37481,-6.90752 7.17407,-9.8029l0.00366,-0.00244l-0.00064,-0.00063l1.40445,-1.42311c0.18135,-0.18395 0.43344,-0.29798 0.71215,-0.29798c0.54265,0 0.98435,0.43224 0.99959,0.9712l0.06548,1.99491l-0.1499,0.00492c0.65724,4.6043 0.41507,9.39438 0.42231,14.02201c0.01275,8.14091 0.45164,16.10885 -1.29923,24.07636c-0.47994,2.18406 -1.01191,4.34031 -1.33341,6.54535c1.20858,-1.86543 3.30218,-3.58918 4.607,-5.05587c6.4951,-7.30083 15.13037,-13.62531 22.66944,-19.85638c6.17264,-5.10138 12.1912,-10.50234 18.76665,-15.0748c1.71923,-1.19553 3.28886,-2.52762 5.33262,-3.1409c0.92215,-0.27671 2.03998,-1.2 2.81809,-0.63302c0.77811,0.56698 0.23846,1.914 0.26086,2.87651c0.06092,2.6184 -0.39676,5.36457 -0.59007,7.97821c-0.55292,7.37618 -2.51716,14.60416 -5.12828,21.62272c3.45924,-4.94008 7.3615,-9.5581 11.41699,-14.0709c2.45273,-2.72931 4.3739,-5.10441 7.90287,-6.45634c0.89123,-0.34142 1.90535,-1.32707 2.73334,-0.85243c1.08645,0.6228 0.79862,5.70868 0.80522,6.85127c0.01529,2.64458 0.31623,5.48204 0.03965,8.11017c-0.55018,5.22814 -2.31228,10.59989 -3.43647,15.73949c-1.29085,5.90155 -4.22791,11.281 -5.53114,17.08964c-0.06924,0.30863 -0.12985,0.62214 -0.18312,0.93964c0.60817,0.0035 1.2163,0.00547 1.8244,0.00574c0.33263,-0.09825 0.65602,0.01078 0.65602,0.01078l1.98206,0.74419c2.60593,2.22767 4.61478,3.12488 4.69809,6.83c-0.00232,3.78185 0.74999,8.6258 -0.35487,12.27595c-0.79131,2.61426 -2.38978,4.90441 -4.03478,7.14618c0.25567,-0.06513 0.57887,-0.03738 0.90206,0.28581zM41.8745,285.25676c0.40302,0.00037 0.80603,0.00073 1.20905,0.00108c-0.39272,-0.14463 -0.77757,-0.30309 -1.15274,-0.47648c-0.01815,0.15863 -0.03685,0.31713 -0.05631,0.4754zM39.90137,288.45464c0.198,-0.11469 0.08041,-0.33803 -0.07101,-0.58576c-0.16172,-0.01601 -0.32333,-0.03272 -0.48485,-0.05011c0.17261,0.34993 0.29677,0.78594 0.55585,0.63587z" fill="#bee484" stroke-width="0.5"/><path d="M191.52165,257.23015c0,0 0.62404,0.41602 0.20801,1.04006c-0.41602,0.62404 -1.04006,0.20801 -1.04006,0.20801c-0.53821,-0.3588 -1.12586,-0.67054 -1.72682,-0.96443c-0.73515,1.57432 -1.43319,3.16953 -2.18633,4.6758c0,0 -0.33541,0.67082 -1.00623,0.33541c-0.67082,-0.33541 -0.33541,-1.00623 -0.33541,-1.00623c0.66938,-1.33875 1.29666,-2.74463 1.94396,-4.14474c-1.54735,0.53485 -3.10097,1.15858 -4.85946,1.19848l-1.39678,0.03148c0,0 -0.74981,0.0169 -0.76671,-0.73291c-0.0169,-0.74981 0.73291,-0.76671 0.73291,-0.76671l1.39679,-0.03148c1.3993,-0.03131 2.64299,-0.41177 3.86007,-0.83003c-0.32187,-0.17434 -0.63072,-0.35691 -0.91976,-0.55318c-0.87358,-0.5932 -1.35939,-1.61732 -2.0774,-2.39159c-3.23961,-3.49341 -9.17047,-12.72902 -5.61178,-17.06836c0.34391,-0.019 3.14701,-0.20932 3.53896,-0.0948c2.88282,0.84232 4.8553,4.04567 7.38908,5.35641c2.12103,1.09722 4.83406,2.12467 6.97585,3.54194c1.61846,-1.93246 3.20259,-3.89271 4.50697,-6.06211c5.32924,-8.86339 10.97154,-18.74578 19.73706,-24.55602c3.30975,-2.19387 7.16135,-3.69669 10.37593,-5.95754c0.46693,-0.3284 1.90472,-1.91262 2.33927,-2.10255c0.43171,-0.18868 3.50825,-0.31789 3.80664,-0.04212c0.28285,0.2614 0.32518,2.9973 0.34354,3.52049c0.11965,3.40846 0.6461,7.43759 -0.41255,10.68535c-1.8173,5.46036 -3.05922,12.22278 -6.27803,17.05481c-0.62874,0.94386 -4.45063,3.90196 -3.35332,5.43254c0.29961,0.41791 4.62764,-0.89835 5.15493,-1.01112c4.22856,-0.90437 9.15561,-4.38625 12.3419,-7.40908c2.51324,-2.3843 4.02738,-5.82367 6.5402,-8.21324c1.42351,-1.35369 3.35713,-2.41674 4.95522,-3.563c1.57815,-1.13196 3.24114,-2.71359 4.98445,-3.56199c2.64678,-1.28808 5.79127,-1.69333 8.51993,-2.91526c0.76015,-0.34041 4.02163,-2.27034 4.73439,-1.88809c0.38129,0.20448 0.75437,3.01306 0.80632,3.55746c0.2862,2.99869 -1.14565,6.27962 -1.96024,9.15408c-4.44852,5.47771 -8.58599,11.15239 -12.94267,16.70185c-0.95585,1.21755 -1.99547,2.28288 -3.08228,3.38357c-0.52191,0.52857 -2.02698,0.94783 -1.59738,1.55381c0.42202,0.59529 1.47131,0.01028 2.18211,0.17534c9.40881,-4.50521 19.34699,-7.77034 28.93432,-11.86818c5.544,-2.36963 11.58169,-3.36346 17.50135,-4.54538c0.99107,-0.19788 3.95204,-1.64859 4.82936,-1.14608c0.60707,0.34771 0.62427,1.26167 0.8102,1.9361c1.04039,3.77391 -1.1378,4.39737 -3.97309,6.02739c-1.73558,0.99615 -3.21445,2.44519 -4.95801,3.39712c-1.34467,0.73415 -2.7845,1.36353 -4.27384,1.8904c1.91878,-0.39503 3.7975,-0.93579 5.73067,-1.24669c2.90411,-0.46705 6.16847,-0.27865 9.10921,-0.30251l0.00148,0.00034v-0.00035l1.49946,-0.00618c0.00121,0 0.00241,-0.00001 0.00362,-0.00001c0.41422,0 0.75,0.33578 0.75,0.75c0,0.26044 -0.13275,0.48988 -0.33428,0.62434l-1.22726,0.84329l-0.11416,-0.16615c-3.03922,2.46043 -7.62678,4.65921 -11.0401,5.31465c-0.96058,0.18446 -1.99258,-0.18572 -2.93324,0.08245c-0.93307,0.26601 -1.58706,1.14604 -2.48234,1.52004c-1.47289,0.6153 -3.13891,-0.03252 -4.47462,0.47448c-0.9342,0.35459 -1.34308,1.5861 -2.27107,1.95665c-0.86698,0.34619 -1.90029,0.2529 -2.70471,0.72662c-3.28907,1.84629 -6.95867,1.37137 -10.61486,1.37139c-7,0.00002 -14,0 -21,0c-10.5,0 -21,0 -31.5,0c-10.5,0 -21,0 -31.5,0c-0.20547,-0.00249 -0.40865,0.00448 -0.60991,0.01963c0.35255,0.18946 0.69532,0.38954 1.02053,0.60634z" fill="#bee484" stroke-width="0.5"/></g></g></svg>