<svg version="1.1" xmlns="http://www.w3.org/2000/svg" xmlns:xlink="http://www.w3.org/1999/xlink" width="414.24828" height="402.77787" viewBox="0,0,414.24828,402.77787"><g transform="translate(-29.3282,53.42021)"><g data-paper-data="{&quot;isPaintingLayer&quot;:true}" fill-rule="nonzero" stroke-linejoin="miter" stroke-miterlimit="10" stroke-dasharray="" stroke-dashoffset="0" style="mix-blend-mode: normal"><path d="" fill="#444444" stroke="none" stroke-width="0.5" stroke-linecap="butt"/><path d="" fill="#c3c3c3" stroke="none" stroke-width="0" stroke-linecap="butt"/><path d="" fill="#9e9e9e" stroke="none" stroke-width="0" stroke-linecap="butt"/><g><path d="M382.29565,72.61832c-0.29656,-0.17392 -0.56816,-0.49249 -0.56816,-1.07598c0,-1.28511 1.3174,-1.28511 1.3174,-1.28511c4.21901,0.06245 6.80638,3.06121 10.29573,4.8711c2.29733,1.1916 5.41295,2.20283 8.15183,3.55055c0.10921,-0.3786 0.29168,-0.6923 0.56582,-0.91244c1.76865,-1.42021 3.66678,1.47942 4.63222,2.18708c1.76292,1.29221 4.15115,2.08879 5.80709,3.50981c1.57239,1.34934 2.20648,3.83765 3.05742,5.75248c0.70778,0.764 1.32711,1.47263 1.8028,1.98943c7.20385,7.82651 11.86377,17.99899 15.72436,27.64298c-0.02339,2.51358 1.31246,5.97888 1.76329,8.60454c0.15086,0.87865 1.36881,2.65131 0.71731,3.42109c-2.05761,2.43115 -6.91328,0.83463 -9.08913,0.12166c-1.51837,-0.49753 -2.7826,-0.07991 -4.1581,-0.95728c-3.91156,-2.495 -5.66136,-8.04334 -9.02381,-11.32339c-4.87239,-4.76009 -11.62851,-9.0846 -15.16046,-14.86684c-1.21835,-1.99459 -2.00906,-5.08902 -3.47219,-7.21303c-1.84742,-2.68188 -4.69088,-5.39193 -5.70872,-8.56737c-3.78561,-3.69282 -6.78373,-10.14974 -6.78373,-15.24014z" fill="#9e9e9e" stroke="none" stroke-width="0.5" stroke-linecap="butt"/><path d="M410.78659,115.56189c-0.19646,-0.20126 -0.38931,-0.40891 -0.57858,-0.62231c0.10244,0.15929 0.20568,0.31818 0.30977,0.47663c0.09184,0.04929 0.18199,0.09887 0.27028,0.14848c-0.00049,-0.00094 -0.00098,-0.00186 -0.00147,-0.0028zM403.78876,102.8986c-0.01242,-0.03587 -0.02478,-0.07165 -0.03707,-0.10736l-0.42941,-1.25664c-0.05005,-0.13581 -0.07733,-0.28222 -0.07733,-0.43484c0,-0.70975 0.58982,-1.28511 1.3174,-1.28511c0.54769,0 1.01732,0.32603 1.21607,0.78998l1.05788,2.32188l-0.20511,0.08893c0.00122,0.00311 0.00244,0.00621 0.00367,0.00933c2.21564,2.9919 4.25802,6.47249 6.02389,9.98499c0.47504,0.68205 0.95014,1.37861 1.43056,2.08992l-0.00318,0.18084l0.06953,-0.02261l0.42941,1.25664c0.05005,0.13581 0.07733,0.28222 0.07733,0.43484c0,0.08778 -0.00902,0.17351 -0.02621,0.25634c0.29301,0.66428 0.57434,1.32302 0.84326,1.97301c2.30688,2.17844 4.34864,4.5488 6.86744,6.4839c0.41641,1.45133 2.09305,2.97812 1.38141,4.31582c-0.47262,0.8884 -3.11656,0.91446 -5.33473,0.82015l0.03329,0.05412l-0.67824,0.39698c0.12548,0.42227 0.24472,0.84841 0.35933,1.27714l-1.24672,-0.58763l-0.49556,0.48341l-1.3174,-1.28511l0.03652,-0.03562l-0.12378,-0.05834c-0.0877,-0.12773 -0.17357,-0.25647 -0.25772,-0.38615c-7.72089,0.00122 -14.84267,-0.10238 -19.62385,-7.06583c-2.39506,-4.67272 -7.42938,-8.89323 -8.90408,-13.98041c-1.47588,-5.09125 0.08144,-13.3549 1.71701,-18.14135c-0.01017,-0.64529 -0.01509,-1.29066 -0.01654,-1.93602c-0.00016,0.00001 -0.00031,0.00002 -0.00047,0.00004c0,0 -1.3174,0 -1.3174,-1.28511c0,-1.28511 1.3174,-1.28511 1.3174,-1.28511c0.26748,0.01017 0.53043,0.03915 0.78897,0.08518c0.14704,-0.05347 0.32148,-0.08518 0.52843,-0.08518c0.65255,0 0.98187,0.31531 1.14807,0.63356c2.78416,1.3238 5.01779,4.42588 6.9283,6.57772c2.24578,2.52947 4.06156,5.26595 5.71544,8.07891c0.27329,0.2127 0.54124,0.42763 0.80422,0.64482z" fill="#707070" stroke="none" stroke-width="0.5" stroke-linecap="butt"/><path d="M84.87429,75.39765c0,0.65238 -0.33949,0.97358 -0.6738,1.13172c-0.04666,0.21245 -0.08994,0.42339 -0.13008,0.63309c0.02875,-0.00895 0.04524,-0.01297 0.04524,-0.01297c4.79719,-1.14504 10.31519,-0.46674 15.25,-0.46674c9.73806,0 19.53395,0.33893 29.24476,-0.38455c17.9129,-2.99357 35.1771,-3.47077 53.31205,-3.47077c16.39426,0 32.78852,0 49.18278,0c17.51374,0 35.12062,-0.85673 52.69583,-0.85673c15.516,0 31.03199,0 46.54799,0c14.63773,0 29.27546,0 43.9132,0c8.16213,0 12.7716,5.055 15.19999,11.48548c-2.46517,1.02069 -2.46517,3.93578 -2.46517,3.93578c0,6.39556 1.26748,14.05615 0.0567,20.30387c-0.49233,2.54048 -1.43184,5.2766 -2.45877,7.97025l-1.47567,0.01298c-17.8609,1.46496 -36.11774,0.76665 -54.14694,0.50063c-1.44234,-2.95837 -4.95798,-2.101 -4.95798,-2.101l-2.88496,0.75009c-5.21515,0.50874 -10.33119,1.13457 -15.45227,1.72119c-1.04298,-0.14727 -2.08683,-0.28812 -3.13176,-0.42059c-0.09241,0.29049 -0.20719,0.56358 -0.34273,0.81055c-1.27339,0.13927 -2.54853,0.27394 -3.82704,0.40162c-0.88307,0.01886 -1.767,0.03157 -2.65211,0.03514c-26.06937,-0.01714 -52.12316,-0.22876 -78.14335,0.84001c-1.24185,-0.83898 -2.72283,-0.83898 -2.72283,-0.83898h-2.19566c-8.65467,0 -17.72424,0.60424 -26.41718,2.14184c-14.9074,0 -29.81479,0 -44.72219,0c-15.85662,0 -31.6637,0.85673 -47.42625,0.85673c-1.50856,0 -3.80193,0.37904 -5.21222,-0.05514c-0.17848,-0.05495 -0.35167,-0.12017 -0.51976,-0.19484c1.38163,8.48703 2.28104,16.91553 2.28104,25.78609c0,11.42139 1.32997,23.80846 -1.44456,34.92385c-0.21,0.7935 -0.39655,1.57514 -0.56703,2.34707c0.41452,0.27592 0.55568,0.75785 0.55568,0.75785c0.86742,3.01451 0.69939,6.64133 -0.18148,9.94708c0.30348,2.88074 -0.21414,6.31974 -1.03932,7.56275c-1.61923,2.43911 -3.13695,2.35193 -4.09609,1.17159c-0.20136,0.09619 -0.45093,0.1556 -0.734,0.09942c-0.43067,1.21846 -0.88395,2.53445 -1.5656,3.28071c-3.59724,3.93813 -11.84748,3.42555 -11.00776,-2.71056c2.80686,-3.3571 6.75396,-5.47196 9.23163,-9.08184c0.17213,-0.25079 0.33364,-0.51324 0.48504,-0.78642v-0.56232c0,-7.61318 -1.09791,-16.31061 0.25824,-23.98863h-0.25824v-2.39886c0,-0.46902 0.25758,-0.87938 0.64228,-1.10377c-0.42505,-2.15612 -1.06983,-4.22572 -2.01227,-6.14025c-0.07093,-5.1765 -1.20204,-11.1005 -2.13034,-16.22366c-1.08944,-6.01249 -0.01273,-13.24135 -0.01273,-19.36914c0,-0.29946 -0.00701,-0.59879 -0.0205,-0.898c-0.23808,-1.43042 -0.54769,-2.84308 -0.98088,-4.22582c-1.2225,-3.90221 -3.68881,-8.82738 -3.3718,-13.06688c-0.05554,-0.23543 -0.10849,-0.47042 -0.15856,-0.70495c-1.00028,-4.68557 -4.5286,-9.00577 -4.60221,-14.00305c0,-4.00984 -0.35131,-7.96615 -0.35131,-11.99431v-0.3427c0,0 0,-1.28511 1.3174,-1.28511c1.3174,0 1.3174,1.28511 1.3174,1.28511v0.3427c0,0.60522 0.00792,1.20874 0.02139,1.81097c2.60965,0.05662 5.44219,0.2751 7.94364,-0.28222c0.75426,-0.16805 1.45402,-0.9553 2.19464,-0.73702c0.38614,0.1138 0.71056,0.24281 0.98373,0.38577c0.12202,-1.58648 0.35054,-3.1632 0.77819,-4.83581l1.71719,-0.97342c0,0 1.3174,0 1.3174,1.28511zM239.86797,107.13991c-13.47083,-2.33235 -27.22239,-1.92155 -40.88977,-1.78799c5.04084,0.92342 10.11983,1.74487 15.45781,1.7451c8.40324,0.22117 16.91823,0.07595 25.43196,0.04289zM300.23839,113.25958c-0.06771,-0.15784 -0.18721,-0.27106 -0.37194,-0.31757c-4.00015,-1.00728 -8.38393,-1.35942 -12.85534,-1.51121c2.50882,0.43418 5.01116,0.8713 7.50529,1.30687c1.91255,0.13193 3.8194,0.30994 5.72199,0.52191z" fill="#9e9e9e" stroke="none" stroke-width="0.5" stroke-linecap="butt"/><path d="M34.17276,84.99846h0.69235l0.48394,-0.65169c0,0 0.93154,-0.90871 1.86308,0c0.1367,0.13335 0.23328,0.2667 0.29857,0.39718c0.06919,-0.0159 0.13817,-0.03251 0.2069,-0.04982c0,0 0.82969,-0.20235 1.31921,0.37114c0.16521,-0.05081 0.28626,-0.06154 0.28626,-0.06154c4.22013,-0.37303 8.72263,-0.67632 12.88807,-1.3576c5.24323,-0.85757 10.70497,-3.06576 14.97189,-1.96835l0.57038,3.20744c-0.02697,1.17795 0.0272,2.2701 0.14469,3.11182c0.56008,4.01235 2.68915,10.468 5.39113,16.06447c0.67399,8.01811 2.90028,18.41836 6.0449,27.76193c0.04722,2.09783 0.06923,4.22159 0.06923,6.37837c0,14.42664 0.70261,29.12164 0.70261,43.69357c0,4.4779 1.10972,10.40394 -0.03524,14.68843c-1.73031,6.47489 -11.64868,12.5992 -17.62013,7.51452c-2.93321,-2.49763 -4.45726,-6.4555 -6.56727,-9.53861c-4.34878,-5.47913 -7.50578,-11.37838 -9.91228,-17.68217c0.28291,-5.76726 -0.79996,-14.37845 -2.70795,-21.55551c0.95841,-8.66474 -4.79469,-23.40318 -4.47366,-30.18713c0.41308,-8.72902 -3.20694,-17.31281 -3.91406,-25.86799c-0.2804,-3.39246 -0.21186,-6.54789 -0.86341,-9.62213c0.0461,-0.70282 0.11303,-1.39621 0.20623,-2.07613h-0.04543c0,0 -0.44091,0 -0.81259,-0.24882c-0.14603,-0.40942 -0.30999,-0.81809 -0.49451,-1.22639c0.12305,-1.095 1.30709,-1.095 1.30709,-1.095z" fill="#707070" stroke="none" stroke-width="0.5" stroke-linecap="butt"/><path d="M98.81299,138.71584v206.98759h-17.0706c-8.5765,-4.84824 -21.76174,-6.40064 -29.59627,-8.87187c-4.36142,-1.37571 -9.32467,-2.77195 -14.16387,-2.77736c-0.09862,-0.00159 -0.19742,-0.00239 -0.29643,-0.00239c-0.27168,0 -0.54192,0.00602 -0.81059,0.01792c-1.8543,-0.87847 -3.68806,-1.8005 -5.51291,-2.73924v-175.23913c3.40473,-0.1459 7.45266,-2.0075 11.39215,-3.81437c0.20651,1.53427 0.6211,3.00462 1.21523,4.38323c0.21178,0.87923 0.36247,1.6649 0.39092,2.3112c0.57932,13.15614 3.25267,21.95546 9.50296,31.60457c1.85077,8.81549 6.55454,15.83384 17.26824,18.15632c8.96837,1.94412 18.95396,-9.93122 19.95243,-17.58418c0.1788,-1.3704 -1.94237,-2.22631 -2.10783,-3.5983c-0.17991,-1.49177 -0.25422,-2.99034 -0.26891,-4.49235c0.15378,-0.57523 0.22593,-1.12487 0.13315,-1.59331c-0.02056,-0.10381 -0.04837,-0.2049 -0.08246,-0.30365c0.3839,-1.7538 0.51602,-3.51141 0.92082,-5.09096v-20.21899c1.27055,-4.95764 1.78562,-11.3517 0.62218,-17.13474z" fill="#707070" stroke="none" stroke-width="0" stroke-linecap="butt"/><path d="M403.39491,334.0518v-201.16178h39.34622v201.16178z" fill="#9e9e9e" stroke="none" stroke-width="0" stroke-linecap="butt"/><path d="M209.07478,132.48c41.97279,-0.14088 83.94663,-0.46818 125.91763,-0.1611c10.71986,0.07843 29.206,5.16309 42.35178,3.69855c-0.00351,0.01841 -0.00699,0.03681 -0.01043,0.05522c-0.18837,1.00547 -0.28675,2.04159 -0.28675,3.10012c-0.16636,0.84195 0.28839,4.10312 0.94376,7.88095c-56.77231,-0.27337 -113.54733,-0.18773 -170.31851,0.21512c0.03012,-0.41024 0.04546,-0.82447 0.04546,-1.2422c0,-2.86969 -0.72318,-5.5746 -2.00146,-7.95079c1.45363,-1.53509 2.57161,-3.46936 3.35852,-5.59589z" fill="#444444" stroke="none" stroke-width="0.5" stroke-linecap="butt"/><path d="M79.09634,168.2187c0,-15.92613 -1.67518,-32.35319 -5.16778,-47.90666c-0.13079,-2.27273 -0.56146,-4.43686 -1.13816,-6.54734c0.86233,-0.55756 1.67127,-1.1874 2.41776,-1.88067c0.66922,2.63543 1.17445,5.31184 1.33073,8.07853c3.56373,15.62567 5.19224,32.24754 5.19224,48.25614c0,1.66449 -0.01555,3.31735 -0.05846,4.95571c-0.81232,-0.61637 -1.68159,-1.16467 -2.59882,-1.63611c0.01635,-1.10072 0.02248,-2.20759 0.02248,-3.3196z" fill="#000000" stroke="none" stroke-width="0.5" stroke-linecap="butt"/><path d="M85.91033,120.48175l300.9441,-7.80248" fill="none" stroke="#000000" stroke-width="1.5" stroke-linecap="round"/><path d="M138.55695,83.66848l-44.41753,0.45609" fill="none" stroke="#000000" stroke-width="1.5" stroke-linecap="round"/><path d="M94.60697,91.87813h31.32604" fill="none" stroke="#000000" stroke-width="1.5" stroke-linecap="round"/><path d="M113.30909,98.71952h-15.42925" fill="none" stroke="#000000" stroke-width="1.5" stroke-linecap="round"/><path d="M61.87827,79.10753l1.61892,2.97267" fill="none" stroke="#000000" stroke-width="1.5" stroke-linecap="round"/><path d="M211.23079,147.39744l-4.21567,-8.22467l0.00964,-3.91505l170.65678,-1.36828l-2.07532,11.54467l-162.70838,2.28046l-11.68881,-16.87542l-102.86164,0.91219l304.06213,0.3248" fill="none" stroke="#000000" stroke-width="1.5" stroke-linecap="round"/><path d="M226.19441,147.57226l0.46755,-11.85841" fill="none" stroke="#000000" stroke-width="1.5" stroke-linecap="round"/><path d="M266.40396,133.88947l-0.46755,13.22667" fill="none" stroke="#000000" stroke-width="1.5" stroke-linecap="round"/><path d="M301.47041,134.80166l-0.93511,10.03403" fill="none" stroke="#000000" stroke-width="1.5" stroke-linecap="round"/><path d="M337.47199,145.29179l0.46755,-11.40232" fill="none" stroke="#000000" stroke-width="1.5" stroke-linecap="round"/><path d="M357.57677,144.83569l1.40266,-10.94623" fill="none" stroke="#000000" stroke-width="1.5" stroke-linecap="round"/><path d="M75.31662,120.5202l-6.75903,-39.30652" fill="none" stroke="#000000" stroke-width="1.5" stroke-linecap="round"/><path d="M97.9067,107.0799l243.06482,-3.80386" fill="none" stroke="#000000" stroke-width="1.5" stroke-linecap="round"/><path d="M382.23707,101.75449l-33.53514,0.76078" fill="none" stroke="#000000" stroke-width="1.5" stroke-linecap="round"/><path d="M373.39836,69.80212l18.45733,3.29667l14.82441,6.86496l7.23718,8.86228l19.76196,29.0674" fill="none" stroke="#000000" stroke-width="1.5" stroke-linecap="round"/><path d="M433.16452,117.16281l0.52713,0.77131l1.36996,3.50886l2.87478,9.21418l-12.73483,2.14184" fill="none" stroke="#000000" stroke-width="1.5" stroke-linecap="round"/><path d="M386.92845,81.2068l17.41791,20.15206l15.18813,22.491l5.66706,6.8073h-25.46965l-1.33476,-4.70003l-13.38014,-18.02444" fill="none" stroke="#000000" stroke-width="1.5" stroke-linecap="round"/><path d="M412.94871,334.83716l-314.41848,13.13664l-0.58552,-30.27137" fill="none" stroke="#9e9e9e" stroke-width="2.5" stroke-linecap="round"/><path d="M415.29074,334.97679l-26.90488,2.54091l-291.03539,8.27702c0.27455,-4.39745 -0.11293,-9.04666 0.00873,-11.70396c0.2727,-5.95596 2.21242,-12.00864 2.53481,-18.07079l241.40231,-183.77616c29.09221,0.66582 45.46208,0.35274 62.74813,-0.22369z" fill="#9e9e9e" stroke="none" stroke-width="0" stroke-linecap="butt"/><path d="M113.84457,314.43752l-3.3319,9.00577l-14.05484,-0.76572c0.37344,-26.0259 0.26274,-52.0614 -0.26964,-78.08336c0,-0.50542 -0.02243,-1.00574 -0.06638,-1.50006c-0.16137,-2.29452 -0.58575,-4.05098 -1.26185,-5.45748c-0.01158,-0.52967 -0.03276,-1.05464 -0.06455,-1.57403c2.32037,-35.06347 5.08111,-67.463 4.50804,-105.05457c62.6851,0.49353 125.37651,-0.35634 188.06355,-0.07424c27.25811,0.12265 36.31781,1.37568 77.71374,1.14482c-0.67928,2.92927 -1.35718,5.87115 -1.64731,8.83174z" fill="#9e9e9e" stroke="none" stroke-width="0" stroke-linecap="butt"/><path d="M89.16207,148.06858l-2.2809,-12.77393l11.93378,-3.87795l-2.80532,216.97032l-53.80731,-14.21866l-10.71498,-4.09545l0.55116,-11.41089l-1.95382,-164.91102l15.18738,-4.93523" fill="none" stroke="#000000" stroke-width="1.5" stroke-linecap="round"/><path d="M82.7515,75.23126c0.26109,0 0.44454,0.0757 0.57347,0.1821c0.13105,0.10391 0.24128,0.26578 0.2896,0.51604c0.02132,0.11042 0.025,0.20906 0.0153,0.29715c0.01728,9.6431 1.83151,18.97929 2.8041,28.5526c0.00703,11.3011 3.34158,22.47306 3.26465,33.66912c3.33897,10.63589 1.41197,23.68296 1.41197,34.78744c0,11.18982 1.81182,22.88106 -3.43865,32.88353c-4.29034,4.10276 -18.62492,3.01546 -23.87708,1.23121c-3.004,-1.0205 -5.59686,-5.12035 -7.53789,-7.40707c-7.19678,-8.48452 -9.30087,-21.36362 -10.82938,-31.98393c-0.8161,-2.37153 -1.67513,-4.90042 -1.88943,-7.4099c-0.16478,-1.92953 0.80999,-5.41365 0.04079,-7.11098c-0.8572,-1.89159 -1.43744,-4.07228 -1.85925,-6.35325c0.59662,-0.16273 1.18543,-0.36508 1.76577,-0.60126c0.42591,2.26754 0.98554,4.45516 1.75988,6.41266c0.81201,2.05271 -0.14418,5.26688 0.04079,7.48399c0.20291,2.43227 1.07008,4.88495 1.85099,7.18507c1.53991,10.35389 3.4407,22.99832 10.47302,31.28513c1.5917,1.87701 4.18387,6.09292 6.69372,6.8596c4.03262,1.23185 8.59062,0.87543 12.83697,0.87543c2.78512,0 6.98959,0.66924 9.10612,-1.46857c1.02202,-2.05727 2.68336,-3.83859 3.12163,-6.1505c1.50733,-7.95115 -0.01453,-17.63123 -0.01453,-25.73114c0,-11.09687 1.82429,-23.8851 -1.39335,-34.53862c-0.0655,-11.2826 -3.28852,-22.4515 -3.28109,-33.83258c-0.91884,-8.87761 -2.52362,-17.55549 -2.77335,-26.46022c0.12283,-0.50882 0.23711,-1.03432 0.34256,-1.57722c0.10183,-0.52427 0.17544,-1.04506 0.22197,-1.5615c0.08184,-0.02186 0.17488,-0.03431 0.28066,-0.03431z" fill="#000000" stroke="#000000" stroke-width="0.5" stroke-linecap="butt"/><path d="M66.85827,208.80748c-0.93154,-0.90871 0,-1.81741 0,-1.81741l0.46755,-0.45609c0.90858,-0.88631 1.74766,-1.79407 2.5225,-2.72198c0.34702,0.01995 0.69678,0.03005 1.04893,0.03005c0.80221,0 1.59185,-0.05246 2.36553,-0.15406c-1.18687,1.60837 -2.53748,3.16465 -4.0739,4.6634l-0.46755,0.45609c0,0 -0.93154,0.90871 -1.86308,0z" fill="#000000" stroke="none" stroke-width="0.5" stroke-linecap="butt"/><path d="M434.92414,234.26781c0,40.15729 -22.38115,72.7112 -49.98971,72.7112c-27.60856,0 -49.98969,-32.55391 -49.98969,-72.7112c0,-40.15729 22.38113,-72.71121 49.98969,-72.71121c27.60856,0 49.98971,32.55391 49.98971,72.71121z" fill="#444444" stroke="#000000" stroke-width="1.5" stroke-linecap="butt"/><path d="M430.46645,236.4448c0,35.5885 -19.6726,64.43866 -43.93998,64.43866c-24.26738,0 -43.94,-28.85016 -43.94,-64.43866c0,-35.5885 19.6726,-64.43866 43.94,-64.43866c24.26738,0 43.93998,28.85016 43.93998,64.43868z" fill="#444444" stroke="#000000" stroke-width="1.5" stroke-linecap="butt"/><path d="M397.7341,282.76213c-0.45085,-0.4528 -0.11971,-1.06931 -0.11971,-1.06931l0.13055,-0.24304c0.42849,-0.79098 0.77883,-1.66841 1.05116,-2.5796c0.18716,-0.33204 0.37177,-0.66625 0.55401,-1.00245c-0.4072,-0.74043 -0.8281,-1.47435 -1.16897,-2.25123c-0.71059,-1.61947 -1.71595,-2.26243 -2.48113,-3.71212c-1.7394,4.14095 -3.40863,8.35718 -5.19509,12.48744c0.25891,0.43919 0.53246,0.87478 0.82429,1.30731l0.2822,0.38502c0,0 0.39555,0.54088 0,1.08179c-0.39555,0.54089 -0.7911,0 -0.7911,0l-0.31338,-0.42941c-0.2125,-0.31497 -0.41596,-0.63146 -0.61164,-0.94971c-0.5059,1.14503 -1.02253,2.28197 -1.55397,3.40732c-1.12263,0.89981 -1.82635,5.06975 -2.58108,7.13898l0.05905,0.06514c0,0 0,0.76493 -0.5594,0.76493c-0.5594,0 -0.55938,-0.76493 -0.55938,-0.76493l0.05905,-0.74932c0.83147,-2.26782 1.49591,-6.23598 2.7793,-7.52082c0.53277,-1.21649 1.05876,-2.44555 1.58075,-3.68242c-1.13061,-2.07553 -2.00992,-4.23646 -2.95961,-6.54197c-1.49375,-3.62634 -4.04295,-6.9029 -5.813,-10.36326c-0.34755,-0.5803 -0.69817,-1.15413 -1.05163,-1.72213c-0.12406,0.25202 -0.24848,0.50379 -0.37328,0.75532c-0.53546,2.94481 -2.62221,4.83723 -3.27137,7.31596c-0.38482,1.46932 -0.93834,3.08112 -1.60171,4.69511c0.20989,0.34261 0.41582,0.68523 0.61744,1.02766c1.18748,2.01681 1.67998,3.78131 3.29525,5.32673l0.38392,1.44408c0,0 0.1769,0.72568 -0.35378,0.96757c-0.53068,0.24189 -0.70758,-0.48378 -0.70758,-0.48378l-0.21166,-0.99923c-1.62923,-1.39624 -2.12083,-3.30255 -3.25632,-5.26091c-0.12097,-0.20865 -0.24375,-0.41738 -0.36822,-0.62621c-1.03175,2.29174 -2.25317,4.50512 -3.49249,6.2306l-0.5688,1.55556c-0.08969,0.25874 -0.28245,0.43767 -0.50576,0.43767c-0.30894,0 -0.5594,-0.34247 -0.5594,-0.76493c0,-0.09083 0.01159,-0.178 0.03285,-0.25884l0.29367,-1.20471l0.05198,0.02369l0.00285,-0.18394c1.45957,-2.04993 2.80496,-4.57418 3.92988,-7.16597c-2.90965,-4.62965 -6.54675,-9.22886 -9.78785,-13.19159c-0.63291,-0.77469 -1.25925,-1.55799 -1.88161,-2.34666c-0.05308,0.16432 -0.10369,0.32947 -0.15171,0.49547c-1.01415,3.50686 -2.02496,7.22153 -2.75852,10.84703c2.15545,3.05721 4.25998,6.1804 6.45861,9.18687c1.14445,1.56495 2.92214,3.18295 3.79807,5.07133c0.10775,0.01062 0.53495,0.09492 0.53495,0.76339c0,0.76493 -0.5594,0.76493 -0.5594,0.76493l-0.79813,-0.42284c-0.63253,-1.83823 -2.68678,-3.61848 -3.76659,-5.09503c-1.98354,-2.71235 -3.89053,-5.51976 -5.8274,-8.28799l-0.38294,1.83273c-0.06276,0.32857 -0.28131,0.57103 -0.54127,0.57103c-0.30894,0 -0.55938,-0.34247 -0.55938,-0.76493c0,-0.02333 0.00076,-0.04643 0.00225,-0.06922l0.07253,-1.24686l0.01465,0.00159l-0.01005,-0.05603c0.09884,-0.59789 0.20615,-1.20045 0.32099,-1.80619c-0.47251,-0.66555 -0.94788,-1.32733 -1.42771,-1.98345c0,0 -0.39555,-0.54088 0,-1.08177c0.39555,-0.54089 0.79109,0 0.79109,0c0.32822,0.44881 0.65436,0.90028 0.97893,1.35378c0.7145,-3.40161 1.63714,-6.8586 2.61096,-10.11265c0.10567,-0.3531 0.22203,-0.70208 0.34741,-1.04755c-2.57839,-3.30099 -5.10902,-6.66851 -7.78205,-9.86635c-0.87133,-1.04241 -2.25786,-3.35827 -3.46401,-3.20858c-0.27319,1.34778 -0.47168,2.64685 -0.56655,3.82839l-0.34136,1.1532c0,0 -0.21307,0.70727 -0.73029,0.41593c-0.51723,-0.29134 -0.30416,-0.99863 -0.30416,-0.99863l0.2916,-0.94789c0.09229,-1.1844 0.29316,-2.50724 0.572,-3.8888c-0.06345,-0.34321 0.03657,-0.56931 0.14853,-0.70792c0.90646,-4.16619 2.45831,-8.73303 3.84799,-11.5957c0.36044,-1.75691 0.70035,-2.55865 1.35441,-3.40388c-1.12203,-0.96225 -2.2221,-1.81375 -3.26728,-2.50611c0,0 -0.50033,-0.34209 -0.25016,-1.02626c0.25016,-0.68417 0.75049,-0.34207 0.75049,-0.34207c1.16131,0.81306 2.37674,1.78472 3.60973,2.86537c0.39237,-0.71255 1.08339,-3.43176 1.47682,-4.18495c1.18843,-2.27515 2.24395,-4.5434 3.26995,-6.8035c-1.96742,-1.6826 -3.97348,-2.51503 -5.72646,-4.90448c0,0 -0.39555,-0.54088 0,-1.08177c0.39555,-0.54089 0.7911,0 0.7911,0c1.68665,2.31445 3.62092,3.08056 5.52314,4.68679c1.15253,-2.5539 2.29271,-5.09702 3.57041,-7.62756c1.15616,-2.27726 2.31814,-4.68073 3.53457,-7.06851c-0.67238,-0.4911 -1.34868,-0.97414 -2.0289,-1.45001c-1.48869,-1.04147 -2.10144,-1.90323 -3.84762,-1.89476c0,0 -0.55938,0 -0.55938,-0.76493c0,-0.76493 0.55938,-0.76493 0.55938,-0.76493c1.92171,0.00831 2.73052,0.92466 4.35719,2.06264c0.72706,0.50865 1.44973,1.02544 2.16798,1.55147c2.12254,-4.07952 4.43068,-8.03908 7.17009,-11.16169c-1.41409,-0.9158 -2.83897,-1.60451 -4.25765,-1.92783c0,0 -0.55178,-0.12575 -0.45982,-0.88026c0.09195,-0.75453 0.64375,-0.62878 0.64375,-0.62878c1.684,0.38379 3.37041,1.25118 5.03586,2.39434c0.64356,-0.66143 1.3107,-1.27572 2.00425,-1.83451c0.80709,-1.00739 1.64973,-2.00205 2.52025,-2.97726c-0.93707,-0.69146 -1.87553,-1.38831 -2.81094,-2.108c-0.99983,-0.76928 -3.6925,-3.53563 -4.80444,-2.58742c0,0 -0.50033,0.34209 -0.75049,-0.34209c-0.25016,-0.68417 0.25016,-1.02625 0.25016,-1.02625c1.64848,-0.99395 3.40737,0.79793 4.86476,1.88501c1.40714,1.04959 2.82149,2.07118 4.22868,3.1042c2.06785,-2.22992 4.2711,-4.34149 6.51417,-6.25074c-0.5883,-0.63306 -1.16588,-1.28387 -1.7293,-1.95802c0,0 -0.42097,-0.50369 -0.05261,-1.07937c0.36836,-0.57566 0.78935,-0.07196 0.78935,-0.07196c0.65308,0.7814 1.32493,1.53157 2.01033,2.25921c1.40466,-1.15112 2.81921,-2.21862 4.2205,-3.18216c0,0 0.50035,-0.34209 0.75051,0.34207c0.25016,0.68417 -0.25016,1.02626 -0.25016,1.02626c-1.25379,0.85279 -2.51393,1.79361 -3.76578,2.8056c3.98247,4.05067 8.32902,7.4954 12.06252,11.95285c1.55469,-1.62408 3.16312,-3.11945 4.90164,-4.31749c0,0 0.50033,-0.34209 0.75049,0.34207c0.25016,0.68417 -0.25018,1.02625 -0.25018,1.02625c-1.61681,1.09531 -3.1213,2.4618 -4.57465,3.95648c3.20333,3.89791 6.72093,7.71462 9.84037,11.95645c1.29709,-1.74925 2.56088,-3.37643 2.56088,-6.00946c0,0 0,-0.76491 0.5594,-0.76491c0.5594,0 0.5594,0.76491 0.5594,0.76491c0,3.15449 -1.41047,5.01556 -2.90249,7.08759c1.84089,2.60763 3.51467,5.38591 4.86428,8.44643c1.05241,2.39122 2.33669,4.59672 3.47081,6.92c0.69966,-0.94309 1.49466,-1.54601 2.52323,-1.18994c0,0 0.5307,0.24189 0.3538,0.96757c-0.1769,0.72568 -0.70758,0.48378 -0.70758,0.48378c-0.45824,-0.31555 -1.01886,0.22939 -1.56429,1.02764c0.50193,1.11862 0.95511,2.27565 1.31968,3.50274l0.04683,0.15861c0,0 0.20943,0.70929 -0.30927,0.99568c-0.5187,0.28639 -0.72815,-0.4229 -0.72815,-0.4229l-0.04683,-0.15861c-0.28953,-0.98725 -0.64076,-1.92899 -1.03082,-2.84198c-0.36985,0.66075 -0.70191,1.30392 -0.94988,1.69104c-0.58046,0.90617 -1.18968,1.83573 -1.81181,2.78388c1.30886,2.18737 2.51069,4.48229 3.53427,6.95415c0.15013,0.21343 0.32253,0.47035 0.50967,0.76119c0.85329,-0.74443 1.7706,-1.2491 2.69648,-1.28221c0,0 0.55938,0 0.55938,0.76493c0,0.76493 -0.55938,0.76493 -0.55938,0.76493c-0.56348,-0.03323 -1.2755,0.3555 -1.97421,0.92558c1.27657,2.16052 2.76525,5.14128 2.8314,6.86105v0.40721c0,0 0,0.76493 -0.5594,0.76493c-0.5594,0 -0.5594,-0.76493 -0.5594,-0.76493v-0.40721c0.08897,-1.09001 -1.43029,-3.9518 -2.64586,-5.98976c-0.62977,0.66131 -1.17835,1.38921 -1.50048,1.96769c-1.7416,3.12758 -3.61601,6.10391 -5.45193,9.12308c1.59359,3.78977 3.31527,7.45917 4.97552,11.19429l0.32134,0.87088c0,0 0.25168,0.68313 -0.2479,1.02728c-0.49957,0.34415 -0.75127,-0.33899 -0.75127,-0.33899l-0.30045,-0.81686c-1.58695,-3.5638 -3.23055,-7.06715 -4.75738,-10.67917c-0.76339,1.27153 -1.51587,2.55532 -2.24484,3.86561c-1.0279,1.8451 -1.97537,3.7607 -2.88002,5.71466c1.67933,4.11124 3.5458,8.78437 4.34915,13.05072l0.02645,0.14468c0,0 0.13567,0.74208 -0.40702,0.92762c-0.5427,0.18552 -0.67835,-0.55657 -0.67835,-0.55657l-0.02645,-0.14468c-0.67802,-3.84519 -2.37476,-8.13837 -3.9367,-11.94543c-2.55424,5.6856 -4.8305,11.62308 -7.73081,17.04022c0.46457,0.91577 0.87586,1.8652 1.10976,2.95973l0.26295,0.4135c0,0 0.32903,0.61862 -0.12334,1.06856c-0.45238,0.44994 -0.78143,-0.16866 -0.78143,-0.16866l-0.43513,-0.89892c-0.14786,-0.75383 -0.40994,-1.44803 -0.72388,-2.11541c-0.08697,0.15438 -0.17453,0.30827 -0.26269,0.46168c-0.28647,0.9634 -0.67008,1.8793 -1.11812,2.71969l-0.13055,0.24302c0,0 -0.33114,0.61649 -0.78199,0.16369zM411.11184,252.7578c0.80783,-1.45204 1.64785,-2.86777 2.49975,-4.27013c-1.19038,-2.25029 -2.33299,-4.54533 -3.46113,-6.85296c-1.43185,2.98312 -3.10248,5.89026 -4.74717,8.82912c1.05936,2.42347 2.0365,4.80564 2.92601,6.993c0.05714,0.14065 0.11477,0.28219 0.17286,0.42463c0.82552,-1.74783 1.687,-3.463 2.60967,-5.12366zM418.89025,239.71779c0.61485,-1.09301 1.43417,-2.34571 2.36905,-3.38649c-0.1965,-0.30907 -0.36632,-0.56628 -0.49532,-0.75238c-0.9996,-2.37287 -2.15619,-4.58224 -3.40961,-6.69065c-2.37086,3.62226 -4.83216,7.47953 -6.53904,11.31503c-0.0023,0.0051 -0.00458,0.01023 -0.00689,0.01535c1.15869,2.37225 2.32865,4.73529 3.5439,7.05653c1.53222,-2.49675 3.0836,-4.97209 4.53792,-7.55736zM407.35132,258.19977c-0.81382,-2.00509 -1.70696,-4.19366 -2.67363,-6.43243c-2.22385,4.02236 -4.32687,8.13321 -5.63835,12.60542c-0.94247,1.98072 -1.8391,4.00454 -2.71289,6.05168c0.07892,0.16703 0.15788,0.33367 0.23689,0.49987c0.71157,1.49663 1.85057,2.24914 2.57718,3.90508c0.27056,0.61661 0.57475,1.19735 0.8816,1.77014c2.86772,-5.5329 5.18104,-11.53207 7.79883,-17.25208c-0.16032,-0.38992 -0.31733,-0.77284 -0.46963,-1.14768zM398.04691,263.66652c1.38072,-4.73212 3.65005,-9.06217 6.01486,-13.30879c-2.67774,-6.05269 -5.87692,-12.26618 -9.48516,-16.05854c-0.11279,-0.11916 -0.22526,-0.23891 -0.33741,-0.35926c-1.48088,2.89674 -2.8194,5.99421 -4.19692,8.90018c-1.47583,3.11336 -2.9102,6.23722 -4.34119,9.35329c0.04135,0.07803 0.08247,0.15619 0.12338,0.23449c1.236,2.36617 2.61744,3.50761 4.00474,5.56459c2.24767,3.33264 4.04228,7.19302 5.79948,10.94646c0.78689,-1.78809 1.59004,-3.55056 2.41823,-5.27241zM419.09691,223.91848c0.39843,-0.62201 0.78104,-1.34797 1.18018,-2.0329c-1.17754,-2.47239 -2.56697,-4.78681 -3.67473,-7.30384c-1.29359,-2.94534 -2.90149,-5.62614 -4.67319,-8.14397c-0.01716,0.02534 -0.03429,0.05077 -0.0514,0.07625c-1.35655,2.01969 -2.77352,4.08689 -4.13993,6.19929c3.15936,4.64888 6.64874,8.99325 9.66521,13.81498c0.57957,-0.88681 1.14814,-1.75792 1.69384,-2.60982zM406.99722,213.87163c-0.91224,1.44459 -1.79185,2.90981 -2.60416,4.39487c-0.83788,1.52766 -1.75735,2.93717 -2.7089,4.30044c0.16483,0.27908 0.32975,0.55964 0.49478,0.84174c2.87104,4.91883 5.399,10.17373 7.94947,15.41471c1.7723,-3.78053 4.18484,-7.55998 6.50621,-11.11876c-3.00215,-4.83139 -6.46873,-9.17829 -9.6374,-13.83301zM401.30532,224.36438c-0.13536,-0.23137 -0.27063,-0.46166 -0.40581,-0.69092c-1.55751,2.16746 -3.16342,4.26564 -4.60988,6.59671c-0.48366,0.77943 -0.94802,1.59129 -1.39774,2.42549c0.12254,0.13166 0.24544,0.26264 0.36873,0.3929c3.61854,3.84039 6.82063,9.94523 9.52402,15.97718c1.64378,-2.92847 3.2947,-5.83244 4.6901,-8.81748c-2.62427,-5.398 -5.206,-10.82936 -8.16944,-15.88387zM389.02896,259.06161c-1.34378,-2.01623 -2.74614,-3.24223 -3.96912,-5.47224c-1.68226,3.66038 -3.36774,7.30625 -5.1184,10.90804c0.43688,0.69744 0.86948,1.40348 1.29742,2.11933c1.80647,3.52626 4.35338,6.83822 5.89435,10.5323c0.8532,2.04534 1.63174,3.97941 2.59754,5.84125c1.74597,-4.177 3.4589,-8.42142 5.24455,-12.55279c-1.85957,-3.83675 -3.62126,-7.88735 -5.94632,-11.37589zM374.61881,273.29857c0.80333,-2.60382 2.72028,-4.29779 3.28016,-7.34384c0.21395,-0.44555 0.42719,-0.8912 0.63976,-1.33694c-3.47023,-5.43796 -7.19321,-10.36751 -10.96,-15.36636c-0.27325,0.48771 -0.55399,0.9666 -0.84326,1.43553c-1.1872,3.89718 -3.72586,7.28766 -5.24982,11.00454c0.69581,0.88362 1.39628,1.76059 2.10504,2.62617c3.19806,3.91011 6.7129,8.39667 9.62412,12.93683c0.53614,-1.33848 1.00893,-2.67555 1.40396,-3.95591zM389.10347,242.00798c1.39799,-2.94913 2.75749,-6.08801 4.26149,-9.02425c-4.04778,-4.50897 -7.72329,-9.7064 -11.70417,-14.36522c-1.27765,2.55936 -2.51424,5.09194 -3.77181,7.3851c-1.68748,3.07668 -3.09003,6.47482 -4.45332,9.91151c4.1411,4.57386 8.36081,9.40641 11.52997,14.94379c1.36445,-2.94416 2.73625,-5.89418 4.13785,-8.85094zM395.43655,229.28037c1.49127,-2.40326 3.1543,-4.55642 4.75708,-6.79543c-3.55801,-5.9467 -7.1077,-11.20212 -11.24988,-16.24114c-2.49682,3.1476 -4.63486,7.1188 -6.64855,11.10992c3.98851,4.66292 7.67246,9.86843 11.72345,14.38569c0.45626,-0.84548 0.92734,-1.6685 1.41789,-2.45904zM403.49801,217.3486c0.85611,-1.55697 1.78198,-3.09288 2.7406,-4.60676c-0.13513,-0.20421 -0.26954,-0.40913 -0.40325,-0.61481c-2.95481,-4.54708 -6.72553,-8.52796 -10.58759,-12.24458c-1.03377,1.10003 -2.09137,2.14868 -3.19518,3.09368c-0.78757,0.66636 -1.53984,1.42187 -2.26197,2.24893c4.10906,5.00968 7.64841,10.24989 11.18497,16.15093c0.88547,-1.2782 1.73996,-2.60083 2.52239,-4.02736zM411.05456,205.47799c0.02967,-0.04416 0.05948,-0.08811 0.08937,-0.13185c-3.15725,-4.29791 -6.7431,-8.14822 -9.96705,-12.0847c-1.69296,1.81945 -3.33245,3.77587 -5.01889,5.63433c3.8354,3.7107 7.56805,7.68516 10.51357,12.21488c0.10267,0.15793 0.20578,0.31541 0.30934,0.47249c1.3459,-2.07843 2.73639,-4.11431 4.07363,-6.10514zM372.89636,237.27977c-1.45574,3.69175 -2.9037,7.38478 -4.64707,10.72998c3.75031,4.97793 7.45985,9.88256 10.92307,15.27529c1.74244,-3.67607 3.44645,-7.35931 5.15646,-11.05155c-3.09679,-5.55225 -7.29739,-10.38824 -11.43248,-14.95372zM365.77921,249.89292c0.33908,-0.56229 0.6668,-1.13733 0.98471,-1.72335c-0.6326,-0.84054 -1.26602,-1.68421 -1.89926,-2.53372c-2.83774,-3.8167 -6.84842,-8.44088 -10.71763,-11.94056c-0.64333,0.80749 -0.93705,1.20432 -1.34696,3.14914c-1.28513,2.71448 -2.70539,6.77499 -3.61495,10.64421c1.50115,0.19789 2.67976,2.08212 3.88029,3.51875c2.60871,3.12174 5.08279,6.40997 7.59883,9.63562c1.57394,-3.61343 3.93787,-6.92814 5.11497,-10.75012zM376.99397,225.08572c1.27998,-2.33341 2.53307,-4.87752 3.82342,-7.44032c-1.06342,-1.20867 -2.15147,-2.37377 -3.27657,-3.47271c-3.2726,-3.19647 -6.65144,-6.03082 -10.13678,-8.63349c-1.24271,2.42928 -2.42526,4.88326 -3.59946,7.21172c-1.28014,2.52352 -2.41728,5.05863 -3.5657,7.60636c3.04545,2.98387 5.76124,7.24974 8.64366,10.51246c1.18365,1.33999 2.41285,2.68834 3.65665,4.05726c1.36357,-3.40594 2.77096,-6.77129 4.45478,-9.8413zM391.45966,201.67878c0.97825,-0.83448 1.91967,-1.74668 2.83981,-2.70244c-1.96389,-1.86414 -3.93603,-3.66663 -5.82191,-5.4469c-2.47082,-2.33293 -5.06298,-4.27284 -7.67926,-6.20253c-1.01343,1.11717 -1.99334,2.25995 -2.92934,3.41631c-0.53574,0.43672 -1.0556,0.90648 -1.5609,1.40543c3.70952,2.8143 7.28761,6.78193 10.47108,9.56281c0.74526,0.83236 1.47044,1.66841 2.17825,2.51024c0.79536,-0.93364 1.62709,-1.78832 2.50226,-2.54291zM388.15953,180.20168c-2.18928,1.8443 -4.3407,3.89396 -6.37521,6.05759c2.50497,1.86009 4.97528,3.78896 7.32892,6.01127c1.98006,1.86994 4.05133,3.76398 6.10913,5.72669c1.7332,-1.87401 3.40765,-3.86501 5.13106,-5.73523c-3.78284,-4.47991 -8.18795,-7.93951 -12.1939,-12.06032zM386.12309,202.95065c-3.2529,-2.82882 -6.9591,-7.01621 -10.77783,-9.79803c-2.79804,3.07419 -5.14396,7.02875 -7.29086,11.12928c3.48449,2.60887 6.86379,5.44915 10.13668,8.64589c1.12028,1.09423 2.20416,2.25411 3.26379,3.45735c2.02572,-3.98177 4.16669,-7.9327 6.66346,-11.13325c-0.64941,-0.77087 -1.31376,-1.53738 -1.99524,-2.30123zM368.16912,232.04821c-2.83976,-3.21469 -5.52279,-7.43442 -8.51944,-10.38656c-1.02846,2.2691 -2.08663,4.54833 -3.28286,6.83842c-0.53019,1.01501 -0.93001,3.06289 -1.45737,4.12808c3.86868,3.53373 7.81904,8.00823 10.73869,11.91563c0.59179,0.79392 1.18378,1.58281 1.77509,2.36884c1.69753,-3.34336 3.12806,-6.98748 4.57321,-10.62398c-1.30317,-1.4326 -2.59128,-2.84138 -3.82732,-4.24043z" fill="#000000" stroke="none" stroke-width="0.5" stroke-linecap="butt"/><path d="M384.97391,250.9442c-3.16915,-5.53738 -7.48434,-10.44492 -11.62546,-15.01878c1.36331,-3.43668 2.807,-6.91806 4.49448,-9.99476c1.25757,-2.29316 2.531,-4.838 3.80866,-7.39736c3.98085,4.65882 7.75201,9.92622 11.79979,14.43519c-1.50401,2.93624 -2.89657,6.15838 -4.29455,9.10751c-1.4016,2.95677 -2.81849,5.92405 -4.18294,8.8682z" data-paper-data="{&quot;noHover&quot;:false,&quot;origItem&quot;:[&quot;Path&quot;,{&quot;applyMatrix&quot;:true,&quot;segments&quot;:[[[735.61839,440.60627],[-1.59588,3.4512],[1.59175,-3.44228]],[[740.47057,430.07299],[-1.71248,3.42723],[-4.60885,-5.26297]],[[727.14409,413.30563],[4.53265,5.43787],[-1.45475,2.98734]],[[722.84947,421.92568],[1.43188,-2.67662],[-1.92139,3.59117]],[[717.77886,433.49459],[1.55227,-4.01136],[4.7151,5.3387]],[[730.907,450.93727],[-3.60843,-6.46335],[1.55358,-3.43648]]],&quot;closed&quot;:true}]}" fill="#444444" stroke="none" stroke-width="0.5" stroke-linecap="butt"/><path d="M248.22629,243.60231c0,40.15729 -31.37357,72.71121 -70.07485,72.71121c-38.70128,0 -70.07485,-32.55391 -70.07485,-72.71121c0,-40.15729 31.37357,-72.71121 70.07485,-72.71121c38.70128,0 70.07485,32.55391 70.07485,72.71121z" fill="#444444" stroke="#000000" stroke-width="1.5" stroke-linecap="butt"/><path d="M241.97758,245.7793c0,35.5885 -27.57677,64.43868 -61.59446,64.43868c-34.01767,0 -61.59446,-28.85018 -61.59446,-64.43868c0,-35.5885 27.57678,-64.43866 61.59447,-64.43866c34.01769,0 61.59446,28.85016 61.59446,64.43868z" fill="#444444" stroke="#000000" stroke-width="1.5" stroke-linecap="butt"/><path d="M196.09383,292.09664c-0.632,-0.4528 -0.1678,-1.06931 -0.1678,-1.06931l0.183,-0.24304c0.60064,-0.79098 1.09173,-1.66841 1.4735,-2.5796c0.26235,-0.33204 0.52114,-0.66627 0.77663,-1.00247c-0.57082,-0.74043 -1.1608,-1.47434 -1.63863,-2.25121c-0.99611,-1.61947 -2.40542,-2.26243 -3.47803,-3.71212c-2.43827,4.14095 -4.77816,8.35718 -7.28239,12.48744c0.36292,0.43919 0.74638,0.87478 1.15546,1.30731l0.39559,0.38502c0,0 0.55448,0.54089 0,1.08179c-0.55448,0.54089 -1.10895,0 -1.10895,0l-0.43931,-0.42943c-0.29789,-0.31497 -0.5831,-0.63146 -0.8574,-0.94971c-0.70916,1.14503 -1.43336,2.28199 -2.17834,3.40734c-1.57367,0.89981 -2.56014,5.06975 -3.61811,7.13898l0.08279,0.06513c0,0 0,0.76493 -0.78415,0.76493c-0.78415,0 -0.78415,-0.76493 -0.78415,-0.76493l0.08279,-0.74932c1.16556,-2.26782 2.09698,-6.23598 3.89598,-7.52082c0.74684,-1.21649 1.48416,-2.44555 2.21586,-3.68242c-1.58484,-2.07553 -2.81751,-4.23646 -4.14874,-6.54197c-2.09392,-3.62634 -5.66737,-6.9029 -8.14859,-10.36326c-0.48717,-0.5803 -0.97867,-1.15413 -1.47415,-1.72213c-0.1739,0.25202 -0.34832,0.50379 -0.52325,0.75532c-0.75058,2.94481 -3.67578,4.83723 -4.58578,7.31596c-0.53943,1.46932 -1.31532,3.08112 -2.24523,4.69511c0.29422,0.34261 0.5829,0.68523 0.86551,1.02766c1.66461,2.01681 2.35498,3.78131 4.61923,5.32673l0.53818,1.44408c0,0 0.24797,0.72568 -0.49594,0.96757c-0.74391,0.24189 -0.99188,-0.48378 -0.99188,-0.48378l-0.29671,-0.99923c-2.28384,-1.39624 -2.97296,-3.30255 -4.56467,-5.26091c-0.16958,-0.20865 -0.34168,-0.41738 -0.51617,-0.62621c-1.44631,2.29174 -3.15847,4.50512 -4.89572,6.2306l-0.79732,1.55557c-0.12573,0.25874 -0.39592,0.43765 -0.70897,0.43765c-0.43307,0 -0.78415,-0.34247 -0.78415,-0.76493c0,-0.09083 0.01623,-0.178 0.04604,-0.25884l0.41166,-1.20471l0.07288,0.02369l0.00399,-0.18396c2.04599,-2.04993 3.93195,-4.57418 5.50886,-7.16595c-4.07871,-4.62965 -9.17714,-9.22886 -13.72047,-13.1916c-0.88722,-0.77469 -1.76519,-1.55799 -2.63762,-2.34666c-0.07439,0.16432 -0.14537,0.32947 -0.21266,0.49547c-1.42163,3.50686 -2.83857,7.22152 -3.86684,10.84703c3.02149,3.05721 5.97158,6.18041 9.0536,9.18687c1.60427,1.56495 4.09621,3.18295 5.32407,5.07133c0.15103,0.01062 0.74988,0.09492 0.74988,0.76339c0,0.76493 -0.78415,0.76493 -0.78415,0.76493l-1.11882,-0.42284c-0.88668,-1.83823 -3.76631,-3.61848 -5.27996,-5.09503c-2.7805,-2.71235 -5.4537,-5.51978 -8.16877,-8.28799l-0.53679,1.83273c-0.08798,0.32857 -0.39434,0.57103 -0.75873,0.57103c-0.43307,0 -0.78415,-0.34247 -0.78415,-0.76493c0,-0.02333 0.00107,-0.04643 0.00316,-0.06922l0.10165,-1.24686l0.02053,0.00159l-0.01409,-0.05603c0.13855,-0.59789 0.28895,-1.20045 0.44995,-1.80619c-0.66233,-0.66555 -1.32874,-1.32733 -2.00135,-1.98345c0,0 -0.55448,-0.54088 0,-1.08177c0.55448,-0.54089 1.10895,0 1.10895,0c0.46009,0.44881 0.91728,0.90028 1.37225,1.35378c1.00159,-3.40161 2.29494,-6.8586 3.66002,-10.11265c0.14815,-0.3531 0.3112,-0.70208 0.48696,-1.04755c-3.61434,-3.30099 -7.16173,-6.66851 -10.90876,-9.86635c-1.22142,-1.04241 -3.16503,-3.35826 -4.85582,-3.20858c-0.38298,1.34778 -0.66119,2.64683 -0.79416,3.82837l-0.47851,1.1532c0,0 -0.29868,0.70727 -1.02372,0.41593c-0.72504,-0.29134 -0.42636,-0.99863 -0.42636,-0.99863l0.40876,-0.94789c0.12935,-1.1844 0.41094,-2.50724 0.80182,-3.8888c-0.08893,-0.34321 0.05126,-0.56931 0.2082,-0.70792c1.27067,-4.16619 3.44604,-8.73303 5.39407,-11.5957c0.50525,-1.75691 0.98172,-2.55865 1.8986,-3.40388c-1.57283,-0.96225 -3.1149,-1.81375 -4.58006,-2.50611c0,0 -0.70136,-0.34207 -0.35069,-1.02625c0.35069,-0.68417 1.05205,-0.34209 1.05205,-0.34209c1.62788,0.81306 3.33168,1.78472 5.06006,2.86537c0.55002,-0.71255 1.51868,-3.43176 2.07019,-4.18495c1.66593,-2.27515 3.14552,-4.5434 4.58378,-6.80348c-2.75789,-1.6826 -5.56995,-2.51503 -8.02724,-4.90448c0,0 -0.55448,-0.54088 0,-1.08179c0.55448,-0.54089 1.10895,0 1.10895,0c2.3643,2.31445 5.07579,3.08056 7.74227,4.68679c1.6156,-2.5539 3.21387,-5.09702 5.00491,-7.62756c1.62068,-2.27726 3.24954,-4.68073 4.95473,-7.06851c-0.94254,-0.4911 -1.89055,-0.97414 -2.84408,-1.45001c-2.08683,-1.04147 -2.94575,-1.90323 -5.39352,-1.89476c0,0 -0.78415,0 -0.78415,-0.76493c0,-0.76493 0.78415,-0.76493 0.78415,-0.76493c2.69383,0.00831 3.82758,0.92466 6.10782,2.06266c1.01919,0.50865 2.03221,1.02542 3.03904,1.55145c2.97535,-4.07952 6.21085,-8.03908 10.05094,-11.16169c-1.98224,-0.9158 -3.97966,-1.60451 -5.96833,-1.92783c0,0 -0.77347,-0.12575 -0.64456,-0.88026c0.12891,-0.75453 0.9024,-0.62878 0.9024,-0.62878c2.36062,0.38379 4.72459,1.25118 7.0592,2.39434c0.90214,-0.66143 1.83733,-1.27572 2.80953,-1.83451c1.13138,-1.00739 2.31256,-2.00205 3.53287,-2.97726c-1.31358,-0.69146 -2.62912,-1.38829 -3.94035,-2.108c-1.40157,-0.76928 -5.1761,-3.53563 -6.73479,-2.58742c0,0 -0.70136,0.34209 -1.05205,-0.34209c-0.35069,-0.68417 0.35069,-1.02625 0.35069,-1.02625c2.31082,-0.99395 4.77642,0.79793 6.81937,1.88501c1.97249,1.04959 3.95514,2.07118 5.9277,3.1042c2.89869,-2.22992 5.98714,-4.34149 9.13147,-6.25074c-0.82465,-0.63306 -1.63427,-1.28385 -2.4241,-1.95802c0,0 -0.59012,-0.50371 -0.07377,-1.07937c0.51635,-0.57566 1.10649,-0.07196 1.10649,-0.07196c0.91545,0.7814 1.85725,1.53157 2.81805,2.25921c1.96903,-1.15112 3.95192,-2.2186 5.91623,-3.18214c0,0 0.70136,-0.34209 1.05205,0.34207c0.35069,0.68417 -0.35067,1.02626 -0.35067,1.02626c-1.75755,0.85279 -3.52396,1.79361 -5.27882,2.8056c5.58258,4.05067 11.67548,7.4954 16.90906,11.95285c2.17934,-1.62408 4.434,-3.11945 6.87106,-4.31749c0,0 0.70136,-0.34209 1.05204,0.34207c0.35067,0.68417 -0.35067,1.02625 -0.35067,1.02625c-2.26641,1.09531 -4.37541,2.4618 -6.4127,3.95648c4.49039,3.89791 9.42133,7.71462 13.7941,11.95645c1.81825,-1.74925 3.5898,-3.37642 3.5898,-6.00944c0,0 0,-0.76493 0.78415,-0.76493c0.78415,0 0.78415,0.76493 0.78415,0.76493c0,3.15449 -1.97717,5.01554 -4.06866,7.08758c2.58055,2.60763 4.92683,5.38591 6.81868,8.44643c1.47524,2.39122 3.27554,4.59672 4.86534,6.92c0.98077,-0.94309 2.0952,-1.54603 3.53705,-1.18996c0,0 0.74391,0.24189 0.49594,0.96757c-0.24797,0.72568 -0.99188,0.48378 -0.99188,0.48378c-0.64236,-0.31555 -1.42823,0.2294 -2.19281,1.02766c0.70359,1.11862 1.33884,2.27565 1.8499,3.50272l0.06564,0.15861c0,0 0.2936,0.70929 -0.43351,0.99568c-0.72711,0.28639 -1.02072,-0.4229 -1.02072,-0.4229l-0.06564,-0.15861c-0.40586,-0.98725 -0.89822,-1.92899 -1.44499,-2.84198c-0.51847,0.66075 -0.9839,1.30392 -1.3315,1.69104c-0.81368,0.90617 -1.66768,1.83573 -2.53976,2.78388c1.83475,2.18737 3.51945,4.48231 4.95427,6.95416c0.21047,0.21343 0.4521,0.47035 0.71447,0.76119c1.19613,-0.74443 2.48199,-1.2491 3.77987,-1.28221c0,0 0.78415,0 0.78415,0.76493c0,0.76493 -0.78415,0.76491 -0.78415,0.76491c-0.78986,-0.03323 -1.78797,0.35551 -2.76741,0.9256c1.78946,2.16052 3.87629,5.14126 3.969,6.86105v0.40721c0,0 0,0.76493 -0.78415,0.76493c-0.78415,0 -0.78415,-0.76493 -0.78415,-0.76493v-0.40721c0.12471,-1.09001 -2.00494,-3.9518 -3.70889,-5.98976c-0.8828,0.66131 -1.65182,1.38921 -2.10335,1.96769c-2.44136,3.12758 -5.06885,6.10391 -7.64246,9.12309c2.23386,3.78977 4.64732,7.45916 6.97463,11.19429l0.45046,0.87088c0,0 0.35278,0.68314 -0.34751,1.0273c-0.70031,0.34415 -1.05311,-0.33897 -1.05311,-0.33897l-0.42116,-0.81688c-2.22457,-3.5638 -4.52854,-7.06715 -6.66885,-10.67917c-1.07011,1.27153 -2.12492,2.55532 -3.14678,3.86561c-1.44088,1.8451 -2.76903,3.7607 -4.03715,5.71466c2.35405,4.11123 4.97045,8.78437 6.09657,13.05072l0.03708,0.14468c0,0 0.19018,0.74208 -0.57056,0.92762c-0.76073,0.18552 -0.95093,-0.55657 -0.95093,-0.55657l-0.03708,-0.14468c-0.95044,-3.84519 -3.3289,-8.13837 -5.5184,-11.94543c-3.58049,5.6856 -6.77134,11.62308 -10.83695,17.04022c0.65123,0.91577 1.22776,1.8652 1.55563,2.95973l0.36861,0.4135c0,0 0.46125,0.61862 -0.1729,1.06856c-0.63414,0.44994 -1.09539,-0.16866 -1.09539,-0.16866l-0.60997,-0.89892c-0.20727,-0.75383 -0.57463,-1.44803 -1.01473,-2.11541c-0.12192,0.15438 -0.24463,0.30827 -0.36822,0.46168c-0.40158,0.9634 -0.9393,1.8793 -1.56735,2.71969l-0.183,0.24302c0,0 -0.46418,0.61649 -1.09618,0.16369zM214.84657,262.09229c1.1324,-1.45204 2.30994,-2.86777 3.50411,-4.27013c-1.66865,-2.25029 -3.27036,-4.54533 -4.85178,-6.85296c-2.00713,2.98312 -4.349,5.89028 -6.65452,8.82912c1.485,2.42347 2.85474,4.80563 4.10165,6.99298c0.08008,0.14065 0.16088,0.28219 0.24231,0.42463c1.15718,-1.74783 2.36481,-3.463 3.65822,-5.12366zM225.75022,249.05229c0.86189,-1.09301 2.0104,-2.34571 3.32089,-3.38649c-0.27544,-0.30907 -0.51352,-0.56628 -0.69434,-0.75238c-1.40123,-2.37287 -3.02253,-4.58224 -4.77956,-6.69065c-3.32342,3.62226 -6.77363,7.47953 -9.16634,11.31503c-0.00321,0.0051 -0.00643,0.01023 -0.00964,0.01535c1.62423,2.37225 3.26428,4.73529 4.96779,7.05653c2.14785,-2.49675 4.32255,-4.97209 6.3612,-7.55736zM209.57511,267.53427c-1.14081,-2.00509 -2.39279,-4.19368 -3.74785,-6.43243c-3.11735,4.02236 -6.06534,8.13321 -7.90376,12.60542c-1.32114,1.98072 -2.57802,4.00454 -3.80288,6.05166c0.11061,0.16703 0.22129,0.33369 0.33205,0.49989c0.99748,1.49663 2.59409,2.24914 3.61263,3.90508c0.37925,0.61661 0.8057,1.19735 1.23584,1.77014c4.01992,-5.5329 7.26268,-11.53207 10.93226,-17.25208c-0.22475,-0.38992 -0.44482,-0.77284 -0.65829,-1.14768zM196.53231,273.00103c1.93548,-4.73212 5.11661,-9.06217 8.43156,-13.30879c-3.75363,-6.05269 -8.23819,-12.26618 -13.29616,-16.05854c-0.15811,-0.11916 -0.31575,-0.23891 -0.47296,-0.35924c-2.07586,2.89674 -3.95222,5.99422 -5.88319,8.90018c-2.0688,3.11336 -4.07947,6.2372 -6.08542,9.35327c0.05795,0.07803 0.1156,0.15619 0.17295,0.23451c1.7326,2.36617 3.66907,3.50761 5.61378,5.56461c3.15074,3.33264 5.66642,7.19302 8.12963,10.94644c1.10306,-1.78809 2.22889,-3.55056 3.38982,-5.27241zM226.03988,233.25299c0.55852,-0.62201 1.09486,-1.34796 1.65437,-2.0329c-1.65066,-2.47239 -3.59834,-4.78681 -5.15119,-7.30384c-1.81335,-2.94534 -4.06728,-5.62614 -6.55081,-8.14397c-0.02405,0.02534 -0.04806,0.05077 -0.07205,0.07625c-1.90158,2.01969 -3.88788,4.08689 -5.80327,6.19929c4.42875,4.64888 9.3201,8.99325 13.54856,13.81498c0.81245,-0.88681 1.60944,-1.75792 2.3744,-2.60982zM209.07873,223.20613c-1.27875,1.44459 -2.5118,2.90981 -3.65049,4.39487c-1.17454,1.52766 -2.46342,2.93717 -3.79728,4.30044c0.23105,0.27908 0.46223,0.55964 0.69358,0.84174c4.02459,4.91883 7.56826,10.17373 11.14345,15.41471c2.48436,-3.78053 5.86624,-7.55998 9.1203,-11.11876c-4.20836,-4.83139 -9.06776,-9.17831 -13.50956,-13.83301zM201.09989,233.69888c-0.18974,-0.23137 -0.37936,-0.46166 -0.56885,-0.69092c-2.18329,2.16746 -4.43444,4.26564 -6.46207,6.59671c-0.67797,0.77943 -1.3289,1.59129 -1.95932,2.42549c0.17177,0.13166 0.34407,0.26264 0.51689,0.3929c5.0724,3.84039 9.56108,9.94523 13.35063,15.97718c2.30423,-2.92847 4.61844,-5.83244 6.57453,-8.81748c-3.67868,-5.398 -7.29769,-10.82936 -11.45179,-15.88387zM183.89109,268.39612c-1.8837,-2.01623 -3.8495,-3.24223 -5.56387,-5.47224c-2.35816,3.66038 -4.72083,7.30625 -7.17489,10.90804c0.6124,0.69744 1.21882,1.40348 1.81869,2.11933c2.53226,3.52626 6.10249,6.8382 8.26262,10.5323c1.196,2.04534 2.28733,3.97941 3.64118,5.84125c2.44748,-4.177 4.84863,-8.42142 7.35174,-12.55279c-2.6067,-3.83675 -5.07624,-7.88737 -8.33546,-11.37591zM163.69114,282.63307c1.12611,-2.60382 3.81326,-4.29779 4.5981,-7.34384c0.29993,-0.44555 0.59882,-0.8912 0.89683,-1.33694c-4.86451,-5.43796 -10.08335,-10.36751 -15.36358,-15.36636c-0.38303,0.48771 -0.77656,0.9666 -1.18206,1.43551c-1.6642,3.89718 -5.22288,7.28766 -7.35913,11.00454c0.97538,0.88362 1.95726,1.76059 2.95081,2.62617c4.48301,3.91011 9.41004,8.39667 13.49098,12.93683c0.75155,-1.33848 1.41432,-2.67555 1.96807,-3.95591zM183.99555,251.34248c1.95967,-2.94913 3.86542,-6.08801 5.97372,-9.02425c-5.67413,-4.50897 -10.82643,-9.70638 -16.40676,-14.36522c-1.79099,2.55936 -3.52442,5.09194 -5.28725,7.3851c-2.3655,3.07668 -4.33154,6.47482 -6.24261,9.9115c5.80494,4.57386 11.72006,9.40641 16.16253,14.94379c1.91268,-2.94416 3.83562,-5.89418 5.80037,-8.85094zM192.87313,238.61487c2.09043,-2.40326 4.42164,-4.55642 6.66841,-6.79543c-4.98756,-5.9467 -9.96346,-11.20212 -15.7699,-16.24114c-3.5,3.1476 -6.49708,7.1188 -9.31984,11.10992c5.59105,4.66292 10.75515,9.86843 16.43376,14.38569c0.63959,-0.84548 1.29992,-1.6685 1.98758,-2.45904zM204.17361,226.6831c1.20009,-1.55697 2.49794,-3.09288 3.84175,-4.60676c-0.18941,-0.20421 -0.37785,-0.40913 -0.56527,-0.61481c-4.14202,-4.54708 -9.42778,-8.52796 -14.84154,-12.24458c-1.44914,1.10003 -2.93168,2.14868 -4.47894,3.09368c-1.10401,0.66636 -2.15854,1.42187 -3.17081,2.24895c5.76002,5.00968 10.72144,10.24989 15.67894,16.15091c1.24125,-1.2782 2.43908,-2.60083 3.53587,-4.02736zM214.76626,214.8125c0.04158,-0.04416 0.08335,-0.08811 0.12529,-0.13185c-4.42578,-4.29791 -9.4524,-8.14822 -13.97169,-12.0847c-2.37316,1.81945 -4.67135,3.77587 -7.0354,5.63433c5.3764,3.7107 10.60878,7.68518 14.73778,12.21489c0.14391,0.15793 0.28847,0.31541 0.43365,0.47249c1.88667,-2.07843 3.83584,-4.11431 5.71037,-6.10514zM161.27663,246.61428c-2.04061,3.69175 -4.07035,7.38479 -6.51417,10.73c5.25715,4.97793 10.45712,9.88254 15.31181,15.27529c2.44254,-3.67607 4.83119,-7.35931 7.22827,-11.05155c-4.34103,-5.55225 -10.22939,-10.38824 -16.02591,-14.95372zM151.29991,259.22743c0.47533,-0.56229 0.93468,-1.13733 1.38033,-1.72335c-0.88677,-0.84054 -1.77471,-1.68421 -2.66235,-2.53372c-3.9779,-3.8167 -9.6,-8.44088 -15.02381,-11.94056c-0.90182,0.80749 -1.31357,1.20432 -1.88816,3.14916c-1.80146,2.71448 -3.79236,6.77499 -5.06737,10.64421c2.10429,0.19789 3.75644,2.08212 5.43933,3.51875c3.65685,3.12174 7.12499,6.40997 10.65192,9.63562c2.20632,-3.61343 5.52006,-6.92814 7.17011,-10.75012zM167.02059,234.42022c1.79428,-2.33341 3.5508,-4.87752 5.35961,-7.44032c-1.49069,-1.20867 -3.01589,-2.37376 -4.59306,-3.47269c-4.58749,-3.19647 -9.32388,-6.03084 -14.20957,-8.63351c-1.74202,2.42928 -3.39971,4.88328 -5.04568,7.21173c-1.79447,2.52352 -3.3885,5.05862 -4.99832,7.60635c4.26907,2.98387 8.07601,7.24976 12.11655,10.51248c1.65922,1.33999 3.38232,2.68832 5.12583,4.05724c1.91144,-3.40594 3.8843,-6.77129 6.24467,-9.8413zM187.29842,211.01328c1.37127,-0.83448 2.69098,-1.74666 3.9808,-2.70244c-2.75294,-1.86414 -5.51748,-3.66663 -8.16107,-5.4469c-3.46356,-2.33293 -7.09722,-4.27286 -10.76469,-6.20255c-1.42061,1.11717 -2.79423,2.25995 -4.10631,3.41631c-0.751,0.43672 -1.47973,0.90648 -2.18805,1.40543c5.19995,2.8143 10.21567,6.78193 14.67821,9.56281c1.04469,0.83236 2.06123,1.66841 3.05344,2.51024c1.11492,-0.93364 2.28085,-1.78832 3.50766,-2.54291zM182.67234,189.53618c-3.0689,1.8443 -6.08474,3.89397 -8.93667,6.05761c3.51144,1.86009 6.97426,3.78895 10.27358,6.01126c2.77563,1.86994 5.67912,3.76397 8.56369,5.72669c2.42959,-1.87401 4.77681,-3.86501 7.19267,-5.73523c-5.30273,-4.47991 -11.47775,-7.93951 -17.09326,-12.06032zM179.81766,212.28517c-4.55988,-2.82882 -9.75514,-7.01621 -15.10819,-9.79803c-3.92227,3.07419 -7.21072,7.02875 -10.22022,11.12928c4.88453,2.60887 9.62157,5.44917 14.20947,8.64589c1.57041,1.09423 3.08975,2.25411 4.57512,3.45735c2.8396,-3.98177 5.84082,-7.9327 9.34074,-11.13325c-0.91034,-0.77087 -1.84161,-1.53738 -2.79692,-2.30123zM154.65006,241.38271c-3.98071,-3.21469 -7.74176,-7.43442 -11.94242,-10.38656c-1.44169,2.2691 -2.92499,4.54833 -4.60187,6.83842c-0.7432,1.01501 -1.30366,3.06289 -2.04291,4.12808c5.42307,3.53373 10.96063,8.00823 15.05334,11.91563c0.82957,0.79392 1.65937,1.58281 2.4883,2.36884c2.37955,-3.34336 4.38487,-6.98748 6.41068,-10.62396c-1.82677,-1.4326 -3.63243,-2.84138 -5.3651,-4.24045z" fill="#000000" stroke="none" stroke-width="0.5" stroke-linecap="butt"/><path d="M264.07876,302.91342l-5.96691,-122.93315l65.16829,-1.562l5.96689,122.93317z" fill="none" stroke="#000000" stroke-width="1.5" stroke-linecap="butt"/><path d="M264.24978,225.63994l-1.22565,-38.25974l56.74542,-1.72983l1.22565,38.25976z" fill="#e0e0e0" stroke="#000000" stroke-width="1.5" stroke-linecap="butt"/><path d="M266.66442,285.00582l-1.22565,-43.71418l56.74542,-1.97644l1.22565,43.71416z" fill="#e0e0e0" stroke="#000000" stroke-width="1.5" stroke-linecap="butt"/><path d="M316.22173,189.35647l0.41744,30.9485l-49.67647,0.81445l-0.83491,-30.94852z" fill="#b1dce0" stroke="#000000" stroke-width="1.5" stroke-linecap="round"/><path d="M312.46468,213.38227l-41.3275,0.81445" fill="none" stroke="#000000" stroke-width="1.5" stroke-linecap="round"/><path d="M265.31906,241.51857l5.00941,5.29383" fill="none" stroke="#000000" stroke-width="1.5" stroke-linecap="round"/><path d="M321.60929,240.32246l-3.75704,4.8866" fill="none" stroke="#000000" stroke-width="1.5" stroke-linecap="round"/><path d="M267.39324,283.79258l4.59195,-4.07217" fill="none" stroke="#000000" stroke-width="1.5" stroke-linecap="round"/><path d="M323.25293,283.38535l-5.42685,-5.29381" fill="none" stroke="#000000" stroke-width="1.5" stroke-linecap="round"/><path d="M316.27763,248.07693l0.36898,27.35527l-43.90884,0.71986l-0.73799,-27.35527z" fill="#444444" stroke="#000000" stroke-width="1.5" stroke-linecap="round"/><path d="M316.49782,250.35935l-9.42544,6.29092h-23.31555l-9.92152,-6.29092" fill="none" stroke="#000000" stroke-width="1.5" stroke-linecap="round"/><path d="M285.72751,266.53539c0,2.94099 -2.57981,5.32512 -5.76218,5.32512c-3.18237,0 -5.76218,-2.38412 -5.76218,-5.32512c0,-2.94099 2.57983,-5.32512 5.76218,-5.32512c3.18237,0 5.76218,2.38412 5.76218,5.32512z" fill="none" stroke="#000000" stroke-width="1.5" stroke-linecap="butt"/><path d="M316.257,264.26728c0,2.77759 -2.39877,5.02927 -5.35781,5.02927c-2.95905,0 -5.35783,-2.25167 -5.35783,-5.02927c0,-2.77759 2.39878,-5.02929 5.35783,-5.02929c2.95905,0 5.35781,2.25169 5.35781,5.02929z" fill="none" stroke="#000000" stroke-width="1.5" stroke-linecap="butt"/><path d="M286.9799,270.63577l-0.22465,-9.2452l17.90198,-0.41392l0.22463,9.2452z" fill="none" stroke="#000000" stroke-width="1" stroke-linecap="butt"/><path d="M284.91879,266.53539v-1.57781h0.40437v1.57781z" fill="none" stroke="#000000" stroke-width="1.5" stroke-linecap="butt"/><path d="M288.56086,266.39043c0,-0.38246 0.39207,-0.38246 0.39207,-0.38246h0.29158c3.30717,0 -1.15715,-4.6687 2.89411,-3.39369c0,0 0.37194,0.12095 0.24797,0.48378c-0.12398,0.36284 -0.49594,0.24189 -0.49594,0.24189c-2.38921,-0.80994 1.44174,3.43294 -2.64614,3.43294h-0.29158c0,0 -0.39207,0 -0.39207,-0.38246z" fill="#444444" stroke="none" stroke-width="0" stroke-linecap="butt"/><path d="M299.09888,265.15021c-0.39207,0 -0.39207,-0.38246 -0.39207,-0.38246c0,-0.18963 0,-0.80592 0,-0.99554c0,0 0,-0.38246 0.39207,-0.38246c0.39207,0 0.39207,0.38246 0.39207,0.38246c0,0.18963 0,0.37926 0,0.56888v0.42667c0,0 0,0.38246 -0.39207,0.38246z" fill="#444444" stroke="none" stroke-width="0.5" stroke-linecap="butt"/><path d="M298.7068,261.9233c0,-0.21123 0.17555,-0.38246 0.39207,-0.38246c0.21653,0 0.39207,0.17123 0.39207,0.38246c0,0.21123 -0.17555,0.38246 -0.39207,0.38246c-0.21653,0 -0.39207,-0.17125 -0.39207,-0.38246z" fill="#444444" stroke="none" stroke-width="0.5" stroke-linecap="butt"/><path d="M292.3923,269.70129c-0.39207,0 -0.39207,-0.38246 -0.39207,-0.38246v-0.42666c0,-0.19254 -0.02217,-1.49075 0.07081,-1.95002c-0.15031,0.22124 -0.45967,0.64137 -0.75694,1.03914c0.00142,0.019 0.00272,0.03818 0.00392,0.05755h0.00841v0.71111c0,0.21123 -0.17555,0.38246 -0.39207,0.38246c-0.21653,0 -0.39207,-0.17123 -0.39207,-0.38246v-0.42667c0,-1.9702 -0.84658,-1.20973 -0.8196,0.14224c0,0 0,0.38246 -0.39207,0.38246c-0.39207,0 -0.39207,-0.38246 -0.39207,-0.38246c0.0267,-1.88373 1.50426,-2.64893 2.12146,-1.48581c0.27015,-0.69635 0.90164,-1.2293 1.56155,-0.81558c0.44345,0.27801 0.16281,2.26072 0.16281,2.72804v0.42666c0,0 0,0.38246 -0.39207,0.38246z" fill="#444444" stroke="none" stroke-width="0.5" stroke-linecap="butt"/><path d="M294.87082,269.27463c-0.39207,0 -0.39207,-0.38246 -0.39207,-0.38246c0,-0.37926 0,-1.3274 0,-1.70666c0,0 0,-0.38246 0.39207,-0.38246c0.39207,0 0.39207,0.38246 0.39207,0.38246c0,0.37926 0,0.7585 0,1.13776v0.56889c0,0 0,0.38246 -0.39207,0.38246z" fill="#444444" stroke="none" stroke-width="0.5" stroke-linecap="butt"/><path d="M302.26105,264.90995c0,0.38246 -0.39207,0.38246 -0.39207,0.38246l-0.56883,-0.11201c-0.75148,-0.81522 -0.71816,-2.93129 0.56883,-3.07068c0,0 0.39207,0 0.39207,0.38246c0,0.38246 -0.39207,0.38246 -0.39207,0.38246c-0.35308,-0.12246 -0.32185,1.52617 -0.01435,1.76486l0.01435,-0.11203c0,0 0.39207,0 0.39207,0.38246z" fill="#444444" stroke="none" stroke-width="0.5" stroke-linecap="butt"/><path d="M80.77581,170.22391l-0.51993,18.00492l-2.85959,10.3972l-7.01898,6.84694" fill="none" stroke="#000000" stroke-width="1.5" stroke-linecap="round"/><path d="M116.09549,137.7877l-8.19713,10.852" fill="none" stroke="#000000" stroke-width="1.5" stroke-linecap="round"/><path d="M117.26651,332.55253l-12.8812,-7.42505" fill="none" stroke="#000000" stroke-width="1.5" stroke-linecap="round"/><path d="M96.39928,248.80421c-0.43678,0.04433 -0.48221,-0.38175 -0.48221,-0.38175l-0.04126,-0.62508c-1.11708,-1.10966 -1.18246,-4.04463 -1.02868,-6.89463c-0.05037,0.2454 -0.10426,0.48776 -0.16199,0.72676v1.09417c0,0.23658 -0.19661,0.42837 -0.43913,0.42837c-0.24252,0 -0.43913,-0.19179 -0.43913,-0.42837v-0.78722l-0.2552,-0.74682l0.16936,-0.05507c-1.55966,-3.9632 -0.44076,-11.04327 -0.2832,-15.34582c-0.09745,-1.08737 -0.21535,-2.1812 -0.35502,-3.29124c-0.10605,-0.8429 -0.46732,-2.23148 -0.47868,-3.36162c-0.05368,-0.28884 -0.10472,-0.58438 -0.15117,-0.88923l0.00559,-0.02137l-0.00716,0.00033l-0.0415,-0.85266c-0.00043,-0.00776 -0.00065,-0.01557 -0.00065,-0.02343c0,-0.23658 0.19661,-0.42837 0.43913,-0.42837c0.15122,0 0.28458,0.07457 0.36357,0.18804c1.85405,0.18886 1.47794,2.10123 1.84236,3.71138c0.00866,0.03826 0.01717,0.07658 0.02553,0.11496c-0.00777,-0.51928 0.02115,-1.02628 0.1327,-1.45451c-0.0002,-0.13443 -0.00035,-0.26886 -0.00042,-0.40329h-0.00004v-0.85673c0,-0.23658 0.19661,-0.42837 0.43913,-0.42837c0.24252,0 0.43913,0.19179 0.43913,0.42837v0.68539c0,0.16733 0.00014,0.33468 0.00037,0.50204c1.02902,4.8763 -0.00037,11.17846 -0.00037,15.94731c0,2.64726 -1.27638,10.29809 0.57835,12.07321l0.1219,0.90486c0,0 0.04544,0.42607 -0.39134,0.4704zM94.62236,224.43804c-0.0509,-1.17734 -0.17397,-2.3321 -0.42543,-3.43187c-0.19935,-0.87182 -0.13569,-2.81605 -0.78951,-3.03156l0.02608,0.14416l-0.08019,0.0138c0.7388,1.87572 1.10095,4.05662 1.26904,6.30546z" fill="#707070" stroke="none" stroke-width="0.5" stroke-linecap="butt"/><path d="M88.71295,136.31697c0,-1.28511 1.3174,-1.28511 1.3174,-1.28511h0.35131c0.152,0 0.32835,-0.00348 0.52417,-0.00872l0.44158,-0.71794c0.22756,-0.38499 0.6538,-0.64413 1.14209,-0.64413c0.36148,0 0.68896,0.14203 0.927,0.37199c0.21543,-0.42355 0.66327,-0.71469 1.18083,-0.71469c0.5578,0 1.03462,0.33817 1.22679,0.81581l0.39258,-0.76591c0.21124,-0.43468 0.66518,-0.73529 1.19108,-0.73529c0.66124,0 1.2087,0.47524 1.30303,1.09467l0.34775,2.03533l-0.31352,0.05098c0.19805,0.81056 0.31429,1.6343 0.30767,2.45948l-0.1562,0.2008l0.08574,0.03346l-0.69121,1.68568c-0.18682,0.48808 -0.66909,0.83561 -1.23457,0.83561c-0.16263,0 -0.31837,-0.02874 -0.46219,-0.08131c-0.00025,0.02234 -0.00048,0.04477 -0.00072,0.06731l-0.16287,0.1982l0.09241,0.03606l-0.69121,1.68568c-0.18682,0.48808 -0.66909,0.83561 -1.23457,0.83561c-0.72758,0 -1.3174,-0.57536 -1.3174,-1.28511v-0.22041c-0.35249,-0.12923 -0.75447,-0.44973 -1.20704,-1.0149c-0.00291,-0.12812 -0.01183,-0.37102 -0.01773,-0.68644c-0.16463,0.07578 -0.3681,0.12261 -0.61958,0.12261c-1.3174,0 -1.3174,-1.28511 -1.3174,-1.28511c0,-0.59973 0.00651,-1.19948 0.01762,-1.79914h-0.10544c0,0 -1.3174,0 -1.3174,-1.28511zM92.94416,140.03801c-0.01468,0.28819 -0.02747,0.60167 -0.03808,0.94124c0.13665,0.19498 0.26106,0.32034 0.37384,0.38648v-0.59106c-0.08619,-0.0697 -0.1293,-0.15378 -0.1293,-0.15378c-0.05441,-0.10616 -0.12723,-0.31104 -0.20646,-0.58288zM93.76667,139.69219c-0.00099,-0.01987 -0.002,-0.03961 -0.00302,-0.05925c-0.00309,0.00297 -0.0062,0.00591 -0.00933,0.00884c0.00414,0.01707 0.00826,0.03387 0.01235,0.05041z" fill="#707070" stroke="none" stroke-width="0.5" stroke-linecap="butt"/><path d="M105.48779,131.86193l-16.86267,3.08425" fill="none" stroke="#000000" stroke-width="1.5" stroke-linecap="round"/><path d="M97.75907,132.54734l2.52767,-1.04236l337.83885,-0.57116l4.68407,202.76102l-348.37802,14.27894" fill="none" stroke="#000000" stroke-width="1.5" stroke-linecap="round"/><path d="M98.11037,199.7155l1.75653,-67.16816" fill="none" stroke="#000000" stroke-width="1.5" stroke-linecap="round"/><path d="M62.76147,90.53202c-0.35618,-0.14493 -0.74775,-0.46358 -0.74775,-1.16421c0,-1.28511 1.3174,-1.28511 1.3174,-1.28511l1.52962,0.71039c0.0426,0.0831 0.1438,0.327 0.27827,0.67089c0.01824,-0.0661 0.03807,-0.13086 0.05963,-0.19417c0.00089,-0.00532 0.00177,-0.01061 0.00266,-0.01592c-0.01233,-0.29301 -0.01978,-0.59725 -0.02339,-0.91417h-0.00243v-1.71348c0,-0.01278 0.00019,-0.02551 0.00057,-0.0382l-0.2128,-0.41517c-0.26882,-0.55008 -0.53763,-1.10017 -0.80645,-1.65023c0.05873,-2.28597 -1.48362,-1.94184 -3.7383,-1.43219c-4.02369,0.90951 -7.50827,2.64103 -11.68125,3.0978c-2.7894,0.30533 -5.46354,-0.47028 -8.10303,0.60311c0,0 -1.22317,0.47728 -1.71244,-0.71591c-0.48927,-1.1932 0.7339,-1.67047 0.7339,-1.67047c2.98416,-1.12708 5.67036,-0.4369 8.75964,-0.76768c3.30909,-0.35431 6.47936,-1.34412 9.5922,-2.34616c1.19377,-0.38428 5.54356,-1.64128 6.81829,-1.01635c2.15493,1.05643 1.85942,2.0142 1.8953,3.65734c0.01033,0.01883 0.02065,0.03764 0.03098,0.05647c1.05818,0.15642 1.05819,1.26688 1.05819,1.26688c0,0.05161 0.00004,0.10313 0.00016,0.15455c0.16749,0.17622 0.28496,0.39834 0.33035,0.64486l0.34652,1.69013l-0.28546,0.05569c0.63554,1.60902 0.84049,3.17826 0.75353,5.10762c0.15512,0.38419 0.33076,0.76852 0.52959,1.15405l-0.01887,0.14915l0.06137,-0.01496l0.34414,1.34282c0.03032,0.10819 0.0465,0.22207 0.0465,0.33964c0,0.70975 -0.58982,1.28511 -1.3174,1.28511c-0.19831,0 -0.38639,-0.04275 -0.55508,-0.1193c-0.12436,0.0982 -0.26996,0.1703 -0.44091,0.20921c-0.23385,0.35801 -0.64441,0.59548 -1.11184,0.59548c-0.72758,0 -1.3174,-0.57536 -1.3174,-1.28511v-0.16866c-0.73634,-0.90041 -1.78198,-4.26995 -2.414,-5.86373z" fill="#707070" stroke="none" stroke-width="0.5" stroke-linecap="butt"/><path d="M51.52749,169.86022c-1.01205,0.82271 -1.85543,-0.16454 -1.85543,-0.16454l-0.06977,-0.08168c-0.61644,-0.73845 -1.23289,-1.4769 -1.84933,-2.21535c-1.02084,-3.68377 -3.55555,-6.76989 -4.33466,-10.61966c-0.51892,-2.56413 0.04543,-5.7186 0.33395,-8.25162c0.04325,-0.3797 0.06468,-0.99257 0.14091,-1.6603c-0.29281,-0.96527 -0.49863,-1.96082 -0.49863,-3.0108c0,0 0,-1.28511 1.3174,-1.28511c0.90951,0 1.19111,0.61252 1.2783,0.99182c0.22314,-0.01692 0.46996,0.00185 0.74311,0.06252c2.95952,0.65733 2.50708,6.30944 1.74484,9.97056l0.05083,0.19836h0.31076v1.37078c0,0.70975 -0.58982,1.28511 -1.3174,1.28511c-0.62695,0 -1.15161,-0.42722 -1.28475,-0.9995l-0.09671,-0.37734c0.55822,4.06131 3.05644,7.14375 3.9613,11.1615c0.50806,0.57788 1.01612,1.15576 1.52417,1.73363l0.06978,0.08168c0,0 0.84337,0.98723 -0.16868,1.80994z" fill="#707070" stroke="none" stroke-width="0.5" stroke-linecap="butt"/><path d="M32.79634,154.35864c0.17136,-0.19242 0.34732,-0.29542 0.34732,-0.29542l1.80038,-1.05265c1.60847,-0.78432 2.49919,-1.15351 3.59179,-1.23875l-0.05446,-0.26564l1.72985,-0.33749c0.09179,-0.01974 0.18717,-0.03016 0.28504,-0.03016c0.72758,0 1.3174,0.57536 1.3174,1.28511c0,0.51301 -0.30817,0.95582 -0.75377,1.16189l-1.30021,0.63417c-2.47745,1.80522 -4.52263,2.15925 -7.37524,2.87763c0,0 -1.27807,0.31168 -1.59758,-0.93505c-0.31951,-1.24673 0.95855,-1.55842 0.95855,-1.55842c0.36872,-0.08758 0.71752,-0.16773 1.05093,-0.24521z" fill="#707070" stroke="none" stroke-width="0.5" stroke-linecap="butt"/><path d="M89.32773,153.45171l-3.16175,-21.93246" fill="none" stroke="#9e9e9e" stroke-width="1.5" stroke-linecap="round"/><path d="M80.89641,80.11504l-9.83656,0.3427" fill="none" stroke="#9e9e9e" stroke-width="1.5" stroke-linecap="round"/><path d="M206.95297,108.81038c0,-1.28511 1.3174,-1.28511 1.3174,-1.28511h1.3174c0.10082,0.00151 0.20029,0.00034 0.29859,-0.00324c0.38866,-0.42513 1.0188,-0.42513 1.0188,-0.42513c0.55068,0 1.10137,0 1.65205,0c0.66324,-0.17542 0.97644,-0.35327 1.73119,-0.42211c2.76577,-0.25226 5.56247,-0.1614 8.36153,-0.04906c4.32981,-1.20959 10.00726,-1.03598 14.7124,-0.89446c0.88146,-0.11132 1.7267,-0.12992 2.41108,0.06462c0.49715,0.00987 0.97565,0.01591 1.43185,0.01591h1.3174c0.72758,0 1.3174,0.57536 1.3174,1.28511c0,0.70975 -0.58982,1.28511 -1.3174,1.28511h-0.87826c0,0.70975 -0.58982,1.28511 -1.3174,1.28511c-0.36945,0 -2.49543,0 -2.86488,0c-5.35308,0.92832 -11.8623,0 -16.89606,0c-1.86138,0 -5.4793,0 -7.34069,0c-1.19592,0.20733 -2.38464,0.41477 -3.63761,0.42837h-1.3174c0,0 -1.3174,0 -1.3174,-1.28511z" fill="#9e9e9e" stroke="none" stroke-width="0.5" stroke-linecap="butt"/><path d="M319.80987,110.95222c0,1.28511 -1.3174,1.28511 -1.3174,1.28511h-0.87826c-0.55179,0 -1.10449,-0.00196 -1.65801,-0.0056c0.21168,0.22802 0.34062,0.53048 0.34062,0.86233c0,0.70975 -0.58982,1.28511 -1.3174,1.28511c-0.14638,0 -2.48841,0 -2.63479,0c-0.66618,0 -1.33237,0 -1.99855,0c-7.33713,0.93067 -15.4659,0 -22.59284,0c-5.06677,0 -10.58625,0.62217 -15.47323,-0.71828l-1.74966,-0.14187c-0.68241,-0.04832 -1.22066,-0.60369 -1.22066,-1.28169c0,-0.70975 0.58982,-1.28511 1.3174,-1.28511h2.63479v0.16764c14.03888,-3.22779 30.15686,-1.45275 44.35233,-1.45275h0.87826c0,0 1.3174,0 1.3174,1.28511zM282.98639,112.4103c0.17946,0.00325 0.3592,0.00582 0.53919,0.00777c0.01647,-0.02842 0.03391,-0.05552 0.0522,-0.08135c-0.19399,0.0196 -0.39128,0.04444 -0.59139,0.07357z" fill="#9e9e9e" stroke="none" stroke-width="0.5" stroke-linecap="butt"/><path d="M45.94085,174.28137l-3.63947,-24.85186l-5.71917,-39.05292l-1.55978,-24.85186l5.78065,-2.12728l41.30496,-5.88007l292.7486,-6.77631l4.52083,1.85055l4.15939,4.81822l2.33966,4.31103l0.77988,5.32541l1.03985,7.3541l-0.51993,5.32541l-0.77988,5.07181l-2.33966,7.3541l-109.47749,3.94094" fill="none" stroke="#000000" stroke-width="1.5" stroke-linecap="round"/></g><path d="M199.97059,47.36811c0.07363,-0.03682 0.15143,-0.05574 0.23203,-0.0626c-0.13968,0.09495 -0.27915,0.18871 -0.41842,0.28104c0.03963,-0.09462 0.09568,-0.17309 0.18639,-0.21844z" fill="#000000" stroke="none" stroke-width="0.5" stroke-linecap="butt"/><path d="" fill="#000000" stroke="none" stroke-width="0.5" stroke-linecap="butt"/><path d="" fill="#000000" stroke="none" stroke-width="0.5" stroke-linecap="butt"/><g stroke="none" stroke-width="0.5" stroke-linecap="butt"><path d="M177.67685,87.8729l-0.06905,0.11368c-0.00384,-0.01606 -0.00784,-0.03212 -0.012,-0.04818c-0.04169,-0.16073 -0.0981,-0.31373 -0.16741,-0.45794c0.09689,-0.19692 0.19377,-0.39384 0.29065,-0.59076c0.26077,0.46802 -0.04219,0.98319 -0.04219,0.98319z" fill="#000000"/><path d="M326.5454,26.76339c-0.59868,0.15529 -0.92313,-0.15575 -1.08355,-0.41568c-0.60552,0.33586 -1.20862,0.68503 -1.8103,1.04569c-2.46985,1.56328 -5.27532,1.91809 -7.83269,3.17156c-7.17286,3.51571 -18.38514,6.34239 -26.32015,4.64696c-6.50303,-1.91497 -12.32758,-5.01945 -18.62602,-6.48398c-1.34967,-0.31383 -2.21255,-1.40271 -3.60144,-1.67902l-0.90812,-0.47452c0,0 -0.53303,-0.31347 -0.51428,-0.86656c-0.67355,-0.06875 -1.35505,-0.14125 -2.06349,-0.20025c-1.46381,-0.12191 -3.21429,1.14404 -4.71242,1.25164c-2.06895,0.1486 -4.15019,-0.45086 -6.21725,-0.43346c-2.84929,0.6487 -5.94242,-0.76175 -8.88779,-0.28937c-3.01401,0.48339 -6.86161,2.16726 -9.93637,2.03826c-5.70489,-0.23935 -11.56247,0.44933 -17.19748,1.9061c-11.9857,3.10629 -23.97031,6.21683 -35.9554,9.3255c-2.03165,0.52697 -3.60318,0.90309 -5.7336,0.92389l-1.25756,-0.24752c0,0 -0.98036,-0.19722 -0.78313,-1.17758c0.19723,-0.98036 1.17758,-0.78313 1.17758,-0.78313l1.05255,0.21722c1.85027,-0.01408 3.26066,-0.40677 5.04202,-0.86882c11.98542,-3.10875 23.97034,-6.21938 35.95637,-9.32575c5.69013,-1.47088 11.87531,-2.39802 17.65472,-1.96943c1.28961,0.09564 2.99628,-1.00569 4.28504,-1.12574c1.87798,-0.17494 3.49575,-0.60099 5.38903,-0.88942c2.91591,-0.44423 6.19858,1.00955 8.94614,0.28121c2.07443,-0.01891 4.21491,0.56596 6.27956,0.42666c1.22843,-0.08288 2.48557,-0.8024 3.7339,-1.11718c-0.05989,-0.0926 -0.11013,-0.20564 -0.14585,-0.34336c-0.03524,-0.13587 -0.04647,-0.25762 -0.03972,-0.36652c-1.44635,-0.2192 -2.85215,-0.29162 -4.3169,-0.82353l-0.77295,-0.43561c0,0 -0.86199,-0.50692 -0.35507,-1.36891c0.50692,-0.86199 1.36891,-0.35507 1.36891,-0.35507l0.44609,0.28128c1.76836,0.65196 3.41944,0.53627 5.20386,0.96131c0.35406,0.08434 0.69294,0.19787 1.0209,0.3324c0.73585,-0.39826 1.3335,-1.07053 2.07946,-1.46587c2.35317,-1.24713 5.76626,-2.88369 6.54572,-5.73676c0.1684,-0.61639 -0.67061,-2.28227 -0.85635,-2.99835c-0.75799,-2.92234 -1.97275,-6.48289 -4.17008,-8.70616c-0.90578,-0.91647 -3.15694,-1.29392 -4.27974,-1.68387c-2.5489,-0.9486 -4.94433,-0.3336 -7.61804,-0.47807c-4.14152,-0.22378 -8.32718,-1.04463 -12.54895,-0.90689c-6.02625,0.19661 -12.45445,2.79924 -18.26017,4.30511c-9.39286,2.4363 -17.77122,6.02838 -26.06135,10.91389c-2.82276,1.66349 -6.00585,2.64014 -8.46444,4.82827c-5.70837,5.35766 -12.39551,10.32467 -17.56511,16.18667c-0.76692,0.86963 -1.54614,2.39498 -2.32707,3.22129c-2.91543,3.08484 -5.99868,5.73251 -7.44783,9.92961c-2.39741,4.93916 -1.28124,8.23016 2.08513,12.51665c0.63495,0.8085 0.76175,2.0601 1.62183,2.62322c0.17642,0.11551 2.44078,-0.40139 2.80561,-0.32753c0.46203,0.09353 0.75348,0.64289 1.21904,0.7169c0.95602,0.15198 1.83597,-0.81144 2.80243,-0.76221c0.22767,-1.54794 0.13743,-3.08848 0.60473,-4.65073c0.8861,-2.96233 2.87515,-5.80405 3.46958,-8.79194l0.23291,-1.0935c0,0 0.20833,-0.97806 1.18638,-0.76974c0.97806,0.20833 0.76974,1.18638 0.76974,1.18638l-0.23291,1.0935c-0.68693,3.0724 -2.58881,5.90344 -3.51039,8.95114c-0.45425,1.50224 -0.35955,3.00431 -0.57134,4.50806c0.14625,0.00251 0.29114,-0.015 0.43423,-0.06149c0,0 0.96797,-0.25107 1.21904,0.7169c0.25107,0.96797 -0.7169,1.21904 -0.7169,1.21904c-0.44368,0.09946 -0.89483,0.06081 -1.34856,-0.01847c-0.57539,2.14171 -1.17552,3.66421 -1.23693,6.15837c-0.23025,3.54917 -0.38553,7.00551 -0.63822,10.4532c-0.276,0.5612 -0.55204,1.12239 -0.82813,1.68357c-1.3781,9.25979 -5.65468,17.98278 -9.7233,26.311c-0.84502,1.72663 -1.6736,3.36931 -2.8428,4.81912c-2.4659,3.05772 -6.76149,5.41783 -8.09177,9.27518c-0.53091,1.53945 -1.27888,4.4721 0.28996,5.84023c0.61799,0.53893 1.40526,0.85085 2.06,1.34449c8.78211,3.89254 18.33728,2.54865 27.33452,0.25734c0.7908,-0.38315 1.49329,-0.54241 2.1897,-0.98087c0.24985,-0.20586 0.50328,-0.4092 0.75971,-0.61042l0.16559,-0.14573c0,0 0.06478,-0.05652 0.17292,-0.11743c2.37647,-1.83067 4.98267,-3.49913 7.35581,-5.32889c3.55997,-2.74483 6.60175,-6.87852 9.26664,-10.46547c1.66748,-2.8401 2.42315,-5.76713 3.86425,-8.66152c0.3539,-0.7108 1.17925,-1.6206 1.24162,-2.54403c0.05112,-0.75689 -0.25035,-1.5465 -0.04037,-2.27548c0.00311,-0.0108 0.00664,-0.02199 0.01058,-0.03355c-0.3547,-0.40824 -0.15669,-0.97847 -0.15669,-0.97847c0.78938,-2.27174 1.34476,-4.25315 1.84629,-6.55827c0.15912,-0.73133 0.03771,-3.38698 0.14938,-3.76903c0.61526,-2.10498 2.97496,-4.15043 4.30586,-5.99633c2.24484,-3.11348 4.71596,-6.10037 8.26329,-7.82969c0.56485,-2.33698 4.61304,-3.92442 6.59951,-5.23598c2.59148,-1.71102 5.23232,-3.06402 7.93758,-4.19501c-0.16493,0.41237 -0.30989,0.88581 -0.38929,1.39921c8.05299,-2.08877 16.10597,-4.17754 24.15896,-6.2663c2.15761,-0.55964 4.31523,-1.11928 6.47284,-1.67891c-0.03866,-0.31265 -0.10105,-0.64037 -0.19012,-0.98378c-0.03532,-0.13617 -0.0731,-0.26814 -0.11322,-0.39604c0.93263,-0.01866 1.8422,0.0355 2.71498,0.18424c0.2933,0.04998 0.55953,0.20502 0.82572,0.35587c0.79647,-0.20659 1.59294,-0.41317 2.38941,-0.61976l0.96797,-0.25107c0,0 0.81477,-0.21133 1.14316,0.5013c5.4041,-0.49779 11.79626,-0.17161 16.8408,0.95712c5.02869,-1.10024 10.17184,-0.53892 15.21438,-0.20092c2.05443,0.13771 3.77267,-0.28728 5.76005,-0.50634c5.82269,-0.6418 11.16881,-0.83942 16.93428,-2.33486c2.08296,-0.54027 4.9637,-0.77845 6.71441,-2.15669c4.21522,-3.31841 5.68421,-8.62057 8.30431,-12.80025c0.89824,-1.43291 0.14386,-3.93552 0.43309,-5.49745c0.38195,-2.06262 0.73854,-2.75926 0.21259,-4.78697c-0.59398,-2.53894 0.458,-5.20453 -0.95701,-7.77914c-0.96762,-1.76058 -2.70748,-1.82909 -4.32825,-1.72507c-4.36799,0.28036 -8.3568,1.61795 -12.21118,3.55694c-0.08227,0.14265 -0.1653,0.28692 -0.24929,0.43317l0.23151,-0.27401c0,0 0.25107,0.96797 -0.7169,1.21904zM327.81595,20.53788c0,0 0.33732,-0.57359 0.92953,-0.50981l0.8108,-0.33169c-0.85342,-1.0545 -0.51587,-2.55666 -1.44573,-3.58235c-3.54796,-2.08651 -6.51648,-0.46346 -10.38581,0.54016c-1.1972,0.31053 -2.54357,0.25035 -3.60215,0.88999c-0.51432,0.31078 -0.69199,1.02497 -1.20088,1.34457c-1.22356,0.76844 -3.18147,0.74133 -4.52789,1.35209c-3.97564,1.80344 -8.10097,3.65655 -11.77628,6.00711c-5.79706,1.57269 -12.1016,3.44986 -18.2054,2.65066c3.80136,1.44465 7.5516,3.18671 11.57798,4.37462c7.54902,1.60255 18.174,-1.295 25.01852,-4.5368c2.49375,-1.18113 5.22648,-1.50211 7.58887,-3.04274c1.08149,-0.64717 2.17185,-1.26299 3.27464,-1.83569c0.66428,-1.11619 1.22476,-2.07418 1.9438,-3.32013zM260.654,63.48291c-8.55039,2.21778 -17.10078,4.43557 -25.65118,6.65335c0,0 -0.7273,0.18865 -1.08455,-0.39154c-1.47532,0.74652 -2.93169,1.58261 -4.37169,2.53338c-1.88519,1.24471 -5.53514,2.60732 -6.12287,4.79495c-3.47201,2.04594 -5.90886,4.57295 -8.22622,7.78048c-1.2408,1.71743 -3.50408,3.66521 -4.08108,5.60026c-0.32251,1.08158 0.20047,2.28096 -0.03015,3.38579c-0.30561,1.46408 -0.65659,2.83145 -1.07186,4.21476l2.56585,-0.66553c-0.98327,1.25133 -1.8257,2.59308 -2.47414,4.04416c0,0 -0.27147,0.60634 -0.86609,0.60934c-0.00403,0.48088 0.24819,0.97456 0.21474,1.46229c-0.09507,1.38589 -0.82629,1.99797 -1.44103,3.22024c-1.48144,2.94554 -2.27583,5.96843 -3.98534,8.87085c-2.79461,3.77275 -5.9847,8.04923 -9.71475,10.94646c-2.41085,1.87257 -5.11528,3.55999 -7.52094,5.44404l-0.65107,0.56405c-0.094,0.06711 -0.18708,0.12987 -0.27949,0.18892c-0.12574,0.1054 -0.25037,0.21152 -0.37379,0.31844c-0.03349,0.02901 -0.067,0.05803 -0.10053,0.08705c-0.01787,-0.03302 -0.0368,-0.06608 -0.05684,-0.09918c-0.70425,0.36648 -1.39635,0.58726 -2.18999,0.97178c-9.54316,2.5135 -19.74964,3.7869 -29.03883,-0.41039c-0.78181,-0.58068 -1.731,-0.94438 -2.42897,-1.62354c-2.11515,-2.05814 -1.64643,-5.50705 -0.80146,-7.92671c1.97716,-5.6618 8.4304,-9.00732 11.03222,-14.3314c4.11033,-8.39658 8.46806,-17.22329 9.6622,-26.59846c0,0 0.08865,-0.69576 0.70014,-0.84766c0.24477,-3.36674 0.3998,-6.74242 0.62597,-10.21242c0.061,-2.49837 0.66343,-4.19363 1.24258,-6.34896c-0.8851,0.1179 -1.72511,0.82711 -2.62352,0.73379c-0.46888,-0.0487 -0.75915,-0.61332 -1.21904,-0.7169c-0.64769,-0.14588 -2.66279,0.5437 -3.25328,0.21092c-0.19674,-0.11087 -2.2732,-3.00159 -2.46978,-3.25159c-3.76901,-4.79332 -5.08884,-8.93085 -2.35963,-14.51949c1.54096,-4.41368 4.76346,-7.27956 7.84132,-10.53626c0.89346,-0.94537 1.41829,-2.19229 2.2785,-3.16801c5.21889,-5.91966 11.95763,-10.93727 17.72133,-16.34557c2.60823,-2.28235 5.82998,-3.32315 8.79462,-5.07178c8.44898,-4.98344 17.00413,-8.64449 26.57495,-11.12695c5.95876,-1.54557 12.51198,-4.16632 18.6971,-4.36811c4.28743,-0.13988 8.56222,0.71181 12.76749,0.91171c2.8964,0.13768 5.33434,-0.39164 8.13137,0.58656c1.54226,0.5356 3.76814,0.9421 4.9959,2.12456c2.48538,2.39367 3.88973,6.43559 4.7232,9.64895c0.26525,1.02263 1.08675,2.7415 0.90114,3.77743c-0.64179,3.58203 -4.81244,5.75355 -7.58954,7.2268c-0.21848,0.1159 -0.42794,0.24879 -0.63299,0.38979c0.83192,0.09282 1.90286,0.10424 2.5429,0.45487c0.24839,0.13607 0.83273,0.52459 1.47673,0.9716c0.3592,-0.42636 0.96862,-0.29656 0.96862,-0.29656c0.43867,0.10997 0.84648,0.27969 1.22891,0.49769c-0.60376,0.2997 -1.08573,0.66222 -1.46917,1.06094c1.75683,0.57874 3.48579,1.42915 5.23336,1.79116c6.17535,1.27926 12.50323,-0.8487 18.41647,-2.28581c3.61275,-2.38217 7.82112,-4.2311 11.77429,-6.00624c1.17943,-0.52961 3.26565,-0.5364 4.29403,-1.22982c0.49824,-0.33596 0.68009,-1.04477 1.20088,-1.34457c2.40826,-1.38633 6.26357,-1.66896 8.98145,-2.37392c1.09172,-0.28317 2.18328,-0.97451 3.29344,-0.77561c1.07373,0.19238 3.09832,1.33859 4.03157,1.88742c1.43851,1.67952 1.73851,3.68236 2.03294,5.84627l-1.71419,1.33719c0,0 -0.15754,0.10221 -0.38038,0.14978c-0.08895,0.14825 -0.17671,0.29485 -0.26355,0.44023c3.2976,-1.40057 6.72985,-2.33804 10.38504,-2.51945c2.38067,-0.11816 4.80958,0.33284 6.14096,2.79109c0.61099,1.12814 1.43336,4.15983 1.37015,5.3468c-0.05095,0.95673 -0.51924,1.94541 -0.24598,2.8637c0.57825,2.22938 0.24833,3.42494 -0.18062,5.64593c-0.37538,1.94367 0.36199,4.30506 -0.67702,6.15449c-2.48212,4.41814 -4.43415,10.03115 -8.79462,13.36059c-2.0539,1.56825 -5.01428,1.88772 -7.44594,2.51844c-4.16534,1.0804 -8.48405,1.88529 -12.81616,2.36729l0.10703,0.41264c1.09468,4.22042 -0.28561,5.27233 -4.22534,6.24831c-1.60171,-0.09347 -3.13634,0.15471 -4.67918,0.16605c-5.52142,0.04058 -11.58662,-1.86274 -16.95934,-2.89963c-3.43647,-0.66321 -6.92122,-0.32975 -10.22335,-1.49119c-2.63853,-0.17569 -5.21416,-0.90451 -7.83954,-1.00108c-2.19411,-0.0807 -4.41095,0.08937 -6.62872,0.15222c0.0611,-0.1599 0.11483,-0.32659 0.16008,-0.50032c-2.03031,0.52662 -4.04101,1.04815 -5.85574,1.51885zM281.21738,61.35353c3.29201,1.12953 6.75179,0.82479 10.17662,1.48224c5.23031,1.00404 11.19189,2.92625 16.56268,2.86876c1.4763,-0.0158 2.99347,-0.27032 4.53468,-0.15764c2.90412,-0.80018 3.27378,-0.68632 2.47782,-3.75507l-0.12553,-0.48398c0,0 -0.02461,-0.09487 -0.02871,-0.2329c-2.16094,0.1907 -4.3199,0.29929 -6.45952,0.3199c-5.76279,0.05551 -11.37392,-0.93763 -17.15581,0.22109c-4.75285,-0.96797 -10.4485,-1.37371 -15.55744,-1.04079c1.85152,0.26691 3.68414,0.64762 5.57522,0.77838zM271.14964,26.7472c0.52436,0.0973 1.04431,0.2089 1.5606,0.33288c-0.52573,-0.20511 -1.05383,-0.39244 -1.57706,-0.53572c-0.02367,0.06183 -0.04602,0.12372 -0.06711,0.18557c0.02784,0.00633 0.05569,0.0121 0.08357,0.01727zM264.72972,23.7549c0.29709,0.1271 0.59195,0.26894 0.90271,0.3362c-0.07847,-0.05761 -0.15111,-0.12548 -0.22029,-0.19944c-0.13294,-0.07291 -0.26681,-0.14309 -0.40187,-0.20975zM270.5713,26.56328c0.12486,0.05422 0.24974,0.10041 0.37494,0.13597c-0.12633,-0.04657 -0.25152,-0.09183 -0.37494,-0.13597z" fill="#000000"/><path d="M325.92187,23.85264c-1.10278,0.5727 -2.19287,1.19258 -3.27436,1.83975c-2.36239,1.54063 -5.09653,1.87475 -7.59028,3.05588c-6.84452,3.2418 -17.56296,6.14954 -25.11198,4.54699c-4.02638,-1.18791 -7.78147,-2.94679 -11.58282,-4.39144c6.1038,0.79921 12.40808,-1.08267 18.20513,-2.65536c3.6753,-2.35056 7.87823,-4.24587 11.85387,-6.04931c1.34642,-0.61077 3.31461,-0.5746 4.53817,-1.34303c0.50889,-0.3196 0.68596,-1.03448 1.20028,-1.34526c1.05858,-0.63964 2.40828,-0.5753 3.60548,-0.88583c3.86933,-1.00362 6.84324,-2.61707 10.3912,-0.53057c0.92986,1.02568 0.59471,2.53492 1.44813,3.58943l-0.81074,0.33192c-0.59221,-0.06378 -0.9294,0.51035 -0.9294,0.51035c-0.71903,1.24594 -1.27841,2.2103 -1.94269,3.32648z" data-paper-data="{&quot;noHover&quot;:false,&quot;origItem&quot;:[&quot;Path&quot;,{&quot;applyMatrix&quot;:true,&quot;segments&quot;:[[[334.81595,30.53788],[-0.71903,1.24594],[0,0]],[[335.74548,30.02807],[-0.59221,-0.06378],[0,0]],[[336.55629,29.69637],[0,0],[-0.85342,-1.0545]],[[335.11056,26.11403],[0.92986,1.02568],[-3.54796,-2.08651]],[[324.72475,26.65418],[3.86933,-1.00362],[-1.1972,0.31053]],[[321.1226,27.54417],[1.05858,-0.63964],[-0.51432,0.31078]],[[319.92172,28.88875],[0.50889,-0.3196],[-1.22356,0.76844]],[[315.39383,30.24084],[1.34642,-0.61077],[-3.97564,1.80344]],[[303.61755,36.24795],[3.6753,-2.35056],[-5.79706,1.57269]],[[285.41215,38.89861],[6.1038,0.79921],[3.80136,1.44465]],[[296.99013,43.27323],[-4.02638,-1.18791],[7.54902,1.60255]],[[322.00865,38.73643],[-6.84452,3.2418],[2.49375,-1.18113]],[[329.59752,35.69369],[-2.36239,1.54063],[1.08149,-0.64717]],[[332.87216,33.858],[-1.10278,0.5727],[0.66428,-1.11619]]],&quot;closed&quot;:true}]}" fill="#ffffff"/><path d="M275.59244,60.57003c5.10894,-0.33292 10.80557,0.06686 15.55842,1.03483c5.78189,-1.15872 11.49153,-0.1594 17.25432,-0.21491c2.13962,-0.02061 4.29866,-0.12839 6.45959,-0.31909c0.00411,0.13804 0.02876,0.23351 0.02876,0.23351l0.12561,0.48526c0.79597,3.06875 0.42562,2.96561 -2.4785,3.7658c-1.54121,-0.11268 -3.05915,0.14544 -4.53544,0.16124c-5.37078,0.05749 -11.43082,-1.87456 -16.66113,-2.8786c-3.42483,-0.65745 -6.88447,-0.35942 -10.17648,-1.48895c-1.89108,-0.13076 -3.72363,-0.51217 -5.57515,-0.77908z" data-paper-data="{&quot;noHover&quot;:false,&quot;origItem&quot;:[&quot;Path&quot;,{&quot;applyMatrix&quot;:true,&quot;segments&quot;:[[[672.17134,29.50372],[-3.59535,-1.20274],[5.80595,3.83975]],[[691.12835,37.48333],[-6.30013,-2.99253],[9.62139,4.5701]],[[721.75214,51.35386],[-10.42637,-2.5856],[2.86596,0.71072]],[[730.61016,53.32572],[-2.92711,-0.99205],[6.024,-0.09082]],[[737.29263,47.30035],[0,6.34059],[0,0]],[737.29263,46.30035],[[737.354,45.83505],[-0.06136,0.26929],[-4.2792,-0.71591]],[[724.68813,43.21078],[4.15253,1.03449],[-11.18428,-2.78627]],[[691.36454,35.02419],[11.77522,0.6601],[-8.71517,-4.26052]],[[661.76892,25.19728],[10.05777,1.92088],[3.4504,1.44644]]],&quot;closed&quot;:true}]}" fill="#f1f1f1"/><path d="M235.96364,67.85382c0.07939,-0.5134 0.22255,-0.98821 0.38748,-1.40058c-2.70526,1.13099 -5.35277,2.47761 -7.94426,4.18864c-1.98647,1.31156 -5.95876,2.83389 -6.52361,5.17088c-3.54732,1.72931 -6.01898,4.71559 -8.26382,7.82907c-1.3309,1.8459 -3.69181,3.89002 -4.30707,5.99499c-0.11167,0.38206 0.00785,3.0358 -0.15126,3.76714c-0.50153,2.30512 -1.05905,4.2846 -1.84843,6.55634c0,0 -0.19852,0.5698 0.15617,0.97803c-0.00394,0.01157 -0.00747,0.02275 -0.01059,0.03355c-0.20999,0.72897 0.09049,1.51778 0.03937,2.27467c-0.06237,0.92343 -0.8881,1.83293 -1.24201,2.54373c-1.44109,2.8944 -2.19804,5.82047 -3.86552,8.66058c-2.66489,3.58695 -5.76581,7.80128 -9.32577,10.5461c-2.37315,1.82976 -4.9805,3.49733 -7.35697,5.328c-0.10814,0.0609 -0.17294,0.1174 -0.17294,0.1174l-0.1656,0.14571c-0.25642,0.20123 -0.50995,0.40449 -0.7598,0.61035c-0.69641,0.43846 -1.39934,0.59735 -2.19014,0.98051c-8.99724,2.29131 -18.55902,3.62867 -27.34114,-0.26387c-0.65474,-0.49363 -1.44266,-0.80634 -2.06065,-1.34527c-1.56885,-1.36813 -0.82215,-4.30244 -0.29125,-5.84189c1.33028,-3.85735 5.6251,-6.21853 8.091,-9.27625c1.1692,-1.44981 1.9971,-3.0935 2.84212,-4.82012c4.06861,-8.32821 8.3401,-17.0611 9.71821,-26.32089c0.27609,-0.56117 0.55183,-1.12318 0.82783,-1.68438c0.25269,-3.44769 0.40608,-6.91067 0.63633,-10.45984c0.06141,-2.49416 0.66084,-4.02087 1.23622,-6.16258c0.45374,0.07928 0.90491,0.11807 1.34858,0.01861c0,0 0.96787,-0.25192 0.7168,-1.21989c-0.25107,-0.96797 -1.2191,-0.71753 -1.2191,-0.71753c-0.1431,0.04649 -0.28798,0.06402 -0.43423,0.06151c0.21179,-1.50375 0.11688,-3.00916 0.57113,-4.5114c0.92158,-3.04771 2.82375,-5.88577 3.51068,-8.95817l0.23302,-1.09438c0,0 0.20844,-0.97889 -0.76962,-1.18722c-0.97806,-0.20833 -1.08735,0.78358 -1.08735,0.78358l-0.23281,1.09265c-0.59443,2.98788 -2.58316,5.82289 -3.46926,8.78523c-0.4673,1.56225 -0.37724,3.09943 -0.60491,4.64737c-0.96646,-0.04924 -1.946,0.92325 -2.90202,0.77127c-0.46556,-0.07401 -0.75706,-0.62393 -1.21909,-0.71746c-0.36483,-0.07386 -2.62918,0.4431 -2.8056,0.32759c-0.86008,-0.56312 -0.98699,-1.81649 -1.62195,-2.62499c-3.36638,-4.28649 -4.4823,-7.58542 -2.08489,-12.52458c1.44915,-4.1971 4.53371,-6.85187 7.44914,-9.93671c0.78094,-0.82631 1.56086,-2.3541 2.32778,-3.22374c5.16961,-5.86199 11.86413,-10.84355 17.57249,-16.20122c2.45859,-2.18812 5.64642,-3.17033 8.46919,-4.83383c8.29013,-4.8855 16.6887,-8.49002 26.08157,-10.92632c5.80572,-1.50588 12.25004,-4.11091 18.27629,-4.30752c4.22177,-0.13774 8.41809,0.68443 12.55961,0.90821c2.67371,0.14446 5.0751,-0.46873 7.624,0.47987c1.1228,0.38995 3.37747,0.76885 4.28325,1.68532c2.19733,2.22327 3.41803,5.78706 4.17602,8.7094c0.18574,0.71608 1.02658,2.38319 0.85818,2.99958c-0.77947,2.85307 -4.24797,4.57284 -6.60114,5.81996c-0.74596,0.39534 -1.34262,1.06822 -2.07848,1.46647c-0.32796,-0.13453 -0.66576,-0.24744 -1.01982,-0.33177c-1.78442,-0.42504 -3.42995,-0.30664 -5.19831,-0.9586l-0.4455,-0.28104c0,0 -0.86065,-0.50641 -1.36758,0.35558c-0.50692,0.86199 0.39045,1.27539 0.39045,1.27539l0.77401,0.43604c1.46475,0.53191 2.87544,0.60669 4.32179,0.82589c-0.00675,0.10891 0.00471,0.23078 0.03995,0.36666c0.03572,0.13772 0.03691,0.33791 0.0968,0.43051c-1.24832,0.31478 -2.50218,1.03601 -3.73061,1.11889c-2.06465,0.13929 -4.19718,-0.4426 -6.27161,-0.42369c-2.74756,0.72834 -6.01733,-0.72359 -8.93324,-0.27937c-1.89328,0.28843 -3.50293,0.71391 -5.38091,0.88885c-1.28876,0.12005 -2.9889,1.21993 -4.27851,1.12429c-5.77941,-0.42859 -11.94507,0.48758 -17.6352,1.95846c-11.98603,3.10637 -23.95701,6.19537 -35.94243,9.30413c-1.78136,0.46205 -3.19126,0.85313 -5.04153,0.86721l-1.05253,-0.21728c0,0 -0.98016,-0.19794 -1.17739,0.78242c-0.19723,0.98036 0.7833,1.17695 0.7833,1.17695l1.16068,0.22273c2.13042,-0.0208 3.70243,-0.39864 5.73408,-0.92561c11.98509,-3.10867 23.98313,-6.24125 35.96884,-9.34754c5.635,-1.45677 11.51219,-2.15701 17.21709,-1.91766c3.07476,0.129 6.93834,-1.55714 9.95235,-2.04052c2.94537,-0.47238 6.052,0.94023 8.9013,0.29153c2.06706,-0.0174 4.15643,0.58534 6.22538,0.43674c1.49813,-0.1076 3.25274,-1.37118 4.71655,-1.24928c0.70843,0.059 1.39189,0.13281 2.06545,0.20156c-0.01876,0.55309 0.51524,0.86726 0.51524,0.86726l0.90915,0.47531c1.38889,0.27631 2.25543,1.36836 3.60511,1.68219c6.29844,1.46453 12.13347,4.58334 18.6365,6.49831c7.93501,1.69543 19.14916,-1.12689 26.32202,-4.6426c2.55737,-1.25347 5.26922,-1.57312 7.73907,-3.1364c4.99498,-2.99418 10.18232,-5.23114 15.93333,-5.60027c1.62077,-0.10403 3.36113,-0.03412 4.32875,1.72645c1.41501,2.57461 0.36408,5.24371 0.95806,7.78265c0.52594,2.02771 0.16987,2.7265 -0.21208,4.78913c-0.28923,1.56193 0.46562,4.06709 -0.43261,5.5c-2.6201,4.17969 -4.08849,9.48794 -8.30371,12.80635c-1.75071,1.37824 -4.63142,1.61753 -6.71439,2.15781c-5.76547,1.49544 -11.11159,1.69459 -16.93428,2.33639c-1.98738,0.21906 -3.70564,0.64453 -5.76007,0.50682c-5.04254,-0.338 -10.18571,-0.89868 -15.2144,0.20155c-5.04455,-1.12873 -11.53664,-1.45844 -16.94074,-0.96065c-0.32839,-0.71263 -1.04319,-0.499 -1.04319,-0.499l-0.96798,0.25153c-0.79647,0.20659 -1.59298,0.41445 -2.38945,0.62103c-0.26619,-0.15085 -0.63232,-0.31026 -0.92562,-0.36024c-0.87278,-0.14874 -1.68241,-0.19931 -2.61504,-0.18065c0.04011,0.1279 0.07786,0.26071 0.11318,0.39688c0.08907,0.34341 0.15131,0.6732 0.18997,0.98585c-2.15761,0.55964 -4.31626,1.12577 -6.47388,1.68541c-8.05299,2.08877 -16.18398,4.20697 -24.23697,6.29574z" data-paper-data="{&quot;noHover&quot;:false,&quot;origItem&quot;:[&quot;Path&quot;,{&quot;applyMatrix&quot;:true,&quot;segments&quot;:[[[631.29263,19.30035],[-16.63894,0],[4.45802,0]],[[644.6667,19.30035],[-4.45802,0],[0.08215,-0.62469]],[[644.79263,17.30035],[0,0.70954],[0,-0.28134]],[[644.77232,16.4768],[0.01343,0.26775],[1.81489,0.43219]],[[649.93584,18.19678],[-1.61495,-0.7262],[0.54271,0.24404]],[[651.35569,19.30035],[-0.43959,-0.4257],[1.64565,0]],[[656.29263,19.30035],[-1.64565,0],[0,0]],[658.29263,19.30035],[[660.254,20.84486],[-0.27791,-1.5445],[10.71196,1.74993]],[[692.37615,31.15422],[-9.19915,-4.71822],[10.2877,0.39511]],[[721.93113,38.40501],[-9.59232,-3.18641],[3.9081,1.2982]],[[733.33649,40.31712],[-3.95744,-0.57386],[11.59465,1.68132]],[[767.29263,44.30035],[-11.91251,0],[4.30378,0]],[[781.37428,43.49671],[-4.08135,1.78909],[9.82671,-4.30761]],[[803.87842,22.88614],[-7.17113,6.77596],[2.45845,-2.32298]],[[807.47734,12.46089],[-1.34424,2.87856],[1.77516,-3.80132]],[[810.29263,3.30035],[0,4.18962],[0.12499,-5.21349]],[[812.34614,-12.24014],[1.44656,5.69482],[-0.98919,-3.89425]],[[804.83313,-17.75315],[3.18995,0.61246],[-11.31894,-2.1732]],[[771.37397,-14.9331],[11.17346,-3.28837],[-5.56646,1.7862]],[[754.61781,-12.72626],[5.58032,-1.14248],[-15.65159,3.20442]],[[701.33021,-16.94643],[14.51035,7.26673],[-11.62787,-6.97269]],[[668.52727,-38.85189],[11.45798,5.99794],[-2.4553,-1.28528]],[[662.39821,-43.91079],[2.55005,1.23234],[0,0]],[660.87842,-45.28543],[[660.31795,-47.22128],[-0.31404,1.06134],[-1.26943,-0.47132]],[[656.42372,-48.64511],[1.34186,0.46995],[-2.77264,-0.97104]],[[646.67227,-48.58831],[2.95431,0.54397],[-4.07998,-0.75123]],[[634.85372,-52.54938],[4.01044,1.00426],[-5.84179,-0.1749]],[[617.79282,-57.57249],[5.93925,0.56449],[-6.07767,-0.57765]],[[597.53313,-58.61599],[5.88776,1.7937],[-10.92413,-3.32803]],[[563.28275,-63.56143],[11.64052,0.00934],[-24.76337,-0.00492]],[[488.99263,-63.56248],[24.76337,0],[-4.19776,0]],[[477.42881,-64.65296],[4.13481,1.02951],[0,0]],[475.11854,-65.76361],[[474.19376,-68.43658],[-0.8741,1.79888],[0.8741,-1.79888]],[476.86673,-69.36136],[[478.79532,-68.4123],[0,0],[3.58908,0.90184]],[[488.99263,-67.56248],[-3.68061,0],[24.76405,0]],[[563.28477,-67.56143],[-24.76405,-0.00492],[11.75432,0.00971]],[[598.45214,-62.50898],[-10.97336,-3.7318],[2.44858,0.83271]],[[607.313,-62.53666],[-2.55525,-0.41473],[3.72349,0.60434]],[[618.19244,-61.55248],[-3.81011,-0.3923],[5.86809,0.6042]],[[635.3704,-56.51587],[-5.68483,0.03037],[4.02547,1.00505]],[[647.313,-52.53666],[-4.06698,-0.76708],[2.41979,0.4564]],[[655.10257,-52.82451],[-2.57474,-0.01744],[-0.06945,-0.20935]],[[654.99263,-53.56248],[0,0.28456],[0,-0.28073]],[[655.09978,-54.29199],[-0.06775,0.20745],[-2.68997,-1.15062]],[[647.15607,-58.05398],[2.56857,1.76525],[0,0]],[645.87842,-59.28543],[[645.87842,-62.11386],[-1.41421,1.41421],[1.41421,-1.41421]],[648.70685,-62.11386],[[649.4292,-61.34531],[0,0],[3.09607,2.15012]],[[659.02085,-56.8712],[-3.2411,-1.71888],[0.64309,0.34106]],[[660.83033,-55.71506],[-0.56735,-0.42512],[1.62455,-0.4015]],[[665.5921,-57.50871],[-1.64266,0.39078],[5.18183,-1.23274]],[[681.14487,-65.32785],[-2.94164,5.13197],[0.63552,-1.10873]],[[680.99263,-71.56248],[0,1.47955],[0,-6.03808]],[[677.29133,-90.51102],[3.1375,5.40747],[-1.29334,-2.22906]],[[669.85155,-95.91991],[1.97787,1.31872],[-4.45819,-3.11633]],[[655.34356,-100.67074],[5.10359,1.62225],[-7.90536,-2.51284]],[[631.50496,-108.72775],[8.24224,1.85327],[-11.76518,-2.6454]],[[593.99263,-109.56248],[11.99568,0],[-19.40736,0]],[[538.05917,-101.52032],[18.50239,-5.29522],[-6.3,1.803]],[[519.24807,-96.42343],[5.85843,-3.00151],[-13.74134,7.5057]],[[477.11513,-73.90719],[12.95158,-8.75259],[-1.92138,1.29846]],[[470.99252,-68.83948],[1.92677,-1.20755],[-7.19312,4.5081]],[[451.58793,-53.35623],[4.91299,-7.39765],[-7.12138,8.35807]],[[449.33951,-28.07774],[-4.36468,-9.98877],[0.82325,1.88405]],[[451.16205,-22.18497],[-1.3823,-1.52204],[0.28354,0.3122]],[[456.758,-21.41024],[-0.6692,-0.32618],[0.8475,0.41308]],[[458.758,-19.41024],[-0.86413,-0.37706],[1.77448,0.77428]],[[464.56607,-19.47861],[-1.84629,-0.58062],[1.21804,-2.88239]],[[468.07211,-28.17848],[-1.68914,2.78977],[3.20294,-5.28995]],[[479.20378,-43.45691],[-2.65111,5.48587],[0,0]],[480.20378,-45.45691],[[482.88706,-46.35134],[-1.78885,-0.89443],[1.78885,0.89443]],[483.78149,-43.66806],[[482.78149,-41.66806],[0,0],[-2.87263,5.60304]],[[471.49086,-26.10191],[3.3145,-5.43741],[-1.63374,2.68014]],[[468.1211,-17.66148],[1.16511,-2.80481],[0.28188,0.0783]],[[468.99263,-17.56248],[-0.30037,0.01815],[0,0]],[[470.99263,-15.56248],[0,-2],[0,2]],[[468.99263,-13.56248],[0,0],[-0.90887,-0.03024]],[[466.39117,-14.27541],[0.8386,0.38132],[-2.18935,3.8573]],[[460.90419,-2.97429],[1.3713,-4.79771],[-2.22793,6.75535]],[[454.41967,16.94199],[2.22042,-6.54763],[-0.81612,0.94786]],[[451.97107,19.78543],[0.81629,-0.94776],[-7.31763,17.23437]],[[419.93557,65.83943],[12.05851,-14.07989],[-2.50291,2.91833]],[[412.01221,73.74147],[2.9915,-2.21964],[-6.30923,4.68133]],[[391.68961,87.63445],[4.51227,-6.7996],[-1.80082,2.71369]],[[389.31835,99.08638],[-2.3502,-3.4364],[0.92578,1.35365]],[[392.63127,102.72363],[-1.01967,-1.28441],[15.04703,11.94556]],[[445.41998,116.94758],[-18.56866,-0.08204],[1.72334,-0.34467]],[[450.15163,116.14822],[-1.56837,0.49913],[0.58706,-0.27308]],[[451.92889,115.34796],[-0.59746,0.2608],[0,0]],[452.32263,115.14899],[[452.71635,115.00849],[-0.23993,0.0636],[5.51996,-2.35075]],[[469.6326,108.38573],[-5.51306,2.35065],[8.27016,-3.52621]],[[492.82736,92.77838],[-6.96021,5.60597],[4.65427,-4.66095]],[[504.6576,77.9506],[-4.24326,4.87974],[1.04206,-1.19836]],[[508.33876,73.64898],[-0.58443,1.75639],[0.47903,-1.43962]],[[509.40322,69.22353],[-0.77257,1.3058],[0.01145,-0.01935]],[[509.44054,69.16388],[-0.01343,0.02041],[-0.48168,-0.96843]],[[509.62853,67.19095],[0,0],[2.66892,-4.00156]],[[516.496,55.42165],[-2.12841,4.21073],[0.67527,-1.33592]],[[518.67777,48.20004],[-0.40803,0.68357],[2.2481,-3.76616]],[[530.02466,38.75367],[-3.50344,2.90525],[5.90927,-4.90029]],[[549.95346,27.74521],[-7.73575,1.56659],[2.26701,-4.24062]],[[565.3589,20.92255],[-4.50427,1.54162],[5.87612,-2.01115]],[[582.83205,16.78705],[-5.80513,0.83111],[-0.52636,0.7155]],[[581.37582,19.30035],[0.4115,-0.95405],[16.63894,0]]],&quot;closed&quot;:true}]}" fill="#ffffff"/></g><path d="M181.14632,26.67297c-0.09335,0 -0.17799,-0.00871 -0.25473,-0.02452c0.39805,0.67963 0.78552,1.36806 1.14914,2.0773c0,0 0.44721,0.89443 -0.44721,1.34164c-0.89443,0.44721 -1.34164,-0.44721 -1.34164,-0.44721c-1.47685,-3.056 -3.70029,-5.77988 -4.98938,-9.03285c-0.30243,-0.76317 0.02664,-1.98259 -0.10328,-2.75418c-0.40498,-2.4053 -0.97974,-4.96255 -1.47955,-7.37384c-0.80514,-3.88431 -2.75684,-7.54226 -3.33609,-11.33915c-0.48628,-3.87608 -3.00763,-8.04415 -4.06658,-11.92955c-1.06868,-3.92113 -1.07751,-8.03207 -1.55293,-12.03504c-0.64531,-5.43346 -1.57777,-10.48543 -1.57777,-15.9826c0,-1.6656 -0.19735,-3.47484 0.00749,-5.12218c0.28748,-2.31193 1.65659,-6.70674 4.26275,-7.35107c1.02434,-0.25325 2.63428,-0.02675 3.72975,-0.02675c0.42749,0 3.1366,-0.0202 3.38268,0.07612c4.24964,1.66333 7.41672,6.84773 11.22122,9.30654c3.47164,3.24842 7.70481,6.4596 10.23735,10.57669c2.8994,4.71348 6.02407,9.27605 9.00376,14.0059c1.3253,2.10374 2.10603,4.4176 3.48704,6.48005c2.782,4.17299 6.40887,8.54578 8.23556,13.19212c0.09833,-0.28616 0.33974,-0.63743 0.93242,-0.63743c1,0 1,1 1,1c0,0.97307 0.17695,2.21017 -0.01291,3.16018c-1.62892,8.15046 -10.04577,7.59151 -15.75733,10.31307c-0.40134,-0.04087 -0.84536,-0.30727 -1.20402,-0.1226c-0.33134,0.1706 -0.1547,0.85979 -0.5,1c-0.66225,0.26891 -1.4636,-0.14869 -2.14305,0.07323c-0.77021,0.25156 -1.21001,1.1097 -1.93547,1.47055c-1.93737,0.96366 -3.83957,1.19152 -5.56453,2.02945c-1.23809,0.60143 -2.61015,2.17807 -3.88076,2.94103c-1.17243,0.70401 -3.38116,1.37507 -4.29482,2.3422c-0.43304,0.45838 -0.76544,1.09875 -1.35646,1.31862l0.14935,0.47427c0,0 0,1 -1,1zM180.29567,24.14724c0.67328,-0.40117 1.07781,-1.13897 1.64354,-1.68138c1.15161,-1.10413 3.33766,-1.83796 4.70518,-2.6578c3.03377,-1.81878 4.76162,-3.30075 7.95345,-4.20637c1.47812,-0.41939 2.39587,-1.92109 3.6658,-2.3526c0.58653,-0.1993 1.28045,0.29991 1.85695,0.07323c0.34683,-0.13638 0.1652,-0.8363 0.5,-1c0.53907,-0.26357 1.19732,-0.08173 1.79598,-0.1226c4.76189,-2.53326 12.68626,-1.61106 14.20489,-8.50717c-0.57971,0.00735 -0.86957,-0.57236 -0.86957,-0.57236l-0.52945,-1.06453c-1.6277,-4.88309 -5.50377,-9.47138 -8.40817,-13.82798c-1.38473,-2.08543 -2.17616,-4.40575 -3.51296,-6.51995c-2.98425,-4.71968 -6.12295,-9.27238 -8.99624,-13.9941c-2.38967,-3.92699 -6.49965,-6.98105 -9.78579,-10.08167c-3.68131,-2.35751 -6.73011,-7.36677 -10.75565,-9.0351c-0.80631,-0.33416 -1.74451,0.07612 -2.61732,0.07612c-1.04541,0 -2.23937,-0.14583 -3.27025,-0.02675c-1.49915,0.17318 -2.59101,4.4471 -2.73725,5.64893c-0.19113,1.5708 0.00749,3.29054 0.00749,4.87782c0,5.41806 0.92749,10.38898 1.56381,15.74672c0.46351,3.90269 0.45466,7.92233 1.49651,11.74501c1.10047,4.03777 3.48381,8.13237 4.11671,12.1716c0.40063,3.02993 1.97719,6.16672 2.78904,9.23045c0.80428,3.03515 1.51132,6.36074 2.02102,9.44604c0.13316,0.80603 -0.29992,1.70301 0.02931,2.45068c0.86179,1.95709 1.94341,3.70964 3.00673,5.47338z" fill="#000000" stroke="none" stroke-width="0.5" stroke-linecap="butt"/><path d="M180.15608,25.48505c-1.06332,-1.76374 -2.15072,-3.51828 -3.01251,-5.47537c-0.32923,-0.74767 0.10253,-1.64522 -0.03063,-2.45125c-0.5097,-3.0853 -1.22615,-6.41641 -2.03043,-9.45156c-0.81185,-3.06373 -2.40062,-6.21361 -2.80125,-9.24354c-0.6329,-4.03923 -3.02416,-8.16147 -4.12463,-12.19924c-1.04185,-3.82268 -1.02775,-7.864 -1.49126,-11.76669c-0.63632,-5.35774 -1.55301,-10.34305 -1.55301,-15.76111c0,-1.58728 -0.19559,-3.3096 -0.00446,-4.8804c0.14624,-1.20183 1.24331,-5.47934 2.74246,-5.65252c1.03088,-0.11908 2.22767,0.02517 3.27308,0.02517c0.87281,0 1.81355,-0.4115 2.61986,-0.07734c4.02554,1.66833 7.08414,6.67439 10.76545,9.0319c3.28614,3.10062 7.41552,6.15435 9.80519,10.08134c2.87329,4.72172 6.04921,9.30424 9.03346,14.02392c1.3368,2.1142 2.13198,4.45789 3.51671,6.54332c2.9044,4.3566 6.77313,8.96724 8.40083,13.85033l0.52889,1.06542c0,0 0.28985,0.57972 0.86956,0.57237c-1.51863,6.89611 -9.46409,5.99213 -14.22598,8.52539c-0.59866,0.04087 -1.25976,-0.13977 -1.79883,0.1238c-0.3348,0.1637 -0.15456,0.86413 -0.50139,1.00051c-0.5765,0.22668 -1.27343,-0.27157 -1.85996,-0.07227c-1.26993,0.43151 -2.19476,1.93467 -3.67288,2.35406c-3.19183,0.90562 -4.93252,2.38761 -7.96629,4.20639c-1.36752,0.81984 -3.55939,1.55257 -4.711,2.6567c-0.56573,0.54241 -0.97174,1.27981 -1.64502,1.68098z" data-paper-data="{&quot;noHover&quot;:false,&quot;origItem&quot;:[&quot;Path&quot;,{&quot;applyMatrix&quot;:true,&quot;segments&quot;:[[[180.29567,24.14724],[0,0],[0.67328,-0.40117]],[[181.93921,22.46586],[-0.56573,0.54241],[1.15161,-1.10413]],[[186.64439,19.80806],[-1.36752,0.81984],[3.03377,-1.81878]],[[194.59784,15.60169],[-3.19183,0.90562],[1.47812,-0.41939]],[[198.26364,13.24909],[-1.26993,0.43151],[0.58653,-0.1993]],[[200.12059,13.32232],[-0.5765,0.22668],[0.34683,-0.13638]],[[200.62059,12.32232],[-0.3348,0.1637],[0.53907,-0.26357]],[[202.41657,12.19972],[-0.59866,0.04087],[4.76189,-2.53326]],[[216.62146,3.69255],[-1.51863,6.89611],[-0.57971,0.00735]],[215.75189,3.12019],[[215.22244,2.05566],[0,0],[-1.6277,-4.88309]],[[206.81427,-11.77232],[2.9044,4.3566],[-1.38473,-2.08543]],[[203.30131,-18.29227],[1.3368,2.1142],[-2.98425,-4.71968]],[[194.30507,-32.28637],[2.87329,4.72172],[-2.38967,-3.92699]],[[184.51928,-42.36804],[3.28614,3.10062],[-3.68131,-2.35751]],[[173.76363,-51.40314],[4.02554,1.66833],[-0.80631,-0.33416]],[[171.14631,-51.32702],[0.87281,0],[-1.04541,0]],[[167.87606,-51.35377],[1.03088,-0.11908],[-1.49915,0.17318]],[[165.13881,-45.70484],[0.14624,-1.20183],[-0.19113,1.5708]],[[165.1463,-40.82702],[0,-1.58728],[0,5.41806]],[[166.71011,-25.0803],[-0.63632,-5.35774],[0.46351,3.90269]],[[168.20662,-13.33529],[-1.04185,-3.82268],[1.10047,4.03777]],[[172.32333,-1.16369],[-0.6329,-4.03923],[0.40063,3.02993]],[[175.11237,8.06676],[-0.81185,-3.06373],[0.80428,3.03515]],[[177.13339,17.5128],[-0.5097,-3.0853],[0.13316,0.80603]],[[177.1627,19.96348],[-0.32923,-0.74767],[0.86179,1.95709]],[[180.16943,25.43686],[-1.06332,-1.76374],[0,0]]],&quot;closed&quot;:true,&quot;fillColor&quot;:[0,0,0,1]}]}" fill="#ffe2b1" stroke="none" stroke-width="0.5" stroke-linecap="butt"/></g></g></svg>