<svg version="1.1" xmlns="http://www.w3.org/2000/svg" xmlns:xlink="http://www.w3.org/1999/xlink" width="572.43131" height="446.93813" viewBox="0,0,572.43131,446.93813"><g transform="translate(116.95737,284.25061)"><g data-paper-data="{&quot;isPaintingLayer&quot;:true}" fill-rule="nonzero" stroke-linejoin="miter" stroke-miterlimit="10" stroke-dasharray="" stroke-dashoffset="0" style="mix-blend-mode: normal"><path d="" fill="#444444" stroke="none" stroke-width="0.5" stroke-linecap="butt"/><path d="" fill="#c3c3c3" stroke="none" stroke-width="0" stroke-linecap="butt"/><path d="" fill="#9e9e9e" stroke="none" stroke-width="0" stroke-linecap="butt"/><path d="" fill="#ffffff" stroke="none" stroke-width="0.5" stroke-linecap="butt"/><path d="" fill="#ffffff" stroke="none" stroke-width="0.5" stroke-linecap="butt"/><path d="" fill="#ffffff" stroke="none" stroke-width="0.5" stroke-linecap="butt"/><path d="" fill="#ffffff" stroke="none" stroke-width="0.5" stroke-linecap="butt"/><path d="" fill="#ffffff" stroke="none" stroke-width="0.5" stroke-linecap="butt"/><path d="M-101.95736,162.68752l-15,-20" fill="none" stroke="#000000" stroke-width="NaN" stroke-linecap="round"/><g><g><path d="M52.67282,-221.06976c0.03008,0.66779 -0.32507,1.01824 -0.68213,1.20145c-0.04106,0.22046 -0.07849,0.43914 -0.11257,0.65636c0.03092,-0.011 0.04871,-0.01616 0.04871,-0.01616c5.1753,-1.47824 11.22026,-1.13606 16.59836,-1.451c10.61281,-0.62147 21.30429,-0.89971 31.85405,-2.26001c19.38393,-4.20746 38.17695,-5.79772 57.94094,-6.95508c17.86695,-1.04627 35.73387,-2.09254 53.60082,-3.1388c19.08697,-1.1177 38.23596,-3.11833 57.38994,-4.23995c16.90979,-0.99021 33.81956,-1.98043 50.72936,-2.97064c15.95263,-0.93417 31.90525,-1.86834 47.85789,-2.8025c8.89531,-0.5209 14.152,4.35931 17.09514,10.7867c-2.63953,1.20211 -2.50507,4.18605 -2.50507,4.18605c0.29499,6.5466 2.02966,14.30723 0.9983,20.77978c-0.41937,2.6319 -1.31707,5.49258 -2.31201,8.3154l-1.60763,0.10747c-19.39776,2.63941 -39.3268,3.08976 -58.98782,3.96807c-1.70835,-2.9362 -5.50025,-1.83422 -5.50025,-1.83422l-3.10951,0.95191c-5.66015,0.85359 -11.20689,1.82069 -16.76094,2.748c-1.14346,-0.0842 -2.28758,-0.16174 -3.43248,-0.23065c-0.08733,0.30324 -0.19981,0.59011 -0.33613,0.85157c-1.38136,0.22384 -2.76482,0.44304 -4.15229,0.65534c-0.96153,0.07565 -1.92426,0.14509 -2.88871,0.20523c-28.41195,1.64619 -56.81589,3.09229 -85.12416,5.8469c-1.39211,-0.77955 -3.00612,-0.68503 -3.00612,-0.68503l-2.39289,0.14012c-9.43211,0.55233 -19.28852,1.74965 -28.69143,3.87836c-16.24651,0.95139 -32.49303,1.90274 -48.73955,2.85412c-17.281,1.01195 -34.46851,2.89771 -51.647,3.90367c-1.64407,0.09627 -4.12597,0.63063 -5.68297,0.2762c-0.19705,-0.04487 -0.38881,-0.10057 -0.57543,-0.16627c1.8972,8.59929 3.26616,17.16946 3.67531,26.24954c0.52681,11.69114 2.54758,24.28589 0.03651,35.84086c-0.19226,0.82565 -0.35952,1.63765 -0.50971,2.43868c0.46446,0.25599 0.64056,0.74027 0.64056,0.74027c1.08438,3.03035 1.06853,6.75356 0.26102,10.19358c0.46361,2.92941 0.05811,6.48266 -0.78385,7.80768c-1.65217,2.60007 -3.31028,2.60768 -4.41,1.46067c-0.21501,0.11131 -0.48425,0.18804 -0.79535,0.14861c-0.41316,1.27472 -0.84645,2.65072 -1.55491,3.4581c-3.73875,4.26071 -12.75373,4.26254 -12.12161,-2.07207c2.90416,-3.61551 7.10826,-6.03223 9.642,-9.88549c0.17602,-0.26771 0.33995,-0.54666 0.49234,-0.83594l-0.02593,-0.57559c-0.35115,-7.793 -1.94885,-16.62576 -0.82502,-24.57166l-0.28144,0.01648l-0.11064,-2.45552c-0.02163,-0.4801 0.24015,-0.91658 0.64905,-1.17082c-0.56269,-2.17992 -1.36083,-4.25724 -2.47623,-6.15685c-0.31607,-5.29423 -1.82202,-11.28595 -3.07002,-16.47085c-1.46462,-6.08496 -0.62461,-13.5533 -0.90725,-19.8258c-0.01382,-0.30653 -0.03526,-0.61248 -0.06376,-0.91788c-0.32545,-1.449 -0.72802,-2.87527 -1.2639,-4.26303c-1.5123,-3.91635 -4.42732,-8.80045 -4.27738,-13.1603c-0.07138,-0.23744 -0.13992,-0.47461 -0.20532,-0.71149c-1.30626,-4.73239 -5.35078,-8.92945 -5.66151,-14.04004c-0.18496,-4.10455 -0.7503,-8.13189 -0.93611,-12.25518l-0.0158,-0.35079c0,0 -0.05927,-1.31547 1.37647,-1.39954c1.43574,-0.08409 1.49501,1.2314 1.49501,1.2314l0.01581,0.3508c0.02792,0.61952 0.06439,1.23677 0.10684,1.85237c2.84668,-0.1086 5.94374,-0.06572 8.6442,-0.79583c0.81426,-0.22015 1.54056,-1.07065 2.35779,-0.89449c0.42609,0.09184 0.78558,0.20319 1.08989,0.33209c0.05981,-1.63173 0.23613,-3.26026 0.62505,-4.99967l1.82655,-1.106c0,0 1.43575,-0.08406 1.49502,1.23139zM223.05356,-198.46936c-14.78848,-1.52773 -29.75638,-0.22961 -44.64534,0.77933c5.53625,0.62353 11.10937,1.14025 16.92686,0.7998c9.1683,-0.30989 18.4415,-1.00196 27.71848,-1.57913zM289.12925,-196.05795c-0.08108,-0.15725 -0.21654,-0.26552 -0.41999,-0.30134c-4.40594,-0.77578 -9.19975,-0.85647 -14.07982,-0.72648c2.75421,0.28433 5.5015,0.57206 8.23976,0.85874c2.09044,0.01299 4.17679,0.07352 6.26006,0.16905z" fill="#9e9e9e" stroke="none" stroke-width="0.5" stroke-linecap="butt"/><path d="M95.27103,21.76683l-3.21582,9.43111l-15.35269,0.11316c-0.79344,-26.6644 -2.11496,-53.30774 -3.8954,-79.9103c-0.0233,-0.51736 -0.07081,-1.02808 -0.14152,-1.53125c-0.2817,-2.3384 -0.82521,-4.10928 -1.62693,-5.50583c-0.03705,-0.54144 -0.08436,-1.07744 -0.14294,-1.60708c0.91152,-36.03967 2.42585,-69.38059 0.06741,-107.82342c68.3388,-3.49532 136.62254,-8.36616 204.95372,-12.07803c29.71235,-1.61405 39.64366,-0.9096 84.74749,-3.78776c-0.60517,3.04179 -1.20829,6.09642 -1.38792,9.14544z" fill="#9e9e9e" stroke="none" stroke-width="0" stroke-linecap="butt"/><path d="M69.35101,-163.3926l2.70664,-1.22828l368.16028,-22.14521l12.79678,183.44985" fill="none" stroke="#000000" stroke-width="1.5" stroke-linecap="round"/><path d="M454.5678,18.94805l0.10719,1.53668l-0.09345,0.00909" fill="none" stroke="#000000" stroke-width="1.5" stroke-linecap="round"/><path d="M447.5906,21.1735l-371.92952,36.16057" fill="none" stroke="#000000" stroke-width="1.5" stroke-linecap="round"/><path d="M310.3524,-199.66884c0.05928,1.31547 -1.37647,1.39954 -1.37647,1.39954l-0.95716,0.05606c-0.60136,0.03522 -1.20379,0.06846 -1.80721,0.10008c0.24122,0.2199 0.39568,0.52128 0.41099,0.86097c0.03273,0.72651 -0.58353,1.35311 -1.37646,1.39954c-0.15952,0.00935 -2.71195,0.15881 -2.87149,0.16815c-0.72604,0.04252 -1.45205,0.08504 -2.17808,0.12756c-7.9533,1.42091 -16.85519,0.98702 -24.62234,1.44186c-5.52192,0.32335 -11.5085,1.31246 -16.8963,0.25223l-1.91338,-0.03357c-0.74595,-0.00591 -1.35816,-0.54004 -1.38943,-1.23406c-0.03273,-0.72651 0.58354,-1.35311 1.37647,-1.39954l2.87148,-0.16815l0.00773,0.17159c15.1511,-4.19996 32.79882,-3.41163 48.26947,-4.31757l0.95716,-0.05606c0,0 1.43573,-0.08408 1.49502,1.23139zM270.28835,-195.82627c0.19574,-0.00811 0.39174,-0.01696 0.58797,-0.02646c0.01664,-0.03014 0.03438,-0.05899 0.05313,-0.0866c-0.21051,0.03244 -0.42438,0.07046 -0.64112,0.11304z" fill="#9e9e9e" stroke="none" stroke-width="0.5" stroke-linecap="butt"/><path d="M187.25886,-194.65882c-0.05928,-1.31547 1.37647,-1.39954 1.37647,-1.39954l1.43575,-0.08408c0.10994,-0.00489 0.21828,-0.01243 0.32527,-0.02237c0.40396,-0.45997 1.0907,-0.5002 1.0907,-0.5002c0.60015,-0.03514 1.20031,-0.0703 1.80045,-0.10543c0.71472,-0.22189 1.04785,-0.42393 1.86723,-0.54257c3.00257,-0.43473 6.05471,-0.5202 9.11038,-0.58383c4.66296,-1.51448 10.85842,-1.69911 15.99275,-1.85452c0.95551,-0.17021 1.87582,-0.24319 2.63064,-0.08774c0.54226,-0.02163 1.06404,-0.04599 1.56119,-0.07511l1.43575,-0.08407c0.79294,-0.04643 1.46228,0.50487 1.49502,1.23139c0.03273,0.72651 -0.58353,1.35311 -1.37646,1.39954l-0.95716,0.05606c0.03273,0.72651 -0.58354,1.35311 -1.37647,1.39954c-0.40264,0.02359 -2.71958,0.15927 -3.12222,0.18283c-5.79113,1.29187 -12.92789,0.75704 -18.41383,1.07828c-2.02858,0.11879 -5.9715,0.34969 -8.00009,0.46848c-1.29378,0.28854 -2.57972,0.57673 -3.94463,0.67063l-1.43574,0.08409c0,0 -1.43575,0.08407 -1.49502,-1.2314z" fill="#9e9e9e" stroke="none" stroke-width="0.5" stroke-linecap="butt"/><path d="M333.06092,-208.87682l-264.72368,19.40588" fill="none" stroke="#000000" stroke-width="1.5" stroke-linecap="round"/><path d="M14.80298,-117.36594l-5.11269,-25.20653l-8.0342,-39.61027l-2.84616,-25.33925l6.2018,-2.54645l44.74414,-8.65498l318.73339,-25.6193l5.01228,1.60574l4.75525,4.66658l2.74867,4.26352l1.09557,5.40142l1.47246,7.46142l-0.32101,5.48436l-0.61601,5.24137l-2.21062,7.6771l-119.12997,11.02076" fill="none" stroke="#000000" stroke-width="1.5" stroke-linecap="round"/><path d="M383.49917,-202.17972l-327.61776,27.19273" fill="none" stroke="#000000" stroke-width="1.5" stroke-linecap="round"/><path d="M376.68309,-242.89588c-0.33123,-0.15911 -0.6419,-0.46784 -0.66882,-1.06513c-0.05928,-1.31547 1.37646,-1.39954 1.37646,-1.39954c4.60088,-0.20533 7.55899,2.69912 11.44526,4.32908c2.55866,1.07312 6.0008,1.90943 9.04787,3.11416c0.10156,-0.39451 0.28595,-0.72728 0.57455,-0.97011c1.86202,-1.56662 4.06439,1.28034 5.14922,1.9431c1.98089,1.21023 4.62039,1.87319 6.49062,3.2221c1.77587,1.28086 2.58169,3.78748 3.5974,5.69321c0.8066,0.73688 1.51426,1.42272 2.05651,1.92137c8.21194,7.55162 13.75968,17.66696 18.41188,27.29233c0.09044,2.57444 1.70612,6.03633 2.31857,8.69523c0.20495,0.88978 1.61406,2.62657 0.93955,3.45611c-2.13031,2.61991 -7.4958,1.29554 -9.9,0.7046c-1.67771,-0.41237 -3.03625,0.09579 -4.57577,-0.71452c-4.37802,-2.3043 -6.54092,-7.872 -10.3567,-11.01492c-5.52963,-4.56156 -13.09212,-8.55704 -17.20804,-14.25043c-1.41979,-1.96393 -2.42426,-5.081 -4.11678,-7.1618c-2.13707,-2.62732 -5.36096,-5.21988 -6.6167,-8.40538c-4.296,-3.53843 -7.86126,-9.95652 -8.09604,-15.16714z" fill="#9e9e9e" stroke="none" stroke-width="0.5" stroke-linecap="butt"/><path d="M409.71408,-200.75634c-0.22339,-0.19347 -0.44314,-0.39372 -0.65925,-0.60009c0.11899,0.15651 0.23883,0.31256 0.35958,0.46811c0.10235,0.04458 0.20289,0.08958 0.3014,0.13473c-0.00058,-0.00093 -0.00116,-0.00184 -0.00173,-0.00277zM401.50355,-213.27211c-0.01518,-0.03592 -0.03031,-0.07175 -0.04534,-0.10753l-0.52594,-1.25891c-0.06081,-0.13582 -0.09729,-0.28394 -0.10435,-0.44017c-0.03273,-0.72651 0.58354,-1.35311 1.37648,-1.39954c0.5969,-0.03496 1.12374,0.26881 1.36175,0.73103l1.26,2.3092l-0.21943,0.10412c0.00147,0.0031 0.00295,0.00619 0.00444,0.0093c2.55266,2.92117 4.93905,6.35362 7.02555,9.83638c0.54917,0.66785 1.09909,1.35054 1.65546,2.04798l0.00489,0.1853l0.07473,-0.02758l0.52594,1.25891c0.06081,0.13582 0.09729,0.28395 0.10435,0.44018c0.00405,0.08986 -0.00184,0.17818 -0.01675,0.26406c0.34997,0.66127 0.68696,1.31761 1.01002,1.9658c2.61458,2.08268 4.9491,4.37871 7.7834,6.19876c0.52077,1.45904 2.41843,2.91487 1.70457,4.32957c-0.47409,0.93954 -3.35434,1.13496 -5.77613,1.17998l0.03879,0.05327l-0.72087,0.44964c0.15625,0.42424 0.30584,0.85283 0.45053,1.28436l-1.38583,-0.52194l-0.51779,0.52645l-1.49502,-1.23139l0.03816,-0.03879l-0.13759,-0.05183c-0.10147,-0.12514 -0.201,-0.25144 -0.29867,-0.37881c-8.4144,0.49399 -16.18068,0.84246 -21.71254,-5.98032c-2.82572,-4.63022 -8.50696,-8.62914 -10.34877,-13.74235c-1.84328,-5.1173 -0.52722,-13.67551 1.03449,-18.67939c-0.04084,-0.65987 -0.07598,-1.32017 -0.10733,-1.98069c-0.00018,0.00003 -0.00034,0.00004 -0.00051,0.00008c0,0 -1.43574,0.08407 -1.49502,-1.2314c-0.05928,-1.31547 1.37648,-1.39954 1.37648,-1.39954c0.29199,-0.00666 0.57988,0.00622 0.86376,0.03686c0.15778,-0.06411 0.34642,-0.10771 0.57198,-0.12092c0.71116,-0.04165 1.08461,0.26009 1.28042,0.57525c3.09533,1.17739 5.67268,4.21017 7.85406,6.29091c2.56417,2.44589 4.6693,5.13113 6.6015,7.90497c0.30766,0.20027 0.60958,0.4032 0.9062,0.60872z" fill="#707070" stroke="none" stroke-width="0.5" stroke-linecap="butt"/><path d="M-2.14035,-208.00646l0.75454,-0.04419l0.49735,-0.69795c0,0 0.9733,-0.98962 2.03044,-0.11891c0.15514,0.12779 0.26655,0.25811 0.34372,0.38752c0.07467,-0.02069 0.14909,-0.0421 0.22319,-0.06419c0,0 0.89491,-0.26008 1.45484,0.29573c0.17772,-0.06256 0.30913,-0.08127 0.30913,-0.08127c4.58202,-0.65116 9.47499,-1.24896 13.98318,-2.21217c5.67468,-1.21243 11.52519,-3.82134 16.22602,-2.97033l0.76957,3.24679c0.02493,1.2075 0.13434,2.32198 0.30122,3.17608c0.79546,4.07138 3.41354,10.54362 6.61639,16.09982c1.10437,8.16447 4.01034,18.66826 7.86841,28.03183c0.14822,2.14436 0.27016,4.31688 0.36964,6.5246c0.66541,14.76737 2.10894,29.7646 2.78107,44.68067c0.20656,4.58366 1.68929,10.57883 0.63909,15.03759c-1.58709,6.73822 -12.11394,13.64016 -18.85634,8.81649c-3.3119,-2.36943 -5.1554,-6.3235 -7.59715,-9.34477c-4.99215,-5.331 -8.70485,-11.16808 -11.61826,-17.4672c0.04231,-5.92151 -1.53502,-14.66699 -3.94542,-21.89178c0.64485,-8.93054 -6.30486,-23.64991 -6.26788,-30.61458c0.04757,-8.96153 -4.29355,-17.51704 -5.45879,-26.22914c-0.46206,-3.45469 -0.53291,-6.68901 -1.38479,-9.79429c0.01783,-0.72236 0.05878,-1.43639 0.12899,-2.13833l-0.04951,0.0029c0,0 -0.48052,0.02813 -0.89706,-0.20283c-0.17803,-0.40977 -0.37557,-0.81762 -0.5955,-1.22379c0.08359,-1.1287 1.374,-1.20428 1.374,-1.20428z" fill="#707070" stroke="none" stroke-width="0.5" stroke-linecap="butt"/><path d="M70.78413,-157.14568l9.54716,211.87616l-18.60405,1.08944c-9.57053,-4.4154 -24.0118,-5.16298 -32.66408,-7.19258c-4.81665,-1.12985 -10.29014,-2.24235 -15.5643,-1.93905c-0.10756,0.00466 -0.21527,0.01015 -0.32317,0.01648c-0.29608,0.01733 -0.59031,0.04073 -0.88257,0.07007c-2.06138,-0.78087 -4.1024,-1.60765 -6.13447,-2.4521l-8.08279,-179.37785c3.70384,-0.36663 8.02953,-2.53054 12.23957,-4.63149c0.29583,1.55733 0.81547,3.03593 1.52656,4.40919c0.27136,0.88649 0.47183,1.68108 0.53265,2.34084c1.23817,13.42988 4.55754,22.26641 11.81434,31.74453c2.42363,8.90558 7.87365,15.78951 19.65689,17.48308c9.86367,1.41768 20.19851,-11.37539 20.93368,-19.27282c0.13165,-1.41416 -2.21954,-2.15492 -2.46315,-3.54875c-0.26488,-1.51551 -0.41498,-3.04475 -0.50027,-4.58129c0.14105,-0.59862 0.19434,-1.16584 0.07162,-1.63942c-0.02721,-0.10494 -0.06217,-0.20666 -0.10387,-0.30556c0.33749,-1.81972 0.40042,-3.62726 0.76872,-5.26996l-0.93259,-20.69651c1.15601,-5.15582 1.42243,-11.73374 -0.11226,-17.57913z" fill="#707070" stroke="none" stroke-width="0" stroke-linecap="butt"/><path d="M411.73612,23.36553l-9.27846,-205.91276l39.26477,-2.2993c-0.7479,4.33731 -0.7823,9.31109 -0.14751,13.24698c0.16784,1.04064 0.82049,1.9613 1,3c0.42436,2.45547 -0.79468,3.96529 0.15802,6.55625c0.32537,0.88488 1.70264,1.10531 2,2c0.39621,1.1921 -0.42539,2.55908 -0.08303,3.76775c0.32754,1.15636 1.59414,1.86875 2,3c0.06072,0.16925 0.10791,0.34064 0.14369,0.51386l0.07194,1.59653c-0.07749,1.04835 -0.3229,2.12464 -0.3229,3.16515c0,3.65583 -0.80113,8.86014 0.04511,12.47277c0.21815,0.9313 0.68054,1.78685 1.10205,2.6545l0.57718,12.8092c-0.03114,1.32504 -0.00269,2.61898 0.16875,3.74498l4.92362,109.26794c-0.18743,2.1888 -0.34407,4.38879 -0.7718,6.57882c-0.83092,4.25445 -2.46855,8.76739 -3.01264,13.07133c-0.17003,1.34497 0.08086,2.73826 0.28049,4.11735c-0.88915,1.68733 -1.65007,3.08112 -2.30745,4.55154z" fill="#9e9e9e" stroke="none" stroke-width="0" stroke-linecap="butt"/><path d="M454.61677,20.85449l-0.0406,0.00238c0.00516,-0.24238 0.00714,-0.49528 0.00666,-0.7556z" fill="#9e9e9e" stroke="none" stroke-width="0" stroke-linecap="butt"/><path d="M190.66302,-170.5656c45.73667,-2.82288 91.46587,-5.83663 137.22126,-8.20085c11.68644,-0.60385 32.0677,3.42113 46.3268,1.08304c-0.00298,0.01906 -0.00592,0.03811 -0.00882,0.0572c-0.15891,1.04124 -0.21834,2.10812 -0.16951,3.19165c-0.14246,0.87246 0.50355,4.18161 1.39204,8.00684c-61.88473,3.34333 -123.75584,7.05432 -185.60815,11.08978c0.01389,-0.42185 0.01152,-0.84685 -0.00774,-1.27444c-0.13237,-2.93746 -1.04528,-5.6601 -2.54797,-8.01085c1.5134,-1.66412 2.6426,-3.71542 3.4021,-5.9424z" fill="#444444" stroke="none" stroke-width="0.5" stroke-linecap="butt"/><path d="M50.65716,-125.68774c-0.73458,-16.30227 -3.31794,-33.0104 -7.84166,-48.70829c-0.24736,-2.31806 -0.81654,-4.50583 -1.54237,-6.62934c0.91407,-0.62576 1.76662,-1.32211 2.54819,-2.07939c0.85088,2.65497 1.52497,5.36236 1.82288,8.1844c4.60457,15.76729 7.14605,32.67778 7.88443,49.06447c0.07677,1.70381 0.13607,3.39669 0.16486,5.07647c-0.91372,-0.57909 -1.88637,-1.08485 -2.90774,-1.50888c-0.03295,-1.12776 -0.07732,-2.26117 -0.12862,-3.39944z" fill="#000000" stroke="none" stroke-width="0.5" stroke-linecap="butt"/><path d="M63.17276,-212.72801l48.38649,-3.30154" fill="none" stroke="#000000" stroke-width="1.5" stroke-linecap="round"/><path d="M98.17996,-206.82037l-34.14004,1.99919" fill="none" stroke="#000000" stroke-width="1.5" stroke-linecap="round"/><path d="M67.92236,-198.02707l16.81525,-0.98469" fill="none" stroke="#000000" stroke-width="1.5" stroke-linecap="round"/><path d="M29.68366,-212.86511l-1.90145,-2.93955" fill="none" stroke="#000000" stroke-width="1.5" stroke-linecap="round"/><path d="M193.70076,-155.43343l-4.97372,-8.14988l-0.17006,-4.00812l185.92362,-12.29176l-1.72923,11.94978l-177.21916,12.71822l-13.51717,-16.52801l-112.05952,7.49826l331.39074,-19.07247" fill="none" stroke="#000000" stroke-width="1.5" stroke-linecap="round"/><path d="M209.97919,-168.37779l0.03742,12.16832" fill="none" stroke="#000000" stroke-width="1.5" stroke-linecap="round"/><path d="M253.20703,-172.78154l0.10053,13.5689" fill="none" stroke="#000000" stroke-width="1.5" stroke-linecap="round"/><path d="M291.46556,-174.08573l-0.55632,10.3307" fill="none" stroke="#000000" stroke-width="1.5" stroke-linecap="round"/><path d="M331.16859,-177.34692l0.01637,11.70147" fill="none" stroke="#000000" stroke-width="1.5" stroke-linecap="round"/><path d="M353.07471,-167.39537l1.02377,-11.29428" fill="none" stroke="#000000" stroke-width="1.5" stroke-linecap="round"/><path d="M44.33785,-174.27155l-9.17918,-39.8035" fill="none" stroke="#000000" stroke-width="1.5" stroke-linecap="round"/><path d="M377.96312,-213.06785l-36.51249,2.91893" fill="none" stroke="#000000" stroke-width="1.5" stroke-linecap="round"/><path d="M366.85666,-245.21078l20.2674,2.1966l16.47272,6.08102l8.29605,8.60972l22.87787,28.49272" fill="none" stroke="#000000" stroke-width="1.5" stroke-linecap="round"/><path d="M434.17605,-200.54575l0.61006,0.75588l1.65486,3.50431l3.55801,9.24832l-13.78001,3.00515" fill="none" stroke="#000000" stroke-width="1.5" stroke-linecap="round"/><path d="M382.12819,-234.40023l19.91205,19.51641l17.58984,22.05289l6.49011,6.60641l-27.75756,1.62545l-1.67145,-4.72584l-15.41344,-17.59623" fill="none" stroke="#000000" stroke-width="1.5" stroke-linecap="round"/><path d="M422.18435,23.5597l-342.05649,33.51279l-2.03435,-30.94895" fill="none" stroke="#9e9e9e" stroke-width="2.5" stroke-linecap="round"/><path d="M424.7432,23.55318l-29.20452,4.31796l-316.79707,27.04611c0.09637,-4.51883 -0.54036,-9.25311 -0.53033,-11.98093c0.02249,-6.11404 1.85728,-12.43345 1.929,-18.65934l254.61074,-203.52259c31.73624,-1.17509 49.56215,-2.54028 68.37442,-4.23351z" fill="#9e9e9e" stroke="none" stroke-width="0" stroke-linecap="butt"/><path d="M60.69767,-146.95616l-3.07497,-12.93005l12.82692,-4.73115l6.95028,222.27369l-59.29659,-11.12054l-11.86639,-3.50833l0.07435,-11.71558l-9.73573,-168.68114l16.32401,-6.02105" fill="none" stroke="#000000" stroke-width="1.5" stroke-linecap="round"/><path d="M50.35167,-221.1046c0.28454,-0.01666 0.48797,0.04912 0.63338,0.14981c0.14762,0.098 0.27522,0.25666 0.33941,0.50975c0.02833,0.11166 0.0369,0.2124 0.03039,0.30321c0.46361,9.86974 2.87145,19.31065 4.37296,29.04798c0.52893,11.56756 4.6783,22.79058 5.11087,34.25596c4.12949,10.674 2.63117,24.15219 3.14335,35.51892c0.51612,11.45409 3.02995,23.30581 -2.23081,33.87962c-4.4865,4.47346 -20.15888,4.27531 -25.96514,2.78411c-3.32092,-0.85288 -6.3358,-4.88409 -8.55667,-7.10094c-8.23459,-8.22561 -11.12175,-21.2746 -13.27741,-32.04819c-0.9988,-2.37546 -2.05163,-4.90924 -2.40093,-7.46434c-0.26858,-1.96458 0.63304,-5.5932 -0.28354,-7.28153c-1.02145,-1.88156 -1.75438,-4.07671 -2.3193,-6.38464c0.64271,-0.20466 1.27508,-0.44935 1.89665,-0.72815c0.56877,2.29394 1.27956,4.49748 2.21375,6.4518c0.97965,2.04936 0.0858,5.40047 0.38966,7.65814c0.33333,2.47678 1.39151,4.93201 2.34867,7.23663c2.15581,10.50015 4.81056,23.32191 12.85681,31.35564c1.82125,1.81975 4.84074,5.9698 7.61141,6.59441c4.45169,1.00358 9.40268,0.34786 14.03048,0.07686c3.03531,-0.17774 7.64834,0.23898 9.85638,-2.08439c1.01892,-2.17108 2.74735,-4.10049 3.11837,-6.49497c1.276,-8.23514 -0.82906,-18.04672 -1.20266,-26.33793c-0.51184,-11.35894 0.88647,-24.56563 -3.11159,-35.26542c-0.59179,-11.54489 -4.61948,-22.77188 -5.13633,-34.42223c-1.41085,-9.02865 -3.56004,-17.80906 -4.24293,-26.90815c0.11039,-0.52867 0.21069,-1.07388 0.30057,-1.63633c0.08679,-0.54315 0.14299,-1.08095 0.16989,-1.61256c0.08817,-0.02761 0.189,-0.04628 0.30429,-0.05302z" fill="#000000" stroke="#000000" stroke-width="0.5" stroke-linecap="butt"/><path d="M39.19187,-83.35932c-1.05714,-0.87071 -0.08382,-1.86034 -0.08382,-1.86034l0.48851,-0.49669c0.9493,-0.96524 1.8219,-1.94798 2.62355,-2.94726c0.37911,-0.00172 0.76075,-0.01371 1.14454,-0.03618c0.87427,-0.05121 1.73243,-0.1553 2.57091,-0.30866c-1.2193,1.72211 -2.61944,3.40134 -4.22476,5.03354l-0.48851,0.4967c0,0 -0.9733,0.98962 -2.03044,0.1189z" fill="#000000" stroke="none" stroke-width="0.5" stroke-linecap="butt"/><path d="M441.49513,-80.7873c1.85222,41.10571 -21.03788,75.85681 -51.12649,77.61876c-30.08862,1.76196 -55.98174,-30.13246 -57.83395,-71.23816c-1.85222,-41.1057 21.03785,-75.85682 51.12646,-77.61877c30.08862,-1.76196 55.98177,30.13246 57.834,71.23817z" fill="#444444" stroke="#000000" stroke-width="1.5" stroke-linecap="butt"/><path d="M436.73741,-78.27441c1.64149,36.42902 -18.46758,67.21604 -44.91487,68.76477c-26.44729,1.54873 -49.21779,-26.72733 -50.85927,-63.15635c-1.64149,-36.42902 18.46758,-67.21604 44.9149,-68.76477c26.44729,-1.54873 49.21776,26.72733 50.85927,63.15636z" fill="#444444" stroke="#000000" stroke-width="1.5" stroke-linecap="butt"/><path d="M403.2011,-28.7742c-0.51225,-0.43473 -0.17978,-1.08692 -0.17978,-1.08692l0.13106,-0.25711c0.4305,-0.83701 0.77185,-1.75751 1.0266,-2.7076c0.18867,-0.35181 0.37444,-0.7057 0.55755,-1.06148c-0.47793,-0.73192 -0.97048,-1.45632 -1.37782,-2.2298c-0.84911,-1.61237 -1.97445,-2.20634 -2.87522,-3.64145c-1.70464,4.34975 -3.32936,8.7721 -5.0858,13.1139c0.30243,0.43303 0.62063,0.86146 0.95864,1.28558l0.32531,0.37611c0,0 0.45604,0.52841 0.0499,1.10733c-0.40614,0.57889 -0.86217,0.05048 -0.86217,0.05048l-0.36133,-0.41956c-0.2461,-0.30884 -0.48246,-0.61982 -0.71038,-0.93309c-0.49854,1.20435 -1.00912,2.40112 -1.5364,3.58696c-1.18196,0.9927 -1.75657,5.30604 -2.48365,7.4723l0.06736,0.0629c0,0 0.03528,0.78299 -0.57436,0.81868c-0.60964,0.03571 -0.64492,-0.74731 -0.64492,-0.74731l0.02979,-0.77078c0.80156,-2.37445 1.34265,-6.47872 2.68207,-7.87582c0.52452,-1.27922 1.04107,-2.57089 1.55289,-3.87029c-1.32788,-2.05239 -2.38586,-4.20826 -3.52721,-6.50759c-1.79519,-3.61665 -4.72453,-6.80793 -6.81317,-10.23704c-0.40554,-0.57181 -0.81413,-1.13683 -1.22554,-1.69567c-0.12358,0.2659 -0.24756,0.53155 -0.37196,0.79699c-0.44774,3.04853 -2.63466,5.11883 -3.22778,7.69752c-0.35162,1.52858 -0.88053,3.21379 -1.52904,4.90822c0.24455,0.3373 0.48479,0.67487 0.7203,1.01252c1.38717,1.98867 2.0053,3.76339 3.83695,5.24224l0.48501,1.45369c0,0 0.22628,0.73153 -0.34093,1.013c-0.5672,0.28148 -0.79344,-0.45005 -0.79344,-0.45005l-0.27677,-1.00932c-1.83998,-1.32524 -2.46367,-3.24519 -3.79148,-5.17736c-0.14145,-0.20586 -0.2849,-0.41168 -0.43019,-0.61749c-1.01872,2.41171 -2.24777,4.75532 -3.51883,6.60065l-0.54815,1.6286c-0.08582,0.27057 -0.28762,0.46604 -0.531,0.48029c-0.3367,0.01972 -0.62547,-0.31486 -0.64495,-0.74729c-0.00417,-0.09297 0.00441,-0.18295 0.02386,-0.26705l0.26448,-1.25191l0.05774,0.02092l-0.00539,-0.18845c1.49613,-2.1915 2.84593,-4.86124 3.95237,-7.58602c-3.38455,-4.5533 -7.56052,-9.02901 -11.27553,-12.87848c-0.7255,-0.7526 -1.44423,-1.51443 -2.15887,-2.282c-0.05027,0.17158 -0.0978,0.34388 -0.14248,0.51687c-0.94351,3.6544 -1.87376,7.52132 -2.50601,11.27924c2.49009,2.99185 4.92771,6.05451 7.46251,8.99167c1.31943,1.52887 3.33144,3.07164 4.37315,4.94872c0.11792,0.004 0.58738,0.06302 0.61822,0.74728c0.03528,0.78299 -0.57437,0.81869 -0.57437,0.81869l-0.88933,-0.38188c-0.77413,-1.84126 -3.09503,-3.53247 -4.33994,-4.97498c-2.28683,-2.64981 -4.49459,-5.40184 -6.73313,-8.11184l-0.33281,1.90044c-0.05325,0.34035 -0.28025,0.60247 -0.56355,0.61906c-0.3367,0.01972 -0.62544,-0.31486 -0.64492,-0.74731c-0.00107,-0.02389 -0.00131,-0.04757 -0.00073,-0.07099l0.02153,-1.28095l0.01605,0.0007l-0.01353,-0.05671c0.08015,-0.61832 0.16929,-1.24196 0.2665,-1.86933c-0.54566,-0.65111 -1.09426,-1.29819 -1.64744,-1.93918c0,0 -0.45603,-0.5284 -0.04989,-1.1073c0.40614,-0.57889 0.86215,-0.05048 0.86215,-0.05048c0.37841,0.43848 0.75467,0.87976 1.12931,1.32328c0.62178,-3.52755 1.46786,-7.12507 2.37906,-10.5181c0.09887,-0.36819 0.20959,-0.73282 0.33031,-1.09446c-2.96226,-3.21441 -5.87554,-6.49995 -8.93618,-9.60272c-0.99769,-1.01143 -2.61559,-3.29349 -3.92318,-3.06329c-0.23557,1.39704 -0.39195,2.73947 -0.44085,3.95497l-0.31883,1.20223c0,0 -0.19959,0.73757 -0.77671,0.47235c-0.57713,-0.26522 -0.37755,-1.0028 -0.37755,-1.0028l0.27407,-0.98889c0.04595,-1.21827 0.20386,-2.58517 0.44402,-4.01716c-0.08498,-0.34726 0.01359,-0.5851 0.12922,-0.73413c0.79572,-4.32244 2.27633,-9.09618 3.65881,-12.11513c0.31178,-1.8214 0.64526,-2.66377 1.31907,-3.5707c-1.2672,-0.91337 -2.50537,-1.71478 -3.67638,-2.3568c0,0 -0.56106,-0.31825 -0.31997,-1.03454c0.24106,-0.71629 0.80213,-0.39806 0.80213,-0.39806c1.30313,0.75815 2.67255,1.6752 4.06615,2.70268c0.39475,-0.75441 1.02241,-3.58195 1.41645,-4.37805c1.19024,-2.40473 2.23597,-4.79391 3.24989,-7.17286c-2.22175,-1.59677 -4.44642,-2.32086 -6.46707,-4.65485c0,0 -0.45604,-0.5284 -0.0499,-1.1073c0.40614,-0.57889 0.86217,-0.05048 0.86217,-0.05048c1.94491,2.26148 4.08827,2.92224 6.23547,4.44501c1.13826,-2.68776 2.26356,-5.36371 3.53932,-8.03557c1.15499,-2.40483 2.31047,-4.93922 3.52604,-7.46103c-0.75544,-0.45978 -1.51477,-0.91107 -2.27803,-1.35477c-1.67046,-0.97106 -2.378,-1.81406 -4.28066,-1.69397c0,0 -0.60963,0.03571 -0.64491,-0.74729c-0.03528,-0.78299 0.57434,-0.81869 0.57434,-0.81869c2.09471,-0.11413 3.01844,0.77223 4.84373,1.83327c0.81582,0.47427 1.62725,0.95716 2.43428,1.44976c2.12503,-4.31132 4.45788,-8.5117 7.29935,-11.88288c-1.58335,-0.84719 -3.168,-1.46123 -4.72902,-1.70164c0,0 -0.60715,-0.09351 -0.54174,-0.8717c0.0654,-0.77822 0.67256,-0.68472 0.67256,-0.68472c1.85297,0.28538 3.73088,1.06563 5.59867,2.1295c0.67086,-0.71811 1.3696,-1.38949 2.09967,-2.00574c0.83312,-1.0827 1.70559,-2.15462 2.60932,-3.20841c-1.05314,-0.64798 -2.10804,-1.30139 -3.16069,-1.97839c-1.12513,-0.72364 -4.18727,-3.38348 -5.35537,-2.34191c0,0 -0.5295,0.38212 -0.83369,-0.30227c-0.30418,-0.68436 0.2253,-1.06646 0.2253,-1.06646c1.75072,-1.12264 3.75026,0.59933 5.3887,1.61906c1.58195,0.98456 3.17047,1.94003 4.75173,2.90765c2.15076,-2.41456 4.45451,-4.71661 6.81102,-6.8141c-0.67034,-0.61047 -1.32982,-1.23977 -1.97494,-1.89389c0,0 -0.48201,-0.48874 -0.10712,-1.10151c0.37489,-0.61276 0.85693,-0.12403 0.85693,-0.12403c0.74779,0.75817 1.51459,1.48319 2.29511,2.18428c1.47775,-1.26796 2.97013,-2.45094 4.45284,-3.52667c0,0 0.52952,-0.38211 0.8337,0.30224c0.30418,0.68436 -0.22529,1.06647 -0.22529,1.06647c-1.32707,0.95296 -2.65702,1.99642 -3.97465,3.11219c4.52704,3.89217 9.42293,7.14088 13.69741,11.46532c1.61945,-1.76167 3.30338,-3.39498 5.14282,-4.73228c0,0 0.5295,-0.38211 0.83368,0.30224c0.30418,0.68436 -0.22532,1.06646 -0.22532,1.06646c-1.71152,1.22436 -3.28813,2.71915 -4.80311,4.34188c3.67087,3.78555 7.68049,7.4679 11.27582,11.61083c1.33292,-1.87333 2.63519,-3.61962 2.51374,-6.31483c0,0 -0.03528,-0.78296 0.57437,-0.81867c0.60964,-0.03571 0.64494,0.74729 0.64494,0.74729c0.1455,3.22898 -1.30585,5.22403 -2.83631,7.44022c2.12653,2.55173 4.07881,5.2888 5.69082,8.33549c1.25723,2.38052 2.75861,4.55617 4.10176,6.86194c0.71901,-1.01002 1.55762,-1.67791 2.695,-1.37908c0,0 0.58953,0.21373 0.43022,0.96784c-0.15931,0.75412 -0.74883,0.54035 -0.74883,0.54035c-0.51396,-0.29376 -1.09981,0.29981 -1.65742,1.15176c0.59861,1.113 1.14587,2.26844 1.59979,3.50125l0.05836,0.15937c0,0 0.26097,0.71267 -0.29112,1.03893c-0.55209,0.32626 -0.81307,-0.38641 -0.81307,-0.38641l-0.05836,-0.15937c-0.36108,-0.99209 -0.7873,-1.93367 -1.2545,-2.84333c-0.3726,0.69995 -0.70482,1.37952 -0.9572,1.7916c-0.5908,0.96463 -1.21187,1.95503 -1.84616,2.96525c1.52733,2.15549 2.94296,4.42793 4.1725,6.89283c0.17348,0.20889 0.3732,0.46088 0.59056,0.74665c0.89562,-0.81647 1.87203,-1.39161 2.87955,-1.48457c0,0 0.60964,-0.0357 0.64493,0.74731c0.03528,0.78299 -0.57436,0.81869 -0.57436,0.81869c-0.61563,0.00195 -1.37369,0.44531 -2.10886,1.07343c1.49089,2.13008 3.25081,5.08623 3.40222,6.8424l0.01878,0.41682c0,0 0.03527,0.78299 -0.57437,0.81869c-0.60964,0.03571 -0.64494,-0.7473 -0.64494,-0.7473l-0.01878,-0.41682c0.04668,-1.12143 -1.74106,-3.95385 -3.15981,-5.96237c-0.65584,0.71713 -1.22012,1.49722 -1.5445,2.10992c-1.75379,3.3126 -3.6593,6.47884 -5.52088,9.68649c1.91153,3.77757 3.95712,7.42376 5.9388,11.14114l0.39038,0.87094c0,0 0.3058,0.6832 -0.22278,1.06737c-0.52857,0.38414 -0.8344,-0.29906 -0.8344,-0.29906l-0.36511,-0.81698c-1.89389,-3.5467 -3.84671,-7.0279 -5.67729,-10.62778c-0.77332,1.35028 -1.53418,2.71241 -2.26821,4.10018c-1.03513,1.95426 -1.97935,3.97558 -2.87513,6.03342c2.01981,4.10117 4.26949,8.76554 5.34179,13.0814l0.03551,0.14642c0,0 0.18208,0.75095 -0.40079,0.9755c-0.5829,0.22454 -0.76495,-0.52641 -0.76495,-0.52641l-0.03551,-0.14642c-0.91629,-3.89273 -2.96347,-8.17902 -4.84131,-11.97631c-2.52144,5.98288 -4.7283,12.20587 -7.63928,17.93604c0.54854,0.90775 1.04056,1.85336 1.34596,2.95881l0.30564,0.40649c0,0 0.38712,0.61222 -0.08513,1.10165c-0.47226,0.48943 -0.85941,-0.12277 -0.85941,-0.12277l-0.51568,-0.89239c-0.1959,-0.76219 -0.51355,-1.45606 -0.88648,-2.11916c-0.08766,0.16358 -0.17598,0.3267 -0.26499,0.48935c-0.26777,1.00444 -0.64359,1.96644 -1.09313,2.85528l-0.13108,0.2571c0,0 -0.33245,0.6522 -0.84468,0.21747zM416.39662,-60.34092c0.81342,-1.53788 1.66359,-3.04066 2.52734,-4.53053c-1.40111,-2.22746 -2.75221,-4.50378 -4.08812,-6.79393c-1.42287,3.14496 -3.10949,6.22739 -4.76637,9.34061c1.2663,2.41309 2.44108,4.78916 3.51139,6.97142c0.06875,0.14032 0.13808,0.28153 0.20798,0.42361c0.81906,-1.8418 1.67882,-3.65242 2.60778,-5.41121zM424.27229,-74.18535c0.61966,-1.15806 1.45481,-2.49264 2.42567,-3.61766c-0.22841,-0.30383 -0.42534,-0.55628 -0.57453,-0.73854c-1.19885,-2.36513 -2.56122,-4.55287 -4.0245,-6.63107c-2.41676,3.85914 -4.92124,7.96457 -6.60454,11.99958c-0.00227,0.00536 -0.00453,0.01076 -0.00681,0.01614c1.3722,2.35432 2.75625,4.69851 4.18772,6.99703c1.55471,-2.65352 3.13126,-5.2863 4.59698,-8.02545zM412.54931,-54.53044c-0.97941,-2.0005 -2.05373,-4.18376 -3.21049,-6.41372c-2.23807,4.25929 -4.3404,8.60143 -5.56341,13.26297c-0.93579,2.08765 -1.81959,4.21648 -2.67746,6.36773c0.09372,0.16593 0.18744,0.33147 0.28123,0.49656c0.84452,1.48657 2.12054,2.18415 2.9888,3.83283c0.32331,0.6139 0.68161,1.18895 1.04244,1.75567c2.87012,-5.84658 5.11453,-12.13507 7.70364,-18.15723c-0.1927,-0.38891 -0.3815,-0.77084 -0.56475,-1.14482zM402.66123,-48.34078c1.28648,-4.93199 3.55994,-9.50915 5.94131,-14.00699c-3.19744,-6.02474 -6.9706,-12.18081 -11.0779,-15.83247c-0.12842,-0.11477 -0.25651,-0.23018 -0.38428,-0.34622c-1.4803,3.05966 -2.79619,6.31571 -4.16343,9.37822c-1.46481,3.28107 -2.88392,6.57026 -4.29973,9.85124c0.04868,0.07724 0.09709,0.15463 0.14529,0.23217c1.45617,2.34317 3.01435,3.42341 4.62114,5.44042c2.6033,3.26791 4.73717,7.10493 6.82534,10.83486c0.7751,-1.88054 1.5691,-3.73587 2.39227,-5.55125zM423.76879,-90.37097c0.40553,-0.66213 0.78903,-1.42965 1.19243,-2.15622c-1.39736,-2.45563 -3.01834,-4.73605 -4.34172,-7.24182c-1.54564,-2.93235 -3.42163,-5.57385 -5.4686,-8.03808c-0.01753,0.02704 -0.03504,0.05416 -0.0525,0.08134c-1.38525,2.15397 -2.83415,4.36042 -4.22587,6.6099c3.65759,4.55704 7.66079,8.78134 11.17062,13.52444c0.59073,-0.94474 1.17019,-1.87271 1.72562,-2.77956zM410.11879,-99.8829c-0.92757,1.53692 -1.8186,3.09288 -2.63538,4.66486c-0.84267,1.61721 -1.77974,3.11869 -2.75389,4.57488c0.1925,0.27516 0.38518,0.55181 0.57806,0.83004c3.35582,4.85179 6.35324,10.06947 9.37455,15.27145c1.75713,-3.98291 4.21206,-8.0056 6.57782,-11.79658c-3.49467,-4.75391 -7.47315,-8.98223 -11.14116,-13.54466zM404.39957,-88.77909c-0.15818,-0.22818 -0.31625,-0.4553 -0.47414,-0.68134c-1.59744,2.31805 -3.25082,4.56828 -4.71971,7.04673c-0.49116,0.8287 -0.95979,1.68937 -1.41143,2.57198c0.13963,0.12696 0.27959,0.25317 0.41998,0.37865c4.12074,3.70017 7.89204,9.74482 11.11649,15.7467c1.65636,-3.10253 3.32164,-6.18043 4.70471,-9.32505c-3.10898,-5.35801 -6.17315,-10.75288 -9.63593,-15.73764zM392.62081,-52.47893c-1.5575,-1.97809 -3.14237,-3.14355 -4.57806,-5.34817c-1.66453,3.8542 -3.33328,7.69371 -5.07506,11.49233c0.50829,0.68603 1.01232,1.38112 1.51172,2.08658c2.13139,3.49425 5.05985,6.72188 6.90964,10.40487c1.02418,2.0392 1.96185,3.96926 3.10029,5.81343c1.71015,-4.38709 3.38119,-8.84105 5.13669,-13.18396c-2.20359,-3.80869 -4.31037,-7.84253 -7.00519,-11.26507zM377.57288,-36.98609c0.75539,-2.71659 2.76641,-4.57289 3.23609,-7.72662c0.21262,-0.46974 0.42446,-0.93952 0.63556,-1.40934c-4.03278,-5.34492 -8.31757,-10.1533 -12.6533,-15.02982c-0.2753,0.51665 -0.55917,1.02479 -0.85278,1.52325c-1.11409,4.065 -3.72442,7.69755 -5.21383,11.59947c0.79906,0.86008 1.6029,1.71307 2.41526,2.55385c3.6657,3.79836 7.7032,8.16656 11.08535,12.62816c0.52256,-1.4043 0.97616,-2.80313 1.34761,-4.13894zM391.91543,-69.9401c1.38756,-3.10799 2.72439,-6.40777 4.22806,-9.50934c-4.61937,-4.35713 -8.86477,-9.44274 -13.41814,-13.95753c-1.27438,2.70135 -2.50524,5.37265 -3.77,7.80024c-1.69716,3.25705 -3.06896,6.82495 -4.3962,10.42981c4.72406,4.41761 9.54572,9.09497 13.25498,14.56088c1.35122,-3.10077 2.71018,-6.20801 4.1013,-9.32404zM398.23036,-83.37248c1.51438,-2.55519 3.22748,-4.86534 4.87096,-7.25951c-4.15193,-5.86007 -8.26286,-11.01308 -13.00954,-15.90677c-2.57593,3.38128 -4.72286,7.58271 -6.73336,11.79662c4.56187,4.51851 8.81685,9.61185 13.44009,13.97727c0.45826,-0.89456 0.93368,-1.76708 1.43185,-2.6076zM406.46563,-96.10051c0.8612,-1.64837 1.79938,-3.27964 2.7743,-4.89046c-0.1567,-0.20039 -0.31262,-0.40159 -0.46785,-0.60361c-3.42995,-4.46589 -7.72301,-8.30016 -12.10342,-11.85808c-1.07589,1.19199 -2.18014,2.3329 -3.33953,3.37065c-0.82758,0.73236 -1.61256,1.55373 -2.36142,2.44642c4.70924,4.86576 8.80822,10.00386 12.93464,15.81856c0.90607,-1.3649 1.77631,-2.7733 2.56322,-4.28345zM414.15346,-108.73374c0.0303,-0.0471 0.06077,-0.09399 0.09132,-0.14068c-3.6391,-4.19792 -7.72465,-7.91032 -11.41977,-11.73401c-1.76112,1.97045 -3.45763,4.07772 -5.20985,6.0877c4.35107,3.55357 8.60235,7.38369 12.0214,11.83239c0.11918,0.1551 0.23881,0.30972 0.35891,0.46389c1.37092,-2.2134 2.79243,-4.38611 4.15797,-6.50928zM374.03436,-73.74565c-1.41622,3.87185 -2.82391,7.74451 -4.56958,11.27997c4.3168,4.85616 8.58579,9.63988 12.60885,14.93895c1.7294,-3.8741 3.41661,-7.75306 5.10992,-11.64164c-3.63107,-5.48574 -8.43206,-10.16788 -13.14918,-14.57728zM366.85967,-60.3804c0.3436,-0.59722 0.67424,-1.20675 0.99368,-1.82689c-0.72818,-0.82001 -1.45744,-1.6432 -2.18674,-2.47235c-3.26869,-3.72574 -7.85294,-8.20316 -12.23114,-11.53857c-0.66388,0.86761 -0.96569,1.29255 -1.3227,3.30949c-1.27537,2.86062 -2.63592,7.10764 -3.44873,11.12631c1.64513,0.10676 3.01652,1.96028 4.39116,3.35422c2.98705,3.02899 5.83502,6.23699 8.72587,9.37823c1.54865,-3.79921 3.97204,-7.34307 5.07861,-11.33044zM377.93761,-86.4892c1.28734,-2.4702 2.53565,-5.15437 3.8237,-7.86005c-1.21469,-1.16936 -2.45422,-2.29254 -3.73108,-3.34561c-3.714,-3.06311 -7.52711,-5.74877 -11.44557,-8.19047c-1.24228,2.56597 -2.41787,5.15337 -3.59015,7.61176c-1.27874,2.66483 -2.40111,5.33238 -3.53517,8.01358c3.45664,2.85998 6.61315,7.05327 9.90498,10.20911c1.35177,1.29611 2.75359,2.59786 4.17227,3.91972c1.32897,-3.5734 2.70755,-7.10806 4.40102,-10.35802zM392.62312,-111.37214c1.02763,-0.91664 2.01155,-1.91046 2.97026,-2.9475c-2.22628,-1.78284 -4.45873,-3.50205 -6.59611,-5.20399c-2.80037,-2.23033 -5.71486,-4.05063 -8.65517,-5.85894c-1.05293,1.20824 -2.06817,2.44053 -3.0349,3.68393c-0.56371,0.48123 -1.10861,0.99526 -1.6363,1.53824c4.17255,2.64403 8.25507,6.47702 11.85278,9.12042c0.85059,0.80445 1.67948,1.61396 2.48969,2.43051c0.82374,-1.00644 1.69077,-1.9344 2.60974,-2.76266zM388.03593,-133.14591c-2.30086,2.02758 -4.55103,4.26294 -6.66848,6.60751c2.81579,1.74415 5.59697,3.56093 8.26454,5.68552c2.24417,1.78774 4.58887,3.59432 6.92204,5.47205c1.80244,-2.02889 3.53548,-4.17375 5.32746,-6.19814c-4.32928,-4.3443 -9.28967,-7.60448 -13.84555,-11.56694zM386.86583,-109.72965c-3.67559,-2.68803 -7.90785,-6.7378 -12.19793,-9.34161c-2.90758,3.32537 -5.28184,7.52303 -7.43247,11.85743c3.91782,2.44811 7.73171,5.13981 11.44604,8.20319c1.27137,1.04857 2.50613,2.16667 3.71643,3.33071c2.02403,-4.20511 4.17509,-8.38597 6.74852,-11.82144c-0.74331,-0.74764 -1.50267,-1.48983 -2.2806,-2.22824zM368.64117,-78.79907c-3.24313,-3.10938 -6.36181,-7.25754 -9.76382,-10.08815c-1.01618,2.38834 -2.06429,4.78894 -3.26234,7.20943c-0.531,1.07281 -0.87228,3.19457 -1.39787,4.31857c4.37919,3.37029 8.8908,7.69835 12.25295,11.5117c0.68158,0.7749 1.36312,1.54466 2.0438,2.3115c1.6958,-3.53067 3.08676,-7.35213 4.49399,-11.16676c-1.48631,-1.38328 -2.95511,-2.74311 -4.36672,-4.09633z" fill="#000000" stroke="none" stroke-width="0.5" stroke-linecap="butt"/><path d="M387.82708,-60.52928c-3.70925,-5.46591 -8.63841,-10.21397 -13.36249,-14.63157c1.32727,-3.60485 2.74005,-7.26058 4.43721,-10.51764c1.26477,-2.42757 2.53521,-5.11377 3.80958,-7.81512c4.55333,4.51479 8.90619,9.66593 13.52558,14.02306c-1.50369,3.10156 -2.87271,6.48868 -4.26025,9.59667c-1.39112,3.11604 -2.79843,6.24384 -4.14965,9.34461z" data-paper-data="{&quot;noHover&quot;:false,&quot;origItem&quot;:[&quot;Path&quot;,{&quot;applyMatrix&quot;:true,&quot;segments&quot;:[[[735.61839,440.60627],[-1.59588,3.4512],[1.59175,-3.44228]],[[740.47057,430.07299],[-1.71248,3.42723],[-4.60885,-5.26297]],[[727.14409,413.30563],[4.53265,5.43787],[-1.45475,2.98734]],[[722.84947,421.92568],[1.43188,-2.67662],[-1.92139,3.59117]],[[717.77886,433.49459],[1.55227,-4.01136],[4.7151,5.3387]],[[730.907,450.93727],[-3.60843,-6.46335],[1.55358,-3.43648]]],&quot;closed&quot;:true}]}" fill="#444444" stroke="none" stroke-width="0.5" stroke-linecap="butt"/><path d="M222.40692,-69.50343c1.68453,42.13572 -28.0461,78.34588 -66.40524,80.87766c-38.35915,2.53177 -70.82097,-29.57359 -72.50551,-71.70931c-1.68453,-42.13571 28.04612,-78.34589 66.40527,-80.87766c38.35914,-2.53177 70.82096,29.57358 72.5055,71.70931z" fill="#444444" stroke="#000000" stroke-width="1.5" stroke-linecap="butt"/><path d="M211.82386,-68.0766c1.41831,36.44197 -23.39973,67.74458 -55.4327,69.91633c-32.03294,2.17176 -59.15057,-25.60976 -60.56889,-62.05171c-1.41831,-36.44197 23.39975,-67.74455 55.43272,-69.9163c32.03297,-2.17175 59.15057,25.60974 60.5689,62.0517z" fill="#444444" stroke="#000000" stroke-width="1.5" stroke-linecap="butt"/><path d="M173.60208,-25.32001c-0.5828,-0.28491 -0.28519,-0.91105 -0.28519,-0.91105l0.11733,-0.24684c0.38601,-0.80426 0.66992,-1.66492 0.85915,-2.53563c0.17046,-0.33946 0.33766,-0.6802 0.50191,-1.02208c-0.57193,-0.54907 -1.15876,-1.08899 -1.65913,-1.68687c-1.04306,-1.24635 -2.29226,-1.55882 -3.375,-2.64198c-1.4392,4.08349 -2.78703,8.21553 -4.28202,12.30147c0.35928,0.32131 0.73502,0.63577 1.13141,0.94291l0.37877,0.26776c0,0 0.53105,0.37638 0.14869,0.95222c-0.38236,0.57582 -0.91343,0.19942 -0.91343,0.19942l-0.42086,-0.29897c-0.28866,-0.22367 -0.56709,-0.45096 -0.83677,-0.68176c-0.42675,1.13542 -0.86697,2.26644 -1.32593,3.39102c-1.17253,1.07505 -1.41191,4.92294 -1.99894,6.9346l0.07715,0.04244c0,0 0.10514,0.67332 -0.54076,0.81435c-0.64588,0.14103 -0.75101,-0.53229 -0.75101,-0.53229l-0.0348,-0.67446c0.64836,-2.20583 0.87015,-5.86618 2.17534,-7.32069c0.44795,-1.20511 0.88632,-2.41955 1.31902,-3.63987c-1.59067,-1.54189 -2.90301,-3.22232 -4.31639,-5.01226c-2.22315,-2.8154 -5.61688,-5.05681 -8.13623,-7.65646c-0.48103,-0.42318 -0.96473,-0.83988 -1.45093,-1.25072c-0.10861,0.25311 -0.21766,0.50609 -0.32717,0.75895c-0.21348,2.72708 -2.36282,4.91894 -2.77166,7.26443c-0.24236,1.39035 -0.65992,2.94863 -1.20403,4.53654c0.28944,0.24865 0.57432,0.49833 0.85416,0.74891c1.64831,1.47587 2.45946,2.90485 4.53689,3.85793l0.64177,1.17431c0,0 0.30401,0.59417 -0.2755,0.94089c-0.57951,0.3467 -0.88349,-0.24745 -0.88349,-0.24745l-0.38174,-0.8262c-2.07307,-0.81825 -2.90269,-2.37231 -4.48293,-3.80982c-0.16835,-0.15317 -0.3388,-0.30594 -0.51122,-0.45837c-0.8763,2.27737 -1.98236,4.53357 -3.17615,6.36482l-0.44293,1.51264c-0.06798,0.25036 -0.26595,0.45643 -0.5238,0.51274c-0.35672,0.07788 -0.69297,-0.16044 -0.75102,-0.53227c-0.01248,-0.07995 -0.0111,-0.15959 0.00235,-0.23612l0.17351,-1.13447l0.06328,0.00774l-0.022,-0.16265c1.40349,-2.17237 2.60998,-4.73346 3.5526,-7.2984c-3.99588,-3.34158 -8.82751,-6.47294 -13.11441,-9.14393c-0.83727,-0.52236 -1.66808,-1.05391 -2.49509,-1.59121c-0.0387,0.15801 -0.07445,0.31616 -0.10706,0.47437c-0.68896,3.34249 -1.34552,6.86705 -1.69418,10.24324c2.90895,2.1476 5.76816,4.36617 8.71997,6.45823c1.5365,1.08898 3.81144,2.06501 5.08235,3.50638c0.12587,-0.01781 0.63071,-0.05131 0.72258,0.53709c0.10514,0.6733 -0.54074,0.81433 -0.54074,0.81433l-0.97968,-0.17099c-0.98299,-1.45857 -3.59957,-2.50771 -5.0493,-3.53517c-2.66305,-1.88741 -5.25078,-3.87778 -7.8676,-5.82613l-0.19024,1.70975c-0.0273,0.30504 -0.24632,0.57355 -0.54646,0.63909c-0.35671,0.07788 -0.69296,-0.16044 -0.75101,-0.53227c-0.00321,-0.02054 -0.00551,-0.04106 -0.00692,-0.06149l-0.08765,-1.11579l0.01713,-0.00231l-0.01932,-0.04679c0.03194,-0.55119 0.07302,-1.10862 0.12238,-1.67077c-0.63702,-0.46672 -1.27689,-0.92938 -1.92109,-1.38595c0,0 -0.53105,-0.37637 -0.14869,-0.95218c0.38236,-0.57583 0.91343,-0.19945 0.91343,-0.19945c0.44065,0.31232 0.87928,0.62749 1.31637,0.94484c0.35747,-3.17431 0.94763,-6.44984 1.62476,-9.55964c0.0735,-0.33747 0.15984,-0.67397 0.25711,-1.00966c-3.43076,-2.25557 -6.81555,-4.58176 -10.34141,-6.72266c-1.14933,-0.69788 -3.06854,-2.38678 -4.44065,-1.95094c-0.1302,1.25522 -0.18082,2.44872 -0.12795,3.51264l-0.23564,1.10113c0,0 -0.1488,0.67628 -0.78605,0.55021c-0.63724,-0.12605 -0.48843,-0.80235 -0.48843,-0.80235l0.2064,-0.90787c-0.05624,-1.06579 -0.00612,-2.28084 0.12595,-3.56721c-0.12042,-0.28611 -0.03605,-0.51036 0.07417,-0.6606c0.47401,-3.89569 1.63813,-8.30676 2.84922,-11.1769c0.17468,-1.63733 0.45695,-2.42876 1.096,-3.33764c-1.42776,-0.56413 -2.81497,-1.03629 -4.11696,-1.38223c0,0 -0.62471,-0.17496 -0.42991,-0.84025c0.19481,-0.66529 0.81954,-0.49034 0.81954,-0.49034c1.45261,0.42291 2.98955,0.97176 4.5617,1.61213c0.3551,-0.7261 0.77923,-3.29384 1.12997,-4.056c1.05948,-2.30225 1.96642,-4.56492 2.84046,-6.81296c-2.50288,-0.98506 -4.93353,-1.21204 -7.28598,-2.87334c0,0 -0.53105,-0.37636 -0.14869,-0.9522c0.38236,-0.57583 0.91343,-0.19945 0.91343,-0.19945c2.26553,1.61203 4.60422,1.79871 7.02132,2.733c0.97973,-2.53857 1.94664,-5.06454 3.07407,-7.6141c1.02192,-2.29596 2.03324,-4.70451 3.10958,-7.11297c-0.84385,-0.26276 -1.6911,-0.51745 -2.54192,-0.76484c-1.86202,-0.54142 -2.68794,-1.14547 -4.70297,-0.69781c0,0 -0.64588,0.14102 -0.75101,-0.53228c-0.10514,-0.6733 0.54075,-0.81433 0.54075,-0.81433c2.22,-0.47718 3.2798,0.12551 5.31439,0.71712c0.90939,0.26443 1.81484,0.5371 2.71645,0.81905c1.89003,-4.126 4.01082,-8.19318 6.74465,-11.63242c-1.75861,-0.4496 -3.49851,-0.6966 -5.18097,-0.62353c0,0 -0.65438,0.02841 -0.6519,-0.65892c0.00247,-0.68734 0.65687,-0.71576 0.65687,-0.71576c1.99714,-0.08674 4.06352,0.25161 6.14361,0.83797c0.65218,-0.74445 1.33802,-1.45335 2.062,-2.12007c0.79343,-1.0902 1.62964,-2.17817 2.50075,-3.25604c-1.17702,-0.37239 -2.35636,-0.74914 -3.53532,-1.14684c-1.26018,-0.42506 -4.74941,-2.18123 -5.90295,-1.06628c0,0 -0.53067,0.42726 -0.91357,-0.11192c-0.38289,-0.53917 0.14781,-0.96639 0.14781,-0.96639c1.76677,-1.29051 4.04391,-0.15668 5.87606,0.43275c1.76896,0.56912 3.54245,1.11177 5.3092,1.6663c2.0811,-2.48415 4.33478,-4.89826 6.66227,-7.14433c-0.76626,-0.40891 -1.52257,-0.83616 -2.26581,-1.28752c0,0 -0.55529,-0.33725 -0.20911,-0.93681c0.34618,-0.59957 0.90151,-0.26235 0.90151,-0.26235c0.86144,0.52315 1.74029,1.0141 2.63168,1.48179c1.46365,-1.36738 2.95019,-2.6636 4.43572,-3.86501c0,0 0.53067,-0.42726 0.91357,0.11187c0.38288,0.53917 -0.1478,0.96642 -0.1478,0.96642c-1.33046,1.06675 -2.6561,2.21255 -3.96246,3.41893c5.15501,2.56147 10.64708,4.49783 15.57053,7.48011c1.57186,-1.82152 3.22345,-3.54327 5.06615,-5.03612c0,0 0.53066,-0.42724 0.91357,0.1119c0.38288,0.53917 -0.14779,0.9664 -0.14779,0.9664c-1.71625,1.37171 -3.26557,2.95386 -4.73821,4.63592c4.23439,2.62345 8.82051,5.09618 13.00529,8.0435c1.25723,-1.86674 2.49278,-3.61762 2.13087,-5.93528c0,0 -0.10514,-0.67332 0.54076,-0.81435c0.64588,-0.14103 0.75102,0.53229 0.75102,0.53229c0.43357,2.77665 -0.93921,4.7704 -2.37712,6.97041c2.48397,1.83119 4.79838,3.85472 6.77733,6.20841c1.54378,1.83948 3.32978,3.45705 4.95862,5.21612c0.67821,-1.00653 1.51329,-1.73767 2.74986,-1.68356c0,0 0.64598,0.07914 0.54147,0.76248c-0.1045,0.68336 -0.7505,0.60423 -0.7505,0.60423c-0.57246,-0.16222 -1.14488,0.45878 -1.66492,1.29894c0.73328,0.85808 1.41554,1.76229 2.00515,2.75046l0.07587,0.12783c0,0 0.33931,0.57153 -0.22024,0.95439c-0.55953,0.38288 -0.89887,-0.18867 -0.89887,-0.18867l-0.07587,-0.12782c-0.46999,-0.79601 -1.00495,-1.5364 -1.5808,-2.2417c-0.33624,0.67485 -0.6312,1.3247 -0.86431,1.72797c-0.54567,0.94397 -1.12131,1.91579 -1.70932,2.90721c1.81189,1.59538 3.51496,3.31247 5.03655,5.2302c0.20269,0.15002 0.43704,0.33271 0.69313,0.54153c0.88291,-0.87038 1.87269,-1.54587 2.93717,-1.80842c0,0 0.64588,-0.14102 0.75101,0.53228c0.10514,0.6733 -0.54075,0.81432 -0.54075,0.81432c-0.65516,0.11281 -1.42387,0.63447 -2.15226,1.31245c1.7709,1.57991 3.89946,3.82832 4.21221,5.32544l0.05597,0.35843c0,0 0.10514,0.67331 -0.54076,0.81434c-0.64588,0.14103 -0.75101,-0.53228 -0.75101,-0.53228l-0.05596,-0.35842c-0.04709,-0.98188 -2.19459,-3.1179 -3.8782,-4.6053c-0.63626,0.74087 -1.16963,1.5199 -1.46203,2.1103c-1.58104,3.19207 -3.33616,6.28442 -5.04102,9.40485c2.36086,2.93408 4.85314,5.72991 7.28346,8.5991l0.49075,0.68555c0,0 0.38447,0.53788 -0.14505,0.96675c-0.52952,0.42887 -0.91402,-0.10897 -0.91402,-0.10897l-0.45918,-0.6433c-2.32217,-2.73685 -4.70144,-5.40622 -6.9608,-8.20068c-0.70666,1.31169 -1.39904,2.63143 -2.06063,3.96854c-0.93323,1.88324 -1.76391,3.80826 -2.53987,5.75625c2.50406,3.19542 5.30142,6.83828 6.81538,10.39109l0.05043,0.1207c0,0 0.25865,0.619 -0.34247,0.91914c-0.6011,0.30012 -0.85977,-0.31889 -0.85977,-0.31889l-0.05043,-0.12071c-1.31135,-3.2137 -3.86054,-6.56487 -6.18724,-9.52216c-2.16772,5.64855 -3.97989,11.44873 -6.58409,16.94821c0.66226,0.68896 1.26764,1.42099 1.68814,2.32545l0.36046,0.29769c0,0 0.46495,0.46157 0.00445,0.97165c-0.46049,0.5101 -0.92544,0.04854 -0.92544,0.04854l-0.62597,-0.68156c-0.27433,-0.62626 -0.67235,-1.17124 -1.12657,-1.67952c-0.07921,0.15783 -0.15913,0.31535 -0.23985,0.47259c-0.19836,0.92022 -0.51539,1.82315 -0.91719,2.67584l-0.11732,0.24684c0,0 -0.29761,0.62614 -0.8804,0.34122zM184.9244,-55.10317c0.73316,-1.48179 1.50848,-2.93972 2.29934,-4.38889c-1.68372,-1.68064 -3.31845,-3.41273 -4.93822,-5.15956c-1.24322,2.9868 -2.7726,5.9669 -4.26768,8.96839c1.55625,1.86613 3.01191,3.71661 4.3396,5.4177c0.08529,0.10941 0.1713,0.21945 0.25795,0.33019c0.71293,-1.7466 1.47188,-3.4735 2.309,-5.16788zM192.11324,-68.54232c0.5597,-1.11711 1.33353,-2.42633 2.2699,-3.57812c-0.26937,-0.2225 -0.50081,-0.40611 -0.67534,-0.53739c-1.4803,-1.83665 -3.1194,-3.48981 -4.85643,-5.02967c-2.23959,3.78611 -4.55129,7.80188 -5.99493,11.60831c-0.00194,0.00506 -0.0039,0.01017 -0.00584,0.01525c1.66389,1.79601 3.33958,3.58103 5.06176,5.31787c1.42598,-2.58399 2.87702,-5.15396 4.20086,-7.79623zM181.33038,-49.36496c-1.21526,-1.55975 -2.54729,-3.26103 -3.97114,-4.98792c-2.01484,4.10124 -3.87803,8.24988 -4.77761,12.51706c-0.81596,1.98108 -1.57306,3.98854 -2.30059,6.01076c0.11406,0.12714 0.22812,0.25392 0.3422,0.38029c1.02731,1.13798 2.44583,1.51318 3.51238,2.78761c0.39712,0.47455 0.82823,0.90905 1.26123,1.33586c2.55066,-5.59316 4.39711,-11.45699 6.63348,-17.15183c-0.23871,-0.3028 -0.47261,-0.60028 -0.69997,-0.89182zM171.33866,-42.20728c0.94379,-4.51342 2.96891,-8.89694 5.11569,-13.23111c-3.92371,-4.65264 -8.47157,-9.31536 -13.15897,-11.74381c-0.14661,-0.07647 -0.2929,-0.1535 -0.43894,-0.23115c-1.31169,2.92312 -2.43149,5.98705 -3.62258,8.89222c-1.27612,3.11252 -2.5029,6.2238 -3.72688,9.32742c0.05847,0.05826 0.11667,0.11669 0.17469,0.17531c1.75232,1.77114 3.50425,2.42761 5.38879,3.88847c3.05325,2.36682 5.65595,5.31237 8.20075,8.17321c0.6628,-1.7723 1.3479,-3.52613 2.06747,-5.25055zM190.18029,-82.5013c0.37455,-0.64795 0.71652,-1.38342 1.08325,-2.08694c-1.69943,-1.87938 -3.62179,-3.56629 -5.2468,-5.50257c-1.89844,-2.26643 -4.12342,-4.22078 -6.51513,-5.99035c-0.01632,0.02665 -0.03261,0.05334 -0.04888,0.08007c-1.28871,2.11978 -2.64064,4.29662 -3.92797,6.50047c4.28684,3.29555 8.91287,6.23986 13.0585,9.72356c0.54731,-0.92671 1.08404,-1.83682 1.59703,-2.72426zM174.82883,-88.29434c-0.85474,1.50154 -1.66898,3.01302 -2.40279,4.525c-0.75749,1.55593 -1.62536,3.02841 -2.53667,4.46829c0.22866,0.20408 0.45765,0.40948 0.68699,0.61617c3.99105,3.60585 7.63218,7.59402 11.29733,11.56425c1.5267,-3.77452 3.79281,-7.70951 5.98397,-11.42726c-4.13039,-3.49585 -8.73046,-6.44815 -13.02883,-9.74646zM169.699,-77.62341c-0.18809,-0.16954 -0.37593,-0.33813 -0.56352,-0.50584c-1.50043,2.3005 -3.06628,4.55224 -4.41601,6.96877c-0.4513,0.80801 -0.87588,1.63968 -1.28047,2.48736c0.15957,0.085 0.3195,0.16931 0.47975,0.25287c4.70588,2.46814 9.24221,7.03448 13.19263,11.66238c1.49544,-2.99211 3.00248,-5.96448 4.2034,-8.94377c-3.772,-4.08985 -7.49942,-8.21977 -11.61579,-11.92177zM160.29341,-43.9871c-1.82869,-1.43595 -3.6164,-2.16156 -5.335,-3.81613c-1.43928,3.64605 -2.88423,7.28016 -4.41054,10.89191c0.60029,0.50375 1.19681,1.01616 1.78931,1.53839c2.57045,2.64846 5.96638,4.92162 8.25336,7.78476c1.26623,1.58526 2.43097,3.09137 3.80202,4.48674c1.44183,-4.11688 2.83625,-8.28474 4.33017,-12.37146c-2.67444,-2.90839 -5.26528,-6.0297 -8.42932,-8.51421zM145.61189,-27.82247c0.56968,-2.49448 2.55021,-4.46881 2.77801,-7.29118c0.1858,-0.44613 0.37073,-0.89215 0.55495,-1.3381c-4.75422,-3.91174 -9.73043,-7.31226 -14.76672,-10.7627c-0.24846,0.49817 -0.50679,0.99049 -0.77633,1.47616c-0.83512,3.72969 -3.30032,7.3541 -4.54905,11.00999c0.92484,0.60236 1.85415,1.19768 2.79148,1.7809c4.23,2.6355 8.90495,5.69857 12.89036,8.96098c0.43506,-1.31332 0.79721,-2.60944 1.07734,-3.83605zM158.03551,-59.01689c1.20881,-2.94834 2.34709,-6.05401 3.68009,-9.01773c-5.2934,-2.94842 -10.25161,-6.59664 -15.48836,-9.69384c-1.12342,2.57491 -2.20312,5.11592 -3.33994,7.45145c-1.52554,3.13359 -2.67788,6.47829 -3.77964,9.84704c5.41007,2.98201 10.94645,6.17192 15.36673,10.24705c1.17076,-2.93552 2.3492,-5.87803 3.56113,-8.834zM163.59843,-71.81666c1.39154,-2.49138 3.01576,-4.80588 4.55864,-7.1808c-4.9255,-4.33741 -9.74638,-8.06845 -15.22162,-11.45962c-2.45025,3.40007 -4.37308,7.43463 -6.14956,11.45537c5.24614,3.09887 10.21518,6.75212 15.51342,9.70702c0.41061,-0.85924 0.84141,-1.70244 1.29916,-2.52197zM171.26647,-84.35166c0.77449,-1.58632 1.63242,-3.17167 2.53119,-4.7459c-0.18409,-0.14568 -0.36748,-0.29216 -0.55011,-0.43952c-4.03668,-3.2575 -8.93761,-5.81095 -13.90765,-8.10873c-1.04244,1.22889 -2.11945,2.41858 -3.26401,3.52866c-0.81777,0.78509 -1.58252,1.63978 -2.30262,2.54984c5.43297,3.37371 10.23985,7.09396 15.13431,11.39657c0.84671,-1.34833 1.65155,-2.72798 2.35889,-4.18089zM178.35987,-96.70551c0.02818,-0.04636 0.05654,-0.09255 0.08508,-0.1386c-4.23615,-2.98714 -8.90571,-5.47226 -13.1692,-8.12443c-1.70466,2.02833 -3.32874,4.16376 -5.02052,6.22478c4.93845,2.29931 9.79452,4.85669 13.8181,8.10126c0.14025,0.11313 0.28096,0.22575 0.42213,0.33791c1.26834,-2.1688 2.59402,-4.31139 3.86441,-6.40088zM138.67251,-59.09281c-1.1734,3.61656 -2.33766,7.2323 -3.89082,10.61637c5.01441,3.43623 9.97163,6.81813 14.71155,10.69187c1.50662,-3.67506 2.96785,-7.34672 4.43481,-11.02783c-4.33874,-4.10649 -9.85355,-7.30422 -15.25554,-10.28038zM132.18849,-46.19611c0.31424,-0.58044 0.61356,-1.1692 0.90009,-1.76517c-0.84596,-0.58038 -1.69328,-1.1633 -2.54118,-1.75141c-3.80111,-2.64414 -9.0675,-5.70332 -14.01601,-7.80836c-0.63183,0.87295 -0.91643,1.2963 -1.12241,3.11154c-1.11072,2.71335 -2.19252,6.64554 -2.71091,10.28063c1.76046,-0.20427 3.38028,1.15714 4.96392,2.11903c3.44115,2.09015 6.74973,4.36077 10.09815,6.56575c1.32065,-3.57742 3.59452,-7.09108 4.42833,-10.75204zM141.72769,-70.85934c1.15722,-2.37662 2.25432,-4.93191 3.39196,-7.51305c-1.39399,-0.79579 -2.81041,-1.54704 -4.26053,-2.2307c-4.21797,-1.98854 -8.5088,-3.63159 -12.89079,-5.04384c-1.10098,2.4516 -2.12909,4.9098 -3.16481,7.25539c-1.13123,2.544 -2.09577,5.06213 -3.07158,7.59421c3.92647,1.8587 7.64851,4.92895 11.42507,7.07419c1.55085,0.88109 3.15546,1.75802 4.77969,2.64941c1.10627,-3.34177 2.26875,-6.65883 3.79097,-9.78562zM155.21297,-95.10961c1.01479,-0.98116 1.97644,-2.02143 2.90748,-3.09469c-2.52375,-1.14576 -5.0486,-2.23513 -7.47077,-3.32672c-3.17353,-1.43057 -6.43312,-2.48466 -9.71917,-3.52361c-1.01659,1.23886 -1.99094,2.49181 -2.91272,3.74564c-0.55856,0.51949 -1.09424,1.06403 -1.60908,1.63059c4.66991,1.54201 9.34661,4.13234 13.40453,5.77755c0.9749,0.54477 1.92711,1.09786 2.86008,1.6604c0.79002,-1.02234 1.63288,-1.98433 2.53968,-2.86918zM148.45062,-113.18227c-2.27431,2.17534 -4.47668,4.5219 -6.52836,6.93929c3.14796,1.00577 6.26533,2.08083 9.28838,3.44357c2.54325,1.14676 5.19513,2.29175 7.84087,3.50058c1.74364,-2.0865 3.40333,-4.26117 5.13619,-6.34188c-4.98351,-2.98965 -10.54524,-4.92428 -15.73703,-7.54156zM149.22601,-92.64466c-4.1447,-1.6699 -8.99947,-4.42138 -13.79102,-5.90727c-2.80817,3.41139 -4.97326,7.4837 -6.88852,11.63435c4.38187,1.4179 8.67408,3.06606 12.8924,5.05478c1.44392,0.6807 2.85479,1.42843 4.24363,2.22041c1.79165,-4.01554 3.72066,-8.03301 6.16356,-11.47967c-0.85578,-0.51481 -1.7282,-1.02203 -2.62005,-1.52258zM132.49527,-62.50598c-3.72067,-2.11371 -7.39856,-5.15159 -11.26433,-6.99465c-0.87561,2.25661 -1.78412,4.52961 -2.85057,6.84697c-0.47266,1.02709 -0.65282,2.93048 -1.11532,4.00104c4.95256,2.13514 10.12876,5.07778 14.03689,7.78109c0.79242,0.54962 1.58435,1.09478 2.37515,1.63756c1.50045,-3.37087 2.65133,-6.93915 3.82014,-10.5044c-1.70157,-0.93247 -3.3825,-1.84777 -5.00196,-2.76765z" fill="#000000" stroke="none" stroke-width="0.5" stroke-linecap="butt"/><path d="M258.46907,0.38274l-12.17312,-125.45574l70.95025,-5.75787l12.17309,125.45577z" fill="none" stroke="#000000" stroke-width="1.5" stroke-linecap="butt"/><path d="M255.09126,-78.72666l-3.10045,-39.08513l61.76303,-5.39214l3.10045,39.08515z" fill="#e0e0e0" stroke="#000000" stroke-width="1.5" stroke-linecap="butt"/><path d="M260.46101,-18.1128l-3.35202,-44.6684l61.75163,-5.64455l3.35204,44.66839z" fill="#e0e0e0" stroke="#000000" stroke-width="1.5" stroke-linecap="butt"/><path d="M310.05827,-119.18384l1.88242,31.65277l-54.1013,4.004l-2.33737,-31.62616z" fill="#b1dce0" stroke="#000000" stroke-width="1.5" stroke-linecap="round"/><path d="M307.07192,-94.35086l-45.00234,3.47117" fill="none" stroke="#000000" stroke-width="1.5" stroke-linecap="round"/><path d="M256.98898,-62.54124l5.70359,5.09916" fill="none" stroke="#000000" stroke-width="1.5" stroke-linecap="round"/><path d="M314.41143,-62.11621l3.86915,-5.24179" fill="none" stroke="#000000" stroke-width="1.5" stroke-linecap="round"/><path d="M266.01598,-23.86258l-4.81661,4.46139" fill="none" stroke="#000000" stroke-width="1.5" stroke-linecap="round"/><path d="M315.89959,-28.45546l6.15853,5.07252" fill="none" stroke="#000000" stroke-width="1.5" stroke-linecap="round"/><path d="M312.82764,-59.08014l1.66387,27.97779l-47.81992,3.53909l-2.06602,-27.95426z" fill="#444444" stroke="#000000" stroke-width="1.5" stroke-linecap="round"/><path d="M313.17287,-56.75787l-9.98197,7.041l-25.40996,1.48798l-11.10294,-5.80631" fill="none" stroke="#000000" stroke-width="1.5" stroke-linecap="round"/><path d="M280.38461,-38.23603c0.13565,3.01046 -2.56594,5.61553 -6.03418,5.81863c-3.46824,0.20309 -6.38975,-2.07271 -6.5254,-5.08315c-0.13565,-3.01046 2.56597,-5.61553 6.03418,-5.81862c3.46824,-0.20309 6.38975,2.07269 6.5254,5.08314z" fill="none" stroke="#000000" stroke-width="1.5" stroke-linecap="butt"/><path d="M313.5519,-42.50609c0.12812,2.84319 -2.38228,5.30115 -5.60712,5.48999c-3.22485,0.18884 -5.94298,-1.96294 -6.07109,-4.80613c-0.12812,-2.84319 2.38229,-5.30116 5.60715,-5.48999c3.22485,-0.18884 5.94296,1.96295 6.07106,4.80614z" fill="none" stroke="#000000" stroke-width="1.5" stroke-linecap="butt"/><path d="M281.93863,-34.11875l-0.67126,-9.44922l19.49101,-1.56618l0.67123,9.44921z" fill="none" stroke="#000000" stroke-width="1" stroke-linecap="butt"/><path d="M279.50324,-38.18443l-0.07279,-1.61507l0.44071,-0.02581l0.07277,1.61508z" fill="none" stroke="#000000" stroke-width="1.5" stroke-linecap="butt"/><path d="M283.4658,-38.56525c-0.01764,-0.39149 0.40964,-0.41651 0.40964,-0.41651l0.31777,-0.01862c3.60424,-0.21105 -1.47644,-4.7051 2.99755,-3.65854c0,0 0.41093,0.10007 0.29257,0.47939c-0.1184,0.37932 -0.52932,0.27926 -0.52932,0.27926c-2.6412,-0.6766 1.72958,3.422 -2.72551,3.68288l-0.31777,0.01861c0,0 -0.42729,0.02502 -0.44493,-0.36647z" fill="#444444" stroke="none" stroke-width="0" stroke-linecap="butt"/><path d="M294.89322,-40.5073c-0.42728,0.02502 -0.44493,-0.36647 -0.44493,-0.36647c-0.00875,-0.19411 -0.03718,-0.82495 -0.04592,-1.01906c0,0 -0.01764,-0.39149 0.40965,-0.41652c0.42728,-0.02502 0.44493,0.36647 0.44493,0.36647c0.00875,0.19411 0.01749,0.38822 0.02625,0.58232l0.01968,0.43673c0,0 0.01763,0.39149 -0.40965,0.41652z" fill="#444444" stroke="none" stroke-width="0.5" stroke-linecap="butt"/><path d="M294.3171,-43.78539c-0.00973,-0.21623 0.17368,-0.40269 0.40965,-0.41652c0.23598,-0.01382 0.43517,0.15024 0.44492,0.36647c0.00973,0.21623 -0.17367,0.40269 -0.40964,0.41651c-0.23598,0.01382 -0.4352,-0.15029 -0.44493,-0.36648z" fill="#444444" stroke="none" stroke-width="0.5" stroke-linecap="butt"/><path d="M287.79411,-35.42071c-0.42728,0.02502 -0.44493,-0.36647 -0.44493,-0.36647l-0.01968,-0.43674c-0.00887,-0.19708 -0.09291,-1.52454 -0.01277,-2.0006c-0.15361,0.23605 -0.47138,0.68586 -0.77702,1.11198c0.00242,0.01936 0.00473,0.0389 0.00692,0.05866l0.00917,-0.00054l0.03279,0.7279c0.00973,0.21623 -0.17368,0.40269 -0.40965,0.41651c-0.23598,0.01382 -0.43519,-0.15025 -0.44493,-0.36648l-0.01968,-0.43674c-0.09087,-2.01674 -0.97843,-1.18428 -0.88666,0.19791c0,0 0.01765,0.39148 -0.40964,0.41651c-0.42728,0.02502 -0.44493,-0.36647 -0.44493,-0.36647c-0.0578,-1.92991 1.5172,-2.80751 2.24349,-1.65629c0.26229,-0.73003 0.92593,-1.31588 1.6642,-0.93449c0.4961,0.25627 0.2817,2.30373 0.30327,2.78208l0.01968,0.43673c0,0 0.01764,0.39149 -0.40965,0.41652z" fill="#444444" stroke="none" stroke-width="0.5" stroke-linecap="butt"/><path d="M290.4756,-36.01562c-0.42728,0.02502 -0.44493,-0.36647 -0.44493,-0.36647c-0.01749,-0.3882 -0.06123,-1.35874 -0.07873,-1.74697c0,0 -0.01764,-0.39149 0.40964,-0.41652c0.42728,-0.02502 0.44493,0.36647 0.44493,0.36647c0.01749,0.3882 0.03497,0.77642 0.05248,1.16463l0.02625,0.58232c0,0 0.01764,0.39148 -0.40965,0.41651z" fill="#444444" stroke="none" stroke-width="0.5" stroke-linecap="butt"/><path d="M298.32836,-40.95503c0.01764,0.39149 -0.40965,0.41652 -0.40965,0.41652l-0.6251,-0.07835c-0.85659,-0.78651 -0.91789,-2.95468 0.47829,-3.1795c0,0 0.42729,-0.02502 0.44493,0.36647c0.01764,0.39149 -0.40965,0.41652 -0.40965,0.41652c-0.39044,-0.10282 -0.28036,1.58275 0.06577,1.80746l0.01047,-0.11558c0,0 0.42729,-0.02502 0.44493,0.36647z" fill="#444444" stroke="none" stroke-width="0.5" stroke-linecap="butt"/><path d="M52.57999,-123.74234l0.26383,18.46334l-2.6369,10.82527l-7.33367,7.45658" fill="none" stroke="#000000" stroke-width="1.5" stroke-linecap="round"/><path d="M89.57629,-159.19869l-8.43292,11.63143" fill="none" stroke="#000000" stroke-width="1.5" stroke-linecap="round"/><path d="M85.45512,33.31295l14.38078,6.77834" fill="none" stroke="#000000" stroke-width="1.5" stroke-linecap="round"/><path d="M73.23135,-44.30324c-0.47397,0.07324 -0.54313,-0.36 -0.54313,-0.36l-0.0738,-0.6372c-1.2686,-1.06458 -1.47523,-4.06469 -1.4391,-6.99182c-0.04358,0.25442 -0.09113,0.50593 -0.14303,0.75426l0.05047,1.12001c0.01091,0.24216 -0.19451,0.45103 -0.45883,0.46651c-0.2643,0.01549 -0.48742,-0.1683 -0.49833,-0.41046l-0.03632,-0.80582l-0.31257,-0.74817l0.18204,-0.06718c-1.88255,-3.95727 -0.98972,-11.27596 -1.01645,-15.69018c-0.15635,-1.10683 -0.3353,-2.21898 -0.53872,-3.34631c-0.15447,-0.85604 -0.61224,-2.25436 -0.67673,-3.41046c-0.07182,-0.29225 -0.14109,-0.5915 -0.20577,-0.90058l0.00512,-0.02223l-0.0078,0.00078l-0.08455,-0.87014c-0.00081,-0.0079 -0.00142,-0.0159 -0.00178,-0.02394c-0.01091,-0.24216 0.19451,-0.45103 0.45883,-0.46651c0.1648,-0.00964 0.31358,0.05816 0.40489,0.16928c2.0293,0.07502 1.70761,2.05653 2.17904,3.68148c0.0112,0.03862 0.02226,0.07728 0.03314,0.11605c-0.03242,-0.53107 -0.02429,-1.05187 0.07752,-1.49733c-0.00642,-0.13759 -0.01278,-0.27519 -0.01906,-0.41279h-0.00003l-0.03951,-0.87697c-0.01091,-0.24216 0.1945,-0.45103 0.45882,-0.46651c0.2643,-0.01549 0.48743,0.16831 0.49834,0.41047l0.0316,0.70158c0.00772,0.17127 0.0156,0.34259 0.02355,0.51386c1.34637,4.9258 0.51521,11.4425 0.73517,16.32397c0.1221,2.7098 -0.91604,10.62276 1.18717,12.32144l0.17459,0.91845c0,0 0.06918,0.43325 -0.4048,0.50648zM70.17093,-69.13147c-0.10976,-1.20189 -0.29715,-2.37608 -0.62193,-3.48576c-0.25747,-0.87969 -0.27777,-2.8739 -1.00026,-3.05277l0.03507,0.1459l-0.08675,0.01924c0.89168,1.87287 1.38696,4.08217 1.67387,6.37339z" fill="#707070" stroke="none" stroke-width="0.5" stroke-linecap="butt"/><path d="M59.66617,-158.95663c-0.05927,-1.31545 1.37646,-1.39954 1.37646,-1.39954l0.38286,-0.02242c0.16565,-0.0097 0.35769,-0.02452 0.57086,-0.04238l0.44813,-0.76306c0.23024,-0.40861 0.68283,-0.70107 1.21498,-0.73224c0.39395,-0.02307 0.7574,0.10141 1.02743,0.32163c0.21525,-0.44731 0.6899,-0.77391 1.25394,-0.80694c0.60791,-0.03561 1.14314,0.28013 1.37462,0.75679l0.39252,-0.80905c0.21017,-0.45843 0.69102,-0.79511 1.26415,-0.82868c0.72064,-0.0422 1.3392,0.40933 1.47057,1.03736l0.47285,2.06121l-0.33934,0.07219c0.25322,0.81706 0.4179,1.65285 0.44876,2.49795l-0.16096,0.2155l0.09498,0.02879l-0.67554,1.76962c-0.18109,0.51153 -0.69064,0.89805 -1.30692,0.93413c-0.17724,0.01038 -0.3483,-0.00909 -0.50747,-0.05373c0.00075,0.02288 0.00154,0.04587 0.00232,0.06896l-0.16836,0.21327l0.10238,0.03102l-0.67554,1.76961c-0.18109,0.51153 -0.69065,0.89806 -1.30693,0.93414c-0.79294,0.04643 -1.46227,-0.50488 -1.49501,-1.2314l-0.01018,-0.22561c-0.39013,-0.10979 -0.84298,-0.41222 -1.36228,-0.96184c-0.00908,-0.13096 -0.03001,-0.37901 -0.05098,-0.70152c-0.17592,0.08808 -0.39551,0.14901 -0.66958,0.16504c-1.43574,0.08407 -1.49504,-1.23139 -1.49504,-1.23139c-0.02766,-0.61391 -0.04821,-1.22823 -0.06377,-1.84276l-0.11491,0.00672c0,0 -1.43575,0.08407 -1.49502,-1.23139zM64.44909,-155.41778c-0.0027,0.29594 -0.00218,0.61763 0.00191,0.9659c0.1579,0.19087 0.29928,0.31124 0.42525,0.37176l-0.02726,-0.60501c-0.09715,-0.06585 -0.14801,-0.14915 -0.14801,-0.14915c-0.06419,-0.10519 -0.15301,-0.31028 -0.2519,-0.58347zM65.32955,-155.82426c-0.002,-0.02027 -0.00402,-0.04042 -0.00602,-0.06047c-0.00323,0.00323 -0.0065,0.00646 -0.00977,0.00964c0.00531,0.01722 0.01058,0.03414 0.01579,0.05081z" fill="#707070" stroke="none" stroke-width="0.5" stroke-linecap="butt"/><path d="M77.7424,-164.58744l-18.23517,4.23324" fill="none" stroke="#000000" stroke-width="1.5" stroke-linecap="round"/><path d="M72.83197,-94.66051l-1.18377,-68.86661" fill="none" stroke="#000000" stroke-width="1.5" stroke-linecap="round"/><path d="M29.2717,-204.16673c-0.39485,-0.12562 -0.8363,-0.42681 -0.86862,-1.14399c-0.05927,-1.31547 1.37646,-1.39954 1.37646,-1.39954l1.69979,0.62956c0.05027,0.08235 0.17179,0.32554 0.3342,0.66898c0.01682,-0.06882 0.03546,-0.13638 0.05603,-0.20256c0.00073,-0.0055 0.00144,-0.01096 0.00216,-0.01646c-0.02696,-0.29913 -0.0491,-0.61011 -0.06766,-0.93428l-0.00265,0.00015l-0.07903,-1.75394c-0.00059,-0.01309 -0.00098,-0.02613 -0.00115,-0.03914l-0.25107,-0.4114c-0.31833,-0.54592 -0.63666,-1.09184 -0.95501,-1.63774c-0.04143,-2.34372 -1.70646,-1.89302 -4.14016,-1.22743c-4.3432,1.18778 -8.06092,3.18258 -12.58768,3.91645c-3.02588,0.49056 -5.97601,-0.13272 -8.80309,1.13448c0,0 -1.31103,0.56659 -1.8993,-0.62354c-0.58825,-1.19015 0.72278,-1.75676 0.72278,-1.75676c3.20023,-1.34414 6.15957,-0.8091 9.5111,-1.34484c3.59,-0.57386 6.99941,-1.78936 10.34565,-3.01373c1.28327,-0.46957 5.96582,-2.03383 7.38389,-1.4755c2.39724,0.94388 2.11936,1.94311 2.23425,3.62277c0.01213,0.01861 0.02424,0.03721 0.03637,0.05582c1.16045,0.09257 1.21169,1.22928 1.21169,1.22928c0.00238,0.05284 0.00482,0.10556 0.00732,0.15818c0.19066,0.16969 0.32892,0.38955 0.38977,0.639l0.4556,1.70794l-0.30853,0.07522c0.76684,1.60647 1.06258,3.19968 1.05681,5.18015c0.18677,0.38336 0.3959,0.76557 0.63039,1.14751l-0.01369,0.15389l0.06619,-0.01924l0.43698,1.35257c0.03804,0.10882 0.06092,0.22435 0.06634,0.3447c0.03274,0.72651 -0.58353,1.35311 -1.37646,1.39954c-0.21612,0.01266 -0.42307,-0.0191 -0.61045,-0.08669c-0.131,0.10847 -0.28637,0.19156 -0.47087,0.2423c-0.23833,0.38139 -0.67482,0.65066 -1.18425,0.68048c-0.79294,0.04643 -1.46227,-0.50487 -1.49501,-1.23138l-0.00779,-0.17265c-0.84402,-0.87468 -2.139,-4.25708 -2.90132,-5.84817z" fill="#707070" stroke="none" stroke-width="0.5" stroke-linecap="butt"/><path d="M20.68753,-122.24802c-1.06501,0.90672 -2.0297,-0.05 -2.0297,-0.05l-0.07981,-0.07916c-0.70588,-0.71655 -1.41177,-1.43309 -2.11764,-2.14964c-1.28244,-3.70563 -4.1872,-6.70286 -5.21385,-10.59383c-0.68381,-2.59157 -0.21426,-5.85655 -0.01665,-8.46783c0.02962,-0.39143 0.02471,-1.02013 0.07699,-1.70851c-0.36364,-0.96936 -0.63387,-1.97531 -0.68229,-3.05009c0,0 -0.05927,-1.31547 1.37646,-1.39954c0.99122,-0.05805 1.32635,0.55099 1.43887,0.93366c0.24241,-0.03157 0.51227,-0.0281 0.81276,0.01657c3.2557,0.48398 3.02331,6.29846 2.36146,10.09468l0.06455,0.1998l0.33867,-0.01984l0.06323,1.40316c0.03274,0.72652 -0.58353,1.35311 -1.37646,1.39954c-0.68328,0.04001 -1.27477,-0.36382 -1.44626,-0.94112l-0.12279,-0.38008c0.79569,4.12161 3.66049,7.1174 4.83195,11.1723c0.58034,0.55909 1.16071,1.11821 1.74104,1.6773l0.07982,0.07916c0,0 0.96466,0.95672 -0.10036,1.86344z" fill="#707070" stroke="none" stroke-width="0.5" stroke-linecap="butt"/><path d="M-0.44122,-136.92032c0.17788,-0.20791 0.36488,-0.32455 0.36488,-0.32455l1.91357,-1.19241c1.71677,-0.9055 2.67049,-1.34024 3.8573,-1.49723l-0.0716,-0.26843l1.86966,-0.45586c0.09913,-0.02607 0.20259,-0.04283 0.30925,-0.04908c0.79294,-0.04643 1.46228,0.50487 1.49502,1.23139c0.02366,0.52514 -0.29177,0.99806 -0.76789,1.23742l-1.38776,0.73212c-2.61673,2.00597 -4.82929,2.49889 -7.90502,3.41627c0,0 -1.37851,0.4006 -1.78422,-0.85518c-0.40571,-1.25579 0.97278,-1.65641 0.97278,-1.65641c0.3978,-0.11319 0.77423,-0.21748 1.13402,-0.31807z" fill="#707070" stroke="none" stroke-width="0.5" stroke-linecap="butt"/><path d="M61.1265,-141.45645l-4.4574,-22.24867" fill="none" stroke="#9e9e9e" stroke-width="1.5" stroke-linecap="round"/><path d="M48.55521,-215.98705l-10.70436,0.97855" fill="none" stroke="#9e9e9e" stroke-width="1.5" stroke-linecap="round"/><path d="M36.00002,34.52367c1.77066,-0.80892 3.54769,-1.71906 5.34845,-2.74192c4.44971,-1.64362 8.98745,-2.93052 13.34367,-4.63783c0.27712,-0.10861 2.75789,-1.43614 3.00357,-1.49262c1.55353,-0.35718 3.44241,0.46036 4.96368,0.00495c2.9211,-0.87443 5.95026,-0.65652 9.04972,-0.65652c5.77062,0 11.91395,0.7185 17.64324,0.00382c4.77604,-0.59578 9.06673,-1.89739 13.91664,-1.89739c4.81148,0.02848 9.7516,-2.39796 14.54708,-3.06876c6.40822,-0.8964 13.3268,-0.08719 19.78123,-0.08719c10.51997,0 21.03992,0 31.55988,0c11.2582,0 22.51642,0 33.77461,0c4.4992,0 8.69016,-0.7722 13.13285,-1.24192c3.4935,-0.36936 7.16384,-0.02046 10.67549,-0.02046c1.18884,0 3.09822,0.41617 4.23864,0.02533c1.74864,-0.59928 3.04835,-1.04041 4.93522,-1.26332c11.61968,-0.08367 22.80646,-1.98278 34.39589,-2.94002c11.18743,-0.92403 22.92315,-3.19577 33.87675,-6.0397c11.28397,-2.92973 22.53769,-3.73291 34.03915,-5.29458c6.58436,-0.88804 13.36127,0.60803 19.9232,-0.26114c4.73651,-0.62738 9.3293,-1.72175 14.158,-1.8447c11.08292,-0.27077 22.18717,-0.05521 33.27251,-0.05521c2.39476,0 4.58491,-0.69043 6.95097,-1.06466c7.24929,-1.1466 16.38061,-0.93256 23.5929,0.43775c4.33235,0.82314 8.24384,1.25809 12.64336,1.25809c0.29337,0 0.58674,0 0.88011,0c0.00454,-0.01558 0.00907,-0.03116 0.01364,-0.04673c0.97256,-2.2264 1.80958,-3.05154 3.10639,-3.08219c-0.05407,0.33734 -0.11346,0.67452 -0.17927,1.01147c-0.07091,0.36308 -0.1477,0.72804 -0.22918,1.09459c-0.29187,0.21714 -0.56232,0.54655 -0.82903,1.02285c0.19712,0 0.39425,0 0.59137,0c-0.15805,0.65453 -0.32742,1.31322 -0.50152,1.97445c-0.2806,-0.02633 -0.53928,-0.04942 -0.7642,-0.06412c-0.74564,2.87512 -1.12688,5.64646 -1.22913,8.66221c-0.0179,0.12729 -0.0349,0.25441 -0.05095,0.38135c-0.12344,0.97647 -0.02502,1.97841 0.11457,2.98189c0.02668,0.4205 0.05228,0.87574 0.066,1.32488c-0.68673,1.30061 -1.29586,2.43076 -1.83912,3.56666c-1.32021,0.34715 -2.9571,0.10782 -4.04702,0.10834c-4.2735,0.00205 -8.54699,0.00009 -12.82049,0.00009c-10.3354,0 -20.67081,0 -31.00621,0c-4.80264,0 -10.04698,1.26986 -14.54717,2.70439c-5.49035,1.75015 -12.70944,0.47373 -18.3743,0.44321c-5.85095,1.85087 -11.87761,1.90733 -17.85705,2.75698c-5.08819,0.72301 -10.58886,2.28348 -15.66334,2.30091c-11.2477,0 -21.73274,4.26329 -33.06568,4.39809c-8.54372,2.8294 -17.42377,2.98362 -26.09135,4.99346c-2.90379,0.67332 -5.29852,1.33175 -8.32027,1.3364c-11.28215,0.01499 -22.56438,0.0023 -33.84655,0.0023c-6.89207,0 -14.68328,-0.23732 -21.43655,1.2453c-0.97595,0.21426 -1.78891,1.07024 -2.76841,1.26238c-2.77937,0.54518 -4.82568,0.16653 -7.59843,1.20121c-5.07734,0.1255 -10.0815,1.45244 -15.03156,2.55656c-1.43069,0.31912 -3.07184,-0.36541 -4.46667,0.02115c-3.9512,1.09504 -8.04745,0.98664 -11.99307,2.33602c-5.6433,1.92973 -10.58076,1.55851 -16.36704,2.10442c-5.99588,0.5657 -11.7222,2.52795 -17.78632,2.52799c-3.4342,0 -6.40577,0.6779 -9.7771,1.1082c-3.0644,0.39114 -6.82171,-0.33055 -9.76152,0.73482c-4.53532,1.64358 -8.78581,2.57531 -13.68233,2.57531c-6.64419,0 -13.28837,0 -19.93255,0c-4.33339,0 -8.81118,0.51706 -12.88206,-1.43967c-4.05219,-1.96722 -8.07716,-2.28009 -12.14756,-3.64625c-6.42155,-2.15528 -12.33642,-7.33186 -18.49782,-10.14575c-1.10276,-0.6398 -4.22854,-2.19945 -5.53477,-3.99147c-6.03932,2.27127 -12.16391,3.47433 -18.97698,4.07178c0,0 -0.82808,0.07261 -0.89178,-0.87139c-0.0637,-0.94399 0.76437,-1.01662 0.76437,-1.01662c6.67886,-0.58569 12.64554,-1.77186 18.53979,-3.98416c0.04034,-0.26409 0.14193,-0.52835 0.31553,-0.79083c0.50809,-0.76827 1.68387,-0.36013 2.43058,-0.80856l0.9251,-0.09996c0,0 0.12621,0 0.28022,0.05608z" fill="#707070" stroke="none" stroke-width="0.5" stroke-linecap="butt"/><path d="" fill="#707070" stroke="none" stroke-width="0.5" stroke-linecap="butt"/><path d="M42.36398,44.88221l6.0905,6.94309l6.0905,-1.26238l31.00621,-23.98526l363.7692,-29.66596l3.32209,0.63119" fill="none" stroke="#707070" stroke-width="3.5" stroke-linecap="round"/><path d="M4.15991,41.72626l79.73023,-15.77977l366.53761,-32.82191" fill="none" stroke="#000000" stroke-width="2" stroke-linecap="round"/><path d="M388.08448,23.32969l-209.29186,21.88127" fill="none" stroke="#707070" stroke-width="2" stroke-linecap="round"/><path d="M184.32945,21.64651l144.32648,-13.46542" fill="none" stroke="#707070" stroke-width="2" stroke-linecap="round"/><path d="M426.06573,1.96124l23.80834,-1.89357l0.5329,8.20122" fill="none" stroke="#707070" stroke-width="3.5" stroke-linecap="round"/><path d="M347.44286,26.57766l102.13731,-9.33972" fill="none" stroke="#707070" stroke-width="3.5" stroke-linecap="round"/><path d="M68.38704,32.2584l27.68411,-4.41834" fill="none" stroke="#707070" stroke-width="3.5" stroke-linecap="round"/><path d="M183.78623,-181.66225c-0.08799,0.27059 -0.31127,0.61389 -0.87786,0.61389c-0.93509,0 -0.93508,-0.93509 -0.93508,-0.93509l0.51691,-1.08572c1.81488,-0.89913 3.28622,-2.5978 5.2183,-3.00496c0,-0.43348 0,-0.84021 0,-1.14579c0,-11.52067 -2.32645,-21.9788 -8.99284,-31.59326c-2.69012,-3.88574 -5.1918,-7.89246 -8.87309,-10.93976c-3.87087,-3.20424 -8.96034,-5.15519 -12.53108,-8.67198c0,0 -0.6612,-0.66121 0,-1.32242c0.6612,-0.66121 1.32242,0 1.32242,0c3.43448,3.50203 8.6059,5.4121 12.40118,8.55376c3.81774,3.16025 6.42826,7.28596 9.21821,11.31587c6.86713,9.93365 9.32537,20.7556 9.32537,32.65778c0,0.83118 0,1.66239 0,2.49357v0.14605c0.38709,0.20068 0.48056,0.66799 0.48056,0.66799c0.15699,0.79882 0.26412,1.61351 0.26753,2.4276v0.74807c0,0 0,0.93509 -0.93509,0.93509c-0.93509,0 -0.93509,-0.93509 -0.93509,-0.93509v-0.74807c0.00269,-0.53718 -0.05495,-1.07497 -0.14566,-1.60588c-0.60241,-0.19018 -0.60242,-0.88769 -0.60242,-0.88769c0,-0.07064 0,-0.14669 0,-0.22722c-1.25845,0.36717 -2.73355,1.78224 -3.92225,2.54327z" fill="#000000" stroke="none" stroke-width="0.5" stroke-linecap="butt"/><path d="M281.17492,-214.86857c-0.77805,0.5187 -1.29673,-0.25934 -1.29673,-0.25934l-0.55704,-0.84857c-0.6595,-2.00812 -3.35608,0.83519 -4.44647,1.21698c-0.81127,-1.13739 -1.61176,-2.92449 -2.69498,-3.83545c-1.36273,-1.14603 -5.42167,0.39378 -6.67034,0.83713c-2.52436,0.89627 -4.90998,2.80071 -7.31828,4.18421c0.4697,0.30098 0.9309,0.62191 1.38288,0.96016c1.31653,1.34278 4.38462,2.51814 5.91857,0.83643c0.80874,-0.88665 1.58761,-2.5212 2.68306,-3.15622c1.39448,-0.80837 3.49547,-0.73458 4.97737,-0.37375l1.04997,1.13655c0,0 0.51869,0.77804 -0.25936,1.29673c-0.77805,0.5187 -1.29673,-0.25934 -1.29673,-0.25934l0.05254,-0.3596c-3.21442,-0.82984 -3.78734,1.05708 -5.80483,2.95332c-2.45059,2.30331 -6.31492,1.53214 -8.54412,-0.65971c-0.71495,-0.53135 -1.41575,-0.99813 -2.11648,-1.39867c-2.31114,0.94182 -4.68205,1.04091 -7.25128,-1.01446c-0.39207,-0.19587 -0.73756,-0.41397 -1.05734,-0.64749c-0.10062,0.01167 -0.2019,0.02428 -0.30384,0.03782c-6.59535,0.87578 -10.53603,6.60726 -17.79619,3.91058c-2.61864,-0.66037 -6.0611,-1.24676 -8.45602,-2.51475c-0.92574,-0.49012 -1.82638,-1.14964 -2.77689,-1.70512c-0.54372,-0.26304 -1.08739,-0.52913 -1.64596,-0.78353c-0.17969,-0.06198 -0.36216,-0.11616 -0.54784,-0.16107c-3.49113,-0.84442 -8.35011,2.64673 -11.50046,3.7085c0,0 -0.8871,0.2957 -1.1828,-0.5914c-0.2957,-0.8871 0.5914,-1.18279 0.5914,-1.18279c1.98288,-0.65263 4.24284,-1.93152 6.54702,-2.84673c-3.85356,0.7 -7.91348,3.5767 -10.75736,5.28374c0,0 -0.80183,0.4811 -1.28293,-0.32073c-0.4811,-0.80183 0.32073,-1.28293 0.32073,-1.28293c4.37207,-2.62215 10.5174,-6.90881 15.94147,-5.33582c0.86379,0.25051 1.6565,0.5765 2.41932,0.93092c0.79789,0.26554 1.55328,0.67717 2.28593,1.12397c1.19946,0.58537 2.43037,1.11984 3.86478,1.40672c4.09047,-0.02056 5.82127,-3.92354 9.77915,-5.06869c2.80332,-0.8111 7.23239,-1.41314 10.01252,-0.06556c1.84636,0.89496 3.2765,2.33982 4.90043,3.50995c2.72636,-0.30906 5.35684,0.29223 7.80287,1.4791c1.26519,-0.78798 2.54529,-1.9051 4.11236,-2.73365c2.49055,-1.31684 5.24757,-2.80003 8.10557,-3.10692c2.73619,-0.29379 7.26501,0.26392 7.10753,4.03433c0.96276,-2.8648 4.2407,-2.47744 5.52781,-0.27915l0.44039,0.64757c0,0 0.5187,0.77804 -0.25934,1.29673zM245.44887,-216.38417c-3.28266,-2.61102 -7.69719,-2.54048 -11.56476,-1.45392c-3.44307,0.9673 -4.99766,3.67465 -7.92216,4.70855c1.52829,0.39986 3.1058,0.7076 4.42405,1.03415c5.68886,2.23141 9.94561,-1.61073 15.02129,-3.42528c0.25574,-0.09143 0.51095,-0.1742 0.76553,-0.24856c-0.22916,-0.20486 -0.46736,-0.41085 -0.72393,-0.61494zM251.389,-214.27041c0.80367,0.40324 1.53124,0.54138 2.21748,0.49347c-0.71739,-0.23245 -1.45193,-0.39749 -2.21748,-0.49347z" fill="#000000" stroke="none" stroke-width="0.5" stroke-linecap="butt"/><path d="M155.72849,-231.16906c-0.93509,0 -0.93509,-0.93509 -0.93509,-0.93509c0,-0.83118 0,-2.41046 0,-3.24164c0,0 0,-0.93508 0.93509,-0.93508c0.93509,0 0.93508,0.93508 0.93508,0.93508c0,0.83118 0,1.66239 0,2.49357v0.74807c0,0 0.00001,0.93509 -0.93508,0.93509z" fill="#000000" stroke="none" stroke-width="0.5" stroke-linecap="butt"/><path d="M162.38059,-203.09047c-0.83637,0.41819 -1.25455,-0.41819 -1.25455,-0.41819l-0.57243,-1.20078c-0.00834,-0.48721 -0.01668,-0.97442 -0.02501,-1.46162c0.01131,-4.47351 -0.83062,-11.13736 -3.12728,-15.01203c-1.44952,-2.44546 -3.65846,-5.03636 -5.07904,-7.75709c-0.23786,-0.18208 -0.50272,-0.33067 -0.78754,-0.43872c0.04648,0.08059 0.08544,0.17624 0.11378,0.28957c0.22679,0.90716 -0.68037,1.13396 -0.68037,1.13396c-5.47087,1.33212 -11.84449,2.02277 -17.43242,2.02277h-1.24678c-0.51645,0 -0.93509,-0.41866 -0.93509,-0.93509c0,-0.18334 0.05277,-0.35436 0.14394,-0.4987c-0.01271,-0.04189 -0.02637,-0.08442 -0.04108,-0.12741c0.0568,-0.45381 0.13613,-0.90434 0.23547,-1.3512c-0.05657,-0.76576 -0.15961,-1.54074 -0.32017,-2.32772l-0.01817,-0.68209c0,0 0,-0.93509 0.93509,-0.93509c0.31951,0 0.52985,0.10917 0.66832,0.25293c1.04674,-2.30154 2.47563,-4.46192 3.88179,-6.41872c2.40901,-3.35238 4.00926,-7.90153 6.10215,-11.54078c1.90446,-1.9829 3.50963,-4.23756 5.0611,-6.54424c1.30142,2.5359 3.98838,1.36035 3.98838,1.36035c0.44845,-0.1978 0.8871,-0.40296 1.3176,-0.61453c-0.13031,-0.46126 0.22034,-0.862 0.22034,-0.862c1.95485,-2.2312 4.16771,-4.28535 6.55045,-6.16759c0.07569,-0.22354 0.2336,-0.40915 0.43774,-0.52083l0.9537,-0.54497c5.11912,-3.80333 10.9089,-6.85733 16.56029,-9.20932c0.99948,-0.49948 2.02452,-0.92874 3.0512,-1.35342c5.24006,-3.77278 10.99113,-6.02665 17.7553,-6.46099l0.02991,0.01175v-0.01222h0.99742c0.14593,0 0.28405,0.03343 0.40714,0.09305c0.39731,-0.16835 0.79535,-0.33398 1.19423,-0.4967c0.47646,0.29543 1.03844,0.466 1.64027,0.466h5.48585v-0.0104c0.00275,-0.00003 0.00549,-0.00005 0.00822,-0.00008c0.01348,0.00341 0.02696,0.00677 0.04047,0.0101c3.50617,0.86169 7.94294,0.18154 12.0997,-0.40336c3.42721,-0.18436 6.85217,-0.42507 10.30563,-0.70785c4.44368,-0.07548 8.89416,-0.06618 13.34551,-0.0316c7.93156,3.0189 15.74136,6.26577 23.58388,9.52517c0.1836,0.32358 0.35098,0.5167 0.35098,0.5167c5.38501,6.20279 11.49552,9.91515 17.71981,14.98254c0.34975,0.28474 0.67948,0.61263 0.99155,0.9737c1.44448,6.25623 3.78152,12.2811 5.03121,18.55303c0.66483,3.33662 1.11949,6.70552 1.41948,10.08782c-0.04659,5.73679 -0.24685,11.46872 -0.23025,17.20239l-0.13777,0.86086c-0.79771,1.22915 -1.66473,2.3963 -2.51262,3.63186c0.00752,1.94727 -0.7846,3.61987 -1.58387,6.02109l0.04798,0.20302c0,0 0,0.22404 -0.10966,0.45278c0.05671,0.64417 0.10966,1.22946 0.10966,1.66675c0,1.83422 0,3.66845 0,5.50267c-1.00793,1.48555 -1.77037,2.99995 -2.4737,4.5589c-1.02761,0.6223 -1.41839,1.79462 -1.41839,1.79462l-0.02541,0.07641c-0.09477,-0.27481 -0.19329,-0.55031 -0.29719,-0.82646c-3.24847,5.24209 -9.19798,8.30439 -13.51417,12.62057c-2.73402,2.66948 -7.65938,3.18604 -11.2914,3.51097c-7.40986,0.66291 -14.63611,2.99364 -22.16023,2.99683c-11.71977,0 -23.43953,0 -35.1593,0c-11.80876,0 -23.4781,0.49872 -35.28398,0.49872c-1.16494,0 -2.62694,0.1255 -4.17162,0.2179l-0.37643,-0.60658c-0.21178,-0.26327 -0.42004,-0.52882 -0.62525,-0.79634c-0.15642,0.11778 -0.35102,0.18759 -0.56191,0.18759c-0.30981,0 -0.58444,-0.15067 -0.75459,-0.38274l-0.71144,-0.94859c-1.91804,-1.90496 -4.21406,-3.46173 -5.97681,-5.47877c-1.24187,-1.42101 -1.10038,-3.40532 -2.44457,-4.68484c0,0 -0.6612,-0.66121 0,-1.32241c0.6612,-0.6612 1.32241,0 1.32241,0c1.04637,1.08227 1.23759,2.52 1.84856,3.75407c0.11994,0.03546 0.22985,0.09433 0.32441,0.17132l1.20402,0.96322c0.24138,0.14436 0.48425,0.28813 0.72652,0.43239c-0.56717,-0.84243 -1.14474,-1.67975 -1.74572,-2.50413c-0.10009,-0.13729 -0.19633,-0.27828 -0.28973,-0.42198l0.29025,-0.39911l-0.04924,-0.03582l0.14592,-0.10506c3.70882,-6.51546 6.18227,-13.83829 7.15252,-21.34393c0.01659,-0.98322 0.01706,-1.98497 0.00353,-3.01238c-0.08048,0.11417 -0.20135,0.2215 -0.3785,0.31009zM162.37375,-205.1391l0.22505,0.42049c-0.06411,-0.47025 -0.1312,-0.93986 -0.2011,-1.40889c-0.00799,0.32948 -0.01597,0.65894 -0.02396,0.98842zM158.41507,-222.5761c-0.19036,-0.27023 -0.38408,-0.5386 -0.58041,-0.80491c0.4008,0.89965 0.79126,1.79247 1.16424,2.68417c-0.18188,-0.63281 -0.37359,-1.26023 -0.58383,-1.87926zM165.7651,-264.02181c0,-0.05679 0.00506,-0.11241 0.01476,-0.16641c-1.16803,0.58735 -2.31392,1.17042 -3.35264,1.80438l-0.17213,-0.02287l0.01431,0.06997l-0.58038,0.11871c-1.42459,1.10167 -2.78916,2.2662 -4.07399,3.49556c2.13352,-1.33004 4.19675,-2.75356 6.45122,-4.12359c0.56602,-0.34398 1.13748,-0.68028 1.71347,-1.01009c-0.00961,-0.05376 -0.01464,-0.1091 -0.01464,-0.16563zM174.19931,-269.82841c-0.01203,0.00581 -0.02405,0.01162 -0.03607,0.01744c0.00068,0.00041 0.00137,0.00082 0.00205,0.00123c0.01135,-0.00624 0.02268,-0.01245 0.03402,-0.01867zM192.13469,-278.43852c0.09161,-0.00341 0.18308,-0.00522 0.27439,-0.0054l0.00347,-0.06303c-0.09268,0.02254 -0.18531,0.04535 -0.27786,0.06844zM138.6272,-231.04438c1.12986,-0.47405 2.29042,-0.88791 3.4634,-1.24376c-0.33488,-0.12293 -0.69669,-0.19003 -1.07418,-0.19003c-1.10146,0 -2.06949,0.57132 -2.62388,1.4338zM284.74219,-190.96052c0.09078,-0.29681 0.16131,-0.60777 0.21537,-0.92943c-0.08216,0.32512 -0.15854,0.64854 -0.22786,0.97005c0.00417,-0.01353 0.00834,-0.02707 0.01249,-0.04062z" fill="#ffffff" stroke="none" stroke-width="0.5" stroke-linecap="butt"/><path d="M155.16743,-184.97571c0,0.87119 -0.81165,0.93072 -0.92258,0.93479c-0.76458,0.47377 -1.53519,1.05406 -2.31951,1.66398c0.0111,4.8867 4.49917,11.28954 8.9283,13.25705c3.30027,1.46604 7.81263,0.91236 11.33254,0.91342c3.5776,0 5.67712,-2.37259 8.81055,-3.89231c6.83138,-3.31324 11.66059,-9.54207 16.38321,-15.44445c2.40657,-3.20674 4.4188,-7.57105 7.15249,-10.35325l0.16025,-0.77128c0,0 0.2268,-0.90716 1.13396,-0.68037c0.90717,0.22679 0.68037,1.13396 0.68037,1.13396l-0.33847,1.22358c-2.78323,2.9462 -4.81957,7.26974 -7.31019,10.5927c-4.45017,5.56352 -9.01248,11.38655 -15.14208,14.96895c0.87614,-0.1931 1.0967,0.68914 1.0967,0.68914c0.36228,2.11333 4.14683,2.26789 5.83278,2.52749c6.94906,1.06996 13.37169,0.01474 19.97905,-1.65149c8.94487,-3.41366 23.42962,-9.98864 26.27059,-20.18866c1.21821,-2.42774 1.48963,-5.2139 2.49684,-7.73835l0.28118,-0.56962c0,0 0.41819,-0.83637 1.25456,-0.41819c0.83637,0.41819 0.41818,1.25455 0.41818,1.25455l-0.21751,0.42781c-1.01086,2.52026 -1.27811,5.28896 -2.49029,7.72177c-2.49504,8.53603 -12.22189,14.60942 -20.91725,18.57845c0.09563,0.18448 0.21381,0.34175 0.35036,0.47649c0.24253,-0.13112 0.49492,-0.13112 0.49492,-0.13112c10.13581,0 20.15684,-0.01028 30.23644,-0.72957c3.84912,-1.29963 10.6795,-2.64558 13.34034,-6.07658c3.97381,-5.12399 6.27005,-11.09517 8.11281,-17.08413c-0.02562,-3.3451 0.98702,-6.46967 0.98702,-9.83523v-0.24936c0,0 0,-0.93509 0.93509,-0.93509c0.93509,0 0.93509,0.93509 0.93509,0.93509v0.24936c0,3.46329 -0.98597,6.67664 -1.00781,10.11331c-1.90846,6.20251 -4.19227,12.71537 -8.4636,17.92488c-1.0718,1.30721 -2.57272,2.34093 -4.26222,3.19375c1.65636,0 3.31273,0 4.96909,0c0.23251,-0.49872 0.84748,-0.49871 0.84748,-0.49871c5.4586,0.04417 13.22786,-4.98557 17.01769,-8.67652c1.42774,-1.39049 2.45626,-4.32999 3.59941,-6.03449c0.97557,-2.46604 1.15954,-4.97525 1.91582,-7.44486c2.68872,-8.77995 4.95866,-16.43083 4.95866,-25.78297c0,-6.65709 0.50937,-13.32114 -1.46028,-19.45028c-0.13648,0.11017 -0.32805,0.18746 -0.5969,0.18746c-0.93509,0 -0.93508,-0.93508 -0.93508,-0.93508l0.00235,-1.18049c-0.12907,-0.90352 -0.27676,-1.72687 -0.44458,-2.53496c-0.05663,-0.09748 -0.11416,-0.19476 -0.17259,-0.29186l-0.46494,-0.20176c0,0 -0.77803,-0.51869 -0.25934,-1.29673c0.12441,-0.18663 0.26376,-0.29866 0.40371,-0.36112c-0.08713,-0.3542 -0.17816,-0.71603 -0.27319,-1.0905c-1.71391,-3.98235 -4.00588,-8.02518 -6.58177,-11.42989c-3.14144,-4.15226 -8.75912,-7.18027 -12.7629,-10.45377c-4.76114,-3.4069 -10.15112,-7.7123 -16.09967,-8.8925c-4.98787,-0.98961 -10.17187,-1.39849 -15.19751,-2.19146c-11.29977,-1.82693 -23.94578,-0.26675 -35.41012,-0.28688c-5.43514,0.91584 -10.93483,1.63959 -16.20568,3.43453c-5.13399,1.74834 -10.00921,5.45815 -14.75834,8.06434c-10.31662,5.66111 -21.112,12.49834 -28.17429,22.01651c-3.9988,4.00939 -9.00598,10.29975 -10.34688,15.88824c-0.50769,2.11586 0.02501,5.0731 0.02501,7.26587c0,0 0.00001,0.93509 -0.93508,0.93509c-0.93509,0 -0.93509,-0.93509 -0.93509,-0.93509c0,-2.3697 -0.50973,-5.39132 0.02501,-7.69554c1.35586,-5.84251 6.5711,-12.51207 10.75034,-16.67941c7.15919,-9.69778 18.20468,-16.68005 28.69127,-22.43518c4.84615,-2.65942 9.77072,-6.3628 15.00099,-8.17576c5.41294,-1.87628 11.11182,-2.63405 16.70942,-3.54746c11.6196,-0.0188 24.39829,-1.51187 35.85894,0.30407c5.04091,0.81909 10.26766,1.17554 15.271,2.20474c6.25897,1.28747 11.83775,5.65483 16.8668,9.24037c4.12802,3.37712 9.88528,6.4958 13.11882,10.81173c2.69027,3.5908 5.07594,7.77555 6.86075,11.95657c0.28132,1.10131 0.53165,2.12114 0.75157,3.14981c4.24793,7.56423 3.54843,16.0043 3.54843,24.60643c0,9.54146 -2.28127,17.41003 -5.05039,26.36148c-0.7919,2.55994 -1.00606,5.1778 -2.03911,7.73702c-1.24732,1.88132 -2.32298,4.84673 -3.88128,6.43334c-3.84328,3.91312 -11.42979,8.61837 -17.26792,9.21434c-0.20809,0.56155 -0.8737,0.56156 -0.8737,0.56156c-2.32734,0 -4.65467,0 -6.98199,0l-1.26677,-0.65577c0,0 -0.08825,-0.05882 -0.1855,-0.16658c-2.69935,1.0572 -5.57786,1.80466 -7.83821,2.54935c-8.41323,0.68684 -16.79054,0.76216 -25.22391,0.76747c0.02595,0.09 0.0408,0.19298 0.0408,0.31079c0,0.93509 -0.93509,0.93509 -0.93509,0.93509l-1.11168,-0.00701c-2.39544,-0.58446 -4.62215,-0.36373 -5.92721,-2.69713c-1.69404,0.73398 -3.32579,1.38577 -4.83039,1.95817c-6.90197,1.70972 -13.58669,2.82836 -20.83266,1.71446c-2.82024,-0.43354 -6.43962,-0.80082 -7.35424,-3.921c0,0 -0.11941,-0.47763 0.16164,-0.8264c-0.4361,0.24139 -0.88011,0.47142 -1.33253,0.68923c-3.44739,1.65966 -5.64428,4.0871 -9.64185,4.0871c-3.78871,-0.00114 -8.56593,0.53705 -12.10699,-1.08143c-4.75558,-2.1736 -9.16329,-8.21037 -9.91207,-13.59401c-2.84665,2.15362 -5.93274,3.97163 -9.59162,2.09697c-1.14227,-0.58524 -1.58285,-2.03782 -2.46419,-2.90615c0,0 -0.6612,-0.66121 0,-1.32242c0.6612,-0.6612 1.32241,0 1.32241,0c0.65437,0.66226 1.2285,2.20105 2.02423,2.57968c4.72828,2.24987 8.6316,-3.14551 12.04423,-5.21388l0.73045,-0.13326c0,0 0.93509,0 0.93509,0.93509z" fill="#000000" stroke="none" stroke-width="0.5" stroke-linecap="butt"/><path d="M157.30516,-177.90543c-0.83637,-0.41818 -0.41819,-1.25455 -0.41819,-1.25455l0.21752,-0.42781c0.50451,-1.26018 0.89305,-2.53614 1.50043,-3.75091c1.84449,-5.55694 2.89222,-11.96061 2.0563,-17.98343c-0.83727,1.83565 -1.68117,3.6673 -2.57101,5.47914l-0.47719,1.43808c0,0 -0.29571,0.8871 -1.18281,0.5914c-0.8871,-0.2957 -0.5914,-1.18281 -0.5914,-1.18281l0.52023,-1.55419c1.1903,-2.45056 2.30799,-4.93148 3.46204,-7.39929c0.04381,-0.28776 0.08507,-0.57422 0.12368,-0.85942c-0.23764,-0.85688 -0.52061,-1.70031 -0.85239,-2.5264c-1.32824,-3.11219 -0.79167,-5.95813 -1.53102,-9.09354c-0.43591,-1.8486 -1.53782,-3.81676 -2.21114,-5.62562c-1.01834,-2.73575 -1.42152,-4.74837 -4.45741,-5.93949c0,0 -0.86821,-0.34728 -0.52092,-1.21549c0.10485,-0.26214 0.2572,-0.41347 0.4188,-0.497c-0.13547,-0.13852 -0.23633,-0.34475 -0.23633,-0.65185c0,-0.93509 0.93509,-0.93509 0.93509,-0.93509c3.02212,0.13406 5.23823,3.28209 6.68429,5.76362c3.8034,6.52681 4.65271,13.26094 3.66678,20.59566c1.89402,7.27934 0.8113,15.38215 -1.50775,22.31145c-0.60403,1.20806 -0.99069,2.47587 -1.49184,3.72979l-0.2812,0.56962c0,0 -0.41818,0.83637 -1.25455,0.41818zM157.52297,-222.78706c1.40998,4.25368 1.52374,9.42997 2.8036,13.40891c0.12258,-4.67852 -0.66899,-9.06726 -2.8036,-13.40891z" fill="#000000" stroke="none" stroke-width="0.5" stroke-linecap="butt"/><path d="M281.34648,-216.61753c-0.51285,0.65458 -1.16742,0.14172 -1.16742,0.14172l-0.49372,-0.38681c-2.34838,-1.84893 -5.00241,-0.06092 -7.39007,1.12979c-3.63097,0.3224 -5.50705,-4.46975 -8.82242,-5.7132c-3.90448,-1.4644 -9.0789,1.63415 -12.81872,2.08206c-3.57256,2.09788 -8.2422,5.93195 -12.79416,4.87737c-4.50033,-1.04263 -6.98031,-5.12579 -12.04437,-4.52975c-3.33782,1.08282 -6.71927,2.01224 -9.84716,3.65023c-6.15092,3.22107 -11.08985,7.40123 -18.59896,6.22775c-1.91718,-0.68592 -3.78513,-2.14767 -5.71075,-2.6679c-4.51076,-1.21867 -11.21164,2.73192 -14.40109,5.47249c0,0 -0.63126,0.54128 -1.17254,-0.08998c-0.54128,-0.63126 0.08999,-1.17254 0.08999,-1.17254c3.68054,-3.1497 10.81808,-7.15443 15.94887,-5.80669c1.92167,0.50478 3.76472,1.97998 5.65724,2.65328c6.98953,1.13253 11.71432,-3.11049 17.41639,-6.09008c3.26013,-1.70357 6.77709,-2.69088 10.26178,-3.80107c3.354,-0.41793 5.58217,0.54398 8.59059,1.98928c1.35143,0.64924 2.68087,2.15325 4.14197,2.53534c4.06223,1.06233 8.75923,-3.04968 11.9393,-4.82647c4.28977,-0.52765 9.42799,-3.60361 13.93032,-2.05872c2.31437,0.79413 4.39776,2.97178 6.17299,4.59348c0.47093,0.43021 0.95164,1.21012 1.57689,1.08397c2.96086,-1.53349 5.96245,-3.13908 8.89961,-0.84775l0.49372,0.38681c0,0 0.65457,0.51286 0.14172,1.16742z" fill="#000000" stroke="none" stroke-width="0.5" stroke-linecap="butt"/><path d="M155.97784,-231.10673l7.97941,20.69661" fill="none" stroke="#ffffff" stroke-width="2" stroke-linecap="round"/><path d="M153.48427,-230.60802l4.98714,5.73521l-8.22877,-7.23135" fill="none" stroke="#ffffff" stroke-width="2" stroke-linecap="round"/><path d="M163.7079,-204.42555l-6.73263,-23.43954" fill="none" stroke="#ffffff" stroke-width="2" stroke-linecap="round"/></g><path d="M440.04264,-191l12,181l-5,30l-366,39l-76,-18" fill="none" stroke="#000000" stroke-width="1.5" stroke-linecap="round"/></g></g></g></svg>