<svg version="1.1" xmlns="http://www.w3.org/2000/svg" xmlns:xlink="http://www.w3.org/1999/xlink" width="414.24828" height="280.30552" viewBox="0,0,414.24828,280.30552"><g transform="translate(-29.32821,-69.05214)"><g data-paper-data="{&quot;isPaintingLayer&quot;:true}" fill-rule="nonzero" stroke-linejoin="miter" stroke-miterlimit="10" stroke-dasharray="" stroke-dashoffset="0" style="mix-blend-mode: normal"><path d="M118.23858,312.82554c-29.09959,0.11949 -45.45504,0.87421 -62.71924,1.91691l-15.12064,-183.21118c13.63131,0 27.26262,0 40.89394,0c11.0297,0 21.6661,0.80974 32.26907,-2.69278c0,0 1.29784,-0.43261 2.92952,-1.43556c5.38278,1.18333 10.71371,2.62557 16.04731,4.01389c70.31728,0.31247 140.63805,0.14259 210.9566,0.1174z" fill="#9e9e9e" stroke="none" stroke-width="0" stroke-linecap="butt"/><path d="" fill="#444444" stroke="none" stroke-width="0.5" stroke-linecap="butt"/><path d="" fill="#c3c3c3" stroke="none" stroke-width="0" stroke-linecap="butt"/><path d="" fill="#9e9e9e" stroke="none" stroke-width="0" stroke-linecap="butt"/><path d="M382.29566,72.61834c-0.29656,-0.17392 -0.56816,-0.49249 -0.56816,-1.07598c0,-1.28511 1.3174,-1.28511 1.3174,-1.28511c4.21901,0.06245 6.80638,3.06121 10.29573,4.8711c2.29733,1.1916 5.41295,2.20283 8.15183,3.55055c0.10921,-0.3786 0.29168,-0.6923 0.56582,-0.91244c1.76865,-1.42021 3.66678,1.47942 4.63222,2.18708c1.76292,1.29221 4.15115,2.08879 5.80709,3.50981c1.57239,1.34934 2.20648,3.83765 3.05742,5.75248c0.70778,0.764 1.32711,1.47263 1.8028,1.98943c7.20385,7.82651 11.86377,17.99899 15.72436,27.64298c-0.02339,2.51358 1.31246,5.97888 1.76329,8.60454c0.15086,0.87865 1.36881,2.65131 0.71731,3.42109c-2.05761,2.43115 -6.91328,0.83463 -9.08913,0.12166c-1.51837,-0.49753 -2.7826,-0.07991 -4.1581,-0.95728c-3.91156,-2.495 -5.66136,-8.04334 -9.02381,-11.32339c-4.87239,-4.76009 -11.62851,-9.0846 -15.16046,-14.86684c-1.21835,-1.99459 -2.00906,-5.08902 -3.47219,-7.21303c-1.84742,-2.68188 -4.69088,-5.39193 -5.70872,-8.56737c-3.78561,-3.69282 -6.78373,-10.14974 -6.78373,-15.24014z" fill="#9e9e9e" stroke="none" stroke-width="0.5" stroke-linecap="butt"/><path d="M410.7866,115.56191c-0.19646,-0.20126 -0.38931,-0.40891 -0.57858,-0.62231c0.10244,0.15929 0.20568,0.31818 0.30977,0.47663c0.09184,0.04929 0.18199,0.09887 0.27028,0.14848c-0.00049,-0.00094 -0.00098,-0.00186 -0.00147,-0.0028zM403.78877,102.89862c-0.01242,-0.03587 -0.02478,-0.07165 -0.03707,-0.10736l-0.42941,-1.25664c-0.05005,-0.13581 -0.07733,-0.28222 -0.07733,-0.43484c0,-0.70975 0.58982,-1.28511 1.3174,-1.28511c0.54769,0 1.01732,0.32603 1.21607,0.78998l1.05788,2.32188l-0.20511,0.08893c0.00122,0.00311 0.00244,0.00621 0.00367,0.00933c2.21564,2.9919 4.25802,6.47249 6.02389,9.98499c0.47504,0.68205 0.95014,1.37861 1.43056,2.08992l-0.00318,0.18084l0.06953,-0.02261l0.42941,1.25664c0.05005,0.13581 0.07733,0.28222 0.07733,0.43484c0,0.08778 -0.00902,0.17351 -0.02621,0.25634c0.29301,0.66428 0.57434,1.32302 0.84326,1.97301c2.30688,2.17844 4.34864,4.5488 6.86744,6.4839c0.41641,1.45133 2.09305,2.97812 1.38141,4.31582c-0.47262,0.8884 -3.11656,0.91446 -5.33473,0.82015l0.03329,0.05412l-0.67824,0.39698c0.12548,0.42227 0.24472,0.84841 0.35933,1.27714l-1.24672,-0.58763l-0.49556,0.48341l-1.3174,-1.28511l0.03652,-0.03562l-0.12378,-0.05834c-0.0877,-0.12773 -0.17357,-0.25647 -0.25772,-0.38615c-7.72089,0.00122 -14.84267,-0.10238 -19.62385,-7.06583c-2.39506,-4.67272 -7.42938,-8.89323 -8.90408,-13.98041c-1.47588,-5.09125 0.08144,-13.3549 1.71701,-18.14135c-0.01017,-0.64529 -0.01509,-1.29066 -0.01654,-1.93602c-0.00016,0.00001 -0.00031,0.00002 -0.00047,0.00004c0,0 -1.3174,0 -1.3174,-1.28511c0,-1.28511 1.3174,-1.28511 1.3174,-1.28511c0.26748,0.01017 0.53043,0.03915 0.78897,0.08518c0.14704,-0.05347 0.32148,-0.08518 0.52843,-0.08518c0.65255,0 0.98187,0.31531 1.14807,0.63356c2.78416,1.3238 5.01779,4.42588 6.9283,6.57772c2.24578,2.52947 4.06156,5.26595 5.71544,8.07891c0.27329,0.2127 0.54124,0.42763 0.80422,0.64482z" fill="#707070" stroke="none" stroke-width="0.5" stroke-linecap="butt"/><path d="M84.8743,75.39767c0,0.65238 -0.33949,0.97358 -0.6738,1.13172c-0.04666,0.21245 -0.08994,0.42339 -0.13008,0.63309c0.02875,-0.00895 0.04524,-0.01297 0.04524,-0.01297c4.79719,-1.14504 10.31519,-0.46674 15.25,-0.46674c9.73806,0 19.53395,0.33893 29.24476,-0.38455c17.9129,-2.99357 35.1771,-3.47077 53.31205,-3.47077c16.39426,0 32.78852,0 49.18278,0c17.51374,0 35.12062,-0.85673 52.69583,-0.85673c15.516,0 31.03199,0 46.54799,0c14.63773,0 29.27546,0 43.9132,0c8.16213,0 12.7716,5.055 15.19999,11.48548c-2.46517,1.02069 -2.46517,3.93578 -2.46517,3.93578c0,6.39556 1.26748,14.05615 0.0567,20.30387c-0.49233,2.54048 -1.43184,5.2766 -2.45877,7.97025l-1.47567,0.01298c-17.8609,1.46496 -36.11774,0.76665 -54.14694,0.50063c-1.44234,-2.95837 -4.95798,-2.101 -4.95798,-2.101l-2.88496,0.75009c-5.21515,0.50874 -10.33119,1.13457 -15.45227,1.72119c-1.04298,-0.14727 -2.08683,-0.28812 -3.13176,-0.42059c-0.09241,0.29049 -0.20719,0.56358 -0.34273,0.81055c-1.27339,0.13927 -2.54853,0.27394 -3.82704,0.40162c-0.88307,0.01886 -1.767,0.03157 -2.65211,0.03514c-26.06937,-0.01714 -52.12316,-0.22876 -78.14335,0.84001c-1.24185,-0.83898 -2.72283,-0.83898 -2.72283,-0.83898h-2.19566c-8.65467,0 -17.72424,0.60424 -26.41718,2.14184c-14.9074,0 -29.81479,0 -44.72219,0c-15.85662,0 -31.6637,0.85673 -47.42625,0.85673c-1.50856,0 -3.80193,0.37904 -5.21222,-0.05514c-0.17848,-0.05495 -0.35167,-0.12017 -0.51976,-0.19484c1.38163,8.48703 2.28104,16.91553 2.28104,25.78609c0,11.42139 1.32997,23.80846 -1.44456,34.92385c-0.21,0.7935 -0.39655,1.57514 -0.56703,2.34707c0.41452,0.27592 0.55568,0.75785 0.55568,0.75785c0.86742,3.01451 0.69939,6.64133 -0.18148,9.94708c0.30348,2.88074 -0.21414,6.31974 -1.03932,7.56275c-1.61923,2.43911 -3.13695,2.35193 -4.09609,1.17159c-0.20136,0.09619 -0.45093,0.1556 -0.734,0.09942c-0.43067,1.21846 -0.88395,2.53445 -1.5656,3.28071c-3.59724,3.93813 -11.84748,3.42555 -11.00776,-2.71056c2.80686,-3.3571 6.75396,-5.47196 9.23163,-9.08184c0.17213,-0.25079 0.33364,-0.51324 0.48504,-0.78642v-0.56232c0,-7.61318 -1.09791,-16.31061 0.25824,-23.98863h-0.25824v-2.39886c0,-0.46902 0.25758,-0.87938 0.64228,-1.10377c-0.42505,-2.15612 -1.06983,-4.22572 -2.01227,-6.14025c-0.07093,-5.1765 -1.20204,-11.1005 -2.13034,-16.22366c-1.08944,-6.01249 -0.01273,-13.24135 -0.01273,-19.36914c0,-0.29946 -0.00701,-0.59879 -0.0205,-0.898c-0.23808,-1.43042 -0.54769,-2.84308 -0.98088,-4.22582c-1.2225,-3.90221 -3.68881,-8.82738 -3.3718,-13.06688c-0.05554,-0.23543 -0.10849,-0.47042 -0.15856,-0.70495c-1.00028,-4.68557 -4.5286,-9.00577 -4.60221,-14.00305c0,-4.00984 -0.35131,-7.96615 -0.35131,-11.99431v-0.3427c0,0 0,-1.28511 1.3174,-1.28511c1.3174,0 1.3174,1.28511 1.3174,1.28511v0.3427c0,0.60522 0.00792,1.20874 0.02139,1.81097c2.60965,0.05662 5.44219,0.2751 7.94364,-0.28222c0.75426,-0.16805 1.45402,-0.9553 2.19464,-0.73702c0.38614,0.1138 0.71056,0.24281 0.98373,0.38577c0.12202,-1.58648 0.35054,-3.1632 0.77819,-4.83581l1.71719,-0.97342c0,0 1.3174,0 1.3174,1.28511zM239.86798,107.13993c-13.47083,-2.33235 -27.22239,-1.92155 -40.88977,-1.78799c5.04084,0.92342 10.11983,1.74487 15.45781,1.7451c8.40324,0.22117 16.91823,0.07595 25.43196,0.04289zM300.2384,113.2596c-0.06771,-0.15784 -0.18721,-0.27106 -0.37194,-0.31757c-4.00015,-1.00728 -8.38393,-1.35942 -12.85534,-1.51121c2.50882,0.43418 5.01116,0.8713 7.50529,1.30687c1.91255,0.13193 3.8194,0.30994 5.72199,0.52191z" fill="#9e9e9e" stroke="none" stroke-width="0.5" stroke-linecap="butt"/><path d="M34.17277,84.99848h0.69235l0.48394,-0.65169c0,0 0.93154,-0.90871 1.86308,0c0.1367,0.13335 0.23328,0.2667 0.29857,0.39718c0.06919,-0.0159 0.13817,-0.03251 0.2069,-0.04982c0,0 0.82969,-0.20235 1.31921,0.37114c0.16521,-0.05081 0.28626,-0.06154 0.28626,-0.06154c4.22013,-0.37303 8.72263,-0.67632 12.88807,-1.3576c5.24323,-0.85757 10.70497,-3.06576 14.97189,-1.96835l0.57038,3.20744c-0.02697,1.17795 0.0272,2.2701 0.14469,3.11182c0.56008,4.01235 2.68915,10.468 5.39113,16.06447c0.67399,8.01811 2.90028,18.41836 6.0449,27.76193c0.04722,2.09783 0.06923,4.22159 0.06923,6.37837c0,14.42664 0.70261,29.12164 0.70261,43.69357c0,4.4779 1.10972,10.40394 -0.03524,14.68843c-1.73031,6.47489 -11.64868,12.5992 -17.62013,7.51452c-2.93321,-2.49763 -4.45726,-6.4555 -6.56727,-9.53861c-4.34878,-5.47913 -7.50578,-11.37838 -9.91228,-17.68217c0.28291,-5.76726 -0.79996,-14.37845 -2.70795,-21.55551c0.95841,-8.66474 -4.79469,-23.40318 -4.47366,-30.18713c0.41308,-8.72902 -3.20694,-17.31281 -3.91406,-25.86799c-0.2804,-3.39246 -0.21186,-6.54789 -0.86341,-9.62213c0.0461,-0.70282 0.11303,-1.39621 0.20623,-2.07613h-0.04543c0,0 -0.44091,0 -0.81259,-0.24882c-0.14603,-0.40942 -0.30999,-0.81809 -0.49451,-1.22639c0.12305,-1.095 1.30709,-1.095 1.30709,-1.095z" fill="#707070" stroke="none" stroke-width="0.5" stroke-linecap="butt"/><path d="M98.813,138.71586v206.98759h-17.0706c-8.5765,-4.84824 -21.76174,-6.40064 -29.59627,-8.87187c-4.36142,-1.37571 -9.32467,-2.77195 -14.16387,-2.77736c-0.09862,-0.00159 -0.19742,-0.00239 -0.29643,-0.00239c-0.27168,0 -0.54192,0.00602 -0.81059,0.01792c-1.8543,-0.87847 -3.68806,-1.8005 -5.51291,-2.73924v-175.23913c3.40473,-0.1459 7.45266,-2.0075 11.39215,-3.81437c0.20651,1.53427 0.6211,3.00462 1.21523,4.38323c0.21178,0.87923 0.36247,1.6649 0.39092,2.3112c0.57932,13.15614 3.25267,21.95546 9.50296,31.60457c1.85077,8.81549 6.55454,15.83384 17.26824,18.15632c8.96837,1.94412 18.95396,-9.93122 19.95243,-17.58418c0.1788,-1.3704 -1.94237,-2.22631 -2.10783,-3.5983c-0.17991,-1.49177 -0.25422,-2.99034 -0.26891,-4.49235c0.15378,-0.57523 0.22593,-1.12487 0.13315,-1.59331c-0.02056,-0.10381 -0.04837,-0.2049 -0.08246,-0.30365c0.3839,-1.7538 0.51602,-3.51141 0.92082,-5.09096v-20.21899c1.27055,-4.95764 1.78562,-11.3517 0.62218,-17.13474z" fill="#707070" stroke="none" stroke-width="0" stroke-linecap="butt"/><path d="M403.39492,334.05181v-201.16178h39.34622v201.16178z" fill="#9e9e9e" stroke="none" stroke-width="0" stroke-linecap="butt"/><path d="M209.07479,132.48002c41.97279,-0.14088 83.94663,-0.46818 125.91763,-0.1611c10.71986,0.07843 29.206,5.16309 42.35178,3.69855c-0.00351,0.01841 -0.00699,0.03681 -0.01043,0.05522c-0.18837,1.00547 -0.28675,2.04159 -0.28675,3.10012c-0.16636,0.84195 0.28839,4.10312 0.94376,7.88095c-56.77231,-0.27337 -113.54733,-0.18773 -170.31851,0.21512c0.03012,-0.41024 0.04546,-0.82447 0.04546,-1.2422c0,-2.86969 -0.72318,-5.5746 -2.00146,-7.95079c1.45363,-1.53509 2.57161,-3.46936 3.35852,-5.59589z" fill="#444444" stroke="none" stroke-width="0.5" stroke-linecap="butt"/><path d="M79.09635,168.21872c0,-15.92613 -1.67518,-32.35319 -5.16778,-47.90666c-0.13079,-2.27273 -0.56146,-4.43686 -1.13816,-6.54734c0.86233,-0.55756 1.67127,-1.1874 2.41776,-1.88067c0.66922,2.63543 1.17445,5.31184 1.33073,8.07853c3.56373,15.62567 5.19224,32.24754 5.19224,48.25614c0,1.66449 -0.01555,3.31735 -0.05846,4.95571c-0.81232,-0.61637 -1.68159,-1.16467 -2.59882,-1.63611c0.01635,-1.10072 0.02248,-2.20759 0.02248,-3.3196z" fill="#000000" stroke="none" stroke-width="0.5" stroke-linecap="butt"/><path d="M85.91034,120.48177l300.9441,-7.80248" fill="none" stroke="#000000" stroke-width="1.5" stroke-linecap="round"/><path d="M138.55695,83.66849l-44.41753,0.45609" fill="none" stroke="#000000" stroke-width="1.5" stroke-linecap="round"/><path d="M94.60698,91.87815h31.32604" fill="none" stroke="#000000" stroke-width="1.5" stroke-linecap="round"/><path d="M97.87985,98.71954h15.42925" fill="none" stroke="#000000" stroke-width="1.5" stroke-linecap="round"/><path d="M61.87828,79.10755l1.61892,2.97267" fill="none" stroke="#000000" stroke-width="1.5" stroke-linecap="round"/><path d="M211.2308,147.39746l-4.21567,-8.22467l0.00964,-3.91505l170.65678,-1.36828l-2.07532,11.54467l-162.70838,2.28046l-11.68881,-16.87542l-102.86164,0.91219l304.06213,0.3248" fill="none" stroke="#000000" stroke-width="1.5" stroke-linecap="round"/><path d="M226.66197,135.71385l-0.46755,11.85841" fill="none" stroke="#000000" stroke-width="1.5" stroke-linecap="round"/><path d="M265.93642,147.11616l0.46755,-13.22667" fill="none" stroke="#000000" stroke-width="1.5" stroke-linecap="round"/><path d="M300.53531,144.83569l0.93511,-10.03403" fill="none" stroke="#000000" stroke-width="1.5" stroke-linecap="round"/><path d="M337.472,145.29181l0.46755,-11.40232" fill="none" stroke="#000000" stroke-width="1.5" stroke-linecap="round"/><path d="M358.97944,133.88946l-1.40266,10.94623" fill="none" stroke="#000000" stroke-width="1.5" stroke-linecap="round"/><path d="M68.5576,81.2137l6.75903,39.30652" fill="none" stroke="#000000" stroke-width="1.5" stroke-linecap="round"/><path d="M97.90671,107.07992l243.06482,-3.80386" fill="none" stroke="#000000" stroke-width="1.5" stroke-linecap="round"/><path d="M382.23708,101.75451l-33.53514,0.76078" fill="none" stroke="#000000" stroke-width="1.5" stroke-linecap="round"/><path d="M373.39837,69.80214l18.45733,3.29667l14.82441,6.86496l7.23718,8.86228l19.76196,29.0674" fill="none" stroke="#000000" stroke-width="1.5" stroke-linecap="round"/><path d="M433.16453,117.16283l0.52713,0.77131l1.36996,3.50886l2.87478,9.21418l-12.73483,2.14184" fill="none" stroke="#000000" stroke-width="1.5" stroke-linecap="round"/><path d="M386.92846,81.20682l17.41791,20.15206l15.18813,22.491l5.66706,6.8073h-25.46965l-1.33476,-4.70003l-13.38014,-18.02444" fill="none" stroke="#000000" stroke-width="1.5" stroke-linecap="round"/><path d="M412.94872,334.83718l-314.41848,13.13664l-0.58552,-30.27137" fill="none" stroke="#9e9e9e" stroke-width="2.5" stroke-linecap="round"/><path d="M415.29075,334.97681l-26.90488,2.54091l-291.03539,8.27702c0.27455,-4.39745 -0.11293,-9.04666 0.00873,-11.70396c0.2727,-5.95596 2.21242,-12.00864 2.53481,-18.07079l241.40231,-183.77616c29.09221,0.66582 45.46208,0.35274 62.74813,-0.22369z" fill="#9e9e9e" stroke="none" stroke-width="0" stroke-linecap="butt"/><path d="M89.16208,148.06859l-2.2809,-12.77393l11.93378,-3.87795l-2.80532,216.97032l-53.80731,-14.21866l-10.71498,-4.09545l0.55116,-11.41089l-1.95382,-164.91102l15.18738,-4.93523" fill="none" stroke="#000000" stroke-width="1.5" stroke-linecap="round"/><path d="M82.7515,75.23126c0.26109,0 0.44454,0.0757 0.57347,0.1821c0.13105,0.10391 0.24128,0.26578 0.2896,0.51604c0.02132,0.11042 0.025,0.20906 0.0153,0.29715c0.01728,9.6431 1.83151,18.97929 2.8041,28.5526c0.00703,11.3011 3.34158,22.47306 3.26465,33.66912c3.33897,10.63589 1.41197,23.68296 1.41197,34.78744c0,11.18982 1.81182,22.88106 -3.43865,32.88353c-4.29034,4.10276 -18.62492,3.01546 -23.87708,1.23121c-3.004,-1.0205 -5.59686,-5.12035 -7.53789,-7.40707c-7.19678,-8.48452 -9.30087,-21.36362 -10.82938,-31.98393c-0.8161,-2.37153 -1.67513,-4.90042 -1.88943,-7.4099c-0.16478,-1.92953 0.80999,-5.41365 0.04079,-7.11098c-0.8572,-1.89159 -1.43744,-4.07228 -1.85925,-6.35325c0.59662,-0.16273 1.18543,-0.36508 1.76577,-0.60126c0.42591,2.26754 0.98554,4.45516 1.75988,6.41266c0.81201,2.05271 -0.14418,5.26688 0.04079,7.48399c0.20291,2.43227 1.07008,4.88495 1.85099,7.18507c1.53991,10.35389 3.4407,22.99832 10.47302,31.28513c1.5917,1.87701 4.18387,6.09292 6.69372,6.8596c4.03262,1.23185 8.59062,0.87543 12.83697,0.87543c2.78512,0 6.98959,0.66924 9.10612,-1.46857c1.02202,-2.05727 2.68336,-3.83859 3.12163,-6.1505c1.50733,-7.95115 -0.01453,-17.63123 -0.01453,-25.73114c0,-11.09687 1.82429,-23.8851 -1.39335,-34.53862c-0.0655,-11.2826 -3.28852,-22.4515 -3.28109,-33.83258c-0.91884,-8.87761 -2.52362,-17.55549 -2.77335,-26.46022c0.12283,-0.50882 0.23711,-1.03432 0.34256,-1.57722c0.10183,-0.52427 0.17544,-1.04506 0.22197,-1.5615c0.08184,-0.02186 0.17488,-0.03431 0.28066,-0.03431z" fill="#000000" stroke="#000000" stroke-width="0.5" stroke-linecap="butt"/><path d="M66.85828,208.8075c-0.93154,-0.90871 0,-1.81741 0,-1.81741l0.46755,-0.45609c0.90858,-0.88631 1.74766,-1.79407 2.5225,-2.72198c0.34702,0.01995 0.69678,0.03005 1.04893,0.03005c0.80221,0 1.59185,-0.05246 2.36553,-0.15406c-1.18687,1.60837 -2.53748,3.16465 -4.0739,4.6634l-0.46755,0.45609c0,0 -0.93154,0.90871 -1.86308,0z" fill="#000000" stroke="none" stroke-width="0.5" stroke-linecap="butt"/><path d="M434.92415,227.26783c0,44.02328 -22.38115,79.7112 -49.98971,79.7112c-27.60856,0 -49.98969,-35.68792 -49.98969,-79.7112c0,-44.02328 22.38113,-79.71121 49.98969,-79.71121c27.60856,0 49.98971,35.68792 49.98971,79.71121z" fill="#444444" stroke="#000000" stroke-width="1.5" stroke-linecap="butt"/><path d="M430.46646,229.94481c0,39.17835 -19.6726,70.93866 -43.93998,70.93866c-24.26738,0 -43.94,-31.76031 -43.94,-70.93866c0,-39.17835 19.6726,-70.93866 43.94,-70.93866c24.26738,0 43.93998,31.76031 43.93998,70.93868z" fill="#444444" stroke="#000000" stroke-width="1.5" stroke-linecap="butt"/><path d="M397.73411,281.81834c-0.45085,-0.48248 -0.11971,-1.13939 -0.11971,-1.13939l0.13055,-0.25896c0.42849,-0.84282 0.77883,-1.77775 1.05116,-2.74866c0.18716,-0.3538 0.37177,-0.70991 0.55401,-1.06815c-0.4072,-0.78895 -0.8281,-1.57097 -1.16897,-2.39877c-0.71059,-1.72561 -1.71595,-2.41069 -2.48113,-3.9554c-1.7394,4.41233 -3.40863,8.90488 -5.19509,13.30582c0.25891,0.46797 0.53246,0.9321 0.82429,1.39299l0.2822,0.41026c0,0 0.39555,0.57632 0,1.15269c-0.39555,0.57633 -0.7911,0 -0.7911,0l-0.31338,-0.45755c-0.2125,-0.33561 -0.41596,-0.67284 -0.61164,-1.01195c-0.5059,1.22007 -1.02253,2.43153 -1.55397,3.63062c-1.12263,0.95877 -1.82635,5.40199 -2.58108,7.60684l0.05905,0.0694c0,0 0,0.81507 -0.5594,0.81507c-0.5594,0 -0.55938,-0.81507 -0.55938,-0.81507l0.05905,-0.79842c0.83147,-2.41644 1.49591,-6.64466 2.7793,-8.0137c0.53277,-1.29621 1.05876,-2.60583 1.58075,-3.92374c-1.13061,-2.21155 -2.00992,-4.5141 -2.95961,-6.97071c-1.49375,-3.864 -4.04295,-7.35528 -5.813,-11.04242c-0.34755,-0.61834 -0.69817,-1.22977 -1.05163,-1.83499c-0.12406,0.26854 -0.24848,0.53681 -0.37328,0.80482c-0.53546,3.13781 -2.62221,5.15425 -3.27137,7.79542c-0.38482,1.56562 -0.93834,3.28304 -1.60171,5.00281c0.20989,0.36507 0.41582,0.73013 0.61744,1.095c1.18748,2.14899 1.67998,4.02913 3.29525,5.67583l0.38392,1.53872c0,0 0.1769,0.77324 -0.35378,1.03099c-0.53068,0.25775 -0.70758,-0.51548 -0.70758,-0.51548l-0.21166,-1.06471c-1.62923,-1.48774 -2.12083,-3.51899 -3.25632,-5.60569c-0.12097,-0.22233 -0.24375,-0.44474 -0.36822,-0.66725c-1.03175,2.44194 -2.25317,4.80036 -3.49249,6.63892l-0.5688,1.6575c-0.08969,0.2757 -0.28245,0.46635 -0.50576,0.46635c-0.30894,0 -0.5594,-0.36491 -0.5594,-0.81507c0,-0.09679 0.01159,-0.18966 0.03285,-0.2758l0.29367,-1.28367l0.05198,0.02525l0.00285,-0.196c1.45957,-2.18427 2.80496,-4.87396 3.92988,-7.63559c-2.90965,-4.93305 -6.54675,-9.83368 -9.78785,-14.05611c-0.63291,-0.82545 -1.25925,-1.66009 -1.88161,-2.50044c-0.05308,0.17508 -0.10369,0.35107 -0.15171,0.52795c-1.01415,3.73668 -2.02496,7.69479 -2.75852,11.55789c2.15545,3.25757 4.25998,6.58544 6.45861,9.78893c1.14445,1.66751 2.92214,3.39155 3.79807,5.40369c0.10775,0.01132 0.53495,0.10114 0.53495,0.81341c0,0.81507 -0.5594,0.81507 -0.5594,0.81507l-0.79813,-0.45056c-0.63253,-1.95869 -2.68678,-3.85562 -3.76659,-5.42893c-1.98354,-2.89011 -3.89053,-5.8815 -5.8274,-8.83115l-0.38294,1.95283c-0.06276,0.35011 -0.28131,0.60845 -0.54127,0.60845c-0.30894,0 -0.55938,-0.36491 -0.55938,-0.81507c0,-0.02485 0.00076,-0.04947 0.00225,-0.07376l0.07253,-1.32858l0.01465,0.00169l-0.01005,-0.05971c0.09884,-0.63707 0.20615,-1.27913 0.32099,-1.92455c-0.47251,-0.70917 -0.94788,-1.41431 -1.42771,-2.11343c0,0 -0.39555,-0.57632 0,-1.15267c0.39555,-0.57633 0.79109,0 0.79109,0c0.32822,0.47823 0.65436,0.95928 0.97893,1.4425c0.7145,-3.62453 1.63714,-7.30808 2.61096,-10.77539c0.10567,-0.37624 0.22203,-0.7481 0.34741,-1.11621c-2.57839,-3.51733 -5.10902,-7.10553 -7.78205,-10.51295c-0.87133,-1.11073 -2.25786,-3.57835 -3.46401,-3.41886c-0.27319,1.4361 -0.47168,2.82031 -0.56655,4.07929l-0.34136,1.22878c0,0 -0.21307,0.75363 -0.73029,0.44319c-0.51723,-0.31044 -0.30416,-1.06407 -0.30416,-1.06407l0.2916,-1.01001c0.09229,-1.26202 0.29316,-2.67156 0.572,-4.14366c-0.06345,-0.36571 0.03657,-0.60663 0.14853,-0.75432c0.90646,-4.43923 2.45831,-9.30535 3.84799,-12.35564c0.36044,-1.87205 0.70035,-2.72633 1.35441,-3.62696c-1.12203,-1.02531 -2.2221,-1.93261 -3.26728,-2.67035c0,0 -0.50033,-0.36451 -0.25016,-1.09352c0.25016,-0.72901 0.75049,-0.36449 0.75049,-0.36449c1.16131,0.86634 2.37674,1.90168 3.60973,3.05315c0.39237,-0.75925 1.08339,-3.65666 1.47682,-4.45921c1.18843,-2.42425 2.24395,-4.84116 3.26995,-7.24938c-1.96742,-1.79288 -3.97348,-2.67985 -5.72646,-5.2259c0,0 -0.39555,-0.57632 0,-1.15267c0.39555,-0.57633 0.7911,0 0.7911,0c1.68665,2.46613 3.62092,3.28244 5.52314,4.99395c1.15253,-2.72128 2.29271,-5.43106 3.57041,-8.12744c1.15616,-2.4265 2.31814,-4.98749 3.53457,-7.53175c-0.67238,-0.52328 -1.34868,-1.03798 -2.0289,-1.54503c-1.48869,-1.10973 -2.10144,-2.02795 -3.84762,-2.01894c0,0 -0.55938,0 -0.55938,-0.81507c0,-0.81507 0.55938,-0.81507 0.55938,-0.81507c1.92171,0.00885 2.73052,0.98526 4.35719,2.19782c0.72706,0.54199 1.44973,1.09264 2.16798,1.65315c2.12254,-4.34688 4.43068,-8.56592 7.17009,-11.89317c-1.41409,-0.97582 -2.83897,-1.70967 -4.25765,-2.05417c0,0 -0.55178,-0.13399 -0.45982,-0.93794c0.09195,-0.80397 0.64375,-0.66998 0.64375,-0.66998c1.684,0.40895 3.37041,1.33318 5.03586,2.55126c0.64356,-0.70477 1.3107,-1.35932 2.00425,-1.95473c0.80709,-1.07341 1.64973,-2.13325 2.52025,-3.17238c-0.93707,-0.73678 -1.87553,-1.47929 -2.81094,-2.24614c-0.99983,-0.8197 -3.6925,-3.76733 -4.80444,-2.75698c0,0 -0.50033,0.36451 -0.75049,-0.36451c-0.25016,-0.72901 0.25016,-1.09351 0.25016,-1.09351c1.64848,-1.05909 3.40737,0.85023 4.86476,2.00855c1.40714,1.11837 2.82149,2.20692 4.22868,3.30764c2.06785,-2.37606 4.2711,-4.62601 6.51417,-6.66038c-0.5883,-0.67454 -1.16588,-1.36801 -1.7293,-2.08634c0,0 -0.42097,-0.53669 -0.05261,-1.15011c0.36836,-0.61338 0.78935,-0.07668 0.78935,-0.07668c0.65308,0.8326 1.32493,1.63195 2.01033,2.40727c1.40466,-1.22656 2.81921,-2.36402 4.2205,-3.3907c0,0 0.50035,-0.36451 0.75051,0.36449c0.25016,0.72901 -0.25016,1.09352 -0.25016,1.09352c-1.25379,0.90867 -2.51393,1.91115 -3.76578,2.98946c3.98247,4.31613 8.32902,7.98662 12.06252,12.73619c1.55469,-1.73052 3.16312,-3.32389 4.90164,-4.60043c0,0 0.50033,-0.36451 0.75049,0.36449c0.25016,0.72901 -0.25018,1.09351 -0.25018,1.09351c-1.61681,1.16709 -3.1213,2.62314 -4.57465,4.21578c3.20333,4.15337 6.72093,8.2202 9.84037,12.74003c1.29709,-1.86389 2.56088,-3.59771 2.56088,-6.4033c0,0 0,-0.81503 0.5594,-0.81503c0.5594,0 0.5594,0.81503 0.5594,0.81503c0,3.36123 -1.41047,5.34426 -2.90249,7.55207c1.84089,2.77853 3.51467,5.73887 4.86428,8.99997c1.05241,2.54794 2.33669,4.89796 3.47081,7.3735c0.69966,-1.00489 1.49466,-1.64733 2.52323,-1.26792c0,0 0.5307,0.25775 0.3538,1.03099c-0.1769,0.77324 -0.70758,0.51548 -0.70758,0.51548c-0.45824,-0.33623 -1.01886,0.24443 -1.56429,1.09498c0.50193,1.19192 0.95511,2.42479 1.31968,3.7323l0.04683,0.16901c0,0 0.20943,0.75577 -0.30927,1.06094c-0.5187,0.30515 -0.72815,-0.45062 -0.72815,-0.45062l-0.04683,-0.16901c-0.28953,-1.05195 -0.64076,-2.05541 -1.03082,-3.02824c-0.36985,0.70405 -0.70191,1.38938 -0.94988,1.80186c-0.58046,0.96555 -1.18968,1.95603 -1.81181,2.96632c1.30886,2.33073 2.51069,4.77603 3.53427,7.40989c0.15013,0.22741 0.32253,0.50117 0.50967,0.81107c0.85329,-0.79321 1.7706,-1.33096 2.69648,-1.36625c0,0 0.55938,0 0.55938,0.81507c0,0.81507 -0.55938,0.81507 -0.55938,0.81507c-0.56348,-0.03541 -1.2755,0.3788 -1.97421,0.98624c1.27657,2.30212 2.76525,5.47822 2.8314,7.31069v0.43389c0,0 0,0.81507 -0.5594,0.81507c-0.5594,0 -0.5594,-0.81507 -0.5594,-0.81507v-0.43389c0.08897,-1.16145 -1.43029,-4.21078 -2.64586,-6.3823c-0.62977,0.70465 -1.17835,1.48025 -1.50048,2.09665c-1.7416,3.33254 -3.61601,6.50393 -5.45193,9.72096c1.59359,4.03813 3.31527,7.94801 4.97552,11.92791l0.32134,0.92796c0,0 0.25168,0.72789 -0.2479,1.0946c-0.49957,0.36671 -0.75127,-0.36121 -0.75127,-0.36121l-0.30045,-0.8704c-1.58695,-3.79736 -3.23055,-7.53031 -4.75738,-11.37903c-0.76339,1.35487 -1.51587,2.72278 -2.24484,4.11895c-1.0279,1.96602 -1.97537,4.00716 -2.88002,6.08918c1.67933,4.38068 3.5458,9.36005 4.34915,13.906l0.02645,0.15416c0,0 0.13567,0.79072 -0.40702,0.98842c-0.5427,0.19768 -0.67835,-0.59305 -0.67835,-0.59305l-0.02645,-0.15416c-0.67802,-4.09719 -2.37476,-8.67173 -3.9367,-12.72829c-2.55424,6.0582 -4.8305,12.3848 -7.73081,18.15696c0.46457,0.97579 0.87586,1.98744 1.10976,3.15369l0.26295,0.4406c0,0 0.32903,0.65916 -0.12334,1.13858c-0.45238,0.47942 -0.78143,-0.17972 -0.78143,-0.17972l-0.43513,-0.95784c-0.14786,-0.80323 -0.40994,-1.54293 -0.72388,-2.25405c-0.08697,0.1645 -0.17453,0.32847 -0.26269,0.49194c-0.28647,1.02654 -0.67008,2.00246 -1.11812,2.89793l-0.13055,0.25894c0,0 -0.33114,0.65689 -0.78199,0.17441zM411.11185,249.84768c0.80783,-1.5472 1.64785,-3.05571 2.49975,-4.54997c-1.19038,-2.39777 -2.33299,-4.84321 -3.46113,-7.30208c-1.43185,3.17862 -3.10248,6.27628 -4.74717,9.40774c1.05936,2.58229 2.0365,5.12058 2.92601,7.4513c0.05714,0.14987 0.11477,0.30069 0.17286,0.45245c0.82552,-1.86237 1.687,-3.68996 2.60967,-5.45944zM418.89026,235.95307c0.61485,-1.16465 1.43417,-2.49943 2.36905,-3.60843c-0.1965,-0.32933 -0.36632,-0.6034 -0.49532,-0.80168c-0.9996,-2.52837 -2.15619,-4.88254 -3.40961,-7.12913c-2.37086,3.85964 -4.83216,7.96971 -6.53904,12.05657c-0.0023,0.00544 -0.00458,0.01091 -0.00689,0.01635c1.15869,2.52771 2.32865,5.04563 3.5439,7.51899c1.53222,-2.66037 3.0836,-5.29793 4.53792,-8.05264zM407.35133,255.64629c-0.81382,-2.13649 -1.70696,-4.4685 -2.67363,-6.85399c-2.22385,4.28596 -4.32687,8.66623 -5.63835,13.43152c-0.94247,2.11052 -1.8391,4.26698 -2.71289,6.44828c0.07892,0.17797 0.15788,0.35553 0.23689,0.53263c0.71157,1.59471 1.85057,2.39654 2.57718,4.161c0.27056,0.65701 0.57475,1.27581 0.8816,1.88614c2.86772,-5.8955 5.18104,-12.28783 7.79883,-18.3827c-0.16032,-0.41548 -0.31733,-0.82348 -0.46963,-1.2229zM398.04692,261.47128c1.38072,-5.04224 3.65005,-9.65607 6.01486,-14.18099c-2.67774,-6.44935 -5.87692,-13.07006 -9.48516,-17.11094c-0.11279,-0.12696 -0.22526,-0.25457 -0.33741,-0.3828c-1.48088,3.08658 -2.8194,6.38705 -4.19692,9.48346c-1.47583,3.3174 -2.9102,6.64598 -4.34119,9.96627c0.04135,0.08315 0.08247,0.16643 0.12338,0.24985c1.236,2.52123 2.61744,3.73749 4.00474,5.92927c2.24767,3.55104 4.04228,7.66442 5.79948,11.66384c0.78689,-1.90527 1.59004,-3.78324 2.41823,-5.61795zM419.09692,219.11834c0.39843,-0.66277 0.78104,-1.43631 1.18018,-2.16612c-1.17754,-2.63441 -2.56697,-5.10051 -3.67473,-7.7825c-1.29359,-3.13836 -2.90149,-5.99486 -4.67319,-8.67769c-0.01716,0.027 -0.03429,0.05409 -0.0514,0.08125c-1.35655,2.15205 -2.77352,4.35473 -4.13993,6.60557c3.15936,4.95354 6.64874,9.58263 9.66521,14.72036c0.57957,-0.94493 1.14814,-1.87312 1.69384,-2.78086zM406.99723,208.41307c-0.91224,1.53927 -1.79185,3.10051 -2.60416,4.68289c-0.83788,1.62778 -1.75735,3.12965 -2.7089,4.58228c0.16483,0.29736 0.32975,0.59632 0.49478,0.8969c2.87104,5.24119 5.399,10.84047 7.94947,16.42493c1.7723,-4.02829 4.18484,-8.05542 6.50621,-11.84744c-3.00215,-5.14801 -6.46873,-9.77979 -9.6374,-14.73957zM401.30533,219.59348c-0.13536,-0.24653 -0.27063,-0.49192 -0.40581,-0.7362c-1.55751,2.3095 -3.16342,4.5452 -4.60988,7.02903c-0.48366,0.83051 -0.94802,1.69557 -1.39774,2.58445c0.12254,0.14028 0.24544,0.27986 0.36873,0.41864c3.61854,4.09207 6.82063,10.59699 9.52402,17.02426c1.64378,-3.12039 3.2947,-6.21468 4.6901,-9.39534c-2.62427,-5.75176 -5.206,-11.53906 -8.16944,-16.92483zM389.02897,256.56461c-1.34378,-2.14837 -2.74614,-3.45471 -3.96912,-5.83086c-1.68226,3.90026 -3.36774,7.78507 -5.1184,11.6229c0.43688,0.74314 0.86948,1.49546 1.29742,2.25823c1.80647,3.75736 4.35338,7.28636 5.89435,11.22254c0.8532,2.17938 1.63174,4.24021 2.59754,6.22407c1.74597,-4.45074 3.4589,-8.97332 5.24455,-13.37545c-1.85957,-4.08819 -3.62126,-8.40425 -5.94632,-12.12141zM374.61882,271.73459c0.80333,-2.77446 2.72028,-4.57945 3.28016,-7.82512c0.21395,-0.47475 0.42719,-0.9496 0.63976,-1.42456c-3.47023,-5.79434 -7.19321,-11.04695 -10.96,-16.3734c-0.27325,0.51967 -0.55399,1.02994 -0.84326,1.52961c-1.1872,4.15258 -3.72586,7.76526 -5.24982,11.72572c0.69581,0.94152 1.39628,1.87597 2.10504,2.79827c3.19806,4.16637 6.7129,8.94695 9.62412,13.78465c0.53614,-1.4262 1.00893,-2.85089 1.40396,-4.21517zM389.10348,238.39336c1.39799,-3.14241 2.75749,-6.48699 4.26149,-9.61567c-4.04778,-4.80447 -7.72329,-10.34252 -11.70417,-15.30666c-1.27765,2.72708 -2.51424,5.42564 -3.77181,7.86908c-1.68748,3.27832 -3.09003,6.89916 -4.45332,10.56107c4.1411,4.87362 8.36081,10.02287 11.52997,15.92315c1.36445,-3.1371 2.73625,-6.28046 4.13785,-9.431zM395.43656,224.83163c1.49127,-2.56076 3.1543,-4.85502 4.75708,-7.24077c-3.55801,-6.33642 -7.1077,-11.93626 -11.24988,-17.30552c-2.49682,3.35388 -4.63486,7.58534 -6.64855,11.83802c3.98851,4.9685 7.67246,10.51517 11.72345,15.32847c0.45626,-0.90088 0.92734,-1.77784 1.41789,-2.6202zM403.49802,212.1179c0.85611,-1.65901 1.78198,-3.29558 2.7406,-4.90866c-0.13513,-0.21759 -0.26954,-0.43595 -0.40325,-0.65511c-2.95481,-4.84508 -6.72553,-9.08684 -10.58759,-13.04704c-1.03377,1.17213 -2.09137,2.2895 -3.19518,3.29642c-0.78757,0.71004 -1.53984,1.51505 -2.26197,2.39631c4.10906,5.338 7.64841,10.92163 11.18497,17.20939c0.88547,-1.36196 1.73996,-2.77127 2.52239,-4.2913zM411.05457,199.46935c0.02967,-0.04706 0.05948,-0.09389 0.08937,-0.14049c-3.15725,-4.57957 -6.7431,-8.68222 -9.96705,-12.87668c-1.69296,1.93869 -3.33245,4.02333 -5.01889,6.00357c3.8354,3.95388 7.56805,8.18882 10.51357,13.0154c0.10267,0.16829 0.20578,0.33609 0.30934,0.50345c1.3459,-2.21465 2.73639,-4.38395 4.07363,-6.50524zM372.89637,233.35529c-1.45574,3.93369 -2.9037,7.86874 -4.64707,11.43318c3.75031,5.30417 7.45985,10.53022 10.92307,16.27637c1.74244,-3.91699 3.44645,-7.84161 5.15646,-11.77583c-3.09679,-5.91613 -7.29739,-11.06904 -11.43248,-15.93372zM365.77922,246.79504c0.33908,-0.59915 0.6668,-1.21187 0.98471,-1.83629c-0.6326,-0.89562 -1.26602,-1.79459 -1.89926,-2.69976c-2.83774,-4.06682 -6.84842,-8.99406 -10.71763,-12.7231c-0.64333,0.86041 -0.93705,1.28324 -1.34696,3.35552c-1.28513,2.89238 -2.70539,7.21899 -3.61495,11.34179c1.50115,0.21085 2.67976,2.21858 3.88029,3.74935c2.60871,3.32632 5.08279,6.83005 7.59883,10.2671c1.57394,-3.85023 3.93787,-7.38218 5.11497,-11.45464zM376.99398,220.36208c1.27998,-2.48633 2.53307,-5.19718 3.82342,-7.92792c-1.06342,-1.28789 -2.15147,-2.52933 -3.27657,-3.70029c-3.2726,-3.40595 -6.65144,-6.42606 -10.13678,-9.19929c-1.24271,2.58848 -2.42526,5.20328 -3.59946,7.68434c-1.28014,2.6889 -2.41728,5.39015 -3.5657,8.10484c3.04545,3.17941 5.76124,7.72486 8.64366,11.2014c1.18365,1.42781 2.41285,2.86452 3.65665,4.32316c1.36357,-3.62916 2.77096,-7.21505 4.45478,-10.48626zM391.45967,195.42116c0.97825,-0.88916 1.91967,-1.86114 2.83981,-2.87954c-1.96389,-1.9863 -3.93603,-3.90693 -5.82191,-5.80386c-2.47082,-2.48583 -5.06298,-4.55286 -7.67926,-6.60901c-1.01343,1.19039 -1.99334,2.40805 -2.92934,3.64021c-0.53574,0.46534 -1.0556,0.96588 -1.5609,1.49753c3.70952,2.99874 7.28761,7.22639 10.47108,10.18951c0.74526,0.8869 1.47044,1.77775 2.17825,2.67476c0.79536,-0.99482 1.62709,-1.90552 2.50226,-2.70957zM388.15954,172.53654c-2.18928,1.96516 -4.3407,4.14916 -6.37521,6.45457c2.50497,1.98199 4.97528,4.03728 7.32892,6.40523c1.98006,1.99248 4.05133,4.01066 6.10913,6.10199c1.7332,-1.99683 3.40765,-4.11831 5.13106,-6.11109c-3.78284,-4.77351 -8.18795,-8.45983 -12.1939,-12.8507zM386.1231,196.77637c-3.2529,-3.0142 -6.9591,-7.47603 -10.77783,-10.44015c-2.79804,3.27565 -5.14396,7.48939 -7.29086,11.85864c3.48449,2.77985 6.86379,5.80627 10.13668,9.21251c1.12028,1.16595 2.20416,2.40183 3.26379,3.68393c2.02572,-4.24271 4.16669,-8.45258 6.66346,-11.86287c-0.64941,-0.82139 -1.31376,-1.63814 -1.99524,-2.45205zM368.16913,227.78087c-2.83976,-3.42537 -5.52279,-7.92164 -8.51944,-11.06726c-1.02846,2.4178 -2.08663,4.84641 -3.28286,7.28658c-0.53019,1.08153 -0.93001,3.26361 -1.45737,4.39862c3.86868,3.76531 7.81904,8.53305 10.73869,12.69653c0.59179,0.84596 1.18378,1.68655 1.77509,2.52408c1.69753,-3.56246 3.12806,-7.4454 4.57321,-11.32022c-1.30317,-1.52648 -2.59128,-3.0276 -3.82732,-4.51833z" fill="#000000" stroke="none" stroke-width="0.5" stroke-linecap="butt"/><path d="M384.97392,250.94422c-3.16915,-5.53738 -7.48434,-10.44492 -11.62546,-15.01878c1.36331,-3.43668 2.807,-6.91806 4.49448,-9.99476c1.25757,-2.29316 2.531,-4.838 3.80866,-7.39736c3.98085,4.65882 7.75201,9.92622 11.79979,14.43519c-1.50401,2.93624 -2.89657,6.15838 -4.29455,9.10751c-1.4016,2.95677 -2.81849,5.92405 -4.18294,8.8682z" data-paper-data="{&quot;noHover&quot;:false,&quot;origItem&quot;:[&quot;Path&quot;,{&quot;applyMatrix&quot;:true,&quot;segments&quot;:[[[735.61839,440.60627],[-1.59588,3.4512],[1.59175,-3.44228]],[[740.47057,430.07299],[-1.71248,3.42723],[-4.60885,-5.26297]],[[727.14409,413.30563],[4.53265,5.43787],[-1.45475,2.98734]],[[722.84947,421.92568],[1.43188,-2.67662],[-1.92139,3.59117]],[[717.77886,433.49459],[1.55227,-4.01136],[4.7151,5.3387]],[[730.907,450.93727],[-3.60843,-6.46335],[1.55358,-3.43648]]],&quot;closed&quot;:true}]}" fill="#444444" stroke="none" stroke-width="0.5" stroke-linecap="butt"/><path d="M264.07876,302.91344l-5.96691,-122.93315l65.16829,-1.562l5.96689,122.93317z" fill="none" stroke="#000000" stroke-width="1.5" stroke-linecap="butt"/><path d="M264.24978,225.63996l-1.22565,-38.25974l56.74542,-1.72983l1.22565,38.25976z" fill="#e0e0e0" stroke="#000000" stroke-width="1.5" stroke-linecap="butt"/><path d="M266.66443,285.00584l-1.22565,-43.71418l56.74542,-1.97644l1.22565,43.71416z" fill="#e0e0e0" stroke="#000000" stroke-width="1.5" stroke-linecap="butt"/><path d="M316.22174,189.35649l0.41744,30.9485l-49.67647,0.81445l-0.83491,-30.94852z" fill="#b1dce0" stroke="#000000" stroke-width="1.5" stroke-linecap="round"/><path d="M271.13718,214.19674l41.3275,-0.81445" fill="none" stroke="#000000" stroke-width="1.5" stroke-linecap="round"/><path d="M270.32848,246.81242l-5.00941,-5.29383" fill="none" stroke="#000000" stroke-width="1.5" stroke-linecap="round"/><path d="M317.85225,245.20908l3.75704,-4.8866" fill="none" stroke="#000000" stroke-width="1.5" stroke-linecap="round"/><path d="M271.98519,279.72041l-4.59195,4.07217" fill="none" stroke="#000000" stroke-width="1.5" stroke-linecap="round"/><path d="M317.82608,278.09155l5.42685,5.29381" fill="none" stroke="#000000" stroke-width="1.5" stroke-linecap="round"/><path d="M316.27763,248.07695l0.36898,27.35527l-43.90884,0.71986l-0.73799,-27.35527z" fill="#444444" stroke="#000000" stroke-width="1.5" stroke-linecap="round"/><path d="M316.49782,250.35937l-9.42544,6.29092h-23.31555l-9.92152,-6.29092" fill="none" stroke="#000000" stroke-width="1.5" stroke-linecap="round"/><path d="M285.72752,266.53541c0,2.94099 -2.57981,5.32512 -5.76218,5.32512c-3.18237,0 -5.76218,-2.38412 -5.76218,-5.32512c0,-2.94099 2.57983,-5.32512 5.76218,-5.32512c3.18237,0 5.76218,2.38412 5.76218,5.32512z" fill="none" stroke="#000000" stroke-width="1.5" stroke-linecap="butt"/><path d="M316.25701,264.2673c0,2.77759 -2.39877,5.02927 -5.35781,5.02927c-2.95905,0 -5.35783,-2.25167 -5.35783,-5.02927c0,-2.77759 2.39878,-5.02929 5.35783,-5.02929c2.95905,0 5.35781,2.25169 5.35781,5.02929z" fill="none" stroke="#000000" stroke-width="1.5" stroke-linecap="butt"/><path d="M286.9799,270.63579l-0.22465,-9.2452l17.90198,-0.41392l0.22463,9.2452z" fill="none" stroke="#000000" stroke-width="1" stroke-linecap="butt"/><path d="M284.9188,266.53541v-1.57781h0.40437v1.57781z" fill="none" stroke="#000000" stroke-width="1.5" stroke-linecap="butt"/><path d="M288.56086,266.39045c0,-0.38246 0.39207,-0.38246 0.39207,-0.38246h0.29158c3.30717,0 -1.15715,-4.6687 2.89411,-3.39369c0,0 0.37194,0.12095 0.24797,0.48378c-0.12398,0.36284 -0.49594,0.24189 -0.49594,0.24189c-2.38921,-0.80994 1.44174,3.43294 -2.64614,3.43294h-0.29158c0,0 -0.39207,0 -0.39207,-0.38246z" fill="#444444" stroke="none" stroke-width="0" stroke-linecap="butt"/><path d="M299.09889,265.15022c-0.39207,0 -0.39207,-0.38246 -0.39207,-0.38246c0,-0.18963 0,-0.80592 0,-0.99554c0,0 0,-0.38246 0.39207,-0.38246c0.39207,0 0.39207,0.38246 0.39207,0.38246c0,0.18963 0,0.37926 0,0.56888v0.42667c0,0 0,0.38246 -0.39207,0.38246z" fill="#444444" stroke="none" stroke-width="0.5" stroke-linecap="butt"/><path d="M298.7068,261.92332c0,-0.21123 0.17555,-0.38246 0.39207,-0.38246c0.21653,0 0.39207,0.17123 0.39207,0.38246c0,0.21123 -0.17555,0.38246 -0.39207,0.38246c-0.21653,0 -0.39207,-0.17125 -0.39207,-0.38246z" fill="#444444" stroke="none" stroke-width="0.5" stroke-linecap="butt"/><path d="M292.39231,269.70131c-0.39207,0 -0.39207,-0.38246 -0.39207,-0.38246v-0.42666c0,-0.19254 -0.02217,-1.49075 0.07081,-1.95002c-0.15031,0.22124 -0.45967,0.64137 -0.75694,1.03914c0.00142,0.019 0.00272,0.03818 0.00392,0.05755h0.00841v0.71111c0,0.21123 -0.17555,0.38246 -0.39207,0.38246c-0.21653,0 -0.39207,-0.17123 -0.39207,-0.38246v-0.42667c0,-1.9702 -0.84658,-1.20973 -0.8196,0.14224c0,0 0,0.38246 -0.39207,0.38246c-0.39207,0 -0.39207,-0.38246 -0.39207,-0.38246c0.0267,-1.88373 1.50426,-2.64893 2.12146,-1.48581c0.27015,-0.69635 0.90164,-1.2293 1.56155,-0.81558c0.44345,0.27801 0.16281,2.26072 0.16281,2.72804v0.42666c0,0 0,0.38246 -0.39207,0.38246z" fill="#444444" stroke="none" stroke-width="0.5" stroke-linecap="butt"/><path d="M294.87083,269.27465c-0.39207,0 -0.39207,-0.38246 -0.39207,-0.38246c0,-0.37926 0,-1.3274 0,-1.70666c0,0 0,-0.38246 0.39207,-0.38246c0.39207,0 0.39207,0.38246 0.39207,0.38246c0,0.37926 0,0.7585 0,1.13776v0.56889c0,0 0,0.38246 -0.39207,0.38246z" fill="#444444" stroke="none" stroke-width="0.5" stroke-linecap="butt"/><path d="M302.26106,264.90997c0,0.38246 -0.39207,0.38246 -0.39207,0.38246l-0.56883,-0.11201c-0.75148,-0.81522 -0.71816,-2.93129 0.56883,-3.07068c0,0 0.39207,0 0.39207,0.38246c0,0.38246 -0.39207,0.38246 -0.39207,0.38246c-0.35308,-0.12246 -0.32185,1.52617 -0.01435,1.76486l0.01435,-0.11203c0,0 0.39207,0 0.39207,0.38246z" fill="#444444" stroke="none" stroke-width="0.5" stroke-linecap="butt"/><path d="M80.77581,170.22393l-0.51993,18.00492l-2.85959,10.3972l-7.01898,6.84694" fill="none" stroke="#000000" stroke-width="1.5" stroke-linecap="round"/><path d="M107.89837,148.6397l8.19713,-10.852" fill="none" stroke="#000000" stroke-width="1.5" stroke-linecap="round"/><path d="M117.26652,332.55253l-12.8812,-7.42505" fill="none" stroke="#000000" stroke-width="1.5" stroke-linecap="round"/><path d="M96.39929,248.80423c-0.43678,0.04433 -0.48221,-0.38175 -0.48221,-0.38175l-0.04126,-0.62508c-1.11708,-1.10966 -1.18246,-4.04463 -1.02868,-6.89463c-0.05037,0.2454 -0.10426,0.48776 -0.16199,0.72676v1.09417c0,0.23658 -0.19661,0.42837 -0.43913,0.42837c-0.24252,0 -0.43913,-0.19179 -0.43913,-0.42837v-0.78722l-0.2552,-0.74682l0.16936,-0.05507c-1.55966,-3.9632 -0.44076,-11.04327 -0.2832,-15.34582c-0.09745,-1.08737 -0.21535,-2.1812 -0.35502,-3.29124c-0.10605,-0.8429 -0.46732,-2.23148 -0.47868,-3.36162c-0.05368,-0.28884 -0.10472,-0.58438 -0.15117,-0.88923l0.00559,-0.02137l-0.00716,0.00033l-0.0415,-0.85266c-0.00043,-0.00776 -0.00065,-0.01557 -0.00065,-0.02343c0,-0.23658 0.19661,-0.42837 0.43913,-0.42837c0.15122,0 0.28458,0.07457 0.36357,0.18804c1.85405,0.18886 1.47794,2.10123 1.84236,3.71138c0.00866,0.03826 0.01717,0.07658 0.02553,0.11496c-0.00777,-0.51928 0.02115,-1.02628 0.1327,-1.45451c-0.0002,-0.13443 -0.00035,-0.26886 -0.00042,-0.40329h-0.00004v-0.85673c0,-0.23658 0.19661,-0.42837 0.43913,-0.42837c0.24252,0 0.43913,0.19179 0.43913,0.42837v0.68539c0,0.16733 0.00014,0.33468 0.00037,0.50204c1.02902,4.8763 -0.00037,11.17846 -0.00037,15.94731c0,2.64726 -1.27638,10.29809 0.57835,12.07321l0.1219,0.90486c0,0 0.04544,0.42607 -0.39134,0.4704zM94.62237,224.43806c-0.0509,-1.17734 -0.17397,-2.3321 -0.42543,-3.43187c-0.19935,-0.87182 -0.13569,-2.81605 -0.78951,-3.03156l0.02608,0.14416l-0.08019,0.0138c0.7388,1.87572 1.10095,4.05662 1.26904,6.30546z" fill="#707070" stroke="none" stroke-width="0.5" stroke-linecap="butt"/><path d="M88.71296,136.31698c0,-1.28511 1.3174,-1.28511 1.3174,-1.28511h0.35131c0.152,0 0.32835,-0.00348 0.52417,-0.00872l0.44158,-0.71794c0.22756,-0.38499 0.6538,-0.64413 1.14209,-0.64413c0.36148,0 0.68896,0.14203 0.927,0.37199c0.21543,-0.42355 0.66327,-0.71469 1.18083,-0.71469c0.5578,0 1.03462,0.33817 1.22679,0.81581l0.39258,-0.76591c0.21124,-0.43468 0.66518,-0.73529 1.19108,-0.73529c0.66124,0 1.2087,0.47524 1.30303,1.09467l0.34775,2.03533l-0.31352,0.05098c0.19805,0.81056 0.31429,1.6343 0.30767,2.45948l-0.1562,0.2008l0.08574,0.03346l-0.69121,1.68568c-0.18682,0.48808 -0.66909,0.83561 -1.23457,0.83561c-0.16263,0 -0.31837,-0.02874 -0.46219,-0.08131c-0.00025,0.02234 -0.00048,0.04477 -0.00072,0.06731l-0.16287,0.1982l0.09241,0.03606l-0.69121,1.68568c-0.18682,0.48808 -0.66909,0.83561 -1.23457,0.83561c-0.72758,0 -1.3174,-0.57536 -1.3174,-1.28511v-0.22041c-0.35249,-0.12923 -0.75447,-0.44973 -1.20704,-1.0149c-0.00291,-0.12812 -0.01183,-0.37102 -0.01773,-0.68644c-0.16463,0.07578 -0.3681,0.12261 -0.61958,0.12261c-1.3174,0 -1.3174,-1.28511 -1.3174,-1.28511c0,-0.59973 0.00651,-1.19948 0.01762,-1.79914h-0.10544c0,0 -1.3174,0 -1.3174,-1.28511zM92.94417,140.03803c-0.01468,0.28819 -0.02747,0.60167 -0.03808,0.94124c0.13665,0.19498 0.26106,0.32034 0.37384,0.38648v-0.59106c-0.08619,-0.0697 -0.1293,-0.15378 -0.1293,-0.15378c-0.05441,-0.10616 -0.12723,-0.31104 -0.20646,-0.58288zM93.76668,139.69221c-0.00099,-0.01987 -0.002,-0.03961 -0.00302,-0.05925c-0.00309,0.00297 -0.0062,0.00591 -0.00933,0.00884c0.00414,0.01707 0.00826,0.03387 0.01235,0.05041z" fill="#707070" stroke="none" stroke-width="0.5" stroke-linecap="butt"/><path d="M105.4878,131.86193l-16.86267,3.08425" fill="none" stroke="#000000" stroke-width="1.5" stroke-linecap="round"/><path d="M97.75908,132.54736l2.52767,-1.04236l337.83885,-0.57116l4.68407,202.76102l-348.37802,14.27894" fill="none" stroke="#000000" stroke-width="1.5" stroke-linecap="round"/><path d="M98.11038,199.71552l1.75653,-67.16816" fill="none" stroke="#000000" stroke-width="1.5" stroke-linecap="round"/><path d="M62.76148,90.53204c-0.35618,-0.14493 -0.74775,-0.46358 -0.74775,-1.16421c0,-1.28511 1.3174,-1.28511 1.3174,-1.28511l1.52962,0.71039c0.0426,0.0831 0.1438,0.327 0.27827,0.67089c0.01824,-0.0661 0.03807,-0.13086 0.05963,-0.19417c0.00089,-0.00532 0.00177,-0.01061 0.00266,-0.01592c-0.01233,-0.29301 -0.01978,-0.59725 -0.02339,-0.91417h-0.00243v-1.71348c0,-0.01278 0.00019,-0.02551 0.00057,-0.0382l-0.2128,-0.41517c-0.26882,-0.55008 -0.53763,-1.10017 -0.80645,-1.65023c0.05873,-2.28597 -1.48362,-1.94184 -3.7383,-1.43219c-4.02369,0.90951 -7.50827,2.64103 -11.68125,3.0978c-2.7894,0.30533 -5.46354,-0.47028 -8.10303,0.60311c0,0 -1.22317,0.47728 -1.71244,-0.71591c-0.48927,-1.1932 0.7339,-1.67047 0.7339,-1.67047c2.98416,-1.12708 5.67036,-0.4369 8.75964,-0.76768c3.30909,-0.35431 6.47936,-1.34412 9.5922,-2.34616c1.19377,-0.38428 5.54356,-1.64128 6.81829,-1.01635c2.15493,1.05643 1.85942,2.0142 1.8953,3.65734c0.01033,0.01883 0.02065,0.03764 0.03098,0.05647c1.05818,0.15642 1.05819,1.26688 1.05819,1.26688c0,0.05161 0.00004,0.10313 0.00016,0.15455c0.16749,0.17622 0.28496,0.39834 0.33035,0.64486l0.34652,1.69013l-0.28546,0.05569c0.63554,1.60902 0.84049,3.17826 0.75353,5.10762c0.15512,0.38419 0.33076,0.76852 0.52959,1.15405l-0.01887,0.14915l0.06137,-0.01496l0.34414,1.34282c0.03032,0.10819 0.0465,0.22207 0.0465,0.33964c0,0.70975 -0.58982,1.28511 -1.3174,1.28511c-0.19831,0 -0.38639,-0.04275 -0.55508,-0.1193c-0.12436,0.0982 -0.26996,0.1703 -0.44091,0.20921c-0.23385,0.35801 -0.64441,0.59548 -1.11184,0.59548c-0.72758,0 -1.3174,-0.57536 -1.3174,-1.28511v-0.16866c-0.73634,-0.90041 -1.78198,-4.26995 -2.414,-5.86373z" fill="#707070" stroke="none" stroke-width="0.5" stroke-linecap="butt"/><path d="M51.5275,169.86024c-1.01205,0.82271 -1.85543,-0.16454 -1.85543,-0.16454l-0.06977,-0.08168c-0.61644,-0.73845 -1.23289,-1.4769 -1.84933,-2.21535c-1.02084,-3.68377 -3.55555,-6.76989 -4.33466,-10.61966c-0.51892,-2.56413 0.04543,-5.7186 0.33395,-8.25162c0.04325,-0.3797 0.06468,-0.99257 0.14091,-1.6603c-0.29281,-0.96527 -0.49863,-1.96082 -0.49863,-3.0108c0,0 0,-1.28511 1.3174,-1.28511c0.90951,0 1.19111,0.61252 1.2783,0.99182c0.22314,-0.01692 0.46996,0.00185 0.74311,0.06252c2.95952,0.65733 2.50708,6.30944 1.74484,9.97056l0.05083,0.19836h0.31076v1.37078c0,0.70975 -0.58982,1.28511 -1.3174,1.28511c-0.62695,0 -1.15161,-0.42722 -1.28475,-0.9995l-0.09671,-0.37734c0.55822,4.06131 3.05644,7.14375 3.9613,11.1615c0.50806,0.57788 1.01612,1.15576 1.52417,1.73363l0.06978,0.08168c0,0 0.84337,0.98723 -0.16868,1.80994z" fill="#707070" stroke="none" stroke-width="0.5" stroke-linecap="butt"/><path d="M32.79635,154.35866c0.17136,-0.19242 0.34732,-0.29542 0.34732,-0.29542l1.80038,-1.05265c1.60847,-0.78432 2.49919,-1.15351 3.59179,-1.23875l-0.05446,-0.26564l1.72985,-0.33749c0.09179,-0.01974 0.18717,-0.03016 0.28504,-0.03016c0.72758,0 1.3174,0.57536 1.3174,1.28511c0,0.51301 -0.30817,0.95582 -0.75377,1.16189l-1.30021,0.63417c-2.47745,1.80522 -4.52263,2.15925 -7.37524,2.87763c0,0 -1.27807,0.31168 -1.59758,-0.93505c-0.31951,-1.24673 0.95855,-1.55842 0.95855,-1.55842c0.36872,-0.08758 0.71752,-0.16773 1.05093,-0.24521z" fill="#707070" stroke="none" stroke-width="0.5" stroke-linecap="butt"/><path d="M86.16599,131.51927l3.16175,21.93246" fill="none" stroke="#9e9e9e" stroke-width="1.5" stroke-linecap="round"/><path d="M71.05986,80.45774l9.83656,-0.3427" fill="none" stroke="#9e9e9e" stroke-width="1.5" stroke-linecap="round"/><path d="M206.95298,108.8104c0,-1.28511 1.3174,-1.28511 1.3174,-1.28511h1.3174c0.10082,0.00151 0.20029,0.00034 0.29859,-0.00324c0.38866,-0.42513 1.0188,-0.42513 1.0188,-0.42513c0.55068,0 1.10137,0 1.65205,0c0.66324,-0.17542 0.97644,-0.35327 1.73119,-0.42211c2.76577,-0.25226 5.56247,-0.1614 8.36153,-0.04906c4.32981,-1.20959 10.00726,-1.03598 14.7124,-0.89446c0.88146,-0.11132 1.7267,-0.12992 2.41108,0.06462c0.49715,0.00987 0.97565,0.01591 1.43185,0.01591h1.3174c0.72758,0 1.3174,0.57536 1.3174,1.28511c0,0.70975 -0.58982,1.28511 -1.3174,1.28511h-0.87826c0,0.70975 -0.58982,1.28511 -1.3174,1.28511c-0.36945,0 -2.49543,0 -2.86488,0c-5.35308,0.92832 -11.8623,0 -16.89606,0c-1.86138,0 -5.4793,0 -7.34069,0c-1.19592,0.20733 -2.38464,0.41477 -3.63761,0.42837h-1.3174c0,0 -1.3174,0 -1.3174,-1.28511z" fill="#9e9e9e" stroke="none" stroke-width="0.5" stroke-linecap="butt"/><path d="M319.80987,110.95224c0,1.28511 -1.3174,1.28511 -1.3174,1.28511h-0.87826c-0.55179,0 -1.10449,-0.00196 -1.65801,-0.0056c0.21168,0.22802 0.34062,0.53048 0.34062,0.86233c0,0.70975 -0.58982,1.28511 -1.3174,1.28511c-0.14638,0 -2.48841,0 -2.63479,0c-0.66618,0 -1.33237,0 -1.99855,0c-7.33713,0.93067 -15.4659,0 -22.59284,0c-5.06677,0 -10.58625,0.62217 -15.47323,-0.71828l-1.74966,-0.14187c-0.68241,-0.04832 -1.22066,-0.60369 -1.22066,-1.28169c0,-0.70975 0.58982,-1.28511 1.3174,-1.28511h2.63479v0.16764c14.03888,-3.22779 30.15686,-1.45275 44.35233,-1.45275h0.87826c0,0 1.3174,0 1.3174,1.28511zM282.9864,112.41032c0.17946,0.00325 0.3592,0.00582 0.53919,0.00777c0.01647,-0.02842 0.03391,-0.05552 0.0522,-0.08135c-0.19399,0.0196 -0.39128,0.04444 -0.59139,0.07357z" fill="#9e9e9e" stroke="none" stroke-width="0.5" stroke-linecap="butt"/><path d="M45.94086,174.28139l-3.63947,-24.85186l-5.71917,-39.05292l-1.55978,-24.85186l5.78065,-2.12728l41.30496,-5.88007l292.7486,-6.77631l4.52083,1.85055l4.15939,4.81822l2.33966,4.31103l0.77988,5.32541l1.03985,7.3541l-0.51993,5.32541l-0.77988,5.07181l-2.33966,7.3541l-109.47749,3.94094" fill="none" stroke="#000000" stroke-width="1.5" stroke-linecap="round"/><path d="M202.9706,76.36813c0.07363,-0.03682 0.15143,-0.05574 0.23203,-0.0626c-0.13968,0.09495 -0.27915,0.18871 -0.41842,0.28104c0.03963,-0.09462 0.09568,-0.17309 0.18639,-0.21844z" fill="#000000" stroke="none" stroke-width="0.5" stroke-linecap="butt"/><path d="" fill="#000000" stroke="none" stroke-width="0.5" stroke-linecap="butt"/><path d="" fill="#000000" stroke="none" stroke-width="0.5" stroke-linecap="butt"/><g stroke-linecap="butt"><path d="M248.2263,235.10233c0,44.85171 -31.37357,81.21121 -70.07485,81.21121c-38.70128,0 -70.07485,-36.35949 -70.07485,-81.21121c0,-44.85171 31.37357,-81.21121 70.07485,-81.21121c38.70128,0 70.07485,36.35949 70.07485,81.21121z" fill="#444444" stroke="#000000" stroke-width="1.5"/><path d="M241.97759,237.53381c0,39.74882 -27.57677,71.97161 -61.59446,71.97161c-34.01767,0 -61.59446,-32.22279 -61.59446,-71.97161c0,-39.74882 27.57678,-71.97159 61.59447,-71.97159c34.01769,0 61.59446,32.22277 61.59446,71.97161z" fill="#444444" stroke="#000000" stroke-width="1.5"/><path d="M196.09384,289.26567c-0.632,-0.50573 -0.1678,-1.19432 -0.1678,-1.19432l0.183,-0.27145c0.60064,-0.88344 1.09173,-1.86345 1.4735,-2.88116c0.26235,-0.37086 0.52114,-0.74415 0.77663,-1.11966c-0.57082,-0.82698 -1.1608,-1.64669 -1.63863,-2.51437c-0.99611,-1.80879 -2.40542,-2.52691 -3.47803,-4.14607c-2.43827,4.62503 -4.77816,9.33414 -7.28239,13.94723c0.36292,0.49053 0.74638,0.97704 1.15546,1.46014l0.39559,0.43003c0,0 0.55448,0.60412 0,1.20825c-0.55448,0.60412 -1.10895,0 -1.10895,0l-0.43931,-0.47963c-0.29789,-0.35179 -0.5831,-0.70528 -0.8574,-1.06074c-0.70916,1.27888 -1.43336,2.54876 -2.17834,3.80567c-1.57367,1.005 -2.56014,5.66241 -3.61811,7.97353l0.08279,0.07274c0,0 0,0.85435 -0.78415,0.85435c-0.78415,0 -0.78415,-0.85435 -0.78415,-0.85435l0.08279,-0.83691c1.16556,-2.53293 2.09698,-6.96497 3.89598,-8.40001c0.74684,-1.3587 1.48416,-2.73143 2.21586,-4.1129c-1.58484,-2.31816 -2.81751,-4.73171 -4.14874,-7.30673c-2.09392,-4.05026 -5.66737,-7.70985 -8.14859,-11.57474c-0.48717,-0.64813 -0.97867,-1.28905 -1.47415,-1.92345c-0.1739,0.28148 -0.34832,0.56268 -0.52325,0.84362c-0.75058,3.28906 -3.67578,5.40271 -4.58578,8.17121c-0.53943,1.64108 -1.31532,3.44131 -2.24523,5.24397c0.29422,0.38266 0.5829,0.76534 0.86551,1.14779c1.66461,2.25258 2.35498,4.22335 4.61923,5.94942l0.53818,1.61289c0,0 0.24797,0.81051 -0.49594,1.08068c-0.74391,0.27017 -0.99188,-0.54033 -0.99188,-0.54033l-0.29671,-1.11604c-2.28384,-1.55946 -2.97296,-3.68862 -4.56467,-5.87591c-0.16958,-0.23304 -0.34168,-0.46617 -0.51617,-0.69942c-1.44631,2.55964 -3.15847,5.03178 -4.89572,6.95896l-0.79732,1.73742c-0.12573,0.28898 -0.39592,0.48882 -0.70897,0.48882c-0.43307,0 -0.78415,-0.38251 -0.78415,-0.85435c0,-0.10145 0.01623,-0.19881 0.04604,-0.2891l0.41166,-1.34554l0.07288,0.02646l0.00399,-0.20547c2.04599,-2.28957 3.93195,-5.10891 5.50886,-8.00365c-4.07871,-5.17086 -9.17714,-10.30772 -13.72047,-14.73371c-0.88722,-0.86525 -1.76519,-1.74012 -2.63762,-2.62098c-0.07439,0.18353 -0.14537,0.36798 -0.21266,0.55339c-1.42163,3.91681 -2.83857,8.06572 -3.86684,12.11506c3.02149,3.4146 5.97158,6.90291 9.0536,10.26082c1.60427,1.74789 4.09621,3.55504 5.32407,5.66417c0.15103,0.01186 0.74988,0.10601 0.74988,0.85264c0,0.85435 -0.78415,0.85435 -0.78415,0.85435l-1.11882,-0.47227c-0.88668,-2.05313 -3.76631,-4.04148 -5.27996,-5.69064c-2.7805,-3.02942 -5.4537,-6.16504 -8.16877,-9.25686l-0.53679,2.04698c-0.08798,0.36698 -0.39434,0.63778 -0.75873,0.63778c-0.43307,0 -0.78415,-0.38251 -0.78415,-0.85435c0,-0.02605 0.00107,-0.05185 0.00316,-0.07731l0.10165,-1.39262l0.02053,0.00178l-0.01409,-0.06258c0.13855,-0.66778 0.28895,-1.34078 0.44995,-2.01733c-0.66233,-0.74335 -1.32874,-1.4825 -2.00135,-2.21531c0,0 -0.55448,-0.6041 0,-1.20823c0.55448,-0.60412 1.10895,0 1.10895,0c0.46009,0.50128 0.91728,1.00553 1.37225,1.51203c1.00159,-3.79926 2.29494,-7.66038 3.66002,-11.29483c0.14815,-0.39437 0.3112,-0.78415 0.48696,-1.17001c-3.61434,-3.68687 -7.16173,-7.44807 -10.90876,-11.01974c-1.22142,-1.16427 -3.16503,-3.75085 -4.85582,-3.58366c-0.38298,1.50533 -0.66119,2.95625 -0.79416,4.27591l-0.47851,1.28801c0,0 -0.29868,0.78995 -1.02372,0.46455c-0.72504,-0.3254 -0.42636,-1.11537 -0.42636,-1.11537l0.40876,-1.0587c0.12935,-1.32286 0.41094,-2.80034 0.80182,-4.3434c-0.08893,-0.38333 0.05126,-0.63586 0.2082,-0.79067c1.27067,-4.65322 3.44604,-9.75393 5.39407,-12.95124c0.50525,-1.96229 0.98172,-2.85776 1.8986,-3.80179c-1.57283,-1.07474 -3.1149,-2.02578 -4.58006,-2.79908c0,0 -0.70136,-0.38206 -0.35069,-1.14622c0.35069,-0.76415 1.05205,-0.38208 1.05205,-0.38208c1.62788,0.90811 3.33168,1.99335 5.06006,3.20033c0.55002,-0.79585 1.51868,-3.83294 2.07019,-4.67417c1.66593,-2.54112 3.14552,-5.07452 4.58378,-7.59881c-2.75789,-1.87929 -5.56995,-2.80904 -8.02724,-5.47782c0,0 -0.55448,-0.6041 0,-1.20825c0.55448,-0.60412 1.10895,0 1.10895,0c2.3643,2.58501 5.07579,3.44068 7.74227,5.23468c1.6156,-2.85246 3.21387,-5.69287 5.00491,-8.51923c1.62068,-2.54348 3.24954,-5.22791 4.95473,-7.89482c-0.94254,-0.54851 -1.89055,-1.08802 -2.84408,-1.61952c-2.08683,-1.16322 -2.94575,-2.12572 -5.39352,-2.11625c0,0 -0.78415,0 -0.78415,-0.85435c0,-0.85435 0.78415,-0.85435 0.78415,-0.85435c2.69383,0.00928 3.82758,1.03276 6.10782,2.30379c1.01919,0.56811 2.03221,1.14529 3.03904,1.73282c2.97535,-4.55642 6.21085,-8.97886 10.05094,-12.4665c-1.98224,-1.02286 -3.97966,-1.79208 -5.96833,-2.15319c0,0 -0.77347,-0.14045 -0.64456,-0.98317c0.12891,-0.84274 0.9024,-0.70228 0.9024,-0.70228c2.36062,0.42865 4.72459,1.39744 7.0592,2.67424c0.90214,-0.73876 1.83733,-1.42485 2.80953,-2.04897c1.13138,-1.12516 2.31256,-2.23609 3.53287,-3.32531c-1.31358,-0.77229 -2.62912,-1.55058 -3.94035,-2.35443c-1.40157,-0.85921 -5.1761,-3.94895 -6.73479,-2.88989c0,0 -0.70136,0.38208 -1.05205,-0.38208c-0.35069,-0.76415 0.35069,-1.14622 0.35069,-1.14622c2.31082,-1.11014 4.77642,0.89121 6.81937,2.10537c1.97249,1.17229 3.95514,2.3133 5.9277,3.46708c2.89869,-2.4906 5.98714,-4.84901 9.13147,-6.98146c-0.82465,-0.70707 -1.63427,-1.43394 -2.4241,-2.18691c0,0 -0.59012,-0.56259 -0.07377,-1.20555c0.51635,-0.64296 1.10649,-0.08037 1.10649,-0.08037c0.91545,0.87275 1.85725,1.71062 2.81805,2.52331c1.96903,-1.28569 3.95192,-2.47796 5.91623,-3.55414c0,0 0.70136,-0.38208 1.05205,0.38206c0.35069,0.76415 -0.35067,1.14623 -0.35067,1.14623c-1.75755,0.95248 -3.52396,2.00328 -5.27882,3.13357c5.58258,4.5242 11.67548,8.37162 16.90906,13.35015c2.17934,-1.81393 4.434,-3.48412 6.87106,-4.8222c0,0 0.70136,-0.38208 1.05204,0.38206c0.35067,0.76415 -0.35067,1.14622 -0.35067,1.14622c-2.26641,1.22336 -4.37541,2.74959 -6.4127,4.41899c4.49039,4.35358 9.42133,8.61647 13.7941,13.35417c1.81825,-1.95374 3.5898,-3.77112 3.5898,-6.71195c0,0 0,-0.85435 0.78415,-0.85435c0.78415,0 0.78415,0.85435 0.78415,0.85435c0,3.52326 -1.97717,5.60187 -4.06866,7.91612c2.58055,2.91246 4.92683,6.01553 6.81868,9.43383c1.47524,2.67076 3.27554,5.13408 4.86534,7.72895c0.98077,-1.05334 2.0952,-1.72676 3.53705,-1.32907c0,0 0.74391,0.27017 0.49594,1.08068c-0.24797,0.81051 -0.99188,0.54033 -0.99188,0.54033c-0.64236,-0.35244 -1.42823,0.25622 -2.19281,1.14779c0.70359,1.24939 1.33884,2.54168 1.8499,3.91219l0.06564,0.17716c0,0 0.2936,0.79221 -0.43351,1.11207c-0.72711,0.31986 -1.02072,-0.47233 -1.02072,-0.47233l-0.06564,-0.17716c-0.40586,-1.10266 -0.89822,-2.15449 -1.44499,-3.17421c-0.51847,0.73799 -0.9839,1.45635 -1.3315,1.88873c-0.81368,1.0121 -1.66768,2.05033 -2.53976,3.10932c1.83475,2.44307 3.51945,5.00629 4.95427,7.7671c0.21047,0.23838 0.4521,0.52533 0.71447,0.85017c1.19613,-0.83145 2.48199,-1.39513 3.77987,-1.4321c0,0 0.78415,0 0.78415,0.85435c0,0.85435 -0.78415,0.85433 -0.78415,0.85433c-0.78986,-0.03712 -1.78797,0.39707 -2.76741,1.0338c1.78946,2.41308 3.87629,5.74228 3.969,7.66311v0.45481c0,0 0,0.85435 -0.78415,0.85435c-0.78415,0 -0.78415,-0.85435 -0.78415,-0.85435v-0.45481c0.12471,-1.21743 -2.00494,-4.41377 -3.70889,-6.68997c-0.8828,0.73862 -1.65182,1.55161 -2.10335,2.19772c-2.44136,3.49319 -5.06885,6.81746 -7.64246,10.18959c2.23386,4.23279 4.64732,8.33114 6.97463,12.50291l0.45046,0.97269c0,0 0.35278,0.763 -0.34751,1.14739c-0.70031,0.38438 -1.05311,-0.3786 -1.05311,-0.3786l-0.42116,-0.91238c-2.22457,-3.98041 -4.52854,-7.89331 -6.66885,-11.92757c-1.07011,1.42017 -2.12492,2.85404 -3.14678,4.31751c-1.44088,2.06079 -2.76903,4.20032 -4.03715,6.38271c2.35405,4.59184 4.97045,9.81127 6.09657,14.57636l0.03708,0.16159c0,0 0.19018,0.82883 -0.57056,1.03606c-0.76073,0.20721 -0.95093,-0.62164 -0.95093,-0.62164l-0.03708,-0.16159c-0.95044,-4.29469 -3.3289,-9.08975 -5.5184,-13.34186c-3.58049,6.35025 -6.77134,12.98183 -10.83695,19.03224c0.65123,1.02283 1.22776,2.08324 1.55563,3.30572l0.36861,0.46184c0,0 0.46125,0.69094 -0.1729,1.19347c-0.63414,0.50254 -1.09539,-0.18838 -1.09539,-0.18838l-0.60997,-1.004c-0.20727,-0.84195 -0.57463,-1.61731 -1.01473,-2.3627c-0.12192,0.17242 -0.24463,0.34431 -0.36822,0.51565c-0.40158,1.07602 -0.9393,2.09899 -1.56735,3.03763l-0.183,0.27143c0,0 -0.46418,0.68855 -1.09618,0.18282zM214.84658,255.75377c1.1324,-1.62178 2.30994,-3.20301 3.50411,-4.76931c-1.66865,-2.51335 -3.27036,-5.07668 -4.85178,-7.65408c-2.00713,3.33185 -4.349,6.57886 -6.65452,9.86125c1.485,2.70678 2.85474,5.36741 4.10165,7.81047c0.08008,0.15709 0.16088,0.31517 0.24231,0.47427c1.15718,-1.95215 2.36481,-3.86783 3.65822,-5.72262zM225.75023,241.18941c0.86189,-1.22078 2.0104,-2.61992 3.32089,-3.78238c-0.27544,-0.3452 -0.51352,-0.63248 -0.69434,-0.84033c-1.40123,-2.65026 -3.02253,-5.11791 -4.77956,-7.4728c-3.32342,4.04571 -6.77363,8.3539 -9.16634,12.63776c-0.00321,0.0057 -0.00643,0.01142 -0.00964,0.01714c1.62423,2.64957 3.26428,5.28885 4.96779,7.88144c2.14785,-2.78862 4.32255,-5.55334 6.3612,-8.44082zM209.57512,261.83192c-1.14081,-2.23948 -2.39279,-4.68392 -3.74785,-7.18438c-3.11735,4.49258 -6.06534,9.08399 -7.90376,14.079c-1.32114,2.21226 -2.57802,4.47268 -3.80288,6.7591c0.11061,0.18656 0.22129,0.3727 0.33205,0.55833c0.99748,1.67158 2.59409,2.51207 3.61263,4.36159c0.37925,0.68869 0.8057,1.33732 1.23584,1.97707c4.01992,-6.1797 7.26268,-12.88017 10.93226,-19.26886c-0.22475,-0.4355 -0.44482,-0.86319 -0.65829,-1.28185zM196.53232,267.93776c1.93548,-5.2853 5.11661,-10.12155 8.43156,-14.86459c-3.75363,-6.76025 -8.23819,-13.70011 -13.29616,-17.93579c-0.15811,-0.13309 -0.31575,-0.26684 -0.47296,-0.40123c-2.07586,3.23538 -3.95222,6.69494 -5.88319,9.94062c-2.0688,3.47731 -4.07947,6.96633 -6.08542,10.44667c0.05795,0.08715 0.1156,0.17445 0.17295,0.26192c1.7326,2.64278 3.66907,3.91765 5.61378,6.21512c3.15074,3.72223 5.66642,8.03389 8.12963,12.22609c1.10306,-1.99712 2.22889,-3.96562 3.38982,-5.88876zM226.03989,223.54316c0.55852,-0.69473 1.09486,-1.50553 1.65437,-2.27054c-1.65066,-2.76141 -3.59834,-5.34639 -5.15119,-8.15766c-1.81335,-3.28965 -4.06728,-6.28384 -6.55081,-9.09601c-0.02405,0.0283 -0.04806,0.0567 -0.07205,0.08516c-1.90158,2.2558 -3.88788,4.56465 -5.80327,6.924c4.42875,5.19233 9.3201,10.04457 13.54856,15.42996c0.81245,-0.99048 1.60944,-1.96343 2.3744,-2.91491zM209.07874,212.32181c-1.27875,1.61346 -2.5118,3.24996 -3.65049,4.90863c-1.17454,1.70624 -2.46342,3.28053 -3.79728,4.80317c0.23105,0.3117 0.46223,0.62507 0.69358,0.94014c4.02459,5.49385 7.56826,11.36305 11.14345,17.21671c2.48436,-4.22247 5.86624,-8.44375 9.1203,-12.41856c-4.20836,-5.39619 -9.06776,-10.25126 -13.50956,-15.4501zM201.0999,224.04117c-0.18974,-0.25842 -0.37936,-0.51563 -0.56885,-0.77169c-2.18329,2.42084 -4.43444,4.76429 -6.46207,7.36787c-0.67797,0.87055 -1.3289,1.77731 -1.95932,2.70903c0.17177,0.14705 0.34407,0.29334 0.51689,0.43883c5.0724,4.28934 9.56108,11.10784 13.35063,17.84493c2.30423,-3.27081 4.61844,-6.51425 6.57453,-9.84825c-3.67868,-6.02904 -7.29769,-12.09532 -11.45179,-17.74071zM183.8911,262.79455c-1.8837,-2.25193 -3.8495,-3.62125 -5.56387,-6.11195c-2.35816,4.08829 -4.72083,8.16035 -7.17489,12.18319c0.6124,0.77897 1.21882,1.56755 1.81869,2.36708c2.53226,3.93849 6.10249,7.63759 8.26262,11.76353c1.196,2.28444 2.28733,4.44461 3.64118,6.5241c2.44748,-4.6653 4.84863,-9.40589 7.35174,-14.02023c-2.6067,-4.28527 -5.07624,-8.80941 -8.33546,-12.70576zM163.69115,278.69581c1.12611,-2.90821 3.81326,-4.8002 4.5981,-8.20234c0.29993,-0.49763 0.59882,-0.99539 0.89683,-1.49323c-4.86451,-6.07366 -10.08335,-11.57948 -15.36358,-17.1627c-0.38303,0.54472 -0.77656,1.07959 -1.18206,1.60332c-1.6642,4.35276 -5.22288,8.13959 -7.35913,12.29098c0.97538,0.98692 1.95726,1.9664 2.95081,2.93317c4.48301,4.3672 9.41004,9.37825 13.49098,14.44915c0.75155,-1.49495 1.41432,-2.98833 1.96807,-4.41836zM183.99556,243.74732c1.95967,-3.29389 3.86542,-6.7997 5.97372,-10.07919c-5.67413,-5.03607 -10.82643,-10.84106 -16.40676,-16.04452c-1.79099,2.85856 -3.52442,5.68719 -5.28725,8.24842c-2.3655,3.43634 -4.33154,7.23173 -6.24261,11.07016c5.80494,5.10855 11.72006,10.50603 16.16253,16.69073c1.91268,-3.28833 3.83562,-6.58321 5.80037,-9.88562zM192.87314,229.53184c2.09043,-2.6842 4.42164,-5.08907 6.66841,-7.58982c-4.98756,-6.64187 -9.96346,-12.51165 -15.7699,-18.13974c-3.5,3.51556 -6.49708,7.95099 -9.31984,12.40868c5.59105,5.20802 10.75515,11.02205 16.43376,16.06739c0.63959,-0.94432 1.29992,-1.86355 1.98758,-2.74651zM204.17362,216.20524c1.20009,-1.73898 2.49794,-3.45444 3.84175,-5.1453c-0.18941,-0.22808 -0.37785,-0.45696 -0.56527,-0.68668c-4.14202,-5.07863 -9.42778,-9.52488 -14.84154,-13.67598c-1.44914,1.22863 -2.93168,2.39986 -4.47894,3.45533c-1.10401,0.74426 -2.15854,1.58809 -3.17081,2.51185c5.76002,5.59531 10.72144,11.44811 15.67894,18.03897c1.24125,-1.42763 2.43908,-2.90487 3.53587,-4.49816zM214.76627,202.94696c0.04158,-0.04932 0.08335,-0.09841 0.12529,-0.14726c-4.42578,-4.80034 -9.4524,-9.10075 -13.97169,-13.49742c-2.37316,2.03214 -4.67135,4.21727 -7.0354,6.29299c5.3764,4.14448 10.60878,8.58359 14.73778,13.64282c0.14391,0.17639 0.28847,0.35228 0.43365,0.52772c1.88667,-2.3214 3.83584,-4.59528 5.71037,-6.81884zM161.27664,238.46639c-2.04061,4.12332 -4.07035,8.24807 -6.51417,11.98435c5.25715,5.55986 10.45712,11.03782 15.31181,17.06099c2.44254,-4.10581 4.83119,-8.21962 7.22827,-12.34349c-4.34103,-6.20131 -10.22939,-11.60263 -16.02591,-16.70183zM151.29992,252.55403c0.47533,-0.62802 0.93468,-1.27029 1.38033,-1.92482c-0.88677,-0.9388 -1.77471,-1.88109 -2.66235,-2.82992c-3.9779,-4.26287 -9.6,-9.42762 -15.02381,-13.33643c-0.90182,0.90188 -1.31357,1.3451 -1.88816,3.5173c-1.80146,3.03181 -3.79236,7.567 -5.06737,11.88853c2.10429,0.22103 3.75644,2.32552 5.43933,3.93009c3.65685,3.48667 7.12499,7.1593 10.65192,10.76204c2.20632,-4.03584 5.52006,-7.73804 7.17011,-12.00682zM167.02059,224.84684c1.79428,-2.60619 3.5508,-5.4477 5.35961,-8.3101c-1.49069,-1.34996 -3.01589,-2.65126 -4.59306,-3.87865c-4.58749,-3.57014 -9.32388,-6.73585 -14.20957,-9.64278c-1.74202,2.71326 -3.39971,5.45414 -5.04568,8.05478c-1.79447,2.81852 -3.3885,5.64998 -4.99832,8.49554c4.26907,3.33269 8.07601,8.09726 12.11655,11.74139c1.65922,1.49664 3.38232,3.00259 5.12583,4.53154c1.91144,-3.8041 3.8843,-7.56286 6.24467,-10.99175zM187.29843,198.7036c1.37127,-0.93203 2.69098,-1.95085 3.9808,-3.01836c-2.75294,-2.08206 -5.51748,-4.09526 -8.16107,-6.08365c-3.46356,-2.60565 -7.09722,-4.77236 -10.76469,-6.92764c-1.42061,1.24777 -2.79423,2.52414 -4.10631,3.81568c-0.751,0.48778 -1.47973,1.01245 -2.18805,1.56973c5.19995,3.14329 10.21567,7.57474 14.67821,10.68071c1.04469,0.92966 2.06123,1.86345 3.05344,2.80369c1.11492,-1.04278 2.28085,-1.99738 3.50766,-2.84018zM182.67235,174.71581c-3.0689,2.0599 -6.08474,4.34918 -8.93667,6.76575c3.51144,2.07754 6.97426,4.23188 10.27358,6.71398c2.77563,2.08854 5.67912,4.20398 8.56369,6.39615c2.42959,-2.09308 4.77681,-4.31683 7.19267,-6.40569c-5.30273,-5.00362 -11.47775,-8.86765 -17.09326,-13.47018zM179.81767,200.12418c-4.55988,-3.15951 -9.75514,-7.83641 -15.10819,-10.94343c-3.92227,3.43357 -7.21072,7.85042 -10.22022,12.43031c4.88453,2.91385 9.62157,6.08618 14.20947,9.6566c1.57041,1.22215 3.08975,2.51761 4.57512,3.86152c2.8396,-4.44725 5.84082,-8.86003 9.34074,-12.43473c-0.91034,-0.86099 -1.84161,-1.7171 -2.79692,-2.57025zM154.65007,232.62325c-3.98071,-3.59049 -7.74176,-8.30351 -11.94242,-11.60076c-1.44169,2.53436 -2.92499,5.08003 -4.60187,7.63784c-0.7432,1.13367 -1.30366,3.42095 -2.04291,4.61065c5.42307,3.94683 10.96063,8.9444 15.05334,13.30857c0.82957,0.88673 1.65937,1.76784 2.4883,2.64575c2.37955,-3.73421 4.38487,-7.80433 6.41068,-11.86591c-1.82677,-1.60007 -3.63243,-3.17354 -5.3651,-4.73617z" fill="#000000" stroke="none" stroke-width="0.5"/></g><path d="M196.29263,154.03127v-20h176v20z" fill="#9e9e9e" stroke="#9e9e9e" stroke-width="0.5" stroke-linecap="butt"/></g></g></svg>