<svg version="1.1" xmlns="http://www.w3.org/2000/svg" xmlns:xlink="http://www.w3.org/1999/xlink" width="204.66667" height="16.66667" viewBox="0,0,204.66667,16.66667"><g transform="translate(-134.09754,-111.64584)"><g data-paper-data="{&quot;isPaintingLayer&quot;:true}" fill="#000000" fill-rule="nonzero" stroke="none" stroke-width="0" stroke-linecap="butt" stroke-linejoin="miter" stroke-miterlimit="10" stroke-dasharray="" stroke-dashoffset="0" style="mix-blend-mode: normal"><path d="M260.01433,128.31251c-0.00007,-0.38889 -0.00012,-0.77778 -0.00012,-1.16667c0,-3.5 0,-7 0,-10.5c0,-1.66666 0,-3.33334 0,-5l48.13767,0c0.17815,1.05594 0.34157,2.11562 0.52398,3.171c0.59925,3.46707 1.13622,6.84714 1.14964,10.37221c0.00397,1.04316 0.00522,2.08387 0.00012,3.12346z"/><path d="M338.76422,111.64584v16.66667h-28.4386c0.00509,-1.04024 0.00386,-2.08158 -0.00012,-3.12536c-0.01353,-3.5532 -0.55293,-6.96085 -1.15694,-10.45546c-0.17754,-1.02721 -0.33757,-2.05819 -0.51044,-3.08585z"/><path d="M221.77858,128.31251c-0.45828,-2.64842 -0.84834,-5.29558 -1.18899,-7.97279c-0.36873,-2.89796 -0.73747,-5.79592 -1.1062,-8.69388h40.03081c0,1.66666 0,3.33334 0,5c0,3.5 0,7 0,10.5c0,0.38889 -0.00005,0.77778 -0.00013,1.16667z"/><path d="M180.73149,111.64584c0.18625,1.30907 0.32236,2.61841 0.37043,3.89988c0.13181,3.51363 0.71912,6.91781 0.74143,10.43908c0.00504,0.79443 0.07845,1.56748 0.18335,2.32771h-27.47128c-0.08078,-0.6085 -0.16862,-1.21755 -0.26741,-1.82602c-0.56215,-3.46214 -0.98923,-6.91752 -1.63184,-10.37155c-0.27715,-1.4897 -0.55431,-2.97941 -0.83146,-4.46911z"/><path d="M134.09755,128.31251v-16.66667l17.21858,0c0.28283,1.52019 0.56565,3.04038 0.84848,4.56056c0.64193,3.45037 1.06831,6.90173 1.62987,10.36023c0.09453,0.58218 0.17674,1.16441 0.25125,1.74588z"/><path d="M218.97937,111.64584c0.37141,2.91899 0.74282,5.83799 1.11423,8.75699c0.33792,2.65581 0.72439,5.28235 1.17758,7.90968h-38.74348c-0.10544,-0.76013 -0.17931,-1.53382 -0.18436,-2.33088c-0.02235,-3.52681 -0.60978,-6.93623 -0.74177,-10.45466c-0.04785,-1.27558 -0.18178,-2.57834 -0.36538,-3.88113z"/></g></g></svg>