<svg version="1.1" xmlns="http://www.w3.org/2000/svg" xmlns:xlink="http://www.w3.org/1999/xlink" width="414.24828" height="280.30552" viewBox="0,0,414.24828,280.30552"><g transform="translate(-29.32819,-69.05214)"><g data-paper-data="{&quot;isPaintingLayer&quot;:true}" fill-rule="nonzero" stroke-linejoin="miter" stroke-miterlimit="10" stroke-dasharray="" stroke-dashoffset="0" style="mix-blend-mode: normal"><path d="" fill="#444444" stroke="none" stroke-width="0.5" stroke-linecap="butt"/><path d="" fill="#c3c3c3" stroke="none" stroke-width="0" stroke-linecap="butt"/><path d="" fill="#9e9e9e" stroke="none" stroke-width="0" stroke-linecap="butt"/><g><path d="M382.29565,72.61834c-0.29656,-0.17392 -0.56816,-0.49249 -0.56816,-1.07598c0,-1.28511 1.3174,-1.28511 1.3174,-1.28511c4.21901,0.06245 6.80638,3.06121 10.29573,4.8711c2.29733,1.1916 5.41295,2.20283 8.15183,3.55055c0.10921,-0.3786 0.29168,-0.6923 0.56582,-0.91244c1.76865,-1.42021 3.66678,1.47942 4.63222,2.18708c1.76292,1.29221 4.15115,2.08879 5.80709,3.50981c1.57239,1.34934 2.20648,3.83765 3.05742,5.75248c0.70778,0.764 1.32711,1.47263 1.8028,1.98943c7.20385,7.82651 11.86377,17.99899 15.72436,27.64298c-0.02339,2.51358 1.31246,5.97888 1.76329,8.60454c0.15086,0.87865 1.36881,2.65131 0.71731,3.42109c-2.05761,2.43115 -6.91328,0.83463 -9.08913,0.12166c-1.51837,-0.49753 -2.7826,-0.07991 -4.1581,-0.95728c-3.91156,-2.495 -5.66136,-8.04334 -9.02381,-11.32339c-4.87239,-4.76009 -11.62851,-9.0846 -15.16046,-14.86684c-1.21835,-1.99459 -2.00906,-5.08902 -3.47219,-7.21303c-1.84742,-2.68188 -4.69088,-5.39193 -5.70872,-8.56737c-3.78561,-3.69282 -6.78373,-10.14974 -6.78373,-15.24014z" fill="#9e9e9e" stroke="none" stroke-width="0.5" stroke-linecap="butt"/><path d="M410.78659,115.56191c-0.19646,-0.20126 -0.38931,-0.40891 -0.57858,-0.62231c0.10244,0.15929 0.20568,0.31818 0.30977,0.47663c0.09184,0.04929 0.18199,0.09887 0.27028,0.14848c-0.00049,-0.00094 -0.00098,-0.00186 -0.00147,-0.0028zM403.78876,102.89862c-0.01242,-0.03587 -0.02478,-0.07165 -0.03707,-0.10736l-0.42941,-1.25664c-0.05005,-0.13581 -0.07733,-0.28222 -0.07733,-0.43484c0,-0.70975 0.58982,-1.28511 1.3174,-1.28511c0.54769,0 1.01732,0.32603 1.21607,0.78998l1.05788,2.32188l-0.20511,0.08893c0.00122,0.00311 0.00244,0.00621 0.00367,0.00933c2.21564,2.9919 4.25802,6.47249 6.02389,9.98499c0.47504,0.68205 0.95014,1.37861 1.43056,2.08992l-0.00318,0.18084l0.06953,-0.02261l0.42941,1.25664c0.05005,0.13581 0.07733,0.28222 0.07733,0.43484c0,0.08778 -0.00902,0.17351 -0.02621,0.25634c0.29301,0.66428 0.57434,1.32302 0.84326,1.97301c2.30688,2.17844 4.34864,4.5488 6.86744,6.4839c0.41641,1.45133 2.09305,2.97812 1.38141,4.31582c-0.47262,0.8884 -3.11656,0.91446 -5.33473,0.82015l0.03329,0.05412l-0.67824,0.39698c0.12548,0.42227 0.24472,0.84841 0.35933,1.27714l-1.24672,-0.58763l-0.49556,0.48341l-1.3174,-1.28511l0.03652,-0.03562l-0.12378,-0.05834c-0.0877,-0.12773 -0.17357,-0.25647 -0.25772,-0.38615c-7.72089,0.00122 -14.84267,-0.10238 -19.62385,-7.06583c-2.39506,-4.67272 -7.42938,-8.89323 -8.90408,-13.98041c-1.47588,-5.09125 0.08144,-13.3549 1.71701,-18.14135c-0.01017,-0.64529 -0.01509,-1.29066 -0.01654,-1.93602c-0.00016,0.00001 -0.00031,0.00002 -0.00047,0.00004c0,0 -1.3174,0 -1.3174,-1.28511c0,-1.28511 1.3174,-1.28511 1.3174,-1.28511c0.26748,0.01017 0.53043,0.03915 0.78897,0.08518c0.14704,-0.05347 0.32148,-0.08518 0.52843,-0.08518c0.65255,0 0.98187,0.31531 1.14807,0.63356c2.78416,1.3238 5.01779,4.42588 6.9283,6.57772c2.24578,2.52947 4.06156,5.26595 5.71544,8.07891c0.27329,0.2127 0.54124,0.42763 0.80422,0.64482z" fill="#707070" stroke="none" stroke-width="0.5" stroke-linecap="butt"/><path d="M84.87429,75.39767c0,0.65238 -0.33949,0.97358 -0.6738,1.13172c-0.04666,0.21245 -0.08994,0.42339 -0.13008,0.63309c0.02875,-0.00895 0.04524,-0.01297 0.04524,-0.01297c4.79719,-1.14504 10.31519,-0.46674 15.25,-0.46674c9.73806,0 19.53395,0.33893 29.24476,-0.38455c17.9129,-2.99357 35.1771,-3.47077 53.31205,-3.47077c16.39426,0 32.78852,0 49.18278,0c17.51374,0 35.12062,-0.85673 52.69583,-0.85673c15.516,0 31.03199,0 46.54799,0c14.63773,0 29.27546,0 43.9132,0c8.16213,0 12.7716,5.055 15.19999,11.48548c-2.46517,1.02069 -2.46517,3.93578 -2.46517,3.93578c0,6.39556 1.26748,14.05615 0.0567,20.30387c-0.49233,2.54048 -1.43184,5.2766 -2.45877,7.97025l-1.47567,0.01298c-17.8609,1.46496 -36.11774,0.76665 -54.14694,0.50063c-1.44234,-2.95837 -4.95798,-2.101 -4.95798,-2.101l-2.88496,0.75009c-5.21515,0.50874 -10.33119,1.13457 -15.45227,1.72119c-1.04298,-0.14727 -2.08683,-0.28812 -3.13176,-0.42059c-0.09241,0.29049 -0.20719,0.56358 -0.34273,0.81055c-1.27339,0.13927 -2.54853,0.27394 -3.82704,0.40162c-0.88307,0.01886 -1.767,0.03157 -2.65211,0.03514c-26.06937,-0.01714 -52.12316,-0.22876 -78.14335,0.84001c-1.24185,-0.83898 -2.72283,-0.83898 -2.72283,-0.83898h-2.19566c-8.65467,0 -17.72424,0.60424 -26.41718,2.14184c-14.9074,0 -29.81479,0 -44.72219,0c-15.85662,0 -31.6637,0.85673 -47.42625,0.85673c-1.50856,0 -3.80193,0.37904 -5.21222,-0.05514c-0.17848,-0.05495 -0.35167,-0.12017 -0.51976,-0.19484c1.38163,8.48703 2.28104,16.91553 2.28104,25.78609c0,11.42139 1.32997,23.80846 -1.44456,34.92385c-0.21,0.7935 -0.39655,1.57514 -0.56703,2.34707c0.41452,0.27592 0.55568,0.75785 0.55568,0.75785c0.86742,3.01451 0.69939,6.64133 -0.18148,9.94708c0.30348,2.88074 -0.21414,6.31974 -1.03932,7.56275c-1.61923,2.43911 -3.13695,2.35193 -4.09609,1.17159c-0.20136,0.09619 -0.45093,0.1556 -0.734,0.09942c-0.43067,1.21846 -0.88395,2.53445 -1.5656,3.28071c-3.59724,3.93813 -11.84748,3.42555 -11.00776,-2.71056c2.80686,-3.3571 6.75396,-5.47196 9.23163,-9.08184c0.17213,-0.25079 0.33364,-0.51324 0.48504,-0.78642v-0.56232c0,-7.61318 -1.09791,-16.31061 0.25824,-23.98863h-0.25824v-2.39886c0,-0.46902 0.25758,-0.87938 0.64228,-1.10377c-0.42505,-2.15612 -1.06983,-4.22572 -2.01227,-6.14025c-0.07093,-5.1765 -1.20204,-11.1005 -2.13034,-16.22366c-1.08944,-6.01249 -0.01273,-13.24135 -0.01273,-19.36914c0,-0.29946 -0.00701,-0.59879 -0.0205,-0.898c-0.23808,-1.43042 -0.54769,-2.84308 -0.98088,-4.22582c-1.2225,-3.90221 -3.68881,-8.82738 -3.3718,-13.06688c-0.05554,-0.23543 -0.10849,-0.47042 -0.15856,-0.70495c-1.00028,-4.68557 -4.5286,-9.00577 -4.60221,-14.00305c0,-4.00984 -0.35131,-7.96615 -0.35131,-11.99431v-0.3427c0,0 0,-1.28511 1.3174,-1.28511c1.3174,0 1.3174,1.28511 1.3174,1.28511v0.3427c0,0.60522 0.00792,1.20874 0.02139,1.81097c2.60965,0.05662 5.44219,0.2751 7.94364,-0.28222c0.75426,-0.16805 1.45402,-0.9553 2.19464,-0.73702c0.38614,0.1138 0.71056,0.24281 0.98373,0.38577c0.12202,-1.58648 0.35054,-3.1632 0.77819,-4.83581l1.71719,-0.97342c0,0 1.3174,0 1.3174,1.28511zM239.86797,107.13993c-13.47083,-2.33235 -27.22239,-1.92155 -40.88977,-1.78799c5.04084,0.92342 10.11983,1.74487 15.45781,1.7451c8.40324,0.22117 16.91823,0.07595 25.43196,0.04289zM300.23839,113.2596c-0.06771,-0.15784 -0.18721,-0.27106 -0.37194,-0.31757c-4.00015,-1.00728 -8.38393,-1.35942 -12.85534,-1.51121c2.50882,0.43418 5.01116,0.8713 7.50529,1.30687c1.91255,0.13193 3.8194,0.30994 5.72199,0.52191z" fill="#9e9e9e" stroke="none" stroke-width="0.5" stroke-linecap="butt"/><path d="M34.17276,84.99848h0.69235l0.48394,-0.65169c0,0 0.93154,-0.90871 1.86308,0c0.1367,0.13335 0.23328,0.2667 0.29857,0.39718c0.06919,-0.0159 0.13817,-0.03251 0.2069,-0.04982c0,0 0.82969,-0.20235 1.31921,0.37114c0.16521,-0.05081 0.28626,-0.06154 0.28626,-0.06154c4.22013,-0.37303 8.72263,-0.67632 12.88807,-1.3576c5.24323,-0.85757 10.70497,-3.06576 14.97189,-1.96835l0.57038,3.20744c-0.02697,1.17795 0.0272,2.2701 0.14469,3.11182c0.56008,4.01235 2.68915,10.468 5.39113,16.06447c0.67399,8.01811 2.90028,18.41836 6.0449,27.76193c0.04722,2.09783 0.06923,4.22159 0.06923,6.37837c0,14.42664 0.70261,29.12164 0.70261,43.69357c0,4.4779 1.10972,10.40394 -0.03524,14.68843c-1.73031,6.47489 -11.64868,12.5992 -17.62013,7.51452c-2.93321,-2.49763 -4.45726,-6.4555 -6.56727,-9.53861c-4.34878,-5.47913 -7.50578,-11.37838 -9.91228,-17.68217c0.28291,-5.76726 -0.79996,-14.37845 -2.70795,-21.55551c0.95841,-8.66474 -4.79469,-23.40318 -4.47366,-30.18713c0.41308,-8.72902 -3.20694,-17.31281 -3.91406,-25.86799c-0.2804,-3.39246 -0.21186,-6.54789 -0.86341,-9.62213c0.0461,-0.70282 0.11303,-1.39621 0.20623,-2.07613h-0.04543c0,0 -0.44091,0 -0.81259,-0.24882c-0.14603,-0.40942 -0.30999,-0.81809 -0.49451,-1.22639c0.12305,-1.095 1.30709,-1.095 1.30709,-1.095z" fill="#707070" stroke="none" stroke-width="0.5" stroke-linecap="butt"/><path d="M98.81299,138.71586v206.98759h-17.0706c-8.5765,-4.84824 -21.76174,-6.40064 -29.59627,-8.87187c-4.36142,-1.37571 -9.32467,-2.77195 -14.16387,-2.77736c-0.09862,-0.00159 -0.19742,-0.00239 -0.29643,-0.00239c-0.27168,0 -0.54192,0.00602 -0.81059,0.01792c-1.8543,-0.87847 -3.68806,-1.8005 -5.51291,-2.73924v-175.23913c3.40473,-0.1459 7.45266,-2.0075 11.39215,-3.81437c0.20651,1.53427 0.6211,3.00462 1.21523,4.38323c0.21178,0.87923 0.36247,1.6649 0.39092,2.3112c0.57932,13.15614 3.25267,21.95546 9.50296,31.60457c1.85077,8.81549 6.55454,15.83384 17.26824,18.15632c8.96837,1.94412 18.95396,-9.93122 19.95243,-17.58418c0.1788,-1.3704 -1.94237,-2.22631 -2.10783,-3.5983c-0.17991,-1.49177 -0.25422,-2.99034 -0.26891,-4.49235c0.15378,-0.57523 0.22593,-1.12487 0.13315,-1.59331c-0.02056,-0.10381 -0.04837,-0.2049 -0.08246,-0.30365c0.3839,-1.7538 0.51602,-3.51141 0.92082,-5.09096v-20.21899c1.27055,-4.95764 1.78562,-11.3517 0.62218,-17.13474z" fill="#707070" stroke="none" stroke-width="0" stroke-linecap="butt"/><path d="M403.39491,334.05181v-201.16178h39.34622v201.16178z" fill="#9e9e9e" stroke="none" stroke-width="0" stroke-linecap="butt"/><path d="M209.07478,132.48002c41.97279,-0.14088 83.94663,-0.46818 125.91763,-0.1611c10.71986,0.07843 29.206,5.16309 42.35178,3.69855c-0.00351,0.01841 -0.00699,0.03681 -0.01043,0.05522c-0.18837,1.00547 -0.28675,2.04159 -0.28675,3.10012c-0.16636,0.84195 0.28839,4.10312 0.94376,7.88095c-56.77231,-0.27337 -113.54733,-0.18773 -170.31851,0.21512c0.03012,-0.41024 0.04546,-0.82447 0.04546,-1.2422c0,-2.86969 -0.72318,-5.5746 -2.00146,-7.95079c1.45363,-1.53509 2.57161,-3.46936 3.35852,-5.59589z" fill="#444444" stroke="none" stroke-width="0.5" stroke-linecap="butt"/><path d="M79.09634,168.21872c0,-15.92613 -1.67518,-32.35319 -5.16778,-47.90666c-0.13079,-2.27273 -0.56146,-4.43686 -1.13816,-6.54734c0.86233,-0.55756 1.67127,-1.1874 2.41776,-1.88067c0.66922,2.63543 1.17445,5.31184 1.33073,8.07853c3.56373,15.62567 5.19224,32.24754 5.19224,48.25614c0,1.66449 -0.01555,3.31735 -0.05846,4.95571c-0.81232,-0.61637 -1.68159,-1.16467 -2.59882,-1.63611c0.01635,-1.10072 0.02248,-2.20759 0.02248,-3.3196z" fill="#000000" stroke="none" stroke-width="0.5" stroke-linecap="butt"/><path d="M85.91033,120.48177l300.9441,-7.80248" fill="none" stroke="#000000" stroke-width="1.5" stroke-linecap="round"/><path d="M94.13942,84.12459l44.41753,-0.45609" fill="none" stroke="#000000" stroke-width="1.5" stroke-linecap="round"/><path d="M94.60697,91.87815h31.32604" fill="none" stroke="#000000" stroke-width="1.5" stroke-linecap="round"/><path d="M113.30909,98.71954h-15.42925" fill="none" stroke="#000000" stroke-width="1.5" stroke-linecap="round"/><path d="M61.87827,79.10755l1.61892,2.97267" fill="none" stroke="#000000" stroke-width="1.5" stroke-linecap="round"/><path d="M211.23079,147.39746l-4.21567,-8.22467l0.00964,-3.91505l170.65678,-1.36828l-2.07532,11.54467l-162.70838,2.28046l-11.68881,-16.87542l-102.86164,0.91219l304.06213,0.3248" fill="none" stroke="#000000" stroke-width="1.5" stroke-linecap="round"/><path d="M226.66196,135.71385l-0.46755,11.85841" fill="none" stroke="#000000" stroke-width="1.5" stroke-linecap="round"/><path d="M266.40396,133.88949l-0.46755,13.22667" fill="none" stroke="#000000" stroke-width="1.5" stroke-linecap="round"/><path d="M301.47041,134.80166l-0.93511,10.03403" fill="none" stroke="#000000" stroke-width="1.5" stroke-linecap="round"/><path d="M337.47199,145.29181l0.46755,-11.40232" fill="none" stroke="#000000" stroke-width="1.5" stroke-linecap="round"/><path d="M357.57677,144.83569l1.40266,-10.94623" fill="none" stroke="#000000" stroke-width="1.5" stroke-linecap="round"/><path d="M75.31662,120.52022l-6.75903,-39.30652" fill="none" stroke="#000000" stroke-width="1.5" stroke-linecap="round"/><path d="M97.9067,107.07992l243.06482,-3.80386" fill="none" stroke="#000000" stroke-width="1.5" stroke-linecap="round"/><path d="M382.23707,101.75451l-33.53514,0.76078" fill="none" stroke="#000000" stroke-width="1.5" stroke-linecap="round"/><path d="M373.39836,69.80214l18.45733,3.29667l14.82441,6.86496l7.23718,8.86228l19.76196,29.0674" fill="none" stroke="#000000" stroke-width="1.5" stroke-linecap="round"/><path d="M433.16452,117.16283l0.52713,0.77131l1.36996,3.50886l2.87478,9.21418l-12.73483,2.14184" fill="none" stroke="#000000" stroke-width="1.5" stroke-linecap="round"/><path d="M386.92845,81.20682l17.41791,20.15206l15.18813,22.491l5.66706,6.8073h-25.46965l-1.33476,-4.70003l-13.38014,-18.02444" fill="none" stroke="#000000" stroke-width="1.5" stroke-linecap="round"/><path d="M412.94871,334.83718l-314.41848,13.13664l-0.58552,-30.27137" fill="none" stroke="#9e9e9e" stroke-width="2.5" stroke-linecap="round"/><path d="M415.29074,334.97681l-26.90488,2.54091l-291.03539,8.27702c0.27455,-4.39745 -0.11293,-9.04666 0.00873,-11.70396c0.2727,-5.95596 2.21242,-12.00864 2.53481,-18.07079l241.40231,-183.77616c29.09221,0.66582 45.46208,0.35274 62.74813,-0.22369z" fill="#9e9e9e" stroke="none" stroke-width="0" stroke-linecap="butt"/><path d="M113.84457,314.43754l-3.3319,9.00577l-14.05484,-0.76572c0.37344,-26.0259 0.26274,-52.0614 -0.26964,-78.08336c0,-0.50542 -0.02243,-1.00574 -0.06638,-1.50006c-0.16137,-2.29452 -0.58575,-4.05098 -1.26185,-5.45748c-0.01158,-0.52967 -0.03276,-1.05464 -0.06455,-1.57403c2.32037,-35.06347 5.08111,-67.463 4.50804,-105.05457c62.6851,0.49353 125.37651,-0.35634 188.06355,-0.07424c27.25811,0.12265 36.31781,1.37568 77.71374,1.14482c-0.67928,2.92927 -1.35718,5.87115 -1.64731,8.83174z" fill="#9e9e9e" stroke="none" stroke-width="0" stroke-linecap="butt"/><path d="M89.16207,148.06859l-2.2809,-12.77393l11.93378,-3.87795l-2.80532,216.97032l-53.80731,-14.21866l-10.71498,-4.09545l0.55116,-11.41089l-1.95382,-164.91102l15.18738,-4.93523" fill="none" stroke="#000000" stroke-width="1.5" stroke-linecap="round"/><path d="M82.7515,75.23126c0.26109,0 0.44454,0.0757 0.57347,0.1821c0.13105,0.10391 0.24128,0.26578 0.2896,0.51604c0.02132,0.11042 0.025,0.20906 0.0153,0.29715c0.01728,9.6431 1.83151,18.97929 2.8041,28.5526c0.00703,11.3011 3.34158,22.47306 3.26465,33.66912c3.33897,10.63589 1.41197,23.68296 1.41197,34.78744c0,11.18982 1.81182,22.88106 -3.43865,32.88353c-4.29034,4.10276 -18.62492,3.01546 -23.87708,1.23121c-3.004,-1.0205 -5.59686,-5.12035 -7.53789,-7.40707c-7.19678,-8.48452 -9.30087,-21.36362 -10.82938,-31.98393c-0.8161,-2.37153 -1.67513,-4.90042 -1.88943,-7.4099c-0.16478,-1.92953 0.80999,-5.41365 0.04079,-7.11098c-0.8572,-1.89159 -1.43744,-4.07228 -1.85925,-6.35325c0.59662,-0.16273 1.18543,-0.36508 1.76577,-0.60126c0.42591,2.26754 0.98554,4.45516 1.75988,6.41266c0.81201,2.05271 -0.14418,5.26688 0.04079,7.48399c0.20291,2.43227 1.07008,4.88495 1.85099,7.18507c1.53991,10.35389 3.4407,22.99832 10.47302,31.28513c1.5917,1.87701 4.18387,6.09292 6.69372,6.8596c4.03262,1.23185 8.59062,0.87543 12.83697,0.87543c2.78512,0 6.98959,0.66924 9.10612,-1.46857c1.02202,-2.05727 2.68336,-3.83859 3.12163,-6.1505c1.50733,-7.95115 -0.01453,-17.63123 -0.01453,-25.73114c0,-11.09687 1.82429,-23.8851 -1.39335,-34.53862c-0.0655,-11.2826 -3.28852,-22.4515 -3.28109,-33.83258c-0.91884,-8.87761 -2.52362,-17.55549 -2.77335,-26.46022c0.12283,-0.50882 0.23711,-1.03432 0.34256,-1.57722c0.10183,-0.52427 0.17544,-1.04506 0.22197,-1.5615c0.08184,-0.02186 0.17488,-0.03431 0.28066,-0.03431z" fill="#000000" stroke="#000000" stroke-width="0.5" stroke-linecap="butt"/><path d="M66.85827,208.8075c-0.93154,-0.90871 0,-1.81741 0,-1.81741l0.46755,-0.45609c0.90858,-0.88631 1.74766,-1.79407 2.5225,-2.72198c0.34702,0.01995 0.69678,0.03005 1.04893,0.03005c0.80221,0 1.59185,-0.05246 2.36553,-0.15406c-1.18687,1.60837 -2.53748,3.16465 -4.0739,4.6634l-0.46755,0.45609c0,0 -0.93154,0.90871 -1.86308,0z" fill="#000000" stroke="none" stroke-width="0.5" stroke-linecap="butt"/><path d="M434.92414,234.26783c0,40.15729 -22.38115,72.7112 -49.98971,72.7112c-27.60856,0 -49.98969,-32.55391 -49.98969,-72.7112c0,-40.15729 22.38113,-72.71121 49.98969,-72.71121c27.60856,0 49.98971,32.55391 49.98971,72.71121z" fill="#444444" stroke="#000000" stroke-width="1.5" stroke-linecap="butt"/><path d="M430.46645,236.44482c0,35.5885 -19.6726,64.43866 -43.93998,64.43866c-24.26738,0 -43.94,-28.85016 -43.94,-64.43866c0,-35.5885 19.6726,-64.43866 43.94,-64.43866c24.26738,0 43.93998,28.85016 43.93998,64.43868z" fill="#444444" stroke="#000000" stroke-width="1.5" stroke-linecap="butt"/><path d="M397.7341,282.76214c-0.45085,-0.4528 -0.11971,-1.06931 -0.11971,-1.06931l0.13055,-0.24304c0.42849,-0.79098 0.77883,-1.66841 1.05116,-2.5796c0.18716,-0.33204 0.37177,-0.66625 0.55401,-1.00245c-0.4072,-0.74043 -0.8281,-1.47435 -1.16897,-2.25123c-0.71059,-1.61947 -1.71595,-2.26243 -2.48113,-3.71212c-1.7394,4.14095 -3.40863,8.35718 -5.19509,12.48744c0.25891,0.43919 0.53246,0.87478 0.82429,1.30731l0.2822,0.38502c0,0 0.39555,0.54088 0,1.08179c-0.39555,0.54089 -0.7911,0 -0.7911,0l-0.31338,-0.42941c-0.2125,-0.31497 -0.41596,-0.63146 -0.61164,-0.94971c-0.5059,1.14503 -1.02253,2.28197 -1.55397,3.40732c-1.12263,0.89981 -1.82635,5.06975 -2.58108,7.13898l0.05905,0.06514c0,0 0,0.76493 -0.5594,0.76493c-0.5594,0 -0.55938,-0.76493 -0.55938,-0.76493l0.05905,-0.74932c0.83147,-2.26782 1.49591,-6.23598 2.7793,-7.52082c0.53277,-1.21649 1.05876,-2.44555 1.58075,-3.68242c-1.13061,-2.07553 -2.00992,-4.23646 -2.95961,-6.54197c-1.49375,-3.62634 -4.04295,-6.9029 -5.813,-10.36326c-0.34755,-0.5803 -0.69817,-1.15413 -1.05163,-1.72213c-0.12406,0.25202 -0.24848,0.50379 -0.37328,0.75532c-0.53546,2.94481 -2.62221,4.83723 -3.27137,7.31596c-0.38482,1.46932 -0.93834,3.08112 -1.60171,4.69511c0.20989,0.34261 0.41582,0.68523 0.61744,1.02766c1.18748,2.01681 1.67998,3.78131 3.29525,5.32673l0.38392,1.44408c0,0 0.1769,0.72568 -0.35378,0.96757c-0.53068,0.24189 -0.70758,-0.48378 -0.70758,-0.48378l-0.21166,-0.99923c-1.62923,-1.39624 -2.12083,-3.30255 -3.25632,-5.26091c-0.12097,-0.20865 -0.24375,-0.41738 -0.36822,-0.62621c-1.03175,2.29174 -2.25317,4.50512 -3.49249,6.2306l-0.5688,1.55556c-0.08969,0.25874 -0.28245,0.43767 -0.50576,0.43767c-0.30894,0 -0.5594,-0.34247 -0.5594,-0.76493c0,-0.09083 0.01159,-0.178 0.03285,-0.25884l0.29367,-1.20471l0.05198,0.02369l0.00285,-0.18394c1.45957,-2.04993 2.80496,-4.57418 3.92988,-7.16597c-2.90965,-4.62965 -6.54675,-9.22886 -9.78785,-13.19159c-0.63291,-0.77469 -1.25925,-1.55799 -1.88161,-2.34666c-0.05308,0.16432 -0.10369,0.32947 -0.15171,0.49547c-1.01415,3.50686 -2.02496,7.22153 -2.75852,10.84703c2.15545,3.05721 4.25998,6.1804 6.45861,9.18687c1.14445,1.56495 2.92214,3.18295 3.79807,5.07133c0.10775,0.01062 0.53495,0.09492 0.53495,0.76339c0,0.76493 -0.5594,0.76493 -0.5594,0.76493l-0.79813,-0.42284c-0.63253,-1.83823 -2.68678,-3.61848 -3.76659,-5.09503c-1.98354,-2.71235 -3.89053,-5.51976 -5.8274,-8.28799l-0.38294,1.83273c-0.06276,0.32857 -0.28131,0.57103 -0.54127,0.57103c-0.30894,0 -0.55938,-0.34247 -0.55938,-0.76493c0,-0.02333 0.00076,-0.04643 0.00225,-0.06922l0.07253,-1.24686l0.01465,0.00159l-0.01005,-0.05603c0.09884,-0.59789 0.20615,-1.20045 0.32099,-1.80619c-0.47251,-0.66555 -0.94788,-1.32733 -1.42771,-1.98345c0,0 -0.39555,-0.54088 0,-1.08177c0.39555,-0.54089 0.79109,0 0.79109,0c0.32822,0.44881 0.65436,0.90028 0.97893,1.35378c0.7145,-3.40161 1.63714,-6.8586 2.61096,-10.11265c0.10567,-0.3531 0.22203,-0.70208 0.34741,-1.04755c-2.57839,-3.30099 -5.10902,-6.66851 -7.78205,-9.86635c-0.87133,-1.04241 -2.25786,-3.35827 -3.46401,-3.20858c-0.27319,1.34778 -0.47168,2.64685 -0.56655,3.82839l-0.34136,1.1532c0,0 -0.21307,0.70727 -0.73029,0.41593c-0.51723,-0.29134 -0.30416,-0.99863 -0.30416,-0.99863l0.2916,-0.94789c0.09229,-1.1844 0.29316,-2.50724 0.572,-3.8888c-0.06345,-0.34321 0.03657,-0.56931 0.14853,-0.70792c0.90646,-4.16619 2.45831,-8.73303 3.84799,-11.5957c0.36044,-1.75691 0.70035,-2.55865 1.35441,-3.40388c-1.12203,-0.96225 -2.2221,-1.81375 -3.26728,-2.50611c0,0 -0.50033,-0.34209 -0.25016,-1.02626c0.25016,-0.68417 0.75049,-0.34207 0.75049,-0.34207c1.16131,0.81306 2.37674,1.78472 3.60973,2.86537c0.39237,-0.71255 1.08339,-3.43176 1.47682,-4.18495c1.18843,-2.27515 2.24395,-4.5434 3.26995,-6.8035c-1.96742,-1.6826 -3.97348,-2.51503 -5.72646,-4.90448c0,0 -0.39555,-0.54088 0,-1.08177c0.39555,-0.54089 0.7911,0 0.7911,0c1.68665,2.31445 3.62092,3.08056 5.52314,4.68679c1.15253,-2.5539 2.29271,-5.09702 3.57041,-7.62756c1.15616,-2.27726 2.31814,-4.68073 3.53457,-7.06851c-0.67238,-0.4911 -1.34868,-0.97414 -2.0289,-1.45001c-1.48869,-1.04147 -2.10144,-1.90323 -3.84762,-1.89476c0,0 -0.55938,0 -0.55938,-0.76493c0,-0.76493 0.55938,-0.76493 0.55938,-0.76493c1.92171,0.00831 2.73052,0.92466 4.35719,2.06264c0.72706,0.50865 1.44973,1.02544 2.16798,1.55147c2.12254,-4.07952 4.43068,-8.03908 7.17009,-11.16169c-1.41409,-0.9158 -2.83897,-1.60451 -4.25765,-1.92783c0,0 -0.55178,-0.12575 -0.45982,-0.88026c0.09195,-0.75453 0.64375,-0.62878 0.64375,-0.62878c1.684,0.38379 3.37041,1.25118 5.03586,2.39434c0.64356,-0.66143 1.3107,-1.27572 2.00425,-1.83451c0.80709,-1.00739 1.64973,-2.00205 2.52025,-2.97726c-0.93707,-0.69146 -1.87553,-1.38831 -2.81094,-2.108c-0.99983,-0.76928 -3.6925,-3.53563 -4.80444,-2.58742c0,0 -0.50033,0.34209 -0.75049,-0.34209c-0.25016,-0.68417 0.25016,-1.02625 0.25016,-1.02625c1.64848,-0.99395 3.40737,0.79793 4.86476,1.88501c1.40714,1.04959 2.82149,2.07118 4.22868,3.1042c2.06785,-2.22992 4.2711,-4.34149 6.51417,-6.25074c-0.5883,-0.63306 -1.16588,-1.28387 -1.7293,-1.95802c0,0 -0.42097,-0.50369 -0.05261,-1.07937c0.36836,-0.57566 0.78935,-0.07196 0.78935,-0.07196c0.65308,0.7814 1.32493,1.53157 2.01033,2.25921c1.40466,-1.15112 2.81921,-2.21862 4.2205,-3.18216c0,0 0.50035,-0.34209 0.75051,0.34207c0.25016,0.68417 -0.25016,1.02626 -0.25016,1.02626c-1.25379,0.85279 -2.51393,1.79361 -3.76578,2.8056c3.98247,4.05067 8.32902,7.4954 12.06252,11.95285c1.55469,-1.62408 3.16312,-3.11945 4.90164,-4.31749c0,0 0.50033,-0.34209 0.75049,0.34207c0.25016,0.68417 -0.25018,1.02625 -0.25018,1.02625c-1.61681,1.09531 -3.1213,2.4618 -4.57465,3.95648c3.20333,3.89791 6.72093,7.71462 9.84037,11.95645c1.29709,-1.74925 2.56088,-3.37643 2.56088,-6.00946c0,0 0,-0.76491 0.5594,-0.76491c0.5594,0 0.5594,0.76491 0.5594,0.76491c0,3.15449 -1.41047,5.01556 -2.90249,7.08759c1.84089,2.60763 3.51467,5.38591 4.86428,8.44643c1.05241,2.39122 2.33669,4.59672 3.47081,6.92c0.69966,-0.94309 1.49466,-1.54601 2.52323,-1.18994c0,0 0.5307,0.24189 0.3538,0.96757c-0.1769,0.72568 -0.70758,0.48378 -0.70758,0.48378c-0.45824,-0.31555 -1.01886,0.22939 -1.56429,1.02764c0.50193,1.11862 0.95511,2.27565 1.31968,3.50274l0.04683,0.15861c0,0 0.20943,0.70929 -0.30927,0.99568c-0.5187,0.28639 -0.72815,-0.4229 -0.72815,-0.4229l-0.04683,-0.15861c-0.28953,-0.98725 -0.64076,-1.92899 -1.03082,-2.84198c-0.36985,0.66075 -0.70191,1.30392 -0.94988,1.69104c-0.58046,0.90617 -1.18968,1.83573 -1.81181,2.78388c1.30886,2.18737 2.51069,4.48229 3.53427,6.95415c0.15013,0.21343 0.32253,0.47035 0.50967,0.76119c0.85329,-0.74443 1.7706,-1.2491 2.69648,-1.28221c0,0 0.55938,0 0.55938,0.76493c0,0.76493 -0.55938,0.76493 -0.55938,0.76493c-0.56348,-0.03323 -1.2755,0.3555 -1.97421,0.92558c1.27657,2.16052 2.76525,5.14128 2.8314,6.86105v0.40721c0,0 0,0.76493 -0.5594,0.76493c-0.5594,0 -0.5594,-0.76493 -0.5594,-0.76493v-0.40721c0.08897,-1.09001 -1.43029,-3.9518 -2.64586,-5.98976c-0.62977,0.66131 -1.17835,1.38921 -1.50048,1.96769c-1.7416,3.12758 -3.61601,6.10391 -5.45193,9.12308c1.59359,3.78977 3.31527,7.45917 4.97552,11.19429l0.32134,0.87088c0,0 0.25168,0.68313 -0.2479,1.02728c-0.49957,0.34415 -0.75127,-0.33899 -0.75127,-0.33899l-0.30045,-0.81686c-1.58695,-3.5638 -3.23055,-7.06715 -4.75738,-10.67917c-0.76339,1.27153 -1.51587,2.55532 -2.24484,3.86561c-1.0279,1.8451 -1.97537,3.7607 -2.88002,5.71466c1.67933,4.11124 3.5458,8.78437 4.34915,13.05072l0.02645,0.14468c0,0 0.13567,0.74208 -0.40702,0.92762c-0.5427,0.18552 -0.67835,-0.55657 -0.67835,-0.55657l-0.02645,-0.14468c-0.67802,-3.84519 -2.37476,-8.13837 -3.9367,-11.94543c-2.55424,5.6856 -4.8305,11.62308 -7.73081,17.04022c0.46457,0.91577 0.87586,1.8652 1.10976,2.95973l0.26295,0.4135c0,0 0.32903,0.61862 -0.12334,1.06856c-0.45238,0.44994 -0.78143,-0.16866 -0.78143,-0.16866l-0.43513,-0.89892c-0.14786,-0.75383 -0.40994,-1.44803 -0.72388,-2.11541c-0.08697,0.15438 -0.17453,0.30827 -0.26269,0.46168c-0.28647,0.9634 -0.67008,1.8793 -1.11812,2.71969l-0.13055,0.24302c0,0 -0.33114,0.61649 -0.78199,0.16369zM411.11184,252.75782c0.80783,-1.45204 1.64785,-2.86777 2.49975,-4.27013c-1.19038,-2.25029 -2.33299,-4.54533 -3.46113,-6.85296c-1.43185,2.98312 -3.10248,5.89026 -4.74717,8.82912c1.05936,2.42347 2.0365,4.80564 2.92601,6.993c0.05714,0.14065 0.11477,0.28219 0.17286,0.42463c0.82552,-1.74783 1.687,-3.463 2.60967,-5.12366zM418.89025,239.71781c0.61485,-1.09301 1.43417,-2.34571 2.36905,-3.38649c-0.1965,-0.30907 -0.36632,-0.56628 -0.49532,-0.75238c-0.9996,-2.37287 -2.15619,-4.58224 -3.40961,-6.69065c-2.37086,3.62226 -4.83216,7.47953 -6.53904,11.31503c-0.0023,0.0051 -0.00458,0.01023 -0.00689,0.01535c1.15869,2.37225 2.32865,4.73529 3.5439,7.05653c1.53222,-2.49675 3.0836,-4.97209 4.53792,-7.55736zM407.35132,258.19979c-0.81382,-2.00509 -1.70696,-4.19366 -2.67363,-6.43243c-2.22385,4.02236 -4.32687,8.13321 -5.63835,12.60542c-0.94247,1.98072 -1.8391,4.00454 -2.71289,6.05168c0.07892,0.16703 0.15788,0.33367 0.23689,0.49987c0.71157,1.49663 1.85057,2.24914 2.57718,3.90508c0.27056,0.61661 0.57475,1.19735 0.8816,1.77014c2.86772,-5.5329 5.18104,-11.53207 7.79883,-17.25208c-0.16032,-0.38992 -0.31733,-0.77284 -0.46963,-1.14768zM398.04691,263.66652c1.38072,-4.73212 3.65005,-9.06217 6.01486,-13.30879c-2.67774,-6.05269 -5.87692,-12.26618 -9.48516,-16.05854c-0.11279,-0.11916 -0.22526,-0.23891 -0.33741,-0.35926c-1.48088,2.89674 -2.8194,5.99421 -4.19692,8.90018c-1.47583,3.11336 -2.9102,6.23722 -4.34119,9.35329c0.04135,0.07803 0.08247,0.15619 0.12338,0.23449c1.236,2.36617 2.61744,3.50761 4.00474,5.56459c2.24767,3.33264 4.04228,7.19302 5.79948,10.94646c0.78689,-1.78809 1.59004,-3.55056 2.41823,-5.27241zM419.09691,223.9185c0.39843,-0.62201 0.78104,-1.34797 1.18018,-2.0329c-1.17754,-2.47239 -2.56697,-4.78681 -3.67473,-7.30384c-1.29359,-2.94534 -2.90149,-5.62614 -4.67319,-8.14397c-0.01716,0.02534 -0.03429,0.05077 -0.0514,0.07625c-1.35655,2.01969 -2.77352,4.08689 -4.13993,6.19929c3.15936,4.64888 6.64874,8.99325 9.66521,13.81498c0.57957,-0.88681 1.14814,-1.75792 1.69384,-2.60982zM406.99722,213.87165c-0.91224,1.44459 -1.79185,2.90981 -2.60416,4.39487c-0.83788,1.52766 -1.75735,2.93717 -2.7089,4.30044c0.16483,0.27908 0.32975,0.55964 0.49478,0.84174c2.87104,4.91883 5.399,10.17373 7.94947,15.41471c1.7723,-3.78053 4.18484,-7.55998 6.50621,-11.11876c-3.00215,-4.83139 -6.46873,-9.17829 -9.6374,-13.83301zM401.30532,224.3644c-0.13536,-0.23137 -0.27063,-0.46166 -0.40581,-0.69092c-1.55751,2.16746 -3.16342,4.26564 -4.60988,6.59671c-0.48366,0.77943 -0.94802,1.59129 -1.39774,2.42549c0.12254,0.13166 0.24544,0.26264 0.36873,0.3929c3.61854,3.84039 6.82063,9.94523 9.52402,15.97718c1.64378,-2.92847 3.2947,-5.83244 4.6901,-8.81748c-2.62427,-5.398 -5.206,-10.82936 -8.16944,-15.88387zM389.02896,259.06163c-1.34378,-2.01623 -2.74614,-3.24223 -3.96912,-5.47224c-1.68226,3.66038 -3.36774,7.30625 -5.1184,10.90804c0.43688,0.69744 0.86948,1.40348 1.29742,2.11933c1.80647,3.52626 4.35338,6.83822 5.89435,10.5323c0.8532,2.04534 1.63174,3.97941 2.59754,5.84125c1.74597,-4.177 3.4589,-8.42142 5.24455,-12.55279c-1.85957,-3.83675 -3.62126,-7.88735 -5.94632,-11.37589zM374.61881,273.29859c0.80333,-2.60382 2.72028,-4.29779 3.28016,-7.34384c0.21395,-0.44555 0.42719,-0.8912 0.63976,-1.33694c-3.47023,-5.43796 -7.19321,-10.36751 -10.96,-15.36636c-0.27325,0.48771 -0.55399,0.9666 -0.84326,1.43553c-1.1872,3.89718 -3.72586,7.28766 -5.24982,11.00454c0.69581,0.88362 1.39628,1.76059 2.10504,2.62617c3.19806,3.91011 6.7129,8.39667 9.62412,12.93683c0.53614,-1.33848 1.00893,-2.67555 1.40396,-3.95591zM389.10347,242.008c1.39799,-2.94913 2.75749,-6.08801 4.26149,-9.02425c-4.04778,-4.50897 -7.72329,-9.7064 -11.70417,-14.36522c-1.27765,2.55936 -2.51424,5.09194 -3.77181,7.3851c-1.68748,3.07668 -3.09003,6.47482 -4.45332,9.91151c4.1411,4.57386 8.36081,9.40641 11.52997,14.94379c1.36445,-2.94416 2.73625,-5.89418 4.13785,-8.85094zM395.43655,229.28039c1.49127,-2.40326 3.1543,-4.55642 4.75708,-6.79543c-3.55801,-5.9467 -7.1077,-11.20212 -11.24988,-16.24114c-2.49682,3.1476 -4.63486,7.1188 -6.64855,11.10992c3.98851,4.66292 7.67246,9.86843 11.72345,14.38569c0.45626,-0.84548 0.92734,-1.6685 1.41789,-2.45904zM403.49801,217.34862c0.85611,-1.55697 1.78198,-3.09288 2.7406,-4.60676c-0.13513,-0.20421 -0.26954,-0.40913 -0.40325,-0.61481c-2.95481,-4.54708 -6.72553,-8.52796 -10.58759,-12.24458c-1.03377,1.10003 -2.09137,2.14868 -3.19518,3.09368c-0.78757,0.66636 -1.53984,1.42187 -2.26197,2.24893c4.10906,5.00968 7.64841,10.24989 11.18497,16.15093c0.88547,-1.2782 1.73996,-2.60083 2.52239,-4.02736zM411.05456,205.47801c0.02967,-0.04416 0.05948,-0.08811 0.08937,-0.13185c-3.15725,-4.29791 -6.7431,-8.14822 -9.96705,-12.0847c-1.69296,1.81945 -3.33245,3.77587 -5.01889,5.63433c3.8354,3.7107 7.56805,7.68516 10.51357,12.21488c0.10267,0.15793 0.20578,0.31541 0.30934,0.47249c1.3459,-2.07843 2.73639,-4.11431 4.07363,-6.10514zM372.89636,237.27979c-1.45574,3.69175 -2.9037,7.38478 -4.64707,10.72998c3.75031,4.97793 7.45985,9.88256 10.92307,15.27529c1.74244,-3.67607 3.44645,-7.35931 5.15646,-11.05155c-3.09679,-5.55225 -7.29739,-10.38824 -11.43248,-14.95372zM365.77921,249.89294c0.33908,-0.56229 0.6668,-1.13733 0.98471,-1.72335c-0.6326,-0.84054 -1.26602,-1.68421 -1.89926,-2.53372c-2.83774,-3.8167 -6.84842,-8.44088 -10.71763,-11.94056c-0.64333,0.80749 -0.93705,1.20432 -1.34696,3.14914c-1.28513,2.71448 -2.70539,6.77499 -3.61495,10.64421c1.50115,0.19789 2.67976,2.08212 3.88029,3.51875c2.60871,3.12174 5.08279,6.40997 7.59883,9.63562c1.57394,-3.61343 3.93787,-6.92814 5.11497,-10.75012zM376.99397,225.08574c1.27998,-2.33341 2.53307,-4.87752 3.82342,-7.44032c-1.06342,-1.20867 -2.15147,-2.37377 -3.27657,-3.47271c-3.2726,-3.19647 -6.65144,-6.03082 -10.13678,-8.63349c-1.24271,2.42928 -2.42526,4.88326 -3.59946,7.21172c-1.28014,2.52352 -2.41728,5.05863 -3.5657,7.60636c3.04545,2.98387 5.76124,7.24974 8.64366,10.51246c1.18365,1.33999 2.41285,2.68834 3.65665,4.05726c1.36357,-3.40594 2.77096,-6.77129 4.45478,-9.8413zM391.45966,201.6788c0.97825,-0.83448 1.91967,-1.74668 2.83981,-2.70244c-1.96389,-1.86414 -3.93603,-3.66663 -5.82191,-5.4469c-2.47082,-2.33293 -5.06298,-4.27284 -7.67926,-6.20253c-1.01343,1.11717 -1.99334,2.25995 -2.92934,3.41631c-0.53574,0.43672 -1.0556,0.90648 -1.5609,1.40543c3.70952,2.8143 7.28761,6.78193 10.47108,9.56281c0.74526,0.83236 1.47044,1.66841 2.17825,2.51024c0.79536,-0.93364 1.62709,-1.78832 2.50226,-2.54291zM388.15953,180.2017c-2.18928,1.8443 -4.3407,3.89396 -6.37521,6.05759c2.50497,1.86009 4.97528,3.78896 7.32892,6.01127c1.98006,1.86994 4.05133,3.76398 6.10913,5.72669c1.7332,-1.87401 3.40765,-3.86501 5.13106,-5.73523c-3.78284,-4.47991 -8.18795,-7.93951 -12.1939,-12.06032zM386.12309,202.95067c-3.2529,-2.82882 -6.9591,-7.01621 -10.77783,-9.79803c-2.79804,3.07419 -5.14396,7.02875 -7.29086,11.12928c3.48449,2.60887 6.86379,5.44915 10.13668,8.64589c1.12028,1.09423 2.20416,2.25411 3.26379,3.45735c2.02572,-3.98177 4.16669,-7.9327 6.66346,-11.13325c-0.64941,-0.77087 -1.31376,-1.53738 -1.99524,-2.30123zM368.16912,232.04823c-2.83976,-3.21469 -5.52279,-7.43442 -8.51944,-10.38656c-1.02846,2.2691 -2.08663,4.54833 -3.28286,6.83842c-0.53019,1.01501 -0.93001,3.06289 -1.45737,4.12808c3.86868,3.53373 7.81904,8.00823 10.73869,11.91563c0.59179,0.79392 1.18378,1.58281 1.77509,2.36884c1.69753,-3.34336 3.12806,-6.98748 4.57321,-10.62398c-1.30317,-1.4326 -2.59128,-2.84138 -3.82732,-4.24043z" fill="#000000" stroke="none" stroke-width="0.5" stroke-linecap="butt"/><path d="M384.97391,250.94422c-3.16915,-5.53738 -7.48434,-10.44492 -11.62546,-15.01878c1.36331,-3.43668 2.807,-6.91806 4.49448,-9.99476c1.25757,-2.29316 2.531,-4.838 3.80866,-7.39736c3.98085,4.65882 7.75201,9.92622 11.79979,14.43519c-1.50401,2.93624 -2.89657,6.15838 -4.29455,9.10751c-1.4016,2.95677 -2.81849,5.92405 -4.18294,8.8682z" data-paper-data="{&quot;noHover&quot;:false,&quot;origItem&quot;:[&quot;Path&quot;,{&quot;applyMatrix&quot;:true,&quot;segments&quot;:[[[735.61839,440.60627],[-1.59588,3.4512],[1.59175,-3.44228]],[[740.47057,430.07299],[-1.71248,3.42723],[-4.60885,-5.26297]],[[727.14409,413.30563],[4.53265,5.43787],[-1.45475,2.98734]],[[722.84947,421.92568],[1.43188,-2.67662],[-1.92139,3.59117]],[[717.77886,433.49459],[1.55227,-4.01136],[4.7151,5.3387]],[[730.907,450.93727],[-3.60843,-6.46335],[1.55358,-3.43648]]],&quot;closed&quot;:true}]}" fill="#444444" stroke="none" stroke-width="0.5" stroke-linecap="butt"/><path d="M248.22629,243.60233c0,40.15729 -31.37357,72.71121 -70.07485,72.71121c-38.70128,0 -70.07485,-32.55391 -70.07485,-72.71121c0,-40.15729 31.37357,-72.71121 70.07485,-72.71121c38.70128,0 70.07485,32.55391 70.07485,72.71121z" fill="#444444" stroke="#000000" stroke-width="1.5" stroke-linecap="butt"/><path d="M241.97758,245.77932c0,35.5885 -27.57677,64.43868 -61.59446,64.43868c-34.01767,0 -61.59446,-28.85018 -61.59446,-64.43868c0,-35.5885 27.57678,-64.43866 61.59447,-64.43866c34.01769,0 61.59446,28.85016 61.59446,64.43868z" fill="#444444" stroke="#000000" stroke-width="1.5" stroke-linecap="butt"/><path d="M196.09383,292.09666c-0.632,-0.4528 -0.1678,-1.06931 -0.1678,-1.06931l0.183,-0.24304c0.60064,-0.79098 1.09173,-1.66841 1.4735,-2.5796c0.26235,-0.33204 0.52114,-0.66627 0.77663,-1.00247c-0.57082,-0.74043 -1.1608,-1.47434 -1.63863,-2.25121c-0.99611,-1.61947 -2.40542,-2.26243 -3.47803,-3.71212c-2.43827,4.14095 -4.77816,8.35718 -7.28239,12.48744c0.36292,0.43919 0.74638,0.87478 1.15546,1.30731l0.39559,0.38502c0,0 0.55448,0.54089 0,1.08179c-0.55448,0.54089 -1.10895,0 -1.10895,0l-0.43931,-0.42943c-0.29789,-0.31497 -0.5831,-0.63146 -0.8574,-0.94971c-0.70916,1.14503 -1.43336,2.28199 -2.17834,3.40734c-1.57367,0.89981 -2.56014,5.06975 -3.61811,7.13898l0.08279,0.06513c0,0 0,0.76493 -0.78415,0.76493c-0.78415,0 -0.78415,-0.76493 -0.78415,-0.76493l0.08279,-0.74932c1.16556,-2.26782 2.09698,-6.23598 3.89598,-7.52082c0.74684,-1.21649 1.48416,-2.44555 2.21586,-3.68242c-1.58484,-2.07553 -2.81751,-4.23646 -4.14874,-6.54197c-2.09392,-3.62634 -5.66737,-6.9029 -8.14859,-10.36326c-0.48717,-0.5803 -0.97867,-1.15413 -1.47415,-1.72213c-0.1739,0.25202 -0.34832,0.50379 -0.52325,0.75532c-0.75058,2.94481 -3.67578,4.83723 -4.58578,7.31596c-0.53943,1.46932 -1.31532,3.08112 -2.24523,4.69511c0.29422,0.34261 0.5829,0.68523 0.86551,1.02766c1.66461,2.01681 2.35498,3.78131 4.61923,5.32673l0.53818,1.44408c0,0 0.24797,0.72568 -0.49594,0.96757c-0.74391,0.24189 -0.99188,-0.48378 -0.99188,-0.48378l-0.29671,-0.99923c-2.28384,-1.39624 -2.97296,-3.30255 -4.56467,-5.26091c-0.16958,-0.20865 -0.34168,-0.41738 -0.51617,-0.62621c-1.44631,2.29174 -3.15847,4.50512 -4.89572,6.2306l-0.79732,1.55557c-0.12573,0.25874 -0.39592,0.43765 -0.70897,0.43765c-0.43307,0 -0.78415,-0.34247 -0.78415,-0.76493c0,-0.09083 0.01623,-0.178 0.04604,-0.25884l0.41166,-1.20471l0.07288,0.02369l0.00399,-0.18396c2.04599,-2.04993 3.93195,-4.57418 5.50886,-7.16595c-4.07871,-4.62965 -9.17714,-9.22886 -13.72047,-13.1916c-0.88722,-0.77469 -1.76519,-1.55799 -2.63762,-2.34666c-0.07439,0.16432 -0.14537,0.32947 -0.21266,0.49547c-1.42163,3.50686 -2.83857,7.22152 -3.86684,10.84703c3.02149,3.05721 5.97158,6.18041 9.0536,9.18687c1.60427,1.56495 4.09621,3.18295 5.32407,5.07133c0.15103,0.01062 0.74988,0.09492 0.74988,0.76339c0,0.76493 -0.78415,0.76493 -0.78415,0.76493l-1.11882,-0.42284c-0.88668,-1.83823 -3.76631,-3.61848 -5.27996,-5.09503c-2.7805,-2.71235 -5.4537,-5.51978 -8.16877,-8.28799l-0.53679,1.83273c-0.08798,0.32857 -0.39434,0.57103 -0.75873,0.57103c-0.43307,0 -0.78415,-0.34247 -0.78415,-0.76493c0,-0.02333 0.00107,-0.04643 0.00316,-0.06922l0.10165,-1.24686l0.02053,0.00159l-0.01409,-0.05603c0.13855,-0.59789 0.28895,-1.20045 0.44995,-1.80619c-0.66233,-0.66555 -1.32874,-1.32733 -2.00135,-1.98345c0,0 -0.55448,-0.54088 0,-1.08177c0.55448,-0.54089 1.10895,0 1.10895,0c0.46009,0.44881 0.91728,0.90028 1.37225,1.35378c1.00159,-3.40161 2.29494,-6.8586 3.66002,-10.11265c0.14815,-0.3531 0.3112,-0.70208 0.48696,-1.04755c-3.61434,-3.30099 -7.16173,-6.66851 -10.90876,-9.86635c-1.22142,-1.04241 -3.16503,-3.35826 -4.85582,-3.20858c-0.38298,1.34778 -0.66119,2.64683 -0.79416,3.82837l-0.47851,1.1532c0,0 -0.29868,0.70727 -1.02372,0.41593c-0.72504,-0.29134 -0.42636,-0.99863 -0.42636,-0.99863l0.40876,-0.94789c0.12935,-1.1844 0.41094,-2.50724 0.80182,-3.8888c-0.08893,-0.34321 0.05126,-0.56931 0.2082,-0.70792c1.27067,-4.16619 3.44604,-8.73303 5.39407,-11.5957c0.50525,-1.75691 0.98172,-2.55865 1.8986,-3.40388c-1.57283,-0.96225 -3.1149,-1.81375 -4.58006,-2.50611c0,0 -0.70136,-0.34207 -0.35069,-1.02625c0.35069,-0.68417 1.05205,-0.34209 1.05205,-0.34209c1.62788,0.81306 3.33168,1.78472 5.06006,2.86537c0.55002,-0.71255 1.51868,-3.43176 2.07019,-4.18495c1.66593,-2.27515 3.14552,-4.5434 4.58378,-6.80348c-2.75789,-1.6826 -5.56995,-2.51503 -8.02724,-4.90448c0,0 -0.55448,-0.54088 0,-1.08179c0.55448,-0.54089 1.10895,0 1.10895,0c2.3643,2.31445 5.07579,3.08056 7.74227,4.68679c1.6156,-2.5539 3.21387,-5.09702 5.00491,-7.62756c1.62068,-2.27726 3.24954,-4.68073 4.95473,-7.06851c-0.94254,-0.4911 -1.89055,-0.97414 -2.84408,-1.45001c-2.08683,-1.04147 -2.94575,-1.90323 -5.39352,-1.89476c0,0 -0.78415,0 -0.78415,-0.76493c0,-0.76493 0.78415,-0.76493 0.78415,-0.76493c2.69383,0.00831 3.82758,0.92466 6.10782,2.06266c1.01919,0.50865 2.03221,1.02542 3.03904,1.55145c2.97535,-4.07952 6.21085,-8.03908 10.05094,-11.16169c-1.98224,-0.9158 -3.97966,-1.60451 -5.96833,-1.92783c0,0 -0.77347,-0.12575 -0.64456,-0.88026c0.12891,-0.75453 0.9024,-0.62878 0.9024,-0.62878c2.36062,0.38379 4.72459,1.25118 7.0592,2.39434c0.90214,-0.66143 1.83733,-1.27572 2.80953,-1.83451c1.13138,-1.00739 2.31256,-2.00205 3.53287,-2.97726c-1.31358,-0.69146 -2.62912,-1.38829 -3.94035,-2.108c-1.40157,-0.76928 -5.1761,-3.53563 -6.73479,-2.58742c0,0 -0.70136,0.34209 -1.05205,-0.34209c-0.35069,-0.68417 0.35069,-1.02625 0.35069,-1.02625c2.31082,-0.99395 4.77642,0.79793 6.81937,1.88501c1.97249,1.04959 3.95514,2.07118 5.9277,3.1042c2.89869,-2.22992 5.98714,-4.34149 9.13147,-6.25074c-0.82465,-0.63306 -1.63427,-1.28385 -2.4241,-1.95802c0,0 -0.59012,-0.50371 -0.07377,-1.07937c0.51635,-0.57566 1.10649,-0.07196 1.10649,-0.07196c0.91545,0.7814 1.85725,1.53157 2.81805,2.25921c1.96903,-1.15112 3.95192,-2.2186 5.91623,-3.18214c0,0 0.70136,-0.34209 1.05205,0.34207c0.35069,0.68417 -0.35067,1.02626 -0.35067,1.02626c-1.75755,0.85279 -3.52396,1.79361 -5.27882,2.8056c5.58258,4.05067 11.67548,7.4954 16.90906,11.95285c2.17934,-1.62408 4.434,-3.11945 6.87106,-4.31749c0,0 0.70136,-0.34209 1.05204,0.34207c0.35067,0.68417 -0.35067,1.02625 -0.35067,1.02625c-2.26641,1.09531 -4.37541,2.4618 -6.4127,3.95648c4.49039,3.89791 9.42133,7.71462 13.7941,11.95645c1.81825,-1.74925 3.5898,-3.37642 3.5898,-6.00944c0,0 0,-0.76493 0.78415,-0.76493c0.78415,0 0.78415,0.76493 0.78415,0.76493c0,3.15449 -1.97717,5.01554 -4.06866,7.08758c2.58055,2.60763 4.92683,5.38591 6.81868,8.44643c1.47524,2.39122 3.27554,4.59672 4.86534,6.92c0.98077,-0.94309 2.0952,-1.54603 3.53705,-1.18996c0,0 0.74391,0.24189 0.49594,0.96757c-0.24797,0.72568 -0.99188,0.48378 -0.99188,0.48378c-0.64236,-0.31555 -1.42823,0.2294 -2.19281,1.02766c0.70359,1.11862 1.33884,2.27565 1.8499,3.50272l0.06564,0.15861c0,0 0.2936,0.70929 -0.43351,0.99568c-0.72711,0.28639 -1.02072,-0.4229 -1.02072,-0.4229l-0.06564,-0.15861c-0.40586,-0.98725 -0.89822,-1.92899 -1.44499,-2.84198c-0.51847,0.66075 -0.9839,1.30392 -1.3315,1.69104c-0.81368,0.90617 -1.66768,1.83573 -2.53976,2.78388c1.83475,2.18737 3.51945,4.48231 4.95427,6.95416c0.21047,0.21343 0.4521,0.47035 0.71447,0.76119c1.19613,-0.74443 2.48199,-1.2491 3.77987,-1.28221c0,0 0.78415,0 0.78415,0.76493c0,0.76493 -0.78415,0.76491 -0.78415,0.76491c-0.78986,-0.03323 -1.78797,0.35551 -2.76741,0.9256c1.78946,2.16052 3.87629,5.14126 3.969,6.86105v0.40721c0,0 0,0.76493 -0.78415,0.76493c-0.78415,0 -0.78415,-0.76493 -0.78415,-0.76493v-0.40721c0.12471,-1.09001 -2.00494,-3.9518 -3.70889,-5.98976c-0.8828,0.66131 -1.65182,1.38921 -2.10335,1.96769c-2.44136,3.12758 -5.06885,6.10391 -7.64246,9.12309c2.23386,3.78977 4.64732,7.45916 6.97463,11.19429l0.45046,0.87088c0,0 0.35278,0.68314 -0.34751,1.0273c-0.70031,0.34415 -1.05311,-0.33897 -1.05311,-0.33897l-0.42116,-0.81688c-2.22457,-3.5638 -4.52854,-7.06715 -6.66885,-10.67917c-1.07011,1.27153 -2.12492,2.55532 -3.14678,3.86561c-1.44088,1.8451 -2.76903,3.7607 -4.03715,5.71466c2.35405,4.11123 4.97045,8.78437 6.09657,13.05072l0.03708,0.14468c0,0 0.19018,0.74208 -0.57056,0.92762c-0.76073,0.18552 -0.95093,-0.55657 -0.95093,-0.55657l-0.03708,-0.14468c-0.95044,-3.84519 -3.3289,-8.13837 -5.5184,-11.94543c-3.58049,5.6856 -6.77134,11.62308 -10.83695,17.04022c0.65123,0.91577 1.22776,1.8652 1.55563,2.95973l0.36861,0.4135c0,0 0.46125,0.61862 -0.1729,1.06856c-0.63414,0.44994 -1.09539,-0.16866 -1.09539,-0.16866l-0.60997,-0.89892c-0.20727,-0.75383 -0.57463,-1.44803 -1.01473,-2.11541c-0.12192,0.15438 -0.24463,0.30827 -0.36822,0.46168c-0.40158,0.9634 -0.9393,1.8793 -1.56735,2.71969l-0.183,0.24302c0,0 -0.46418,0.61649 -1.09618,0.16369zM214.84657,262.09229c1.1324,-1.45204 2.30994,-2.86777 3.50411,-4.27013c-1.66865,-2.25029 -3.27036,-4.54533 -4.85178,-6.85296c-2.00713,2.98312 -4.349,5.89028 -6.65452,8.82912c1.485,2.42347 2.85474,4.80563 4.10165,6.99298c0.08008,0.14065 0.16088,0.28219 0.24231,0.42463c1.15718,-1.74783 2.36481,-3.463 3.65822,-5.12366zM225.75022,249.05231c0.86189,-1.09301 2.0104,-2.34571 3.32089,-3.38649c-0.27544,-0.30907 -0.51352,-0.56628 -0.69434,-0.75238c-1.40123,-2.37287 -3.02253,-4.58224 -4.77956,-6.69065c-3.32342,3.62226 -6.77363,7.47953 -9.16634,11.31503c-0.00321,0.0051 -0.00643,0.01023 -0.00964,0.01535c1.62423,2.37225 3.26428,4.73529 4.96779,7.05653c2.14785,-2.49675 4.32255,-4.97209 6.3612,-7.55736zM209.57511,267.53427c-1.14081,-2.00509 -2.39279,-4.19368 -3.74785,-6.43243c-3.11735,4.02236 -6.06534,8.13321 -7.90376,12.60542c-1.32114,1.98072 -2.57802,4.00454 -3.80288,6.05166c0.11061,0.16703 0.22129,0.33369 0.33205,0.49989c0.99748,1.49663 2.59409,2.24914 3.61263,3.90508c0.37925,0.61661 0.8057,1.19735 1.23584,1.77014c4.01992,-5.5329 7.26268,-11.53207 10.93226,-17.25208c-0.22475,-0.38992 -0.44482,-0.77284 -0.65829,-1.14768zM196.53231,273.00104c1.93548,-4.73212 5.11661,-9.06217 8.43156,-13.30879c-3.75363,-6.05269 -8.23819,-12.26618 -13.29616,-16.05854c-0.15811,-0.11916 -0.31575,-0.23891 -0.47296,-0.35924c-2.07586,2.89674 -3.95222,5.99422 -5.88319,8.90018c-2.0688,3.11336 -4.07947,6.2372 -6.08542,9.35327c0.05795,0.07803 0.1156,0.15619 0.17295,0.23451c1.7326,2.36617 3.66907,3.50761 5.61378,5.56461c3.15074,3.33264 5.66642,7.19302 8.12963,10.94644c1.10306,-1.78809 2.22889,-3.55056 3.38982,-5.27241zM226.03988,233.25301c0.55852,-0.62201 1.09486,-1.34796 1.65437,-2.0329c-1.65066,-2.47239 -3.59834,-4.78681 -5.15119,-7.30384c-1.81335,-2.94534 -4.06728,-5.62614 -6.55081,-8.14397c-0.02405,0.02534 -0.04806,0.05077 -0.07205,0.07625c-1.90158,2.01969 -3.88788,4.08689 -5.80327,6.19929c4.42875,4.64888 9.3201,8.99325 13.54856,13.81498c0.81245,-0.88681 1.60944,-1.75792 2.3744,-2.60982zM209.07873,223.20615c-1.27875,1.44459 -2.5118,2.90981 -3.65049,4.39487c-1.17454,1.52766 -2.46342,2.93717 -3.79728,4.30044c0.23105,0.27908 0.46223,0.55964 0.69358,0.84174c4.02459,4.91883 7.56826,10.17373 11.14345,15.41471c2.48436,-3.78053 5.86624,-7.55998 9.1203,-11.11876c-4.20836,-4.83139 -9.06776,-9.17831 -13.50956,-13.83301zM201.09989,233.6989c-0.18974,-0.23137 -0.37936,-0.46166 -0.56885,-0.69092c-2.18329,2.16746 -4.43444,4.26564 -6.46207,6.59671c-0.67797,0.77943 -1.3289,1.59129 -1.95932,2.42549c0.17177,0.13166 0.34407,0.26264 0.51689,0.3929c5.0724,3.84039 9.56108,9.94523 13.35063,15.97718c2.30423,-2.92847 4.61844,-5.83244 6.57453,-8.81748c-3.67868,-5.398 -7.29769,-10.82936 -11.45179,-15.88387zM183.89109,268.39614c-1.8837,-2.01623 -3.8495,-3.24223 -5.56387,-5.47224c-2.35816,3.66038 -4.72083,7.30625 -7.17489,10.90804c0.6124,0.69744 1.21882,1.40348 1.81869,2.11933c2.53226,3.52626 6.10249,6.8382 8.26262,10.5323c1.196,2.04534 2.28733,3.97941 3.64118,5.84125c2.44748,-4.177 4.84863,-8.42142 7.35174,-12.55279c-2.6067,-3.83675 -5.07624,-7.88737 -8.33546,-11.37591zM163.69114,282.63309c1.12611,-2.60382 3.81326,-4.29779 4.5981,-7.34384c0.29993,-0.44555 0.59882,-0.8912 0.89683,-1.33694c-4.86451,-5.43796 -10.08335,-10.36751 -15.36358,-15.36636c-0.38303,0.48771 -0.77656,0.9666 -1.18206,1.43551c-1.6642,3.89718 -5.22288,7.28766 -7.35913,11.00454c0.97538,0.88362 1.95726,1.76059 2.95081,2.62617c4.48301,3.91011 9.41004,8.39667 13.49098,12.93683c0.75155,-1.33848 1.41432,-2.67555 1.96807,-3.95591zM183.99555,251.3425c1.95967,-2.94913 3.86542,-6.08801 5.97372,-9.02425c-5.67413,-4.50897 -10.82643,-9.70638 -16.40676,-14.36522c-1.79099,2.55936 -3.52442,5.09194 -5.28725,7.3851c-2.3655,3.07668 -4.33154,6.47482 -6.24261,9.9115c5.80494,4.57386 11.72006,9.40641 16.16253,14.94379c1.91268,-2.94416 3.83562,-5.89418 5.80037,-8.85094zM192.87313,238.61489c2.09043,-2.40326 4.42164,-4.55642 6.66841,-6.79543c-4.98756,-5.9467 -9.96346,-11.20212 -15.7699,-16.24114c-3.5,3.1476 -6.49708,7.1188 -9.31984,11.10992c5.59105,4.66292 10.75515,9.86843 16.43376,14.38569c0.63959,-0.84548 1.29992,-1.6685 1.98758,-2.45904zM204.17361,226.68312c1.20009,-1.55697 2.49794,-3.09288 3.84175,-4.60676c-0.18941,-0.20421 -0.37785,-0.40913 -0.56527,-0.61481c-4.14202,-4.54708 -9.42778,-8.52796 -14.84154,-12.24458c-1.44914,1.10003 -2.93168,2.14868 -4.47894,3.09368c-1.10401,0.66636 -2.15854,1.42187 -3.17081,2.24895c5.76002,5.00968 10.72144,10.24989 15.67894,16.15091c1.24125,-1.2782 2.43908,-2.60083 3.53587,-4.02736zM214.76626,214.81252c0.04158,-0.04416 0.08335,-0.08811 0.12529,-0.13185c-4.42578,-4.29791 -9.4524,-8.14822 -13.97169,-12.0847c-2.37316,1.81945 -4.67135,3.77587 -7.0354,5.63433c5.3764,3.7107 10.60878,7.68518 14.73778,12.21489c0.14391,0.15793 0.28847,0.31541 0.43365,0.47249c1.88667,-2.07843 3.83584,-4.11431 5.71037,-6.10514zM161.27663,246.6143c-2.04061,3.69175 -4.07035,7.38479 -6.51417,10.73c5.25715,4.97793 10.45712,9.88254 15.31181,15.27529c2.44254,-3.67607 4.83119,-7.35931 7.22827,-11.05155c-4.34103,-5.55225 -10.22939,-10.38824 -16.02591,-14.95372zM151.29991,259.22745c0.47533,-0.56229 0.93468,-1.13733 1.38033,-1.72335c-0.88677,-0.84054 -1.77471,-1.68421 -2.66235,-2.53372c-3.9779,-3.8167 -9.6,-8.44088 -15.02381,-11.94056c-0.90182,0.80749 -1.31357,1.20432 -1.88816,3.14916c-1.80146,2.71448 -3.79236,6.77499 -5.06737,10.64421c2.10429,0.19789 3.75644,2.08212 5.43933,3.51875c3.65685,3.12174 7.12499,6.40997 10.65192,9.63562c2.20632,-3.61343 5.52006,-6.92814 7.17011,-10.75012zM167.02059,234.42024c1.79428,-2.33341 3.5508,-4.87752 5.35961,-7.44032c-1.49069,-1.20867 -3.01589,-2.37376 -4.59306,-3.47269c-4.58749,-3.19647 -9.32388,-6.03084 -14.20957,-8.63351c-1.74202,2.42928 -3.39971,4.88328 -5.04568,7.21173c-1.79447,2.52352 -3.3885,5.05862 -4.99832,7.60635c4.26907,2.98387 8.07601,7.24976 12.11655,10.51248c1.65922,1.33999 3.38232,2.68832 5.12583,4.05724c1.91144,-3.40594 3.8843,-6.77129 6.24467,-9.8413zM187.29842,211.0133c1.37127,-0.83448 2.69098,-1.74666 3.9808,-2.70244c-2.75294,-1.86414 -5.51748,-3.66663 -8.16107,-5.4469c-3.46356,-2.33293 -7.09722,-4.27286 -10.76469,-6.20255c-1.42061,1.11717 -2.79423,2.25995 -4.10631,3.41631c-0.751,0.43672 -1.47973,0.90648 -2.18805,1.40543c5.19995,2.8143 10.21567,6.78193 14.67821,9.56281c1.04469,0.83236 2.06123,1.66841 3.05344,2.51024c1.11492,-0.93364 2.28085,-1.78832 3.50766,-2.54291zM182.67234,189.5362c-3.0689,1.8443 -6.08474,3.89397 -8.93667,6.05761c3.51144,1.86009 6.97426,3.78895 10.27358,6.01126c2.77563,1.86994 5.67912,3.76397 8.56369,5.72669c2.42959,-1.87401 4.77681,-3.86501 7.19267,-5.73523c-5.30273,-4.47991 -11.47775,-7.93951 -17.09326,-12.06032zM179.81766,212.28519c-4.55988,-2.82882 -9.75514,-7.01621 -15.10819,-9.79803c-3.92227,3.07419 -7.21072,7.02875 -10.22022,11.12928c4.88453,2.60887 9.62157,5.44917 14.20947,8.64589c1.57041,1.09423 3.08975,2.25411 4.57512,3.45735c2.8396,-3.98177 5.84082,-7.9327 9.34074,-11.13325c-0.91034,-0.77087 -1.84161,-1.53738 -2.79692,-2.30123zM154.65006,241.38273c-3.98071,-3.21469 -7.74176,-7.43442 -11.94242,-10.38656c-1.44169,2.2691 -2.92499,4.54833 -4.60187,6.83842c-0.7432,1.01501 -1.30366,3.06289 -2.04291,4.12808c5.42307,3.53373 10.96063,8.00823 15.05334,11.91563c0.82957,0.79392 1.65937,1.58281 2.4883,2.36884c2.37955,-3.34336 4.38487,-6.98748 6.41068,-10.62396c-1.82677,-1.4326 -3.63243,-2.84138 -5.3651,-4.24045z" fill="#000000" stroke="none" stroke-width="0.5" stroke-linecap="butt"/><path d="M264.07876,302.91344l-5.96691,-122.93315l65.16829,-1.562l5.96689,122.93317z" fill="none" stroke="#000000" stroke-width="1.5" stroke-linecap="butt"/><path d="M264.24978,225.63996l-1.22565,-38.25974l56.74542,-1.72983l1.22565,38.25976z" fill="#e0e0e0" stroke="#000000" stroke-width="1.5" stroke-linecap="butt"/><path d="M266.66442,285.00584l-1.22565,-43.71418l56.74542,-1.97644l1.22565,43.71416z" fill="#e0e0e0" stroke="#000000" stroke-width="1.5" stroke-linecap="butt"/><path d="M316.22173,189.35649l0.41744,30.9485l-49.67647,0.81445l-0.83491,-30.94852z" fill="#b1dce0" stroke="#000000" stroke-width="1.5" stroke-linecap="round"/><path d="M271.13718,214.19674l41.3275,-0.81445" fill="none" stroke="#000000" stroke-width="1.5" stroke-linecap="round"/><path d="M270.32847,246.81242l-5.00941,-5.29383" fill="none" stroke="#000000" stroke-width="1.5" stroke-linecap="round"/><path d="M321.60929,240.32248l-3.75704,4.8866" fill="none" stroke="#000000" stroke-width="1.5" stroke-linecap="round"/><path d="M271.98519,279.72041l-4.59195,4.07217" fill="none" stroke="#000000" stroke-width="1.5" stroke-linecap="round"/><path d="M317.82608,278.09155l5.42685,5.29381" fill="none" stroke="#000000" stroke-width="1.5" stroke-linecap="round"/><path d="M316.27763,248.07695l0.36898,27.35527l-43.90884,0.71986l-0.73799,-27.35527z" fill="#444444" stroke="#000000" stroke-width="1.5" stroke-linecap="round"/><path d="M316.49782,250.35937l-9.42544,6.29092h-23.31555l-9.92152,-6.29092" fill="none" stroke="#000000" stroke-width="1.5" stroke-linecap="round"/><path d="M285.72751,266.53541c0,2.94099 -2.57981,5.32512 -5.76218,5.32512c-3.18237,0 -5.76218,-2.38412 -5.76218,-5.32512c0,-2.94099 2.57983,-5.32512 5.76218,-5.32512c3.18237,0 5.76218,2.38412 5.76218,5.32512z" fill="none" stroke="#000000" stroke-width="1.5" stroke-linecap="butt"/><path d="M316.257,264.2673c0,2.77759 -2.39877,5.02927 -5.35781,5.02927c-2.95905,0 -5.35783,-2.25167 -5.35783,-5.02927c0,-2.77759 2.39878,-5.02929 5.35783,-5.02929c2.95905,0 5.35781,2.25169 5.35781,5.02929z" fill="none" stroke="#000000" stroke-width="1.5" stroke-linecap="butt"/><path d="M286.9799,270.63579l-0.22465,-9.2452l17.90198,-0.41392l0.22463,9.2452z" fill="none" stroke="#000000" stroke-width="1" stroke-linecap="butt"/><path d="M284.91879,266.53541v-1.57781h0.40437v1.57781z" fill="none" stroke="#000000" stroke-width="1.5" stroke-linecap="butt"/><path d="M288.56086,266.39045c0,-0.38246 0.39207,-0.38246 0.39207,-0.38246h0.29158c3.30717,0 -1.15715,-4.6687 2.89411,-3.39369c0,0 0.37194,0.12095 0.24797,0.48378c-0.12398,0.36284 -0.49594,0.24189 -0.49594,0.24189c-2.38921,-0.80994 1.44174,3.43294 -2.64614,3.43294h-0.29158c0,0 -0.39207,0 -0.39207,-0.38246z" fill="#444444" stroke="none" stroke-width="0" stroke-linecap="butt"/><path d="M299.09888,265.15022c-0.39207,0 -0.39207,-0.38246 -0.39207,-0.38246c0,-0.18963 0,-0.80592 0,-0.99554c0,0 0,-0.38246 0.39207,-0.38246c0.39207,0 0.39207,0.38246 0.39207,0.38246c0,0.18963 0,0.37926 0,0.56888v0.42667c0,0 0,0.38246 -0.39207,0.38246z" fill="#444444" stroke="none" stroke-width="0.5" stroke-linecap="butt"/><path d="M298.7068,261.92332c0,-0.21123 0.17555,-0.38246 0.39207,-0.38246c0.21653,0 0.39207,0.17123 0.39207,0.38246c0,0.21123 -0.17555,0.38246 -0.39207,0.38246c-0.21653,0 -0.39207,-0.17125 -0.39207,-0.38246z" fill="#444444" stroke="none" stroke-width="0.5" stroke-linecap="butt"/><path d="M292.3923,269.70131c-0.39207,0 -0.39207,-0.38246 -0.39207,-0.38246v-0.42666c0,-0.19254 -0.02217,-1.49075 0.07081,-1.95002c-0.15031,0.22124 -0.45967,0.64137 -0.75694,1.03914c0.00142,0.019 0.00272,0.03818 0.00392,0.05755h0.00841v0.71111c0,0.21123 -0.17555,0.38246 -0.39207,0.38246c-0.21653,0 -0.39207,-0.17123 -0.39207,-0.38246v-0.42667c0,-1.9702 -0.84658,-1.20973 -0.8196,0.14224c0,0 0,0.38246 -0.39207,0.38246c-0.39207,0 -0.39207,-0.38246 -0.39207,-0.38246c0.0267,-1.88373 1.50426,-2.64893 2.12146,-1.48581c0.27015,-0.69635 0.90164,-1.2293 1.56155,-0.81558c0.44345,0.27801 0.16281,2.26072 0.16281,2.72804v0.42666c0,0 0,0.38246 -0.39207,0.38246z" fill="#444444" stroke="none" stroke-width="0.5" stroke-linecap="butt"/><path d="M294.87082,269.27465c-0.39207,0 -0.39207,-0.38246 -0.39207,-0.38246c0,-0.37926 0,-1.3274 0,-1.70666c0,0 0,-0.38246 0.39207,-0.38246c0.39207,0 0.39207,0.38246 0.39207,0.38246c0,0.37926 0,0.7585 0,1.13776v0.56889c0,0 0,0.38246 -0.39207,0.38246z" fill="#444444" stroke="none" stroke-width="0.5" stroke-linecap="butt"/><path d="M302.26105,264.90997c0,0.38246 -0.39207,0.38246 -0.39207,0.38246l-0.56883,-0.11201c-0.75148,-0.81522 -0.71816,-2.93129 0.56883,-3.07068c0,0 0.39207,0 0.39207,0.38246c0,0.38246 -0.39207,0.38246 -0.39207,0.38246c-0.35308,-0.12246 -0.32185,1.52617 -0.01435,1.76486l0.01435,-0.11203c0,0 0.39207,0 0.39207,0.38246z" fill="#444444" stroke="none" stroke-width="0.5" stroke-linecap="butt"/><path d="M80.77581,170.22393l-0.51993,18.00492l-2.85959,10.3972l-7.01898,6.84694" fill="none" stroke="#000000" stroke-width="1.5" stroke-linecap="round"/><path d="M107.89836,148.6397l8.19713,-10.852" fill="none" stroke="#000000" stroke-width="1.5" stroke-linecap="round"/><path d="M104.38531,325.12748l12.8812,7.42505" fill="none" stroke="#000000" stroke-width="1.5" stroke-linecap="round"/><path d="M96.39928,248.80423c-0.43678,0.04433 -0.48221,-0.38175 -0.48221,-0.38175l-0.04126,-0.62508c-1.11708,-1.10966 -1.18246,-4.04463 -1.02868,-6.89463c-0.05037,0.2454 -0.10426,0.48776 -0.16199,0.72676v1.09417c0,0.23658 -0.19661,0.42837 -0.43913,0.42837c-0.24252,0 -0.43913,-0.19179 -0.43913,-0.42837v-0.78722l-0.2552,-0.74682l0.16936,-0.05507c-1.55966,-3.9632 -0.44076,-11.04327 -0.2832,-15.34582c-0.09745,-1.08737 -0.21535,-2.1812 -0.35502,-3.29124c-0.10605,-0.8429 -0.46732,-2.23148 -0.47868,-3.36162c-0.05368,-0.28884 -0.10472,-0.58438 -0.15117,-0.88923l0.00559,-0.02137l-0.00716,0.00033l-0.0415,-0.85266c-0.00043,-0.00776 -0.00065,-0.01557 -0.00065,-0.02343c0,-0.23658 0.19661,-0.42837 0.43913,-0.42837c0.15122,0 0.28458,0.07457 0.36357,0.18804c1.85405,0.18886 1.47794,2.10123 1.84236,3.71138c0.00866,0.03826 0.01717,0.07658 0.02553,0.11496c-0.00777,-0.51928 0.02115,-1.02628 0.1327,-1.45451c-0.0002,-0.13443 -0.00035,-0.26886 -0.00042,-0.40329h-0.00004v-0.85673c0,-0.23658 0.19661,-0.42837 0.43913,-0.42837c0.24252,0 0.43913,0.19179 0.43913,0.42837v0.68539c0,0.16733 0.00014,0.33468 0.00037,0.50204c1.02902,4.8763 -0.00037,11.17846 -0.00037,15.94731c0,2.64726 -1.27638,10.29809 0.57835,12.07321l0.1219,0.90486c0,0 0.04544,0.42607 -0.39134,0.4704zM94.62236,224.43806c-0.0509,-1.17734 -0.17397,-2.3321 -0.42543,-3.43187c-0.19935,-0.87182 -0.13569,-2.81605 -0.78951,-3.03156l0.02608,0.14416l-0.08019,0.0138c0.7388,1.87572 1.10095,4.05662 1.26904,6.30546z" fill="#707070" stroke="none" stroke-width="0.5" stroke-linecap="butt"/><path d="M88.71295,136.31698c0,-1.28511 1.3174,-1.28511 1.3174,-1.28511h0.35131c0.152,0 0.32835,-0.00348 0.52417,-0.00872l0.44158,-0.71794c0.22756,-0.38499 0.6538,-0.64413 1.14209,-0.64413c0.36148,0 0.68896,0.14203 0.927,0.37199c0.21543,-0.42355 0.66327,-0.71469 1.18083,-0.71469c0.5578,0 1.03462,0.33817 1.22679,0.81581l0.39258,-0.76591c0.21124,-0.43468 0.66518,-0.73529 1.19108,-0.73529c0.66124,0 1.2087,0.47524 1.30303,1.09467l0.34775,2.03533l-0.31352,0.05098c0.19805,0.81056 0.31429,1.6343 0.30767,2.45948l-0.1562,0.2008l0.08574,0.03346l-0.69121,1.68568c-0.18682,0.48808 -0.66909,0.83561 -1.23457,0.83561c-0.16263,0 -0.31837,-0.02874 -0.46219,-0.08131c-0.00025,0.02234 -0.00048,0.04477 -0.00072,0.06731l-0.16287,0.1982l0.09241,0.03606l-0.69121,1.68568c-0.18682,0.48808 -0.66909,0.83561 -1.23457,0.83561c-0.72758,0 -1.3174,-0.57536 -1.3174,-1.28511v-0.22041c-0.35249,-0.12923 -0.75447,-0.44973 -1.20704,-1.0149c-0.00291,-0.12812 -0.01183,-0.37102 -0.01773,-0.68644c-0.16463,0.07578 -0.3681,0.12261 -0.61958,0.12261c-1.3174,0 -1.3174,-1.28511 -1.3174,-1.28511c0,-0.59973 0.00651,-1.19948 0.01762,-1.79914h-0.10544c0,0 -1.3174,0 -1.3174,-1.28511zM92.94416,140.03803c-0.01468,0.28819 -0.02747,0.60167 -0.03808,0.94124c0.13665,0.19498 0.26106,0.32034 0.37384,0.38648v-0.59106c-0.08619,-0.0697 -0.1293,-0.15378 -0.1293,-0.15378c-0.05441,-0.10616 -0.12723,-0.31104 -0.20646,-0.58288zM93.76667,139.69221c-0.00099,-0.01987 -0.002,-0.03961 -0.00302,-0.05925c-0.00309,0.00297 -0.0062,0.00591 -0.00933,0.00884c0.00414,0.01707 0.00826,0.03387 0.01235,0.05041z" fill="#707070" stroke="none" stroke-width="0.5" stroke-linecap="butt"/><path d="M105.48779,131.86193l-16.86267,3.08425" fill="none" stroke="#000000" stroke-width="1.5" stroke-linecap="round"/><path d="M97.75907,132.54736l2.52767,-1.04236l337.83885,-0.57116l4.68407,202.76102l-348.37802,14.27894" fill="none" stroke="#000000" stroke-width="1.5" stroke-linecap="round"/><path d="M99.8669,132.54736l-1.75653,67.16816" fill="none" stroke="#000000" stroke-width="1.5" stroke-linecap="round"/><path d="M62.76147,90.53204c-0.35618,-0.14493 -0.74775,-0.46358 -0.74775,-1.16421c0,-1.28511 1.3174,-1.28511 1.3174,-1.28511l1.52962,0.71039c0.0426,0.0831 0.1438,0.327 0.27827,0.67089c0.01824,-0.0661 0.03807,-0.13086 0.05963,-0.19417c0.00089,-0.00532 0.00177,-0.01061 0.00266,-0.01592c-0.01233,-0.29301 -0.01978,-0.59725 -0.02339,-0.91417h-0.00243v-1.71348c0,-0.01278 0.00019,-0.02551 0.00057,-0.0382l-0.2128,-0.41517c-0.26882,-0.55008 -0.53763,-1.10017 -0.80645,-1.65023c0.05873,-2.28597 -1.48362,-1.94184 -3.7383,-1.43219c-4.02369,0.90951 -7.50827,2.64103 -11.68125,3.0978c-2.7894,0.30533 -5.46354,-0.47028 -8.10303,0.60311c0,0 -1.22317,0.47728 -1.71244,-0.71591c-0.48927,-1.1932 0.7339,-1.67047 0.7339,-1.67047c2.98416,-1.12708 5.67036,-0.4369 8.75964,-0.76768c3.30909,-0.35431 6.47936,-1.34412 9.5922,-2.34616c1.19377,-0.38428 5.54356,-1.64128 6.81829,-1.01635c2.15493,1.05643 1.85942,2.0142 1.8953,3.65734c0.01033,0.01883 0.02065,0.03764 0.03098,0.05647c1.05818,0.15642 1.05819,1.26688 1.05819,1.26688c0,0.05161 0.00004,0.10313 0.00016,0.15455c0.16749,0.17622 0.28496,0.39834 0.33035,0.64486l0.34652,1.69013l-0.28546,0.05569c0.63554,1.60902 0.84049,3.17826 0.75353,5.10762c0.15512,0.38419 0.33076,0.76852 0.52959,1.15405l-0.01887,0.14915l0.06137,-0.01496l0.34414,1.34282c0.03032,0.10819 0.0465,0.22207 0.0465,0.33964c0,0.70975 -0.58982,1.28511 -1.3174,1.28511c-0.19831,0 -0.38639,-0.04275 -0.55508,-0.1193c-0.12436,0.0982 -0.26996,0.1703 -0.44091,0.20921c-0.23385,0.35801 -0.64441,0.59548 -1.11184,0.59548c-0.72758,0 -1.3174,-0.57536 -1.3174,-1.28511v-0.16866c-0.73634,-0.90041 -1.78198,-4.26995 -2.414,-5.86373z" fill="#707070" stroke="none" stroke-width="0.5" stroke-linecap="butt"/><path d="M51.52749,169.86024c-1.01205,0.82271 -1.85543,-0.16454 -1.85543,-0.16454l-0.06977,-0.08168c-0.61644,-0.73845 -1.23289,-1.4769 -1.84933,-2.21535c-1.02084,-3.68377 -3.55555,-6.76989 -4.33466,-10.61966c-0.51892,-2.56413 0.04543,-5.7186 0.33395,-8.25162c0.04325,-0.3797 0.06468,-0.99257 0.14091,-1.6603c-0.29281,-0.96527 -0.49863,-1.96082 -0.49863,-3.0108c0,0 0,-1.28511 1.3174,-1.28511c0.90951,0 1.19111,0.61252 1.2783,0.99182c0.22314,-0.01692 0.46996,0.00185 0.74311,0.06252c2.95952,0.65733 2.50708,6.30944 1.74484,9.97056l0.05083,0.19836h0.31076v1.37078c0,0.70975 -0.58982,1.28511 -1.3174,1.28511c-0.62695,0 -1.15161,-0.42722 -1.28475,-0.9995l-0.09671,-0.37734c0.55822,4.06131 3.05644,7.14375 3.9613,11.1615c0.50806,0.57788 1.01612,1.15576 1.52417,1.73363l0.06978,0.08168c0,0 0.84337,0.98723 -0.16868,1.80994z" fill="#707070" stroke="none" stroke-width="0.5" stroke-linecap="butt"/><path d="M32.79634,154.35866c0.17136,-0.19242 0.34732,-0.29542 0.34732,-0.29542l1.80038,-1.05265c1.60847,-0.78432 2.49919,-1.15351 3.59179,-1.23875l-0.05446,-0.26564l1.72985,-0.33749c0.09179,-0.01974 0.18717,-0.03016 0.28504,-0.03016c0.72758,0 1.3174,0.57536 1.3174,1.28511c0,0.51301 -0.30817,0.95582 -0.75377,1.16189l-1.30021,0.63417c-2.47745,1.80522 -4.52263,2.15925 -7.37524,2.87763c0,0 -1.27807,0.31168 -1.59758,-0.93505c-0.31951,-1.24673 0.95855,-1.55842 0.95855,-1.55842c0.36872,-0.08758 0.71752,-0.16773 1.05093,-0.24521z" fill="#707070" stroke="none" stroke-width="0.5" stroke-linecap="butt"/><path d="M86.16598,131.51927l3.16175,21.93246" fill="none" stroke="#9e9e9e" stroke-width="1.5" stroke-linecap="round"/><path d="M80.89641,80.11504l-9.83656,0.3427" fill="none" stroke="#9e9e9e" stroke-width="1.5" stroke-linecap="round"/><path d="M206.95297,108.8104c0,-1.28511 1.3174,-1.28511 1.3174,-1.28511h1.3174c0.10082,0.00151 0.20029,0.00034 0.29859,-0.00324c0.38866,-0.42513 1.0188,-0.42513 1.0188,-0.42513c0.55068,0 1.10137,0 1.65205,0c0.66324,-0.17542 0.97644,-0.35327 1.73119,-0.42211c2.76577,-0.25226 5.56247,-0.1614 8.36153,-0.04906c4.32981,-1.20959 10.00726,-1.03598 14.7124,-0.89446c0.88146,-0.11132 1.7267,-0.12992 2.41108,0.06462c0.49715,0.00987 0.97565,0.01591 1.43185,0.01591h1.3174c0.72758,0 1.3174,0.57536 1.3174,1.28511c0,0.70975 -0.58982,1.28511 -1.3174,1.28511h-0.87826c0,0.70975 -0.58982,1.28511 -1.3174,1.28511c-0.36945,0 -2.49543,0 -2.86488,0c-5.35308,0.92832 -11.8623,0 -16.89606,0c-1.86138,0 -5.4793,0 -7.34069,0c-1.19592,0.20733 -2.38464,0.41477 -3.63761,0.42837h-1.3174c0,0 -1.3174,0 -1.3174,-1.28511z" fill="#9e9e9e" stroke="none" stroke-width="0.5" stroke-linecap="butt"/><path d="M319.80987,110.95224c0,1.28511 -1.3174,1.28511 -1.3174,1.28511h-0.87826c-0.55179,0 -1.10449,-0.00196 -1.65801,-0.0056c0.21168,0.22802 0.34062,0.53048 0.34062,0.86233c0,0.70975 -0.58982,1.28511 -1.3174,1.28511c-0.14638,0 -2.48841,0 -2.63479,0c-0.66618,0 -1.33237,0 -1.99855,0c-7.33713,0.93067 -15.4659,0 -22.59284,0c-5.06677,0 -10.58625,0.62217 -15.47323,-0.71828l-1.74966,-0.14187c-0.68241,-0.04832 -1.22066,-0.60369 -1.22066,-1.28169c0,-0.70975 0.58982,-1.28511 1.3174,-1.28511h2.63479v0.16764c14.03888,-3.22779 30.15686,-1.45275 44.35233,-1.45275h0.87826c0,0 1.3174,0 1.3174,1.28511zM282.98639,112.41032c0.17946,0.00325 0.3592,0.00582 0.53919,0.00777c0.01647,-0.02842 0.03391,-0.05552 0.0522,-0.08135c-0.19399,0.0196 -0.39128,0.04444 -0.59139,0.07357z" fill="#9e9e9e" stroke="none" stroke-width="0.5" stroke-linecap="butt"/><path d="M45.94085,174.28139l-3.63947,-24.85186l-5.71917,-39.05292l-1.55978,-24.85186l5.78065,-2.12728l41.30496,-5.88007l292.7486,-6.77631l4.52083,1.85055l4.15939,4.81822l2.33966,4.31103l0.77988,5.32541l1.03985,7.3541l-0.51993,5.32541l-0.77988,5.07181l-2.33966,7.3541l-109.47749,3.94094" fill="none" stroke="#000000" stroke-width="1.5" stroke-linecap="round"/></g><path d="M202.97059,76.36813c0.07363,-0.03682 0.15143,-0.05574 0.23203,-0.0626c-0.13968,0.09495 -0.27915,0.18871 -0.41842,0.28104c0.03963,-0.09462 0.09568,-0.17309 0.18639,-0.21844z" fill="#000000" stroke="none" stroke-width="0.5" stroke-linecap="butt"/><path d="" fill="#000000" stroke="none" stroke-width="0.5" stroke-linecap="butt"/><path d="" fill="#000000" stroke="none" stroke-width="0.5" stroke-linecap="butt"/></g></g></svg>