<svg version="1.1" xmlns="http://www.w3.org/2000/svg" xmlns:xlink="http://www.w3.org/1999/xlink" width="414.24828" height="280.30552" viewBox="0,0,414.24828,280.30552"><g transform="translate(-29.32821,-69.05214)"><g data-paper-data="{&quot;isPaintingLayer&quot;:true}" fill-rule="nonzero" stroke-linejoin="miter" stroke-miterlimit="10" stroke-dasharray="" stroke-dashoffset="0" style="mix-blend-mode: normal"><path d="M118.23858,312.82554c-29.09959,0.11949 -45.45504,0.87421 -62.71924,1.91691l-15.12064,-183.21118c13.63131,0 27.26262,0 40.89394,0c8.55993,0 16.88298,0.48771 25.13736,-0.93107c1.1475,0.09801 2.22048,0.16268 3.14295,0.23342c2.01386,0.15444 4.22333,0.39706 6.2475,0.41171c4.67501,0.03384 9.3506,0.05551 14.02541,0c0.57567,-0.00684 1.18862,-0.02367 1.8303,-0.05341c0.28746,0.07509 0.57491,0.15007 0.86238,0.2249c70.31728,0.31247 140.63805,0.14259 210.9566,0.1174z" fill="#9e9e9e" stroke="none" stroke-width="0" stroke-linecap="butt"/><path d="" fill="#444444" stroke="none" stroke-width="0.5" stroke-linecap="butt"/><path d="" fill="#c3c3c3" stroke="none" stroke-width="0" stroke-linecap="butt"/><path d="" fill="#9e9e9e" stroke="none" stroke-width="0" stroke-linecap="butt"/><path d="M382.29566,72.61834c-0.29656,-0.17392 -0.56816,-0.49249 -0.56816,-1.07598c0,-1.28511 1.3174,-1.28511 1.3174,-1.28511c4.21901,0.06245 6.80638,3.06121 10.29573,4.8711c2.29733,1.1916 5.41295,2.20283 8.15183,3.55055c0.10921,-0.3786 0.29168,-0.6923 0.56582,-0.91244c1.76865,-1.42021 3.66678,1.47942 4.63222,2.18708c1.76292,1.29221 4.15115,2.08879 5.80709,3.50981c1.57239,1.34934 2.20648,3.83765 3.05742,5.75248c0.70778,0.764 1.32711,1.47263 1.8028,1.98943c7.20385,7.82651 11.86377,17.99899 15.72436,27.64298c-0.02339,2.51358 1.31246,5.97888 1.76329,8.60454c0.15086,0.87865 1.36881,2.65131 0.71731,3.42109c-2.05761,2.43115 -6.91328,0.83463 -9.08913,0.12166c-1.51837,-0.49753 -2.7826,-0.07991 -4.1581,-0.95728c-3.91156,-2.495 -5.66136,-8.04334 -9.02381,-11.32339c-4.87239,-4.76009 -11.62851,-9.0846 -15.16046,-14.86684c-1.21835,-1.99459 -2.00906,-5.08902 -3.47219,-7.21303c-1.84742,-2.68188 -4.69088,-5.39193 -5.70872,-8.56737c-3.78561,-3.69282 -6.78373,-10.14974 -6.78373,-15.24014z" fill="#9e9e9e" stroke="none" stroke-width="0.5" stroke-linecap="butt"/><path d="M410.7866,115.56191c-0.19646,-0.20126 -0.38931,-0.40891 -0.57858,-0.62231c0.10244,0.15929 0.20568,0.31818 0.30977,0.47663c0.09184,0.04929 0.18199,0.09887 0.27028,0.14848c-0.00049,-0.00094 -0.00098,-0.00186 -0.00147,-0.0028zM403.78877,102.89862c-0.01242,-0.03587 -0.02478,-0.07165 -0.03707,-0.10736l-0.42941,-1.25664c-0.05005,-0.13581 -0.07733,-0.28222 -0.07733,-0.43484c0,-0.70975 0.58982,-1.28511 1.3174,-1.28511c0.54769,0 1.01732,0.32603 1.21607,0.78998l1.05788,2.32188l-0.20511,0.08893c0.00122,0.00311 0.00244,0.00621 0.00367,0.00933c2.21564,2.9919 4.25802,6.47249 6.02389,9.98499c0.47504,0.68205 0.95014,1.37861 1.43056,2.08992l-0.00318,0.18084l0.06953,-0.02261l0.42941,1.25664c0.05005,0.13581 0.07733,0.28222 0.07733,0.43484c0,0.08778 -0.00902,0.17351 -0.02621,0.25634c0.29301,0.66428 0.57434,1.32302 0.84326,1.97301c2.30688,2.17844 4.34864,4.5488 6.86744,6.4839c0.41641,1.45133 2.09305,2.97812 1.38141,4.31582c-0.47262,0.8884 -3.11656,0.91446 -5.33473,0.82015l0.03329,0.05412l-0.67824,0.39698c0.12548,0.42227 0.24472,0.84841 0.35933,1.27714l-1.24672,-0.58763l-0.49556,0.48341l-1.3174,-1.28511l0.03652,-0.03562l-0.12378,-0.05834c-0.0877,-0.12773 -0.17357,-0.25647 -0.25772,-0.38615c-7.72089,0.00122 -14.84267,-0.10238 -19.62385,-7.06583c-2.39506,-4.67272 -7.42938,-8.89323 -8.90408,-13.98041c-1.47588,-5.09125 0.08144,-13.3549 1.71701,-18.14135c-0.01017,-0.64529 -0.01509,-1.29066 -0.01654,-1.93602c-0.00016,0.00001 -0.00031,0.00002 -0.00047,0.00004c0,0 -1.3174,0 -1.3174,-1.28511c0,-1.28511 1.3174,-1.28511 1.3174,-1.28511c0.26748,0.01017 0.53043,0.03915 0.78897,0.08518c0.14704,-0.05347 0.32148,-0.08518 0.52843,-0.08518c0.65255,0 0.98187,0.31531 1.14807,0.63356c2.78416,1.3238 5.01779,4.42588 6.9283,6.57772c2.24578,2.52947 4.06156,5.26595 5.71544,8.07891c0.27329,0.2127 0.54124,0.42763 0.80422,0.64482z" fill="#707070" stroke="none" stroke-width="0.5" stroke-linecap="butt"/><path d="M84.8743,75.39767c0,0.65238 -0.33949,0.97358 -0.6738,1.13172c-0.04666,0.21245 -0.08994,0.42339 -0.13008,0.63309c0.02875,-0.00895 0.04524,-0.01297 0.04524,-0.01297c4.79719,-1.14504 10.31519,-0.46674 15.25,-0.46674c9.73806,0 19.53395,0.33893 29.24476,-0.38455c17.9129,-2.99357 35.1771,-3.47077 53.31205,-3.47077c16.39426,0 32.78852,0 49.18278,0c17.51374,0 35.12062,-0.85673 52.69583,-0.85673c15.516,0 31.03199,0 46.54799,0c14.63773,0 29.27546,0 43.9132,0c8.16213,0 12.7716,5.055 15.19999,11.48548c-2.46517,1.02069 -2.46517,3.93578 -2.46517,3.93578c0,6.39556 1.26748,14.05615 0.0567,20.30387c-0.49233,2.54048 -1.43184,5.2766 -2.45877,7.97025l-1.47567,0.01298c-17.8609,1.46496 -36.11774,0.76665 -54.14694,0.50063c-1.44234,-2.95837 -4.95798,-2.101 -4.95798,-2.101l-2.88496,0.75009c-5.21515,0.50874 -10.33119,1.13457 -15.45227,1.72119c-1.04298,-0.14727 -2.08683,-0.28812 -3.13176,-0.42059c-0.09241,0.29049 -0.20719,0.56358 -0.34273,0.81055c-1.27339,0.13927 -2.54853,0.27394 -3.82704,0.40162c-0.88307,0.01886 -1.767,0.03157 -2.65211,0.03514c-26.06937,-0.01714 -52.12316,-0.22876 -78.14335,0.84001c-1.24185,-0.83898 -2.72283,-0.83898 -2.72283,-0.83898h-2.19566c-8.65467,0 -17.72424,0.60424 -26.41718,2.14184c-14.9074,0 -29.81479,0 -44.72219,0c-15.85662,0 -31.6637,0.85673 -47.42625,0.85673c-1.50856,0 -3.80193,0.37904 -5.21222,-0.05514c-0.17848,-0.05495 -0.35167,-0.12017 -0.51976,-0.19484c1.38163,8.48703 2.28104,16.91553 2.28104,25.78609c0,11.42139 1.32997,23.80846 -1.44456,34.92385c-0.21,0.7935 -0.39655,1.57514 -0.56703,2.34707c0.41452,0.27592 0.55568,0.75785 0.55568,0.75785c0.86742,3.01451 0.69939,6.64133 -0.18148,9.94708c0.30348,2.88074 -0.21414,6.31974 -1.03932,7.56275c-1.61923,2.43911 -3.13695,2.35193 -4.09609,1.17159c-0.20136,0.09619 -0.45093,0.1556 -0.734,0.09942c-0.43067,1.21846 -0.88395,2.53445 -1.5656,3.28071c-3.59724,3.93813 -11.84748,3.42555 -11.00776,-2.71056c2.80686,-3.3571 6.75396,-5.47196 9.23163,-9.08184c0.17213,-0.25079 0.33364,-0.51324 0.48504,-0.78642v-0.56232c0,-7.61318 -1.09791,-16.31061 0.25824,-23.98863h-0.25824v-2.39886c0,-0.46902 0.25758,-0.87938 0.64228,-1.10377c-0.42505,-2.15612 -1.06983,-4.22572 -2.01227,-6.14025c-0.07093,-5.1765 -1.20204,-11.1005 -2.13034,-16.22366c-1.08944,-6.01249 -0.01273,-13.24135 -0.01273,-19.36914c0,-0.29946 -0.00701,-0.59879 -0.0205,-0.898c-0.23808,-1.43042 -0.54769,-2.84308 -0.98088,-4.22582c-1.2225,-3.90221 -3.68881,-8.82738 -3.3718,-13.06688c-0.05554,-0.23543 -0.10849,-0.47042 -0.15856,-0.70495c-1.00028,-4.68557 -4.5286,-9.00577 -4.60221,-14.00305c0,-4.00984 -0.35131,-7.96615 -0.35131,-11.99431v-0.3427c0,0 0,-1.28511 1.3174,-1.28511c1.3174,0 1.3174,1.28511 1.3174,1.28511v0.3427c0,0.60522 0.00792,1.20874 0.02139,1.81097c2.60965,0.05662 5.44219,0.2751 7.94364,-0.28222c0.75426,-0.16805 1.45402,-0.9553 2.19464,-0.73702c0.38614,0.1138 0.71056,0.24281 0.98373,0.38577c0.12202,-1.58648 0.35054,-3.1632 0.77819,-4.83581l1.71719,-0.97342c0,0 1.3174,0 1.3174,1.28511zM239.86798,107.13993c-13.47083,-2.33235 -27.22239,-1.92155 -40.88977,-1.78799c5.04084,0.92342 10.11983,1.74487 15.45781,1.7451c8.40324,0.22117 16.91823,0.07595 25.43196,0.04289zM300.2384,113.2596c-0.06771,-0.15784 -0.18721,-0.27106 -0.37194,-0.31757c-4.00015,-1.00728 -8.38393,-1.35942 -12.85534,-1.51121c2.50882,0.43418 5.01116,0.8713 7.50529,1.30687c1.91255,0.13193 3.8194,0.30994 5.72199,0.52191z" fill="#9e9e9e" stroke="none" stroke-width="0.5" stroke-linecap="butt"/><path d="M34.17277,84.99848h0.69235l0.48394,-0.65169c0,0 0.93154,-0.90871 1.86308,0c0.1367,0.13335 0.23328,0.2667 0.29857,0.39718c0.06919,-0.0159 0.13817,-0.03251 0.2069,-0.04982c0,0 0.82969,-0.20235 1.31921,0.37114c0.16521,-0.05081 0.28626,-0.06154 0.28626,-0.06154c4.22013,-0.37303 8.72263,-0.67632 12.88807,-1.3576c5.24323,-0.85757 10.70497,-3.06576 14.97189,-1.96835l0.57038,3.20744c-0.02697,1.17795 0.0272,2.2701 0.14469,3.11182c0.56008,4.01235 2.68915,10.468 5.39113,16.06447c0.67399,8.01811 2.90028,18.41836 6.0449,27.76193c0.04722,2.09783 0.06923,4.22159 0.06923,6.37837c0,14.42664 0.70261,29.12164 0.70261,43.69357c0,4.4779 1.10972,10.40394 -0.03524,14.68843c-1.73031,6.47489 -11.64868,12.5992 -17.62013,7.51452c-2.93321,-2.49763 -4.45726,-6.4555 -6.56727,-9.53861c-4.34878,-5.47913 -7.50578,-11.37838 -9.91228,-17.68217c0.28291,-5.76726 -0.79996,-14.37845 -2.70795,-21.55551c0.95841,-8.66474 -4.79469,-23.40318 -4.47366,-30.18713c0.41308,-8.72902 -3.20694,-17.31281 -3.91406,-25.86799c-0.2804,-3.39246 -0.21186,-6.54789 -0.86341,-9.62213c0.0461,-0.70282 0.11303,-1.39621 0.20623,-2.07613h-0.04543c0,0 -0.44091,0 -0.81259,-0.24882c-0.14603,-0.40942 -0.30999,-0.81809 -0.49451,-1.22639c0.12305,-1.095 1.30709,-1.095 1.30709,-1.095z" fill="#707070" stroke="none" stroke-width="0.5" stroke-linecap="butt"/><path d="M98.813,138.71586v206.98759h-17.0706c-8.5765,-4.84824 -21.76174,-6.40064 -29.59627,-8.87187c-4.36142,-1.37571 -9.32467,-2.77195 -14.16387,-2.77736c-0.09862,-0.00159 -0.19742,-0.00239 -0.29643,-0.00239c-0.27168,0 -0.54192,0.00602 -0.81059,0.01792c-1.8543,-0.87847 -3.68806,-1.8005 -5.51291,-2.73924v-175.23913c3.40473,-0.1459 7.45266,-2.0075 11.39215,-3.81437c0.20651,1.53427 0.6211,3.00462 1.21523,4.38323c0.21178,0.87923 0.36247,1.6649 0.39092,2.3112c0.57932,13.15614 3.25267,21.95546 9.50296,31.60457c1.85077,8.81549 6.55454,15.83384 17.26824,18.15632c8.96837,1.94412 18.95396,-9.93122 19.95243,-17.58418c0.1788,-1.3704 -1.94237,-2.22631 -2.10783,-3.5983c-0.17991,-1.49177 -0.25422,-2.99034 -0.26891,-4.49235c0.15378,-0.57523 0.22593,-1.12487 0.13315,-1.59331c-0.02056,-0.10381 -0.04837,-0.2049 -0.08246,-0.30365c0.3839,-1.7538 0.51602,-3.51141 0.92082,-5.09096v-20.21899c1.27055,-4.95764 1.78562,-11.3517 0.62218,-17.13474z" fill="#707070" stroke="none" stroke-width="0" stroke-linecap="butt"/><path d="M403.39492,334.05181v-201.16178h39.34622v201.16178z" fill="#9e9e9e" stroke="none" stroke-width="0" stroke-linecap="butt"/><path d="M209.07479,132.48002c41.97279,-0.14088 83.94663,-0.46818 125.91763,-0.1611c10.71986,0.07843 29.206,5.16309 42.35178,3.69855c-0.00351,0.01841 -0.00699,0.03681 -0.01043,0.05522c-0.18837,1.00547 -0.28675,2.04159 -0.28675,3.10012c-0.16636,0.84195 0.28839,4.10312 0.94376,7.88095c-56.77231,-0.27337 -113.54733,-0.18773 -170.31851,0.21512c0.03012,-0.41024 0.04546,-0.82447 0.04546,-1.2422c0,-2.86969 -0.72318,-5.5746 -2.00146,-7.95079c1.45363,-1.53509 2.57161,-3.46936 3.35852,-5.59589z" fill="#444444" stroke="none" stroke-width="0.5" stroke-linecap="butt"/><path d="M79.09635,168.21872c0,-15.92613 -1.67518,-32.35319 -5.16778,-47.90666c-0.13079,-2.27273 -0.56146,-4.43686 -1.13816,-6.54734c0.86233,-0.55756 1.67127,-1.1874 2.41776,-1.88067c0.66922,2.63543 1.17445,5.31184 1.33073,8.07853c3.56373,15.62567 5.19224,32.24754 5.19224,48.25614c0,1.66449 -0.01555,3.31735 -0.05846,4.95571c-0.81232,-0.61637 -1.68159,-1.16467 -2.59882,-1.63611c0.01635,-1.10072 0.02248,-2.20759 0.02248,-3.3196z" fill="#000000" stroke="none" stroke-width="0.5" stroke-linecap="butt"/><path d="M85.91034,120.48177l300.9441,-7.80248" fill="none" stroke="#000000" stroke-width="1.5" stroke-linecap="round"/><path d="M138.55695,83.66849l-44.41753,0.45609" fill="none" stroke="#000000" stroke-width="1.5" stroke-linecap="round"/><path d="M94.60698,91.87815h31.32604" fill="none" stroke="#000000" stroke-width="1.5" stroke-linecap="round"/><path d="M97.87985,98.71954h15.42925" fill="none" stroke="#000000" stroke-width="1.5" stroke-linecap="round"/><path d="M61.87828,79.10755l1.61892,2.97267" fill="none" stroke="#000000" stroke-width="1.5" stroke-linecap="round"/><path d="M211.2308,147.39746l-4.21567,-8.22467l0.00964,-3.91505l170.65678,-1.36828l-2.07532,11.54467l-162.70838,2.28046l-11.68881,-16.87542l-102.86164,0.91219l304.06213,0.3248" fill="none" stroke="#000000" stroke-width="1.5" stroke-linecap="round"/><path d="M226.66197,135.71385l-0.46755,11.85841" fill="none" stroke="#000000" stroke-width="1.5" stroke-linecap="round"/><path d="M265.93642,147.11616l0.46755,-13.22667" fill="none" stroke="#000000" stroke-width="1.5" stroke-linecap="round"/><path d="M300.53531,144.83569l0.93511,-10.03403" fill="none" stroke="#000000" stroke-width="1.5" stroke-linecap="round"/><path d="M337.472,145.29181l0.46755,-11.40232" fill="none" stroke="#000000" stroke-width="1.5" stroke-linecap="round"/><path d="M358.97944,133.88946l-1.40266,10.94623" fill="none" stroke="#000000" stroke-width="1.5" stroke-linecap="round"/><path d="M68.5576,81.2137l6.75903,39.30652" fill="none" stroke="#000000" stroke-width="1.5" stroke-linecap="round"/><path d="M97.90671,107.07992l243.06482,-3.80386" fill="none" stroke="#000000" stroke-width="1.5" stroke-linecap="round"/><path d="M382.23708,101.75451l-33.53514,0.76078" fill="none" stroke="#000000" stroke-width="1.5" stroke-linecap="round"/><path d="M373.39837,69.80214l18.45733,3.29667l14.82441,6.86496l7.23718,8.86228l19.76196,29.0674" fill="none" stroke="#000000" stroke-width="1.5" stroke-linecap="round"/><path d="M433.16453,117.16283l0.52713,0.77131l1.36996,3.50886l2.87478,9.21418l-12.73483,2.14184" fill="none" stroke="#000000" stroke-width="1.5" stroke-linecap="round"/><path d="M386.92846,81.20682l17.41791,20.15206l15.18813,22.491l5.66706,6.8073h-25.46965l-1.33476,-4.70003l-13.38014,-18.02444" fill="none" stroke="#000000" stroke-width="1.5" stroke-linecap="round"/><path d="M412.94872,334.83718l-314.41848,13.13664l-0.58552,-30.27137" fill="none" stroke="#9e9e9e" stroke-width="2.5" stroke-linecap="round"/><path d="M415.29075,334.97681l-26.90488,2.54091l-291.03539,8.27702c0.27455,-4.39745 -0.11293,-9.04666 0.00873,-11.70396c0.2727,-5.95596 2.21242,-12.00864 2.53481,-18.07079l241.40231,-183.77616c29.09221,0.66582 45.46208,0.35274 62.74813,-0.22369z" fill="#9e9e9e" stroke="none" stroke-width="0" stroke-linecap="butt"/><path d="M89.16208,148.06859l-2.2809,-12.77393l11.93378,-3.87795l-2.80532,216.97032l-53.80731,-14.21866l-10.71498,-4.09545l0.55116,-11.41089l-1.95382,-164.91102l15.18738,-4.93523" fill="none" stroke="#000000" stroke-width="1.5" stroke-linecap="round"/><path d="M82.7515,75.23126c0.26109,0 0.44454,0.0757 0.57347,0.1821c0.13105,0.10391 0.24128,0.26578 0.2896,0.51604c0.02132,0.11042 0.025,0.20906 0.0153,0.29715c0.01728,9.6431 1.83151,18.97929 2.8041,28.5526c0.00703,11.3011 3.34158,22.47306 3.26465,33.66912c3.33897,10.63589 1.41197,23.68296 1.41197,34.78744c0,11.18982 1.81182,22.88106 -3.43865,32.88353c-4.29034,4.10276 -18.62492,3.01546 -23.87708,1.23121c-3.004,-1.0205 -5.59686,-5.12035 -7.53789,-7.40707c-7.19678,-8.48452 -9.30087,-21.36362 -10.82938,-31.98393c-0.8161,-2.37153 -1.67513,-4.90042 -1.88943,-7.4099c-0.16478,-1.92953 0.80999,-5.41365 0.04079,-7.11098c-0.8572,-1.89159 -1.43744,-4.07228 -1.85925,-6.35325c0.59662,-0.16273 1.18543,-0.36508 1.76577,-0.60126c0.42591,2.26754 0.98554,4.45516 1.75988,6.41266c0.81201,2.05271 -0.14418,5.26688 0.04079,7.48399c0.20291,2.43227 1.07008,4.88495 1.85099,7.18507c1.53991,10.35389 3.4407,22.99832 10.47302,31.28513c1.5917,1.87701 4.18387,6.09292 6.69372,6.8596c4.03262,1.23185 8.59062,0.87543 12.83697,0.87543c2.78512,0 6.98959,0.66924 9.10612,-1.46857c1.02202,-2.05727 2.68336,-3.83859 3.12163,-6.1505c1.50733,-7.95115 -0.01453,-17.63123 -0.01453,-25.73114c0,-11.09687 1.82429,-23.8851 -1.39335,-34.53862c-0.0655,-11.2826 -3.28852,-22.4515 -3.28109,-33.83258c-0.91884,-8.87761 -2.52362,-17.55549 -2.77335,-26.46022c0.12283,-0.50882 0.23711,-1.03432 0.34256,-1.57722c0.10183,-0.52427 0.17544,-1.04506 0.22197,-1.5615c0.08184,-0.02186 0.17488,-0.03431 0.28066,-0.03431z" fill="#000000" stroke="#000000" stroke-width="0.5" stroke-linecap="butt"/><path d="M66.85828,208.8075c-0.93154,-0.90871 0,-1.81741 0,-1.81741l0.46755,-0.45609c0.90858,-0.88631 1.74766,-1.79407 2.5225,-2.72198c0.34702,0.01995 0.69678,0.03005 1.04893,0.03005c0.80221,0 1.59185,-0.05246 2.36553,-0.15406c-1.18687,1.60837 -2.53748,3.16465 -4.0739,4.6634l-0.46755,0.45609c0,0 -0.93154,0.90871 -1.86308,0z" fill="#000000" stroke="none" stroke-width="0.5" stroke-linecap="butt"/><path d="M434.92415,230.26783c0,42.36643 -22.38115,76.7112 -49.98971,76.7112c-27.60856,0 -49.98969,-34.34477 -49.98969,-76.7112c0,-42.36643 22.38113,-76.71121 49.98969,-76.71121c27.60856,0 49.98971,34.34477 49.98971,76.71121z" fill="#444444" stroke="#000000" stroke-width="1.5" stroke-linecap="butt"/><path d="M430.46646,232.94481c0,37.5215 -19.6726,67.93866 -43.93998,67.93866c-24.26738,0 -43.94,-30.41716 -43.94,-67.93866c0,-37.5215 19.6726,-67.93866 43.94,-67.93866c24.26738,0 43.93998,30.41716 43.93998,67.93868z" fill="#444444" stroke="#000000" stroke-width="1.5" stroke-linecap="butt"/><path d="M397.73411,282.29024c-0.45085,-0.46764 -0.11971,-1.10435 -0.11971,-1.10435l0.13055,-0.251c0.42849,-0.8169 0.77883,-1.72308 1.05116,-2.66413c0.18716,-0.34292 0.37177,-0.68808 0.55401,-1.0353c-0.4072,-0.76469 -0.8281,-1.52266 -1.16897,-2.325c-0.71059,-1.67254 -1.71595,-2.33656 -2.48113,-3.83376c-1.7394,4.27664 -3.40863,8.63103 -5.19509,12.89663c0.25891,0.45358 0.53246,0.90344 0.82429,1.35015l0.2822,0.39764c0,0 0.39555,0.5586 0,1.11724c-0.39555,0.55861 -0.7911,0 -0.7911,0l-0.31338,-0.44348c-0.2125,-0.32529 -0.41596,-0.65215 -0.61164,-0.98083c-0.5059,1.18255 -1.02253,2.35675 -1.55397,3.51897c-1.12263,0.92929 -1.82635,5.23587 -2.58108,7.37291l0.05905,0.06727c0,0 0,0.79 -0.5594,0.79c-0.5594,0 -0.55938,-0.79 -0.55938,-0.79l0.05905,-0.77387c0.83147,-2.34213 1.49591,-6.44032 2.7793,-7.76726c0.53277,-1.25635 1.05876,-2.52569 1.58075,-3.80308c-1.13061,-2.14354 -2.00992,-4.37528 -2.95961,-6.75634c-1.49375,-3.74517 -4.04295,-7.12909 -5.813,-10.70284c-0.34755,-0.59932 -0.69817,-1.19195 -1.05163,-1.77856c-0.12406,0.26028 -0.24848,0.5203 -0.37328,0.78007c-0.53546,3.04131 -2.62221,4.99574 -3.27137,7.55569c-0.38482,1.51747 -0.93834,3.18208 -1.60171,4.84896c0.20989,0.35384 0.41582,0.70768 0.61744,1.06133c1.18748,2.0829 1.67998,3.90522 3.29525,5.50128l0.38392,1.4914c0,0 0.1769,0.74946 -0.35378,0.99928c-0.53068,0.24982 -0.70758,-0.49963 -0.70758,-0.49963l-0.21166,-1.03197c-1.62923,-1.44199 -2.12083,-3.41077 -3.25632,-5.4333c-0.12097,-0.21549 -0.24375,-0.43106 -0.36822,-0.64673c-1.03175,2.36684 -2.25317,4.65274 -3.49249,6.43476l-0.5688,1.60653c-0.08969,0.26722 -0.28245,0.45201 -0.50576,0.45201c-0.30894,0 -0.5594,-0.35369 -0.5594,-0.79c0,-0.09381 0.01159,-0.18383 0.03285,-0.26732l0.29367,-1.24419l0.05198,0.02447l0.00285,-0.18997c1.45957,-2.1171 2.80496,-4.72407 3.92988,-7.40078c-2.90965,-4.78135 -6.54675,-9.53127 -9.78785,-13.62385c-0.63291,-0.80007 -1.25925,-1.60904 -1.88161,-2.42355c-0.05308,0.1697 -0.10369,0.34027 -0.15171,0.51171c-1.01415,3.62177 -2.02496,7.45816 -2.75852,11.20246c2.15545,3.15739 4.25998,6.38292 6.45861,9.4879c1.14445,1.61623 2.92214,3.28725 3.79807,5.23751c0.10775,0.01097 0.53495,0.09803 0.53495,0.7884c0,0.79 -0.5594,0.79 -0.5594,0.79l-0.79813,-0.4367c-0.63253,-1.89846 -2.68678,-3.73705 -3.76659,-5.26198c-1.98354,-2.80123 -3.89053,-5.70063 -5.8274,-8.55957l-0.38294,1.89278c-0.06276,0.33934 -0.28131,0.58974 -0.54127,0.58974c-0.30894,0 -0.55938,-0.35369 -0.55938,-0.79c0,-0.02409 0.00076,-0.04795 0.00225,-0.07149l0.07253,-1.28772l0.01465,0.00164l-0.01005,-0.05787c0.09884,-0.61748 0.20615,-1.23979 0.32099,-1.86537c-0.47251,-0.68736 -0.94788,-1.37082 -1.42771,-2.04844c0,0 -0.39555,-0.5586 0,-1.11722c0.39555,-0.55861 0.79109,0 0.79109,0c0.32822,0.46352 0.65436,0.92978 0.97893,1.39814c0.7145,-3.51307 1.63714,-7.08334 2.61096,-10.44402c0.10567,-0.36467 0.22203,-0.72509 0.34741,-1.08188c-2.57839,-3.40916 -5.10902,-6.88702 -7.78205,-10.18965c-0.87133,-1.07657 -2.25786,-3.46831 -3.46401,-3.31372c-0.27319,1.39194 -0.47168,2.73358 -0.56655,3.95384l-0.34136,1.19099c0,0 -0.21307,0.73045 -0.73029,0.42956c-0.51723,-0.30089 -0.30416,-1.03135 -0.30416,-1.03135l0.2916,-0.97895c0.09229,-1.22321 0.29316,-2.5894 0.572,-4.01623c-0.06345,-0.35446 0.03657,-0.58797 0.14853,-0.73112c0.90646,-4.30271 2.45831,-9.01919 3.84799,-11.97567c0.36044,-1.81448 0.70035,-2.64249 1.35441,-3.51542c-1.12203,-0.99378 -2.2221,-1.87318 -3.26728,-2.58823c0,0 -0.50033,-0.3533 -0.25016,-1.05989c0.25016,-0.70659 0.75049,-0.35328 0.75049,-0.35328c1.16131,0.8397 2.37674,1.8432 3.60973,2.95926c0.39237,-0.7359 1.08339,-3.54421 1.47682,-4.32208c1.18843,-2.3497 2.24395,-4.69228 3.26995,-7.02644c-1.96742,-1.73774 -3.97348,-2.59744 -5.72646,-5.06519c0,0 -0.39555,-0.5586 0,-1.11722c0.39555,-0.55861 0.7911,0 0.7911,0c1.68665,2.39029 3.62092,3.1815 5.52314,4.84037c1.15253,-2.63759 2.29271,-5.26404 3.57041,-7.8775c1.15616,-2.35188 2.31814,-4.83411 3.53457,-7.30013c-0.67238,-0.50719 -1.34868,-1.00606 -2.0289,-1.49752c-1.48869,-1.0756 -2.10144,-1.96559 -3.84762,-1.95685c0,0 -0.55938,0 -0.55938,-0.79c0,-0.79 0.55938,-0.79 0.55938,-0.79c1.92171,0.00858 2.73052,0.95496 4.35719,2.13023c0.72706,0.52532 1.44973,1.05904 2.16798,1.60231c2.12254,-4.2132 4.43068,-8.3025 7.17009,-11.52743c-1.41409,-0.94581 -2.83897,-1.65709 -4.25765,-1.991c0,0 -0.55178,-0.12987 -0.45982,-0.9091c0.09195,-0.77925 0.64375,-0.64938 0.64375,-0.64938c1.684,0.39637 3.37041,1.29218 5.03586,2.4728c0.64356,-0.6831 1.3107,-1.31752 2.00425,-1.89462c0.80709,-1.0404 1.64973,-2.06765 2.52025,-3.07482c-0.93707,-0.71412 -1.87553,-1.4338 -2.81094,-2.17707c-0.99983,-0.79449 -3.6925,-3.65148 -4.80444,-2.6722c0,0 -0.50033,0.3533 -0.75049,-0.3533c-0.25016,-0.70659 0.25016,-1.05988 0.25016,-1.05988c1.64848,-1.02652 3.40737,0.82408 4.86476,1.94678c1.40714,1.08398 2.82149,2.13905 4.22868,3.20592c2.06785,-2.30299 4.2711,-4.48375 6.51417,-6.45556c-0.5883,-0.6538 -1.16588,-1.32594 -1.7293,-2.02218c0,0 -0.42097,-0.52019 -0.05261,-1.11474c0.36836,-0.59452 0.78935,-0.07432 0.78935,-0.07432c0.65308,0.807 1.32493,1.58176 2.01033,2.33324c1.40466,-1.18884 2.81921,-2.29132 4.2205,-3.28643c0,0 0.50035,-0.3533 0.75051,0.35328c0.25016,0.70659 -0.25016,1.05989 -0.25016,1.05989c-1.25379,0.88073 -2.51393,1.85238 -3.76578,2.89753c3.98247,4.1834 8.32902,7.74101 12.06252,12.34452c1.55469,-1.6773 3.16312,-3.22167 4.90164,-4.45896c0,0 0.50033,-0.3533 0.75049,0.35328c0.25016,0.70659 -0.25018,1.05988 -0.25018,1.05988c-1.61681,1.1312 -3.1213,2.54247 -4.57465,4.08613c3.20333,4.02564 6.72093,7.96741 9.84037,12.34824c1.29709,-1.80657 2.56088,-3.48707 2.56088,-6.20638c0,0 0,-0.78997 0.5594,-0.78997c0.5594,0 0.5594,0.78997 0.5594,0.78997c0,3.25786 -1.41047,5.17991 -2.90249,7.31983c1.84089,2.69308 3.51467,5.56239 4.86428,8.7232c1.05241,2.46958 2.33669,4.74734 3.47081,7.14675c0.69966,-0.97399 1.49466,-1.59667 2.52323,-1.22893c0,0 0.5307,0.24982 0.3538,0.99928c-0.1769,0.74946 -0.70758,0.49963 -0.70758,0.49963c-0.45824,-0.32589 -1.01886,0.23691 -1.56429,1.06131c0.50193,1.15527 0.95511,2.35022 1.31968,3.61752l0.04683,0.16381c0,0 0.20943,0.73253 -0.30927,1.02831c-0.5187,0.29577 -0.72815,-0.43676 -0.72815,-0.43676l-0.04683,-0.16381c-0.28953,-1.0196 -0.64076,-1.9922 -1.03082,-2.93511c-0.36985,0.6824 -0.70191,1.34665 -0.94988,1.74645c-0.58046,0.93586 -1.18968,1.89588 -1.81181,2.8751c1.30886,2.25905 2.51069,4.62916 3.53427,7.18202c0.15013,0.22042 0.32253,0.48576 0.50967,0.78613c0.85329,-0.76882 1.7706,-1.29003 2.69648,-1.32423c0,0 0.55938,0 0.55938,0.79c0,0.79 -0.55938,0.79 -0.55938,0.79c-0.56348,-0.03432 -1.2755,0.36715 -1.97421,0.95591c1.27657,2.23132 2.76525,5.30975 2.8314,7.08587v0.42055c0,0 0,0.79 -0.5594,0.79c-0.5594,0 -0.5594,-0.79 -0.5594,-0.79v-0.42055c0.08897,-1.12573 -1.43029,-4.08129 -2.64586,-6.18603c-0.62977,0.68298 -1.17835,1.43473 -1.50048,2.03217c-1.7416,3.23006 -3.61601,6.30392 -5.45193,9.42202c1.59359,3.91395 3.31527,7.70359 4.97552,11.5611l0.32134,0.89942c0,0 0.25168,0.70551 -0.2479,1.06094c-0.49957,0.35543 -0.75127,-0.3501 -0.75127,-0.3501l-0.30045,-0.84363c-1.58695,-3.68058 -3.23055,-7.29873 -4.75738,-11.0291c-0.76339,1.3132 -1.51587,2.63905 -2.24484,3.99228c-1.0279,1.90556 -1.97537,3.88393 -2.88002,5.90192c1.67933,4.24596 3.5458,9.07221 4.34915,13.47836l0.02645,0.14942c0,0 0.13567,0.7664 -0.40702,0.95802c-0.5427,0.1916 -0.67835,-0.57481 -0.67835,-0.57481l-0.02645,-0.14942c-0.67802,-3.97119 -2.37476,-8.40505 -3.9367,-12.33686c-2.55424,5.8719 -4.8305,12.00394 -7.73081,17.59859c0.46457,0.94578 0.87586,1.92632 1.10976,3.05671l0.26295,0.42705c0,0 0.32903,0.63889 -0.12334,1.10357c-0.45238,0.46468 -0.78143,-0.17419 -0.78143,-0.17419l-0.43513,-0.92838c-0.14786,-0.77853 -0.40994,-1.49548 -0.72388,-2.18473c-0.08697,0.15944 -0.17453,0.31837 -0.26269,0.47681c-0.28647,0.99497 -0.67008,1.94088 -1.11812,2.80881l-0.13055,0.25098c0,0 -0.33114,0.63669 -0.78199,0.16905zM411.11185,251.30275c0.80783,-1.49962 1.64785,-2.96174 2.49975,-4.41005c-1.19038,-2.32403 -2.33299,-4.69427 -3.46113,-7.07752c-1.43185,3.08087 -3.10248,6.08327 -4.74717,9.11843c1.05936,2.50288 2.0365,4.96311 2.92601,7.22215c0.05714,0.14526 0.11477,0.29144 0.17286,0.43854c0.82552,-1.8051 1.687,-3.57648 2.60967,-5.29155zM418.89026,237.83544c0.61485,-1.12883 1.43417,-2.42257 2.36905,-3.49746c-0.1965,-0.3192 -0.36632,-0.58484 -0.49532,-0.77703c-0.9996,-2.45062 -2.15619,-4.73239 -3.40961,-6.90989c-2.37086,3.74095 -4.83216,7.72462 -6.53904,11.6858c-0.0023,0.00527 -0.00458,0.01057 -0.00689,0.01585c1.15869,2.44998 2.32865,4.89046 3.5439,7.28776c1.53222,-2.57856 3.0836,-5.13501 4.53792,-7.805zM407.35133,256.92304c-0.81382,-2.07079 -1.70696,-4.33108 -2.67363,-6.64321c-2.22385,4.15416 -4.32687,8.39972 -5.63835,13.01847c-0.94247,2.04562 -1.8391,4.13576 -2.71289,6.24998c0.07892,0.1725 0.15788,0.3446 0.23689,0.51625c0.71157,1.54567 1.85057,2.32284 2.57718,4.03304c0.27056,0.63681 0.57475,1.23658 0.8816,1.82814c2.86772,-5.7142 5.18104,-11.90995 7.79883,-17.81739c-0.16032,-0.4027 -0.31733,-0.79816 -0.46963,-1.18529zM398.04692,262.5689c1.38072,-4.88718 3.65005,-9.35912 6.01486,-13.74489c-2.67774,-6.25102 -5.87692,-12.66812 -9.48516,-16.58474c-0.11279,-0.12306 -0.22526,-0.24674 -0.33741,-0.37103c-1.48088,2.99166 -2.8194,6.19063 -4.19692,9.19182c-1.47583,3.21538 -2.9102,6.4416 -4.34119,9.65978c0.04135,0.08059 0.08247,0.16131 0.12338,0.24217c1.236,2.4437 2.61744,3.62255 4.00474,5.74693c2.24767,3.44184 4.04228,7.42872 5.79948,11.30515c0.78689,-1.84668 1.59004,-3.6669 2.41823,-5.44518zM419.09692,221.51842c0.39843,-0.64239 0.78104,-1.39214 1.18018,-2.09951c-1.17754,-2.5534 -2.56697,-4.94366 -3.67473,-7.54317c-1.29359,-3.04185 -2.90149,-5.8105 -4.67319,-8.41083c-0.01716,0.02617 -0.03429,0.05243 -0.0514,0.07875c-1.35655,2.08587 -2.77352,4.22081 -4.13993,6.40243c3.15936,4.80121 6.64874,9.28794 9.66521,14.26767c0.57957,-0.91587 1.14814,-1.81552 1.69384,-2.69534zM406.99723,211.14236c-0.91224,1.49193 -1.79185,3.00516 -2.60416,4.53888c-0.83788,1.57772 -1.75735,3.03341 -2.7089,4.44136c0.16483,0.28822 0.32975,0.57798 0.49478,0.86932c2.87104,5.08001 5.399,10.5071 7.94947,15.91982c1.7723,-3.90441 4.18484,-7.8077 6.50621,-11.4831c-3.00215,-4.9897 -6.46873,-9.47904 -9.6374,-14.28629zM401.30533,221.97894c-0.13536,-0.23895 -0.27063,-0.47679 -0.40581,-0.71356c-1.55751,2.23848 -3.16342,4.40542 -4.60988,6.81287c-0.48366,0.80497 -0.94802,1.64343 -1.39774,2.50497c0.12254,0.13597 0.24544,0.27125 0.36873,0.40577c3.61854,3.96623 6.82063,10.27111 9.52402,16.50072c1.64378,-3.02443 3.2947,-6.02356 4.6901,-9.10641c-2.62427,-5.57488 -5.206,-11.18421 -8.16944,-16.40435zM389.02897,257.81312c-1.34378,-2.0823 -2.74614,-3.34847 -3.96912,-5.65155c-1.68226,3.78032 -3.36774,7.54566 -5.1184,11.26547c0.43688,0.72029 0.86948,1.44947 1.29742,2.18878c1.80647,3.64181 4.35338,7.06229 5.89435,10.87742c0.8532,2.11236 1.63174,4.10981 2.59754,6.03266c1.74597,-4.31387 3.4589,-8.69737 5.24455,-12.96412c-1.85957,-3.96247 -3.62126,-8.1458 -5.94632,-11.74865zM374.61882,272.51659c0.80333,-2.68914 2.72028,-4.43862 3.28016,-7.58448c0.21395,-0.46015 0.42719,-0.9204 0.63976,-1.38075c-3.47023,-5.61615 -7.19321,-10.70723 -10.96,-15.86988c-0.27325,0.50369 -0.55399,0.99827 -0.84326,1.48257c-1.1872,4.02488 -3.72586,7.52646 -5.24982,11.36513c0.69581,0.91257 1.39628,1.81828 2.10504,2.71222c3.19806,4.03824 6.7129,8.67181 9.62412,13.36074c0.53614,-1.38234 1.00893,-2.76322 1.40396,-4.08554zM389.10348,240.20068c1.39799,-3.04577 2.75749,-6.2875 4.26149,-9.31996c-4.04778,-4.65672 -7.72329,-10.02446 -11.70417,-14.83594c-1.27765,2.64322 -2.51424,5.25879 -3.77181,7.62709c-1.68748,3.1775 -3.09003,6.68699 -4.45332,10.23629c4.1411,4.72374 8.36081,9.71464 11.52997,15.43347c1.36445,-3.04063 2.73625,-6.08732 4.13785,-9.14097zM395.43656,227.05601c1.49127,-2.48201 3.1543,-4.70572 4.75708,-7.0181c-3.55801,-6.14156 -7.1077,-11.56919 -11.24988,-16.77333c-2.49682,3.25074 -4.63486,7.35207 -6.64855,11.47397c3.98851,4.81571 7.67246,10.1918 11.72345,14.85708c0.45626,-0.87318 0.92734,-1.72317 1.41789,-2.53962zM403.49802,214.73326c0.85611,-1.60799 1.78198,-3.19423 2.7406,-4.75771c-0.13513,-0.2109 -0.26954,-0.42254 -0.40325,-0.63496c-2.95481,-4.69608 -6.72553,-8.8074 -10.58759,-12.64581c-1.03377,1.13608 -2.09137,2.21909 -3.19518,3.19505c-0.78757,0.6882 -1.53984,1.46846 -2.26197,2.32262c4.10906,5.17384 7.64841,10.58576 11.18497,16.68016c0.88547,-1.32008 1.73996,-2.68605 2.52239,-4.15933zM411.05457,202.47368c0.02967,-0.04561 0.05948,-0.091 0.08937,-0.13617c-3.15725,-4.43874 -6.7431,-8.41522 -9.96705,-12.48069c-1.69296,1.87907 -3.33245,3.8996 -5.01889,5.81895c3.8354,3.83229 7.56805,7.93699 10.51357,12.61514c0.10267,0.16311 0.20578,0.32575 0.30934,0.48797c1.3459,-2.14654 2.73639,-4.24913 4.07363,-6.30519zM372.89637,235.31754c-1.45574,3.81272 -2.9037,7.62676 -4.64707,11.08158c3.75031,5.14105 7.45985,10.20639 10.92307,15.77583c1.74244,-3.79653 3.44645,-7.60046 5.15646,-11.41369c-3.09679,-5.73419 -7.29739,-10.72864 -11.43248,-15.44372zM365.77922,248.34399c0.33908,-0.58072 0.6668,-1.1746 0.98471,-1.77982c-0.6326,-0.86808 -1.26602,-1.7394 -1.89926,-2.61674c-2.83774,-3.94176 -6.84842,-8.71747 -10.71763,-12.33183c-0.64333,0.83395 -0.93705,1.24378 -1.34696,3.25233c-1.28513,2.80343 -2.70539,6.99699 -3.61495,10.993c1.50115,0.20437 2.67976,2.15035 3.88029,3.63405c2.60871,3.22403 5.08279,6.62001 7.59883,9.95136c1.57394,-3.73183 3.93787,-7.15516 5.11497,-11.10238zM376.99398,222.72391c1.27998,-2.40987 2.53307,-5.03735 3.82342,-7.68412c-1.06342,-1.24828 -2.15147,-2.45155 -3.27657,-3.5865c-3.2726,-3.30121 -6.65144,-6.22844 -10.13678,-8.91639c-1.24271,2.50888 -2.42526,5.04327 -3.59946,7.44803c-1.28014,2.60621 -2.41728,5.22439 -3.5657,7.8556c3.04545,3.08164 5.76124,7.4873 8.64366,10.85693c1.18365,1.3839 2.41285,2.77643 3.65665,4.19021c1.36357,-3.51755 2.77096,-6.99317 4.45478,-10.16378zM391.45967,198.54998c0.97825,-0.86182 1.91967,-1.80391 2.83981,-2.79099c-1.96389,-1.92522 -3.93603,-3.78678 -5.82191,-5.62538c-2.47082,-2.40938 -5.06298,-4.41285 -7.67926,-6.40577c-1.01343,1.15378 -1.99334,2.334 -2.92934,3.52826c-0.53574,0.45103 -1.0556,0.93618 -1.5609,1.45148c3.70952,2.90652 7.28761,7.00416 10.47108,9.87616c0.74526,0.85963 1.47044,1.72308 2.17825,2.5925c0.79536,-0.96423 1.62709,-1.84692 2.50226,-2.62624zM388.15954,176.36912c-2.18928,1.90473 -4.3407,4.02156 -6.37521,6.25608c2.50497,1.92104 4.97528,3.91312 7.32892,6.20825c1.98006,1.93121 4.05133,3.88732 6.10913,5.91434c1.7332,-1.93542 3.40765,-3.99166 5.13106,-5.92316c-3.78284,-4.62671 -8.18795,-8.19967 -12.1939,-12.45551zM386.1231,199.86352c-3.2529,-2.92151 -6.9591,-7.24612 -10.77783,-10.11909c-2.79804,3.17492 -5.14396,7.25907 -7.29086,11.49396c3.48449,2.69436 6.86379,5.62771 10.13668,8.9292c1.12028,1.13009 2.20416,2.32797 3.26379,3.57064c2.02572,-4.11224 4.16669,-8.19264 6.66346,-11.49806c-0.64941,-0.79613 -1.31376,-1.58776 -1.99524,-2.37664zM368.16913,229.91455c-2.83976,-3.32003 -5.52279,-7.67803 -8.51944,-10.72691c-1.02846,2.34345 -2.08663,4.69737 -3.28286,7.0625c-0.53019,1.04827 -0.93001,3.16325 -1.45737,4.26335c3.86868,3.64952 7.81904,8.27064 10.73869,12.30608c0.59179,0.81994 1.18378,1.63468 1.77509,2.44646c1.69753,-3.45291 3.12806,-7.21644 4.57321,-10.9721c-1.30317,-1.47954 -2.59128,-2.93449 -3.82732,-4.37938z" fill="#000000" stroke="none" stroke-width="0.5" stroke-linecap="butt"/><path d="M384.97392,250.94422c-3.16915,-5.53738 -7.48434,-10.44492 -11.62546,-15.01878c1.36331,-3.43668 2.807,-6.91806 4.49448,-9.99476c1.25757,-2.29316 2.531,-4.838 3.80866,-7.39736c3.98085,4.65882 7.75201,9.92622 11.79979,14.43519c-1.50401,2.93624 -2.89657,6.15838 -4.29455,9.10751c-1.4016,2.95677 -2.81849,5.92405 -4.18294,8.8682z" data-paper-data="{&quot;noHover&quot;:false,&quot;origItem&quot;:[&quot;Path&quot;,{&quot;applyMatrix&quot;:true,&quot;segments&quot;:[[[735.61839,440.60627],[-1.59588,3.4512],[1.59175,-3.44228]],[[740.47057,430.07299],[-1.71248,3.42723],[-4.60885,-5.26297]],[[727.14409,413.30563],[4.53265,5.43787],[-1.45475,2.98734]],[[722.84947,421.92568],[1.43188,-2.67662],[-1.92139,3.59117]],[[717.77886,433.49459],[1.55227,-4.01136],[4.7151,5.3387]],[[730.907,450.93727],[-3.60843,-6.46335],[1.55358,-3.43648]]],&quot;closed&quot;:true}]}" fill="#444444" stroke="none" stroke-width="0.5" stroke-linecap="butt"/><path d="M264.07876,302.91344l-5.96691,-122.93315l65.16829,-1.562l5.96689,122.93317z" fill="none" stroke="#000000" stroke-width="1.5" stroke-linecap="butt"/><path d="M264.24978,225.63996l-1.22565,-38.25974l56.74542,-1.72983l1.22565,38.25976z" fill="#e0e0e0" stroke="#000000" stroke-width="1.5" stroke-linecap="butt"/><path d="M266.66443,285.00584l-1.22565,-43.71418l56.74542,-1.97644l1.22565,43.71416z" fill="#e0e0e0" stroke="#000000" stroke-width="1.5" stroke-linecap="butt"/><path d="M316.22174,189.35649l0.41744,30.9485l-49.67647,0.81445l-0.83491,-30.94852z" fill="#b1dce0" stroke="#000000" stroke-width="1.5" stroke-linecap="round"/><path d="M271.13718,214.19674l41.3275,-0.81445" fill="none" stroke="#000000" stroke-width="1.5" stroke-linecap="round"/><path d="M270.32848,246.81242l-5.00941,-5.29383" fill="none" stroke="#000000" stroke-width="1.5" stroke-linecap="round"/><path d="M317.85225,245.20908l3.75704,-4.8866" fill="none" stroke="#000000" stroke-width="1.5" stroke-linecap="round"/><path d="M271.98519,279.72041l-4.59195,4.07217" fill="none" stroke="#000000" stroke-width="1.5" stroke-linecap="round"/><path d="M317.82608,278.09155l5.42685,5.29381" fill="none" stroke="#000000" stroke-width="1.5" stroke-linecap="round"/><path d="M316.27763,248.07695l0.36898,27.35527l-43.90884,0.71986l-0.73799,-27.35527z" fill="#444444" stroke="#000000" stroke-width="1.5" stroke-linecap="round"/><path d="M316.49782,250.35937l-9.42544,6.29092h-23.31555l-9.92152,-6.29092" fill="none" stroke="#000000" stroke-width="1.5" stroke-linecap="round"/><path d="M285.72752,266.53541c0,2.94099 -2.57981,5.32512 -5.76218,5.32512c-3.18237,0 -5.76218,-2.38412 -5.76218,-5.32512c0,-2.94099 2.57983,-5.32512 5.76218,-5.32512c3.18237,0 5.76218,2.38412 5.76218,5.32512z" fill="none" stroke="#000000" stroke-width="1.5" stroke-linecap="butt"/><path d="M316.25701,264.2673c0,2.77759 -2.39877,5.02927 -5.35781,5.02927c-2.95905,0 -5.35783,-2.25167 -5.35783,-5.02927c0,-2.77759 2.39878,-5.02929 5.35783,-5.02929c2.95905,0 5.35781,2.25169 5.35781,5.02929z" fill="none" stroke="#000000" stroke-width="1.5" stroke-linecap="butt"/><path d="M286.9799,270.63579l-0.22465,-9.2452l17.90198,-0.41392l0.22463,9.2452z" fill="none" stroke="#000000" stroke-width="1" stroke-linecap="butt"/><path d="M284.9188,266.53541v-1.57781h0.40437v1.57781z" fill="none" stroke="#000000" stroke-width="1.5" stroke-linecap="butt"/><path d="M288.56086,266.39045c0,-0.38246 0.39207,-0.38246 0.39207,-0.38246h0.29158c3.30717,0 -1.15715,-4.6687 2.89411,-3.39369c0,0 0.37194,0.12095 0.24797,0.48378c-0.12398,0.36284 -0.49594,0.24189 -0.49594,0.24189c-2.38921,-0.80994 1.44174,3.43294 -2.64614,3.43294h-0.29158c0,0 -0.39207,0 -0.39207,-0.38246z" fill="#444444" stroke="none" stroke-width="0" stroke-linecap="butt"/><path d="M299.09889,265.15022c-0.39207,0 -0.39207,-0.38246 -0.39207,-0.38246c0,-0.18963 0,-0.80592 0,-0.99554c0,0 0,-0.38246 0.39207,-0.38246c0.39207,0 0.39207,0.38246 0.39207,0.38246c0,0.18963 0,0.37926 0,0.56888v0.42667c0,0 0,0.38246 -0.39207,0.38246z" fill="#444444" stroke="none" stroke-width="0.5" stroke-linecap="butt"/><path d="M298.7068,261.92332c0,-0.21123 0.17555,-0.38246 0.39207,-0.38246c0.21653,0 0.39207,0.17123 0.39207,0.38246c0,0.21123 -0.17555,0.38246 -0.39207,0.38246c-0.21653,0 -0.39207,-0.17125 -0.39207,-0.38246z" fill="#444444" stroke="none" stroke-width="0.5" stroke-linecap="butt"/><path d="M292.39231,269.70131c-0.39207,0 -0.39207,-0.38246 -0.39207,-0.38246v-0.42666c0,-0.19254 -0.02217,-1.49075 0.07081,-1.95002c-0.15031,0.22124 -0.45967,0.64137 -0.75694,1.03914c0.00142,0.019 0.00272,0.03818 0.00392,0.05755h0.00841v0.71111c0,0.21123 -0.17555,0.38246 -0.39207,0.38246c-0.21653,0 -0.39207,-0.17123 -0.39207,-0.38246v-0.42667c0,-1.9702 -0.84658,-1.20973 -0.8196,0.14224c0,0 0,0.38246 -0.39207,0.38246c-0.39207,0 -0.39207,-0.38246 -0.39207,-0.38246c0.0267,-1.88373 1.50426,-2.64893 2.12146,-1.48581c0.27015,-0.69635 0.90164,-1.2293 1.56155,-0.81558c0.44345,0.27801 0.16281,2.26072 0.16281,2.72804v0.42666c0,0 0,0.38246 -0.39207,0.38246z" fill="#444444" stroke="none" stroke-width="0.5" stroke-linecap="butt"/><path d="M294.87083,269.27465c-0.39207,0 -0.39207,-0.38246 -0.39207,-0.38246c0,-0.37926 0,-1.3274 0,-1.70666c0,0 0,-0.38246 0.39207,-0.38246c0.39207,0 0.39207,0.38246 0.39207,0.38246c0,0.37926 0,0.7585 0,1.13776v0.56889c0,0 0,0.38246 -0.39207,0.38246z" fill="#444444" stroke="none" stroke-width="0.5" stroke-linecap="butt"/><path d="M302.26106,264.90997c0,0.38246 -0.39207,0.38246 -0.39207,0.38246l-0.56883,-0.11201c-0.75148,-0.81522 -0.71816,-2.93129 0.56883,-3.07068c0,0 0.39207,0 0.39207,0.38246c0,0.38246 -0.39207,0.38246 -0.39207,0.38246c-0.35308,-0.12246 -0.32185,1.52617 -0.01435,1.76486l0.01435,-0.11203c0,0 0.39207,0 0.39207,0.38246z" fill="#444444" stroke="none" stroke-width="0.5" stroke-linecap="butt"/><path d="M80.77581,170.22393l-0.51993,18.00492l-2.85959,10.3972l-7.01898,6.84694" fill="none" stroke="#000000" stroke-width="1.5" stroke-linecap="round"/><path d="M107.89837,148.6397l8.19713,-10.852" fill="none" stroke="#000000" stroke-width="1.5" stroke-linecap="round"/><path d="M117.26652,332.55253l-12.8812,-7.42505" fill="none" stroke="#000000" stroke-width="1.5" stroke-linecap="round"/><path d="M96.39929,248.80423c-0.43678,0.04433 -0.48221,-0.38175 -0.48221,-0.38175l-0.04126,-0.62508c-1.11708,-1.10966 -1.18246,-4.04463 -1.02868,-6.89463c-0.05037,0.2454 -0.10426,0.48776 -0.16199,0.72676v1.09417c0,0.23658 -0.19661,0.42837 -0.43913,0.42837c-0.24252,0 -0.43913,-0.19179 -0.43913,-0.42837v-0.78722l-0.2552,-0.74682l0.16936,-0.05507c-1.55966,-3.9632 -0.44076,-11.04327 -0.2832,-15.34582c-0.09745,-1.08737 -0.21535,-2.1812 -0.35502,-3.29124c-0.10605,-0.8429 -0.46732,-2.23148 -0.47868,-3.36162c-0.05368,-0.28884 -0.10472,-0.58438 -0.15117,-0.88923l0.00559,-0.02137l-0.00716,0.00033l-0.0415,-0.85266c-0.00043,-0.00776 -0.00065,-0.01557 -0.00065,-0.02343c0,-0.23658 0.19661,-0.42837 0.43913,-0.42837c0.15122,0 0.28458,0.07457 0.36357,0.18804c1.85405,0.18886 1.47794,2.10123 1.84236,3.71138c0.00866,0.03826 0.01717,0.07658 0.02553,0.11496c-0.00777,-0.51928 0.02115,-1.02628 0.1327,-1.45451c-0.0002,-0.13443 -0.00035,-0.26886 -0.00042,-0.40329h-0.00004v-0.85673c0,-0.23658 0.19661,-0.42837 0.43913,-0.42837c0.24252,0 0.43913,0.19179 0.43913,0.42837v0.68539c0,0.16733 0.00014,0.33468 0.00037,0.50204c1.02902,4.8763 -0.00037,11.17846 -0.00037,15.94731c0,2.64726 -1.27638,10.29809 0.57835,12.07321l0.1219,0.90486c0,0 0.04544,0.42607 -0.39134,0.4704zM94.62237,224.43806c-0.0509,-1.17734 -0.17397,-2.3321 -0.42543,-3.43187c-0.19935,-0.87182 -0.13569,-2.81605 -0.78951,-3.03156l0.02608,0.14416l-0.08019,0.0138c0.7388,1.87572 1.10095,4.05662 1.26904,6.30546z" fill="#707070" stroke="none" stroke-width="0.5" stroke-linecap="butt"/><path d="M88.71296,136.31698c0,-1.28511 1.3174,-1.28511 1.3174,-1.28511h0.35131c0.152,0 0.32835,-0.00348 0.52417,-0.00872l0.44158,-0.71794c0.22756,-0.38499 0.6538,-0.64413 1.14209,-0.64413c0.36148,0 0.68896,0.14203 0.927,0.37199c0.21543,-0.42355 0.66327,-0.71469 1.18083,-0.71469c0.5578,0 1.03462,0.33817 1.22679,0.81581l0.39258,-0.76591c0.21124,-0.43468 0.66518,-0.73529 1.19108,-0.73529c0.66124,0 1.2087,0.47524 1.30303,1.09467l0.34775,2.03533l-0.31352,0.05098c0.19805,0.81056 0.31429,1.6343 0.30767,2.45948l-0.1562,0.2008l0.08574,0.03346l-0.69121,1.68568c-0.18682,0.48808 -0.66909,0.83561 -1.23457,0.83561c-0.16263,0 -0.31837,-0.02874 -0.46219,-0.08131c-0.00025,0.02234 -0.00048,0.04477 -0.00072,0.06731l-0.16287,0.1982l0.09241,0.03606l-0.69121,1.68568c-0.18682,0.48808 -0.66909,0.83561 -1.23457,0.83561c-0.72758,0 -1.3174,-0.57536 -1.3174,-1.28511v-0.22041c-0.35249,-0.12923 -0.75447,-0.44973 -1.20704,-1.0149c-0.00291,-0.12812 -0.01183,-0.37102 -0.01773,-0.68644c-0.16463,0.07578 -0.3681,0.12261 -0.61958,0.12261c-1.3174,0 -1.3174,-1.28511 -1.3174,-1.28511c0,-0.59973 0.00651,-1.19948 0.01762,-1.79914h-0.10544c0,0 -1.3174,0 -1.3174,-1.28511zM92.94417,140.03803c-0.01468,0.28819 -0.02747,0.60167 -0.03808,0.94124c0.13665,0.19498 0.26106,0.32034 0.37384,0.38648v-0.59106c-0.08619,-0.0697 -0.1293,-0.15378 -0.1293,-0.15378c-0.05441,-0.10616 -0.12723,-0.31104 -0.20646,-0.58288zM93.76668,139.69221c-0.00099,-0.01987 -0.002,-0.03961 -0.00302,-0.05925c-0.00309,0.00297 -0.0062,0.00591 -0.00933,0.00884c0.00414,0.01707 0.00826,0.03387 0.01235,0.05041z" fill="#707070" stroke="none" stroke-width="0.5" stroke-linecap="butt"/><path d="M105.4878,131.86193l-16.86267,3.08425" fill="none" stroke="#000000" stroke-width="1.5" stroke-linecap="round"/><path d="M97.75908,132.54736l2.52767,-1.04236l337.83885,-0.57116l4.68407,202.76102l-348.37802,14.27894" fill="none" stroke="#000000" stroke-width="1.5" stroke-linecap="round"/><path d="M98.11038,199.71552l1.75653,-67.16816" fill="none" stroke="#000000" stroke-width="1.5" stroke-linecap="round"/><path d="M62.76148,90.53204c-0.35618,-0.14493 -0.74775,-0.46358 -0.74775,-1.16421c0,-1.28511 1.3174,-1.28511 1.3174,-1.28511l1.52962,0.71039c0.0426,0.0831 0.1438,0.327 0.27827,0.67089c0.01824,-0.0661 0.03807,-0.13086 0.05963,-0.19417c0.00089,-0.00532 0.00177,-0.01061 0.00266,-0.01592c-0.01233,-0.29301 -0.01978,-0.59725 -0.02339,-0.91417h-0.00243v-1.71348c0,-0.01278 0.00019,-0.02551 0.00057,-0.0382l-0.2128,-0.41517c-0.26882,-0.55008 -0.53763,-1.10017 -0.80645,-1.65023c0.05873,-2.28597 -1.48362,-1.94184 -3.7383,-1.43219c-4.02369,0.90951 -7.50827,2.64103 -11.68125,3.0978c-2.7894,0.30533 -5.46354,-0.47028 -8.10303,0.60311c0,0 -1.22317,0.47728 -1.71244,-0.71591c-0.48927,-1.1932 0.7339,-1.67047 0.7339,-1.67047c2.98416,-1.12708 5.67036,-0.4369 8.75964,-0.76768c3.30909,-0.35431 6.47936,-1.34412 9.5922,-2.34616c1.19377,-0.38428 5.54356,-1.64128 6.81829,-1.01635c2.15493,1.05643 1.85942,2.0142 1.8953,3.65734c0.01033,0.01883 0.02065,0.03764 0.03098,0.05647c1.05818,0.15642 1.05819,1.26688 1.05819,1.26688c0,0.05161 0.00004,0.10313 0.00016,0.15455c0.16749,0.17622 0.28496,0.39834 0.33035,0.64486l0.34652,1.69013l-0.28546,0.05569c0.63554,1.60902 0.84049,3.17826 0.75353,5.10762c0.15512,0.38419 0.33076,0.76852 0.52959,1.15405l-0.01887,0.14915l0.06137,-0.01496l0.34414,1.34282c0.03032,0.10819 0.0465,0.22207 0.0465,0.33964c0,0.70975 -0.58982,1.28511 -1.3174,1.28511c-0.19831,0 -0.38639,-0.04275 -0.55508,-0.1193c-0.12436,0.0982 -0.26996,0.1703 -0.44091,0.20921c-0.23385,0.35801 -0.64441,0.59548 -1.11184,0.59548c-0.72758,0 -1.3174,-0.57536 -1.3174,-1.28511v-0.16866c-0.73634,-0.90041 -1.78198,-4.26995 -2.414,-5.86373z" fill="#707070" stroke="none" stroke-width="0.5" stroke-linecap="butt"/><path d="M51.5275,169.86024c-1.01205,0.82271 -1.85543,-0.16454 -1.85543,-0.16454l-0.06977,-0.08168c-0.61644,-0.73845 -1.23289,-1.4769 -1.84933,-2.21535c-1.02084,-3.68377 -3.55555,-6.76989 -4.33466,-10.61966c-0.51892,-2.56413 0.04543,-5.7186 0.33395,-8.25162c0.04325,-0.3797 0.06468,-0.99257 0.14091,-1.6603c-0.29281,-0.96527 -0.49863,-1.96082 -0.49863,-3.0108c0,0 0,-1.28511 1.3174,-1.28511c0.90951,0 1.19111,0.61252 1.2783,0.99182c0.22314,-0.01692 0.46996,0.00185 0.74311,0.06252c2.95952,0.65733 2.50708,6.30944 1.74484,9.97056l0.05083,0.19836h0.31076v1.37078c0,0.70975 -0.58982,1.28511 -1.3174,1.28511c-0.62695,0 -1.15161,-0.42722 -1.28475,-0.9995l-0.09671,-0.37734c0.55822,4.06131 3.05644,7.14375 3.9613,11.1615c0.50806,0.57788 1.01612,1.15576 1.52417,1.73363l0.06978,0.08168c0,0 0.84337,0.98723 -0.16868,1.80994z" fill="#707070" stroke="none" stroke-width="0.5" stroke-linecap="butt"/><path d="M32.79635,154.35866c0.17136,-0.19242 0.34732,-0.29542 0.34732,-0.29542l1.80038,-1.05265c1.60847,-0.78432 2.49919,-1.15351 3.59179,-1.23875l-0.05446,-0.26564l1.72985,-0.33749c0.09179,-0.01974 0.18717,-0.03016 0.28504,-0.03016c0.72758,0 1.3174,0.57536 1.3174,1.28511c0,0.51301 -0.30817,0.95582 -0.75377,1.16189l-1.30021,0.63417c-2.47745,1.80522 -4.52263,2.15925 -7.37524,2.87763c0,0 -1.27807,0.31168 -1.59758,-0.93505c-0.31951,-1.24673 0.95855,-1.55842 0.95855,-1.55842c0.36872,-0.08758 0.71752,-0.16773 1.05093,-0.24521z" fill="#707070" stroke="none" stroke-width="0.5" stroke-linecap="butt"/><path d="M86.16599,131.51927l3.16175,21.93246" fill="none" stroke="#9e9e9e" stroke-width="1.5" stroke-linecap="round"/><path d="M71.05986,80.45774l9.83656,-0.3427" fill="none" stroke="#9e9e9e" stroke-width="1.5" stroke-linecap="round"/><path d="M206.95298,108.8104c0,-1.28511 1.3174,-1.28511 1.3174,-1.28511h1.3174c0.10082,0.00151 0.20029,0.00034 0.29859,-0.00324c0.38866,-0.42513 1.0188,-0.42513 1.0188,-0.42513c0.55068,0 1.10137,0 1.65205,0c0.66324,-0.17542 0.97644,-0.35327 1.73119,-0.42211c2.76577,-0.25226 5.56247,-0.1614 8.36153,-0.04906c4.32981,-1.20959 10.00726,-1.03598 14.7124,-0.89446c0.88146,-0.11132 1.7267,-0.12992 2.41108,0.06462c0.49715,0.00987 0.97565,0.01591 1.43185,0.01591h1.3174c0.72758,0 1.3174,0.57536 1.3174,1.28511c0,0.70975 -0.58982,1.28511 -1.3174,1.28511h-0.87826c0,0.70975 -0.58982,1.28511 -1.3174,1.28511c-0.36945,0 -2.49543,0 -2.86488,0c-5.35308,0.92832 -11.8623,0 -16.89606,0c-1.86138,0 -5.4793,0 -7.34069,0c-1.19592,0.20733 -2.38464,0.41477 -3.63761,0.42837h-1.3174c0,0 -1.3174,0 -1.3174,-1.28511z" fill="#9e9e9e" stroke="none" stroke-width="0.5" stroke-linecap="butt"/><path d="M319.80987,110.95224c0,1.28511 -1.3174,1.28511 -1.3174,1.28511h-0.87826c-0.55179,0 -1.10449,-0.00196 -1.65801,-0.0056c0.21168,0.22802 0.34062,0.53048 0.34062,0.86233c0,0.70975 -0.58982,1.28511 -1.3174,1.28511c-0.14638,0 -2.48841,0 -2.63479,0c-0.66618,0 -1.33237,0 -1.99855,0c-7.33713,0.93067 -15.4659,0 -22.59284,0c-5.06677,0 -10.58625,0.62217 -15.47323,-0.71828l-1.74966,-0.14187c-0.68241,-0.04832 -1.22066,-0.60369 -1.22066,-1.28169c0,-0.70975 0.58982,-1.28511 1.3174,-1.28511h2.63479v0.16764c14.03888,-3.22779 30.15686,-1.45275 44.35233,-1.45275h0.87826c0,0 1.3174,0 1.3174,1.28511zM282.9864,112.41032c0.17946,0.00325 0.3592,0.00582 0.53919,0.00777c0.01647,-0.02842 0.03391,-0.05552 0.0522,-0.08135c-0.19399,0.0196 -0.39128,0.04444 -0.59139,0.07357z" fill="#9e9e9e" stroke="none" stroke-width="0.5" stroke-linecap="butt"/><path d="M45.94086,174.28139l-3.63947,-24.85186l-5.71917,-39.05292l-1.55978,-24.85186l5.78065,-2.12728l41.30496,-5.88007l292.7486,-6.77631l4.52083,1.85055l4.15939,4.81822l2.33966,4.31103l0.77988,5.32541l1.03985,7.3541l-0.51993,5.32541l-0.77988,5.07181l-2.33966,7.3541l-109.47749,3.94094" fill="none" stroke="#000000" stroke-width="1.5" stroke-linecap="round"/><path d="M202.9706,76.36813c0.07363,-0.03682 0.15143,-0.05574 0.23203,-0.0626c-0.13968,0.09495 -0.27915,0.18871 -0.41842,0.28104c0.03963,-0.09462 0.09568,-0.17309 0.18639,-0.21844z" fill="#000000" stroke="none" stroke-width="0.5" stroke-linecap="butt"/><path d="" fill="#000000" stroke="none" stroke-width="0.5" stroke-linecap="butt"/><path d="" fill="#000000" stroke="none" stroke-width="0.5" stroke-linecap="butt"/><g stroke-linecap="butt"><path d="M248.2263,239.10233c0,42.64257 -31.37357,77.21121 -70.07485,77.21121c-38.70128,0 -70.07485,-34.56863 -70.07485,-77.21121c0,-42.64257 31.37357,-77.21121 70.07485,-77.21121c38.70128,0 70.07485,34.56863 70.07485,77.21121z" fill="#444444" stroke="#000000" stroke-width="1.5"/><path d="M241.97759,241.41405c0,37.79102 -27.57677,68.4267 -61.59446,68.4267c-34.01767,0 -61.59446,-30.63568 -61.59446,-68.4267c0,-37.79102 27.57678,-68.42668 61.59447,-68.42668c34.01769,0 61.59446,30.63566 61.59446,68.4267z" fill="#444444" stroke="#000000" stroke-width="1.5"/><path d="M196.09384,290.5979c-0.632,-0.48082 -0.1678,-1.13549 -0.1678,-1.13549l0.183,-0.25808c0.60064,-0.83993 1.09173,-1.77167 1.4735,-2.73925c0.26235,-0.35259 0.52114,-0.7075 0.77663,-1.06451c-0.57082,-0.78625 -1.1608,-1.56558 -1.63863,-2.39053c-0.99611,-1.7197 -2.40542,-2.40245 -3.47803,-3.94186c-2.43827,4.39723 -4.77816,8.87439 -7.28239,13.26027c0.36292,0.46637 0.74638,0.92892 1.15546,1.38822l0.39559,0.40885c0,0 0.55448,0.57436 0,1.14874c-0.55448,0.57436 -1.10895,0 -1.10895,0l-0.43931,-0.45601c-0.29789,-0.33446 -0.5831,-0.67054 -0.8574,-1.00849c-0.70916,1.21589 -1.43336,2.42322 -2.17834,3.61822c-1.57367,0.9555 -2.56014,5.38351 -3.61811,7.5808l0.08279,0.06916c0,0 0,0.81227 -0.78415,0.81227c-0.78415,0 -0.78415,-0.81227 -0.78415,-0.81227l0.08279,-0.79569c1.16556,-2.40817 2.09698,-6.62192 3.89598,-7.98627c0.74684,-1.29178 1.48416,-2.5969 2.21586,-3.91032c-1.58484,-2.20398 -2.81751,-4.49865 -4.14874,-6.94684c-2.09392,-3.85077 -5.66737,-7.33011 -8.14859,-11.00463c-0.48717,-0.61621 -0.97867,-1.22556 -1.47415,-1.82871c-0.1739,0.26762 -0.34832,0.53497 -0.52325,0.80207c-0.75058,3.12706 -3.67578,5.1366 -4.58578,7.76874c-0.53943,1.56025 -1.31532,3.27181 -2.24523,4.98568c0.29422,0.36381 0.5829,0.72764 0.86551,1.09126c1.66461,2.14163 2.35498,4.01533 4.61923,5.65639l0.53818,1.53345c0,0 0.24797,0.77059 -0.49594,1.02745c-0.74391,0.25686 -0.99188,-0.51372 -0.99188,-0.51372l-0.29671,-1.06107c-2.28384,-1.48265 -2.97296,-3.50694 -4.56467,-5.5865c-0.16958,-0.22156 -0.34168,-0.44321 -0.51617,-0.66497c-1.44631,2.43357 -3.15847,4.78394 -4.89572,6.6162l-0.79732,1.65184c-0.12573,0.27475 -0.39592,0.46474 -0.70897,0.46474c-0.43307,0 -0.78415,-0.36367 -0.78415,-0.81227c0,-0.09645 0.01623,-0.18902 0.04604,-0.27486l0.41166,-1.27927l0.07288,0.02516l0.00399,-0.19535c2.04599,-2.1768 3.93195,-4.85727 5.50886,-7.60944c-4.07871,-4.91617 -9.17714,-9.80002 -13.72047,-14.00801c-0.88722,-0.82263 -1.76519,-1.65441 -2.63762,-2.49189c-0.07439,0.17449 -0.14537,0.34986 -0.21266,0.52613c-1.42163,3.72389 -2.83857,7.66845 -3.86684,11.51834c3.02149,3.24642 5.97158,6.56291 9.0536,9.75543c1.60427,1.6618 4.09621,3.37994 5.32407,5.38519c0.15103,0.01128 0.74988,0.10079 0.74988,0.81064c0,0.81227 -0.78415,0.81227 -0.78415,0.81227l-1.11882,-0.44901c-0.88668,-1.952 -3.76631,-3.84242 -5.27996,-5.41035c-2.7805,-2.88021 -5.4537,-5.86139 -8.16877,-8.80092l-0.53679,1.94616c-0.08798,0.3489 -0.39434,0.60637 -0.75873,0.60637c-0.43307,0 -0.78415,-0.36367 -0.78415,-0.81227c0,-0.02477 0.00107,-0.0493 0.00316,-0.0735l0.10165,-1.32403l0.02053,0.00169l-0.01409,-0.0595c0.13855,-0.63489 0.28895,-1.27474 0.44995,-1.91797c-0.66233,-0.70674 -1.32874,-1.40948 -2.00135,-2.1062c0,0 -0.55448,-0.57435 0,-1.14872c0.55448,-0.57436 1.10895,0 1.10895,0c0.46009,0.47659 0.91728,0.956 1.37225,1.43756c1.00159,-3.61213 2.29494,-7.28307 3.66002,-10.73851c0.14815,-0.37495 0.3112,-0.74553 0.48696,-1.11238c-3.61434,-3.50528 -7.16173,-7.08122 -10.90876,-10.47697c-1.22142,-1.10692 -3.16503,-3.5661 -4.85582,-3.40715c-0.38298,1.43119 -0.66119,2.81064 -0.79416,4.0653l-0.47851,1.22457c0,0 -0.29868,0.75104 -1.02372,0.44167c-0.72504,-0.30937 -0.42636,-1.06043 -0.42636,-1.06043l0.40876,-1.00655c0.12935,-1.2577 0.41094,-2.66241 0.80182,-4.12947c-0.08893,-0.36445 0.05126,-0.60454 0.2082,-0.75173c1.27067,-4.42403 3.44604,-9.27351 5.39407,-12.31334c0.50525,-1.86564 0.98172,-2.717 1.8986,-3.61454c-1.57283,-1.0218 -3.1149,-1.926 -4.58006,-2.66121c0,0 -0.70136,-0.36324 -0.35069,-1.08976c0.35069,-0.72651 1.05205,-0.36326 1.05205,-0.36326c1.62788,0.86338 3.33168,1.89517 5.06006,3.0427c0.55002,-0.75665 1.51868,-3.64415 2.07019,-4.44395c1.66593,-2.41596 3.14552,-4.82458 4.58378,-7.22454c-2.75789,-1.78673 -5.56995,-2.67068 -8.02724,-5.20801c0,0 -0.55448,-0.57435 0,-1.14874c0.55448,-0.57436 1.10895,0 1.10895,0c2.3643,2.45769 5.07579,3.27121 7.74227,4.97685c1.6156,-2.71196 3.21387,-5.41247 5.00491,-8.09962c1.62068,-2.4182 3.24954,-4.97041 4.95473,-7.50597c-0.94254,-0.52149 -1.89055,-1.03443 -2.84408,-1.53975c-2.08683,-1.10593 -2.94575,-2.02102 -5.39352,-2.01202c0,0 -0.78415,0 -0.78415,-0.81227c0,-0.81227 0.78415,-0.81227 0.78415,-0.81227c2.69383,0.00882 3.82758,0.98189 6.10782,2.19032c1.01919,0.54013 2.03221,1.08888 3.03904,1.64747c2.97535,-4.332 6.21085,-8.53661 10.05094,-11.85247c-1.98224,-0.97248 -3.97966,-1.70381 -5.96833,-2.04714c0,0 -0.77347,-0.13353 -0.64456,-0.93474c0.12891,-0.80123 0.9024,-0.66769 0.9024,-0.66769c2.36062,0.40754 4.72459,1.32861 7.0592,2.54252c0.90214,-0.70237 1.83733,-1.35467 2.80953,-1.94805c1.13138,-1.06974 2.31256,-2.12595 3.53287,-3.16152c-1.31358,-0.73425 -2.62912,-1.47421 -3.94035,-2.23846c-1.40157,-0.81689 -5.1761,-3.75445 -6.73479,-2.74755c0,0 -0.70136,0.36326 -1.05205,-0.36326c-0.35069,-0.72651 0.35069,-1.08976 0.35069,-1.08976c2.31082,-1.05546 4.77642,0.84731 6.81937,2.00167c1.97249,1.11455 3.95514,2.19936 5.9277,3.29631c2.89869,-2.36793 5.98714,-4.61018 9.13147,-6.63759c-0.82465,-0.67224 -1.63427,-1.36331 -2.4241,-2.0792c0,0 -0.59012,-0.53488 -0.07377,-1.14617c0.51635,-0.61129 1.10649,-0.07641 1.10649,-0.07641c0.91545,0.82976 1.85725,1.62636 2.81805,2.39903c1.96903,-1.22236 3.95192,-2.35591 5.91623,-3.37908c0,0 0.70136,-0.36326 1.05205,0.36324c0.35069,0.72651 -0.35067,1.08977 -0.35067,1.08977c-1.75755,0.90557 -3.52396,1.90461 -5.27882,2.97923c5.58258,4.30136 11.67548,7.95928 16.90906,12.6926c2.17934,-1.72459 4.434,-3.31251 6.87106,-4.58469c0,0 0.70136,-0.36326 1.05204,0.36324c0.35067,0.72651 -0.35067,1.08976 -0.35067,1.08976c-2.26641,1.1631 -4.37541,2.61416 -6.4127,4.20134c4.49039,4.13915 9.42133,8.19207 13.7941,12.69642c1.81825,-1.85751 3.5898,-3.58538 3.5898,-6.38136c0,0 0,-0.81227 0.78415,-0.81227c0.78415,0 0.78415,0.81227 0.78415,0.81227c0,3.34972 -1.97717,5.32595 -4.06866,7.52622c2.58055,2.76901 4.92683,5.71924 6.81868,8.96917c1.47524,2.53921 3.27554,4.8812 4.86534,7.34827c0.98077,-1.00146 2.0952,-1.64171 3.53705,-1.26361c0,0 0.74391,0.25686 0.49594,1.02745c-0.24797,0.77059 -0.99188,0.51372 -0.99188,0.51372c-0.64236,-0.33508 -1.42823,0.2436 -2.19281,1.09126c0.70359,1.18785 1.33884,2.41649 1.8499,3.7195l0.06564,0.16843c0,0 0.2936,0.75319 -0.43351,1.0573c-0.72711,0.30411 -1.02072,-0.44907 -1.02072,-0.44907l-0.06564,-0.16843c-0.40586,-1.04835 -0.89822,-2.04837 -1.44499,-3.01787c-0.51847,0.70164 -0.9839,1.38462 -1.3315,1.7957c-0.81368,0.96225 -1.66768,1.94934 -2.53976,2.95617c1.83475,2.32274 3.51945,4.75971 4.95427,7.38454c0.21047,0.22664 0.4521,0.49946 0.71447,0.8083c1.19613,-0.7905 2.48199,-1.32641 3.77987,-1.36156c0,0 0.78415,0 0.78415,0.81227c0,0.81227 -0.78415,0.81225 -0.78415,0.81225c-0.78986,-0.03529 -1.78797,0.37751 -2.76741,0.98288c1.78946,2.29423 3.87629,5.45945 3.969,7.28567v0.43241c0,0 0,0.81227 -0.78415,0.81227c-0.78415,0 -0.78415,-0.81227 -0.78415,-0.81227v-0.43241c0.12471,-1.15747 -2.00494,-4.19637 -3.70889,-6.36046c-0.8828,0.70224 -1.65182,1.47519 -2.10335,2.08947c-2.44136,3.32114 -5.06885,6.48167 -7.64246,9.68771c2.23386,4.02431 4.64732,7.9208 6.97463,11.88709l0.45046,0.92478c0,0 0.35278,0.72542 -0.34751,1.09088c-0.70031,0.36545 -1.05311,-0.35995 -1.05311,-0.35995l-0.42116,-0.86744c-2.22457,-3.78436 -4.52854,-7.50453 -6.66885,-11.34009c-1.07011,1.35022 -2.12492,2.71347 -3.14678,4.10485c-1.44088,1.95929 -2.76903,3.99344 -4.03715,6.06833c2.35405,4.36567 4.97045,9.32802 6.09657,13.85841l0.03708,0.15363c0,0 0.19018,0.78801 -0.57056,0.98503c-0.76073,0.197 -0.95093,-0.59102 -0.95093,-0.59102l-0.03708,-0.15363c-0.95044,-4.08316 -3.3289,-8.64204 -5.5184,-12.68472c-3.58049,6.03747 -6.77134,12.34242 -10.83695,18.09482c0.65123,0.97245 1.22776,1.98063 1.55563,3.1429l0.36861,0.43909c0,0 0.46125,0.65691 -0.1729,1.13469c-0.63414,0.47779 -1.09539,-0.1791 -1.09539,-0.1791l-0.60997,-0.95455c-0.20727,-0.80048 -0.57463,-1.53765 -1.01473,-2.24633c-0.12192,0.16393 -0.24463,0.32735 -0.36822,0.49025c-0.40158,1.02302 -0.9393,1.99561 -1.56735,2.88801l-0.183,0.25806c0,0 -0.46418,0.65464 -1.09618,0.17382zM214.84658,258.7366c1.1324,-1.5419 2.30994,-3.04525 3.50411,-4.5344c-1.66865,-2.38956 -3.27036,-4.82663 -4.85178,-7.27708c-2.00713,3.16774 -4.349,6.25482 -6.65452,9.37554c1.485,2.57346 2.85474,5.10304 4.10165,7.42577c0.08008,0.14935 0.16088,0.29965 0.24231,0.45091c1.15718,-1.856 2.36481,-3.67732 3.65822,-5.44076zM225.75023,244.8896c0.86189,-1.16065 2.0104,-2.49088 3.32089,-3.59608c-0.27544,-0.3282 -0.51352,-0.60133 -0.69434,-0.79894c-1.40123,-2.51972 -3.02253,-4.86583 -4.77956,-7.10473c-3.32342,3.84644 -6.77363,7.94243 -9.16634,12.0153c-0.00321,0.00542 -0.00643,0.01086 -0.00964,0.0163c1.62423,2.51907 3.26428,5.02835 4.96779,7.49325c2.14785,-2.65127 4.32255,-5.27981 6.3612,-8.02507zM209.57512,264.51538c-1.14081,-2.12918 -2.39279,-4.45322 -3.74785,-6.83052c-3.11735,4.2713 -6.06534,8.63656 -7.90376,13.38555c-1.32114,2.1033 -2.57802,4.25238 -3.80288,6.42619c0.11061,0.17737 0.22129,0.35434 0.33205,0.53083c0.99748,1.58925 2.59409,2.38834 3.61263,4.14676c0.37925,0.65477 0.8057,1.27145 1.23584,1.87969c4.01992,-5.87532 7.26268,-12.24577 10.93226,-18.31979c-0.22475,-0.41405 -0.44482,-0.82067 -0.65829,-1.21871zM196.53232,270.32048c1.93548,-5.02498 5.11661,-9.62302 8.43156,-14.13245c-3.75363,-6.42728 -8.23819,-13.02532 -13.29616,-17.05238c-0.15811,-0.12653 -0.31575,-0.2537 -0.47296,-0.38147c-2.07586,3.07602 -3.95222,6.36519 -5.88319,9.451c-2.0688,3.30604 -4.07947,6.62321 -6.08542,9.93213c0.05795,0.08286 0.1156,0.16586 0.17295,0.24902c1.7326,2.51261 3.66907,3.72469 5.61378,5.909c3.15074,3.53889 5.66642,7.63819 8.12963,11.6239c1.10306,-1.89875 2.22889,-3.7703 3.38982,-5.59871zM226.03989,228.1125c0.55852,-0.66051 1.09486,-1.43138 1.65437,-2.15871c-1.65066,-2.6254 -3.59834,-5.08306 -5.15119,-7.75586c-1.81335,-3.12762 -4.06728,-5.97433 -6.55081,-8.64799c-0.02405,0.02691 -0.04806,0.05391 -0.07205,0.08097c-1.90158,2.14469 -3.88788,4.33982 -5.80327,6.58296c4.42875,4.93659 9.3201,9.54983 13.54856,14.66997c0.81245,-0.94169 1.60944,-1.86672 2.3744,-2.77134zM209.07874,217.44385c-1.27875,1.53399 -2.5118,3.08989 -3.65049,4.66686c-1.17454,1.6222 -2.46342,3.11895 -3.79728,4.56659c0.23105,0.29635 0.46223,0.59428 0.69358,0.89383c4.02459,5.22325 7.56826,10.80337 11.14345,16.36871c2.48436,-4.0145 5.86624,-8.02786 9.1203,-11.80689c-4.20836,-5.1304 -9.06776,-9.74634 -13.50956,-14.68912zM201.0999,228.58598c-0.18974,-0.24569 -0.37936,-0.49023 -0.56885,-0.73368c-2.18329,2.3016 -4.43444,4.52963 -6.46207,7.00497c-0.67797,0.82767 -1.3289,1.68977 -1.95932,2.5756c0.17177,0.13981 0.34407,0.27889 0.51689,0.41722c5.0724,4.07807 9.56108,10.56073 13.35063,16.96599c2.30423,-3.10971 4.61844,-6.1934 6.57453,-9.36318c-3.67868,-5.73208 -7.29769,-11.49957 -11.45179,-16.8669zM183.8911,265.43059c-1.8837,-2.14101 -3.8495,-3.44289 -5.56387,-5.81091c-2.35816,3.88692 -4.72083,7.75842 -7.17489,11.58312c0.6124,0.7406 1.21882,1.49034 1.81869,2.25049c2.53226,3.7445 6.10249,7.26141 8.26262,11.18413c1.196,2.17192 2.28733,4.22569 3.64118,6.20276c2.44748,-4.43551 4.84863,-8.94261 7.35174,-13.32967c-2.6067,-4.0742 -5.07624,-8.37551 -8.33546,-12.07995zM163.69115,280.54865c1.12611,-2.76497 3.81326,-4.56377 4.5981,-7.79834c0.29993,-0.47312 0.59882,-0.94636 0.89683,-1.41968c-4.86451,-5.77451 -10.08335,-11.00914 -15.36358,-16.31736c-0.38303,0.51789 -0.77656,1.02642 -1.18206,1.52435c-1.6642,4.13837 -5.22288,7.73868 -7.35913,11.6856c0.97538,0.93831 1.95726,1.86955 2.95081,2.7887c4.48301,4.1521 9.41004,8.91633 13.49098,13.73747c0.75155,-1.42132 1.41432,-2.84114 1.96807,-4.20074zM183.99556,247.32152c1.95967,-3.13165 3.86542,-6.46479 5.97372,-9.58275c-5.67413,-4.78802 -10.82643,-10.30709 -16.40676,-15.25426c-1.79099,2.71776 -3.52442,5.40707 -5.28725,7.84215c-2.3655,3.26709 -4.33154,6.87554 -6.24261,10.52491c5.80494,4.85693 11.72006,9.98856 16.16253,15.86864c1.91268,-3.12637 3.83562,-6.25896 5.80037,-9.39871zM192.87314,233.80622c2.09043,-2.55199 4.42164,-4.83841 6.66841,-7.21599c-4.98756,-6.31473 -9.96346,-11.8954 -15.7699,-17.24628c-3.5,3.3424 -6.49708,7.55937 -9.31984,11.7975c5.59105,4.9515 10.75515,10.47917 16.43376,15.276c0.63959,-0.89781 1.29992,-1.77176 1.98758,-2.61123zM204.17362,221.13601c1.20009,-1.65333 2.49794,-3.28429 3.84175,-4.89187c-0.18941,-0.21685 -0.37785,-0.43445 -0.56527,-0.65286c-4.14202,-4.82849 -9.42778,-9.05574 -14.84154,-13.00238c-1.44914,1.16811 -2.93168,2.28166 -4.47894,3.28514c-1.10401,0.7076 -2.15854,1.50987 -3.17081,2.38813c5.76002,5.31972 10.72144,10.88424 15.67894,17.15047c1.24125,-1.35731 2.43908,-2.76179 3.53587,-4.27661zM214.76627,208.53075c0.04158,-0.04689 0.08335,-0.09356 0.12529,-0.14001c-4.42578,-4.5639 -9.4524,-8.6525 -13.97169,-12.83261c-2.37316,1.93205 -4.67135,4.00955 -7.0354,5.98303c5.3764,3.94035 10.60878,8.16081 14.73778,12.97085c0.14391,0.1677 0.28847,0.33493 0.43365,0.50173c1.88667,-2.20706 3.83584,-4.36894 5.71037,-6.48298zM161.27664,242.3007c-2.04061,3.92023 -4.07035,7.84182 -6.51417,11.39407c5.25715,5.28601 10.45712,10.49416 15.31181,16.22066c2.44254,-3.90358 4.83119,-7.81477 7.22827,-11.73552c-4.34103,-5.89587 -10.22939,-11.03115 -16.02591,-15.87919zM151.29992,255.69446c0.47533,-0.59709 0.93468,-1.20772 1.38033,-1.83001c-0.88677,-0.89256 -1.77471,-1.78844 -2.66235,-2.69053c-3.9779,-4.05291 -9.6,-8.96327 -15.02381,-12.67955c-0.90182,0.85746 -1.31357,1.27885 -1.88816,3.34406c-1.80146,2.88248 -3.79236,7.19429 -5.06737,11.30297c2.10429,0.21014 3.75644,2.21098 5.43933,3.73652c3.65685,3.31494 7.12499,6.80667 10.65192,10.23196c2.20632,-3.83706 5.52006,-7.35691 7.17011,-11.41543zM167.02059,229.35197c1.79428,-2.47782 3.5508,-5.17938 5.35961,-7.90079c-1.49069,-1.28347 -3.01589,-2.52067 -4.59306,-3.68761c-4.58749,-3.3943 -9.32388,-6.40408 -14.20957,-9.16783c-1.74202,2.57962 -3.39971,5.1855 -5.04568,7.65805c-1.79447,2.6797 -3.3885,5.37169 -4.99832,8.0771c4.26907,3.16854 8.07601,7.69844 12.11655,11.16308c1.65922,1.42292 3.38232,2.8547 5.12583,4.30834c1.91144,-3.61673 3.8843,-7.19036 6.24467,-10.45036zM187.29843,204.4964c1.37127,-0.88612 2.69098,-1.85476 3.9808,-2.86969c-2.75294,-1.97951 -5.51748,-3.89355 -8.16107,-5.784c-3.46356,-2.47731 -7.09722,-4.5373 -10.76469,-6.58642c-1.42061,1.18631 -2.79423,2.39982 -4.10631,3.62774c-0.751,0.46375 -1.47973,0.96258 -2.18805,1.49241c5.19995,2.98847 10.21567,7.20165 14.67821,10.15464c1.04469,0.88387 2.06123,1.77167 3.05344,2.6656c1.11492,-0.99142 2.28085,-1.899 3.50766,-2.70029zM182.67235,181.69011c-3.0689,1.95844 -6.08474,4.13496 -8.93667,6.43251c3.51144,1.97521 6.97426,4.02344 10.27358,6.38329c2.77563,1.98567 5.67912,3.99692 8.56369,6.08111c2.42959,-1.98999 4.77681,-4.10421 7.19267,-6.09018c-5.30273,-4.75717 -11.47775,-8.43088 -17.09326,-12.80672zM179.81767,205.84701c-4.55988,-3.00389 -9.75514,-7.45043 -15.10819,-10.40442c-3.92227,3.26445 -7.21072,7.46375 -10.22022,11.81806c4.88453,2.77033 9.62157,5.78641 14.20947,9.18097c1.57041,1.16195 3.08975,2.39361 4.57512,3.67132c2.8396,-4.2282 5.84082,-8.42364 9.34074,-11.82227c-0.91034,-0.81858 -1.84161,-1.63253 -2.79692,-2.44365zM154.65007,236.74536c-3.98071,-3.41364 -7.74176,-7.89453 -11.94242,-11.02937c-1.44169,2.40953 -2.92499,4.82982 -4.60187,7.26164c-0.7432,1.07783 -1.30366,3.25245 -2.04291,4.38356c5.42307,3.75243 10.96063,8.50385 15.05334,12.65307c0.82957,0.84305 1.65937,1.68077 2.4883,2.51544c2.37955,-3.55028 4.38487,-7.41993 6.41068,-11.28146c-1.82677,-1.52126 -3.63243,-3.01723 -5.3651,-4.50289z" fill="#000000" stroke="none" stroke-width="0.5"/></g><path d="M196.29263,154.03127v-20h176v20z" fill="#9e9e9e" stroke="#9e9e9e" stroke-width="0.5" stroke-linecap="butt"/><path d="M99.29008,308.86511l-0.2173,-0.05432l0.36,-1.43999c0.07579,-0.33399 0.37449,-0.58332 0.73141,-0.58332c0.31816,0 0.59005,0.19811 0.69904,0.47771l0.31949,0.76716l-0.05315,0.02214l0.09624,0.11918c0.00485,0.54901 0.0097,1.09801 0.01455,1.64702c0,0.24942 0,0.49885 0,0.74827c0.19056,-0.31933 0.36651,-0.57493 0.51403,-0.74243l0.28776,-1.15105c0.07579,-0.33399 0.37449,-0.58332 0.73141,-0.58332c0.30678,0 0.57054,0.18419 0.68672,0.44802c-0.05789,-1.12367 -0.13203,-2.23797 -0.13203,-3.28591c0,0 0,-0.75 0.75,-0.75c0.75,0 0.75,0.75 0.75,0.75c0,3.05586 0.91667,8.07407 -0.75594,10.81786c-0.49888,0.81837 -1.28775,1.37887 -2.06045,1.53362c-0.0491,0.2468 -0.09158,0.50813 -0.12478,0.78704c-0.05076,0.42647 0.11458,2.2914 -0.13595,2.6301c-0.2431,0.32865 -2.68762,1.09426 -3.004,0.82224c-0.48992,-0.42122 -0.20764,-1.27541 -0.31147,-1.91312v-0.65234c0,0 0,-0.43051 0.32617,-0.63919v-0.6655c0,-3.15997 -0.3119,-6.18639 0.52823,-9.10988zM103.2996,313.50657c0.01248,-0.06801 0.02438,-0.13544 0.03591,-0.20202c0.02811,-0.16247 0.05258,-0.32675 0.07374,-0.49263l-0.04246,0.00708c-0.01801,0.224 -0.0406,0.45254 -0.06719,0.68757zM103.52357,310.22208v0.12009h-0.18394c0.08672,0.73788 0.09507,1.44193 0.04793,2.18826l0.03245,0.19472c0.09706,-0.80637 0.11818,-1.64917 0.10356,-2.50307zM99.93567,319.93202c-0.55561,1.24202 0.35624,0.52252 0.5986,0.21381c0.39955,-0.50893 -0.2193,-1.29468 -0.13595,-1.93631c0.03481,-0.26801 0.08829,-0.57098 0.15716,-0.89646c-0.05733,-0.04372 -0.11269,-0.09192 -0.1658,-0.14472c-0.0404,0.14574 -0.08147,0.29079 -0.12348,0.43492c-0.00284,0.12636 -0.00437,0.25036 -0.00437,0.37173v0.97852c0,0.25693 -0.1292,0.48369 -0.32617,0.61885zM101.25482,314.0372c-0.0025,0.00791 -0.00501,0.01581 -0.0075,0.02373l0.0087,0c-0.00041,-0.00791 -0.00081,-0.01582 -0.00119,-0.02373z" fill="#9e9e9e" stroke="none" stroke-width="0.5" stroke-linecap="butt"/></g></g></svg>