<svg version="1.1" xmlns="http://www.w3.org/2000/svg" xmlns:xlink="http://www.w3.org/1999/xlink" width="385.72083" height="124.04734" viewBox="0,0,385.72083,124.04734"><g transform="translate(34.21658,-221.58382)"><g data-paper-data="{&quot;isPaintingLayer&quot;:true}" fill-rule="nonzero" stroke="none" stroke-width="0.5" stroke-linecap="butt" stroke-linejoin="miter" stroke-miterlimit="10" stroke-dasharray="" stroke-dashoffset="0" style="mix-blend-mode: normal"><path d="M78.85343,274.17587c-0.7071,0.70711 -1.41421,0 -1.41421,0l-0.87761,-0.89587c-1.78867,-0.93257 -1.83527,-2.20854 -2.74995,-3.76048c-0.52517,-0.89103 -1.66464,-1.25527 -2.3367,-2.04145c-0.40685,-0.47593 -1.89968,-3.02718 -2.23233,-3.58454c-0.45321,-0.98924 -1.40442,-2.61769 -2.09758,-4.3191c0.98955,0.16591 1.84692,0.32393 2.44228,0.52795c0.03118,0.01068 0.06216,0.02129 0.09294,0.03183c0.43132,0.95511 0.90704,1.89651 1.33276,2.82891c1.25994,2.10446 3.24332,3.50956 4.46795,5.45487c0.91787,1.45803 0.55513,2.43433 2.25005,3.23951l1.1224,1.10413c0,0 0.7071,0.70711 0,1.41422z" fill="#bee484"/><path d="M86.095,267.15253c0,0 0.31623,0.94868 -0.63245,1.26491c-0.94868,0.31623 -1.26491,-0.63245 -1.26491,-0.63245c-0.43797,-1.40609 -1.44609,-2.72512 -2.72376,-3.92754c0.79834,-0.02054 1.5562,-0.2038 2.24165,-0.51785c1.06844,1.18769 1.90807,2.4654 2.37948,3.81294z" fill="#bee484"/><path d="M80.03461,280.32111l-0.37526,0.84435l-2.0645,-0.91755c-2.8646,-0.50794 -6.89164,-1.12803 -9.04953,-3.2866c-0.05575,-0.05577 -0.11024,-0.11256 -0.16355,-0.1703l-0.02289,0.02671l-1.73889,-1.49048c-0.48741,-0.41272 -0.79682,-1.02915 -0.79682,-1.71785c0,-1.18176 0.91107,-2.15073 2.06914,-2.24284l2.68469,-0.24406c1.09296,-0.15438 2.16462,-0.42486 3.23717,-0.69231c-1.25646,-1.25642 -2.80623,-2.35521 -3.23476,-4.02799c-0.04388,-0.1713 -0.08034,-0.34361 -0.11037,-0.51677l-0.0787,0.01967l-0.73776,-2.95105c-0.03312,-0.12118 -0.05637,-0.24644 -0.06882,-0.37486l-0.87366,-0.67951c-0.53907,-0.41106 -0.88694,-1.06004 -0.88694,-1.79028c0,-0.05609 0.00205,-0.1117 0.00609,-0.16677c0.6997,0.12578 1.30482,0.25445 1.75809,0.40977c2.54583,0.87241 3.77064,1.251 6.30149,2.01287c0.31663,0.09532 1.32396,0.4842 2.38912,0.87244c0.79011,0.49425 1.70891,0.80189 2.69467,0.86117c0.1732,0.03219 0.29579,0.03836 0.35054,0.01051c1.05594,0 2.0454,-0.28463 2.89584,-0.78136c0.19856,0.02073 0.40012,0.03136 0.60416,0.03136c0.69734,0 1.36568,-0.12414 1.98414,-0.35151c0.03872,0.03345 0.07757,0.06718 0.11651,0.10117c0.03019,-0.0419 0.0605,-0.08374 0.09092,-0.12552c-0.46357,-1.1475 -0.77447,-2.36308 -0.92242,-3.58015l-0.49107,-3.43747c-0.01849,-0.11612 -0.02809,-0.23519 -0.02809,-0.35651c0,-1.24264 1.00736,-2.25 2.25,-2.25c0.53164,0 1.02022,0.18439 1.40527,0.4927l3.48483,2.73808l-0.02635,0.03354c0.091,0.06174 0.18122,0.12479 0.27058,0.18923c0.11733,0.08462 0.41466,0.47913 0.80094,1.0332c1.305,-1.23793 2.54464,-2.41009 3.7144,-3.17589c1.37202,-0.89822 2.74007,-1.75029 4.11117,-2.55426c4.94192,-2.75824 9.98858,-5.04309 15.40177,-6.76562c3.3642,-0.9711 6.87466,-1.65949 10.6128,-2.04262c0.34029,-0.03488 -0.24741,0.63831 -0.39035,0.94909c-0.2498,0.54311 -0.48043,1.09491 -0.71075,1.64657c-0.89634,2.14699 -1.71246,4.3602 -2.70938,6.44094c-1.59082,3.32032 -3.67434,7.77158 -3.18114,11.38581c-0.09157,0.13148 -0.18594,0.25826 -0.28377,0.37923l1.41406,3.77665c0.19392,0.96962 2.33815,1.76412 3.91017,2.07841c2.2105,-3.96154 6.12593,-7.859 10.30094,-9.55372c1.45025,-0.58868 3.42364,-1.96939 4.60088,-0.93795c2.96613,2.59878 0.62561,6.69754 -0.36892,9.17558c-0.19333,0.48171 -0.30086,1.01978 -0.4475,1.532c4.67821,0.02506 9.35647,0.04531 14.0346,0.04735c-1.3302,3.79806 -3.11165,7.38391 -5.78038,10.04553c-1.97813,1.97286 -4.27573,3.44348 -6.7359,4.6003c-7.36075,0.06793 -14.80076,0.33296 -22.11481,-0.27193c-7.37826,-0.61981 -14.704,-1.52318 -22.05866,-2.25566c-3.24743,-0.32343 -7.77775,0.22476 -11.32073,-0.51574c-0.64941,-0.00532 -1.22737,-0.05502 -1.52026,-0.1992c-0.35397,-0.17425 -0.59296,-0.36075 -0.76905,-0.55683c-0.38832,-0.19196 -0.77137,-0.42576 -1.14873,-0.6938z" fill="#bee484"/><path d="M10.92956,277.02943c-0.36642,0.17126 -0.72274,0.30709 -1.0656,0.40005c-0.19993,0.15039 -0.43882,0.27548 -0.75105,0.3595c-0.25835,0.06952 -0.6724,-0.02638 -1.11704,-0.18428c-2.71592,-0.15523 -5.57905,-1.83779 -7.92353,-2.33276c-5.30969,-1.121 -10.66937,-2.06511 -15.9492,-3.30389c-5.22999,-1.23746 -10.19107,-3.37009 -15.17851,-5.28716c-1.20446,-1.76654 -2.1702,-3.8037 -2.71345,-6.25915c-0.73291,-3.31269 -0.48441,-7.31985 0.1581,-11.42428c3.18821,1.17352 6.38393,2.329 9.58159,3.47967c0.10897,-0.54531 0.25512,-1.10644 0.31983,-1.6332c0.33291,-2.70975 0.40968,-7.36656 3.49036,-9.20091c1.22271,-0.72804 2.00422,1.13841 2.75226,2.08719c2.15349,2.73139 3.23186,7.58411 3.12248,12.07202c1.19924,0.08304 2.98417,-0.16681 3.5117,-1.08058l2.50354,-3.39359c-0.01733,-0.14465 -0.02993,-0.29422 -0.0387,-0.44775c1.80988,-3.46376 2.20549,-8.40588 2.4756,-12.10157c0.16927,-2.31597 0.51575,-4.71801 0.78056,-7.07447c0.06804,-0.60548 0.13592,-1.21118 0.1872,-1.81308c0.02934,-0.34442 -0.09656,-1.16035 0.12107,-1.04021c2.39069,1.31966 4.50177,2.88511 6.39792,4.69445c2.98576,3.07013 5.4925,6.60635 7.73482,10.58616c0.60632,1.14261 1.19096,2.33219 1.75948,3.56857c0.48471,1.05412 0.85132,2.52918 1.23565,4.08594c0.48913,-0.45294 0.8526,-0.76984 0.96704,-0.82435c0.08717,-0.04152 0.17434,-0.08144 0.26152,-0.11985l-0.00428,-0.03991l3.49091,-1.8423c0.38808,-0.20929 0.79615,-0.26955 1.15838,-0.13596c0.84666,0.31226 1.12221,1.56535 0.61548,2.79887c-0.04947,0.12043 -0.10457,0.23622 -0.16452,0.34684l-1.73635,3.28883c-0.59711,1.17096 -1.30464,2.29948 -2.08843,3.32207c0.00369,0.04912 0.00727,0.09828 0.01076,0.14745c0.0404,-0.02395 0.08062,-0.04768 0.12064,-0.07115c0.32866,0.38112 0.7334,0.67229 1.20852,0.84752c0.13902,0.05127 0.28069,0.09138 0.42443,0.12069c0.37687,0.70678 0.93496,1.23796 1.65441,1.5033c0.02595,0.04141 0.11199,0.06608 0.24312,0.07765c0.69581,0.18886 1.44727,0.11437 2.18715,-0.17772c0.88405,-0.11773 1.72897,-0.25063 1.98357,-0.26569c2.03504,-0.12032 3.02394,-0.18835 5.11427,-0.41463c0.37217,-0.04029 0.83693,-0.01595 1.36495,0.03502c-0.0197,0.05567 -0.04099,0.11139 -0.06386,0.16707c-0.29778,0.72487 -0.79945,1.28168 -1.33436,1.55426l-0.87235,0.45498c-0.06085,0.12435 -0.12777,0.24285 -0.19976,0.35482l-1.70608,2.74399l-0.04559,-0.03931c-0.09108,0.16435 -0.18617,0.32622 -0.28593,0.48524c-0.97412,1.55281 -2.47811,2.2541 -3.84654,3.18556c0.6217,0.535 1.24156,1.07279 1.92328,1.50067l1.72965,0.91689c0.75148,0.38244 0.97708,1.57323 0.49517,2.74631c-0.28084,0.68364 -0.74303,1.21778 -1.24343,1.505l-1.79258,1.04258l-0.00471,-0.03226c-0.05987,0.04392 -0.12015,0.08661 -0.18088,0.12796c-2.35049,1.60047 -5.34713,1.20408 -7.50601,0.98846l-1.78079,0.39204l0.08863,-0.93244z" data-paper-data="{&quot;index&quot;:null}" fill="#bee484"/><path d="M24.4195,261.75317c0.00672,-0.01428 0.01326,-0.02863 0.01964,-0.04302c-0.56869,0.26342 -1.24466,0.47767 -1.94207,0.64959c0.12344,0.50929 0.17692,1.09661 0.18168,1.72238c0.1299,0.11711 0.25219,0.23967 0.36573,0.3683c0.47268,-0.89381 0.94705,-1.78703 1.37503,-2.69726zM14.86621,259.75803c-0.04685,-0.16976 -0.10984,-0.36446 -0.18063,-0.5779c-0.3195,0.66427 -0.46881,1.34546 -0.30934,2.00667c0.27067,-0.10311 0.56647,-0.20089 0.87956,-0.29104c0.04039,-0.05957 0.08172,-0.1189 0.12379,-0.17803c0.02104,-0.03673 0.04209,-0.07349 0.06313,-0.11028c-0.41892,-0.39384 -0.57651,-0.84943 -0.57651,-0.84943zM27.67253,255.89153c1.60902,0.5929 1.64928,2.75082 1.84668,4.25733c0.30132,2.2995 -2.72781,6.42449 -3.65883,8.44603l-2.33907,1.22666c0,0 -0.83206,0 -1.4842,-0.43883c-0.00886,0.04623 -0.01763,0.0919 -0.02631,0.137c0.49505,1.11398 0.37964,2.59166 0.78171,3.76104l-1.283,0.42312l0.26803,0.46491l-3.95951,1.71702c-0.31267,0.14277 -0.66881,0.22357 -1.04672,0.22357c-1.24264,0 -2.25,-0.87367 -2.25,-1.95139c0,-0.13845 0.01662,-0.27353 0.04824,-0.40383l0.83351,-3.79516l0.03339,0.00552c0.02797,-0.128 0.05983,-0.25557 0.096,-0.38265c0.37767,-1.32698 1.57772,-2.38467 2.60116,-3.42404c0.06327,-0.06425 0.19861,-0.09432 0.35012,-0.10867c0.02755,-0.10387 0.05369,-0.20774 0.07794,-0.3116c-0.26262,-0.09519 -0.52702,-0.16464 -0.79234,-0.21497l-0.79744,1.15268c-0.38864,0.58459 -1.11663,0.97808 -1.95058,0.97808c-0.04194,0 -0.08362,-0.001 -0.125,-0.00296c-0.04138,0.00197 -0.08306,0.00296 -0.125,0.00296c-0.79239,0 -1.48912,-0.35525 -1.88998,-0.89213c-0.11723,0.01635 -0.23748,0.02485 -0.36002,0.02485c-1.24264,0 -2.25,-0.87367 -2.25,-1.95139c0,-0.44483 0.17162,-0.8549 0.46056,-1.18312c-0.05036,-0.06814 -0.10029,-0.13888 -0.14977,-0.21231c-0.74099,-1.09962 -0.4146,-2.54277 -0.29634,-3.81228c0.09204,-0.98801 0.38936,-1.93075 0.83078,-2.8371c-0.33644,-0.74099 -0.54725,-1.83146 -0.58834,-3.38255c-0.00734,-0.27707 0.04139,-0.54225 0.13305,-0.7979c-0.35384,0.16324 -0.68939,0.32142 -1.00124,0.47434l-0.05867,0.01076l0.00707,0.01229l-1.41458,0.61222c-1.71248,0.98741 -3.46416,1.92355 -5.23815,2.80819c-0.89553,0.65285 -1.79536,1.30082 -2.70831,1.93352l0.14605,0.08444l-1.48064,1.92621c-0.40062,0.538 -1.09809,0.89414 -1.89147,0.89414c-0.93969,0 -1.74483,-0.4996 -2.08156,-1.20924c-0.08036,0.03418 -0.16281,0.0692 -0.24715,0.10494c-0.21723,1.3732 -0.51219,2.7002 -0.68719,3.65211l-0.07967,0.10738l0.04434,0.01123l-1.02499,3.04279c-0.25678,0.83268 -1.13271,1.44589 -2.17377,1.44589c-1.15832,0 -2.11221,-0.75913 -2.23633,-1.73504l-0.4963,-3.44346l0.0821,-0.0089c-0.03444,-0.14066 -0.06414,-0.28243 -0.08852,-0.42543c-0.00507,-0.02974 -0.00924,-0.05941 -0.01255,-0.08902c-0.09885,-0.07688 -0.18981,-0.16123 -0.2717,-0.25203c-0.76521,-0.24076 -1.20918,-1.10419 -1.85149,-1.6429c-0.17641,0.43898 -0.52853,0.80654 -0.9833,1.03931c-0.00243,0.00646 -0.00489,0.01294 -0.00738,0.01943c-0.71151,1.85125 -2.84605,1.23417 -2.84605,1.23417c-4.92496,-1.59924 -7.01846,-4.94665 -7.90362,-8.78962c-1.78505,-1.35762 -3.20132,-2.82413 -1.6628,-5.3985c0.3018,-0.50499 0.64694,-0.93401 1.02756,-1.29511c-0.01153,-1.11844 0.00037,-2.2209 0.00037,-3.2801v-1.95139c0,-1.07772 1.00736,-1.95139 2.25,-1.95139c0.62132,0 1.18382,0.21842 1.59099,0.57155l1.59889,1.38669c0.24321,0.01763 0.47542,0.0688 0.69047,0.14817c0.20884,-1.39169 0.7237,-2.65032 1.86365,-3.29183c5.21171,-2.93289 6.48225,2.65968 7.46162,4.85023c0.8985,2.00967 1.5315,4.00137 1.96503,6.01216c0.25664,-0.0883 0.53645,-0.13684 0.82934,-0.13684c0.60747,0 1.15872,0.20879 1.56353,0.54814c0.07563,-0.11588 0.15291,-0.23278 0.23191,-0.35081c0.62237,-0.92981 3.79399,-7.24935 7.1619,-5.43242c1.7051,0.91987 1.35291,3.31676 1.54235,5.05056c0.07941,0.72674 0.08756,1.37148 0.03746,1.96446c0.73929,-0.5354 1.30961,-0.94296 1.49848,-1.08013c0.00429,-0.00311 0.00858,-0.00623 0.01287,-0.00934l0.93247,-1.029l0.03835,0.02614c0.06706,-0.0882 0.13741,-0.17481 0.21138,-0.25966c1.08419,-1.24366 3.88165,-2.5761 6.44225,-3.65198c2.23677,-1.20122 4.58888,-2.20954 7.0018,-2.81508l0.33815,-0.13549c0.29802,-0.12639 0.63301,-0.19733 0.98711,-0.19733c0.06093,0 0.1213,0.0021 0.18101,0.00622c0.22683,-0.04486 0.44593,-0.08847 0.65768,-0.13037l1.73413,-0.88872c0.34246,-0.18269 0.74563,-0.28806 1.17718,-0.28806c0.88784,0 1.65557,0.44599 2.0216,1.09374c0.68718,0.41803 1.21154,1.21144 1.72307,2.56279l1.98165,-1.14577c0.36215,-0.21606 0.80088,-0.34254 1.27367,-0.34254c1.24264,0 2.25,0.87367 2.25,1.95139c0,0.53886 -0.25184,1.02671 -0.65901,1.37984l0,0l-2.65624,2.30372c-0.59803,0.7159 -1.19406,1.43156 -1.78517,2.14918c-0.29123,1.14827 -0.96874,2.49226 -1.72981,3.79532c0.40851,0.11032 0.76707,0.3189 1.03894,0.59386c0.23227,0.00642 0.46333,0.04761 0.69251,0.13206zM-15.87367,245.83669c0.03625,0.02006 0.07242,0.04019 0.10854,0.0604l0.7275,0.27671c-0.08058,-0.22569 -0.15962,-0.4518 -0.23657,-0.67845c-0.32079,-0.94481 -0.78127,-3.87429 -0.69849,-2.89199c0.09004,1.06843 0.10119,2.14941 0.09902,3.23333zM-4.81036,255.6989c0.46938,-0.20379 0.93484,-0.41217 1.39677,-0.62482c0.32134,-0.58389 0.61923,-1.17475 0.80677,-1.79838c0.03059,-0.10171 0.03118,-0.49024 0.05256,-1.00861c-0.69506,1.05242 -1.51021,2.04936 -2.10664,3.14627c-0.05162,0.09493 -0.10139,0.19013 -0.14946,0.28555zM-22.05121,249.98675c0.02606,0.8479 0.08603,1.70619 0.20346,2.54365c0.71375,0.51765 1.46905,0.99589 2.24202,1.44896c-0.10346,-0.47746 -0.19368,-0.96078 -0.27214,-1.45227c-0.4897,-0.84058 -0.92793,-1.71269 -1.30963,-2.55544c-0.28858,-0.01209 -0.57879,-0.00545 -0.86372,0.0151zM-18.76774,258.55382c0.03503,0.02416 0.07043,0.048 0.10619,0.07151l-0.00272,-0.02591c-0.0345,-0.0152 -0.06899,-0.0304 -0.10347,-0.04559z" fill="#bee484"/><path d="M57.72561,302.42656c2.18282,-0.54571 2.72853,1.63712 2.72853,1.63712l0.12326,0.63189c0.54686,1.24359 1.28127,2.4001 2.07875,3.52484c1.37125,-1.33305 2.77605,-2.63791 4.22499,-3.90591c2.25723,-1.97536 4.48834,-4.00568 6.96571,-5.69677c1.48035,-1.01051 2.92424,-3.20987 4.64508,-2.70858c3.768,1.09762 3.65574,7.24267 4.00746,9.88177c0.19431,1.45799 0.458,2.90614 0.65363,4.36395c0.10994,0.81931 -0.33328,2.91391 0.35399,2.45456c0.80522,-0.53819 1.49199,-1.23533 2.23798,-1.853c8.28742,-6.06664 19.6706,-10.03208 29.63687,-12.41476l3.81993,-0.90958c0.18191,-0.04745 0.37278,-0.07271 0.56955,-0.07271c1.24264,0 2.25,1.00736 2.25,2.25c0,0.43666 -0.12439,0.84427 -0.33967,1.18933l-2.2962,3.82701l-0.01679,-0.01008c-0.0293,0.05718 -0.05907,0.11415 -0.08933,0.17091c-0.73586,1.38027 -2.03819,2.37325 -3.05872,3.55865c-1.94212,2.25586 -4.02622,4.4041 -6.25268,6.38627c2.4633,-0.78764 4.94213,-1.52227 7.43783,-2.21527l2.80655,-1.00699c0.25106,-0.09678 0.52385,-0.14983 0.80903,-0.14983c1.24264,0 2.25,1.00736 2.25,2.25c0,0.31343 -0.06409,0.6119 -0.17988,0.88301l-0.98105,2.45262l-0.06739,-0.02696c-0.04279,0.14457 -0.09032,0.28794 -0.14329,0.42993c-0.33655,0.90222 -1.34673,1.37684 -2.01022,2.07473c-2.02072,2.12549 -4.03039,3.76735 -6.207,5.28729c1.9833,-0.19027 3.96632,-0.20986 5.99738,-0.29015l0.0199,0.00592l-0.00014,-0.00643l2.7656,-0.05928c0.01864,-0.00046 0.03734,-0.00069 0.05609,-0.00069c1.24264,0 2.25,1.00736 2.25,2.25c0,0.76562 -0.3824,1.44192 -0.96662,1.84833l-3.6374,2.59814l-0.02256,-0.03158c-0.09695,0.07583 -0.19561,0.14975 -0.2961,0.22161c-1.32044,0.94418 -3.10362,0.95282 -4.65756,1.42219c-2.34522,0.70839 -4.68864,1.42326 -7.04257,2.10213c-7.31046,2.10831 -14.64955,3.44791 -22.05755,4.25779c-0.30524,3.13984 -5.11316,4.93829 -7.84469,5.53069c-8.0261,1.74064 -16.37932,1.35591 -24.18238,-1.10619c-1.54038,-0.48603 -3.29076,-0.57243 -4.60307,-1.51415c-1.3117,-0.94129 -1.85316,-2.6509 -2.9063,-3.87462c-0.85825,-0.99728 -1.85697,-1.86121 -2.86642,-2.71459c-0.52093,0.53721 -1.04598,1.07113 -1.57579,1.60124c0,0 -1.59099,1.59099 -3.18198,0c-1.59099,-1.59099 0,-3.18198 0,-3.18198c0.48956,-0.48928 0.97509,-0.98178 1.45707,-1.47707c-0.07218,-0.08246 -0.14341,-0.16582 -0.21361,-0.25015c-1.12492,-1.35136 -3.25214,-2.73256 -2.84368,-4.44276c0.40994,-1.71639 3.03389,-1.80327 4.55083,-2.7049c1.28031,-0.00531 2.56759,0.05422 3.84554,0.19191c-0.13741,-0.16876 -0.26887,-0.33408 -0.39383,-0.49107c-2.94677,-3.70216 -4.98977,-7.83942 -6.77549,-12.21156c-0.56697,-1.38816 -1.81898,-2.78407 -1.48564,-4.24603c0.89689,-3.93361 6.11618,-3.73256 8.69065,-3.22319c1.63207,0.32291 3.02981,1.3756 4.53888,2.07605c3.05571,1.41833 5.96883,3.05006 8.8187,4.7961c0.06614,-0.0689 0.13233,-0.13776 0.19859,-0.20656c-1.05942,-1.61106 -2.04805,-3.26081 -2.8531,-5.05598l-0.37674,-1.36811c0,0 -0.54571,-2.18282 1.63712,-2.72853z" fill="#bee484"/><path d="M163.34484,319.5994c-0.04995,-0.05485 -0.09881,-0.11049 -0.14667,-0.16688l-0.01785,0.01785l-2,-2c-0.40717,-0.40717 -0.65901,-0.96967 -0.65901,-1.59099c0,-1.10167 0.79176,-2.01841 1.83729,-2.21223c0.07992,-0.20478 0.19782,-0.41792 0.36271,-0.63777c1.35,-1.8 3.15,-0.45 3.15,-0.45l0.20346,0.15428c-2.01355,-3.53439 -3.24791,-7.44113 -3.50373,-11.86332c-1.47292,-1.55203 -2.82327,-3.71638 -1.05482,-5.64885c0.28823,-0.31496 0.6466,-0.5447 1.04801,-0.70442c0.11417,-1.68329 0.39765,-3.2521 1.06141,-3.65252c3.68006,-2.22 6.56242,0.5739 8.72443,2.66171c2.0207,1.95134 4.03823,3.93828 6.03272,5.95571c6.3933,-6.2515 13.61995,-11.2403 20.87704,-16.77309l2.42048,-2.42048c0,0 0,0 0,0c0.40717,-0.40717 0.96967,-0.65901 1.59099,-0.65901c1.24264,0 2.25,1.00736 2.25,2.25c0,0.07186 -0.00337,0.14293 -0.00996,0.21307l-0.24782,2.97379l-0.0331,-0.00276c-0.00137,0.09921 -0.0051,0.19855 -0.01139,0.29804c-0.03043,0.48104 -0.10935,0.97919 -0.22646,1.48916c1.18581,-1.15778 2.41528,-2.20452 3.64623,-2.93869c1.86985,-1.11521 3.88185,-3.29443 5.96484,-2.66103c1.77426,0.53952 2.19194,3.27561 2.15358,5.12968c-0.03695,1.78642 -1.52666,3.23234 -2.35926,4.8133c-0.91173,1.73122 -1.85319,3.44855 -2.79451,5.16651c2.6256,-1.48522 5.76948,-2.44036 8.40969,-3.57854c11.10815,-4.78862 22.06009,-10.44765 33.74423,-13.59306l0.07686,0.0052l-0.0042,-0.02098l2.45444,-0.49089c0.15676,-0.03458 0.31966,-0.05281 0.48682,-0.05281c1.24264,0 2.25,1.00736 2.25,2.25c0,0.3779 -0.09317,0.73405 -0.25778,1.04672l-1.99222,3.98444l-0.44949,-0.22474c-2.2263,5.01289 -5.26392,9.5752 -8.73112,13.87287c5.01106,-2.05134 10.21094,-4.81996 15.39569,-6.2726c0.18163,-0.05089 8.20762,-1.30306 8.76682,-1.39065l0.08343,0.01793l-0.00218,-0.02619l2.97379,-0.24782c0.07014,-0.00659 0.14121,-0.00996 0.21307,-0.00996c1.24264,0 2.25,1.00736 2.25,2.25c0,0.7183 -0.3366,1.35799 -0.86067,1.76994l-3.49768,2.79814l-0.08095,-0.10119c-1.95493,2.24426 -4.06712,4.3503 -6.48657,6.10222c-3.64265,2.63764 -8.04974,4.39815 -11.87499,6.7669c-7.45136,4.6142 -14.4468,10.40829 -22.52505,13.96546c-5.22097,2.299 -11.01764,3.71433 -16.46173,5.40051l-0.22361,-0.05316l0.00971,0.08741l-2.21751,0.24639c-0.09204,0.01147 -0.18581,0.01737 -0.28096,0.01737c-0.57991,0 -1.10858,-0.21939 -1.50754,-0.5797c-4.75591,1.57873 -9.48081,3.62913 -14.37506,4.67014c-0.6629,0.141 -7.52118,1.037 -8.65425,0.59457c-1.54929,-0.60494 -2.62223,-2.04668 -3.93335,-3.07002l1.0446,-0.865h-0.07441v-0.07495c-0.09985,0.03091 -0.20355,0.04968 -0.31208,0.05321c-3.40686,0.11063 -10.24367,-3.45264 -12.46459,-5.84768c-0.27176,-0.29307 -0.40395,-0.66563 -0.49544,-1.06326c-3.09597,-1.33975 -6.38574,-2.58587 -8.65437,-5.07728z" fill="#bee484"/><path d="M297.51683,269.59594c-4.19726,0.48002 -9.95711,1.45274 -14.21259,0.46442c-4.3674,-1.01431 -7.48196,-5.27205 -10.24125,-8.4867l-0.54167,-1.96428c0,0 0,-1.68849 1.46271,-2.14006c-0.00215,-0.82394 0.50389,-1.48179 0.50389,-1.48179c6.32288,-8.19281 14.72762,-12.81556 23.65173,-17.79847c14.25846,-7.96142 29.98814,-13.86619 46.1523,-16.30305c2.16698,0.2076 5.23587,-1.14878 6.50093,0.62281c2.94018,4.11743 -4.02635,10.29999 -6.49435,12.50287c-8.07608,7.20849 -17.01589,13.68853 -25.95651,19.8421c1.30735,-0.35601 2.63553,-0.64378 3.92556,-0.9373c6.53843,-1.48769 13.0243,-2.30243 19.71079,-2.55671l0.04295,0.01549v-0.0159h2.5c1.24264,0 2.25,1.00736 2.25,2.25c0,0.87637 -0.50104,1.63572 -1.23228,2.00722l-0.92397,0.49278c0.38542,0 0.77083,0 1.15625,0h3c1.24264,0 2.25,1.00736 2.25,2.25c0,1.17982 -0.90808,2.14754 -2.06344,2.24238l-3.87147,0.36295c0.11896,0.2742 0.1849,0.57674 0.1849,0.89467c0,1.03013 -0.69228,1.89858 -1.63698,2.16548l-3.20133,0.98502l-0.01397,-0.0454c-0.10326,0.04228 -0.20761,0.08231 -0.31316,0.11988c-2.41787,0.8607 -7.15906,0.02501 -9.83457,0.02501l-1.65807,-0.24882c-2.4172,1.03694 -4.67959,2.24331 -7.0526,3.2774c-0.59637,1.34947 -2.22618,1.21366 -2.22618,1.21366c-0.30126,-0.02531 -0.60231,-0.0492 -0.90319,-0.07148l-0.65996,0.07925c0,0 -0.41577,0 -0.88985,-0.17872c-2.37723,-0.1275 -4.74722,-0.1316 -7.12635,0.08941c-0.12412,0.07063 -0.25003,0.12655 -0.3716,0.17084c-0.36349,0.16937 -0.83551,0.28913 -1.35164,0.16601c-3.45536,-0.03386 -7.1171,-0.39958 -10.51504,-0.01097z" fill="#bee484"/></g></g></svg>